<?xml version="1.0" encoding="UTF-8" standalone="no"?>

<svg width="1024" height="1024" viewBox="0 0 1024 1024" fill="none" xmlns="http://www.w3.org/2000/svg">
    <g clip-path="url(#clip0)">
        <rect width="1024" height="1024" fill="#F8935A" />
        <g clip-path="url(#clip1)">
            <path
                d="M-817 1189.7C-817 1141.73 -816.067 1135.27 -804.074 1112.15C-787.95 1079.83 -761.165 1059.98 -695.603 1031.86C-667.02 1019.4 -618.048 996.812 -586.2 980.622C-554.351 964.964 -521.57 950.639 -513.308 948.773C-477.329 940.911 -424.226 967.696 -348.537 1031.86C-263.652 1103.42 -238.267 1096.49 -203.154 990.35C-192.56 957.102 -178.235 920.19 -172.238 907.264C-166.242 894.805 -154.715 868.486 -146.853 849.564C-115.004 773.408 -96.082 754.952 -51.7742 755.418C-0.537048 756.351 46.9689 794.662 62.6932 847.698C69.1562 870.752 69.1562 876.748 62.6932 919.257C48.3682 1007.41 27.6467 1053.11 -26.8552 1114.94C-42.5128 1132.47 -58.7036 1155.99 -63.3009 1167.11C-70.2302 1185.57 -70.2302 1188.84 -63.3009 1211.42C-58.7036 1224.81 -55.4387 1237.27 -55.4387 1238.67C-55.4387 1240.54 -226.673 1241.87 -436.153 1241.87C-816.867 1241.87 -816.867 1241.87 -816.867 1189.7H-817Z"
                fill="#6986E8" />
            <path
                d="M650.554 1197.1C620.572 1103.42 621.505 1045.25 654.685 946.975C664.813 917.458 676.406 881.012 680.537 865.755C689.332 833.44 705.922 802.524 725.778 781.736C753.029 752.686 776.549 763.747 813.461 821.913C822.256 835.772 834.249 860.691 839.779 876.815C868.362 954.837 921.931 1009.27 1040.06 1080.36C1110.69 1122.81 1128.68 1144.06 1124.55 1180.97C1123.15 1193.43 1117.15 1208.69 1108.42 1220.22C1094.57 1239.61 1094.57 1239.61 879.955 1241.01C664.879 1241.94 664.879 1241.94 650.621 1197.16L650.554 1197.1Z"
                fill="#6986E8" />
            <path
                d="M731.308 654.81C711.92 647.88 673.608 622.495 658.883 606.837C640.427 587.448 631.166 561.597 634.897 541.275C643.692 491.903 687.534 431.871 729.976 412.083C771.952 392.694 850.44 388.563 882.288 404.687C912.737 420.345 916.868 454.991 895.214 516.822C873.959 579.12 836.581 623.428 784.944 650.212C762.824 661.272 752.629 662.205 731.442 654.81H731.308Z"
                fill="#6986E8" />
            <path
                d="M1256.47 586.049C1233.42 579.12 1212.63 550.07 1188.64 490.971C1151.73 400.956 1136.94 386.231 1060.79 363.111C1018.34 350.185 1000.35 339.125 990.159 319.269C973.102 286.488 966.173 92.6667 980.032 28.5037C997.089 -51.7834 1035.87 -74.437 1109.69 -48.1188C1131.41 -40.2567 1203.37 -38.8575 1228.75 -46.2532C1250.48 -52.2498 1257.8 -63.7765 1261.54 -97.4904C1264.33 -123.342 1289.25 -203.629 1306.31 -241.94C1314.64 -260.397 1314.64 -259.93 1314.64 -144.996C1315.11 -66.5749 1313.24 -27.3308 1310.04 -24.066C1306.84 -20.8679 1305.91 -9.74095 1308.18 7.78229C1310.04 23.0402 1312.31 157.763 1313.24 308.209C1315.57 581.385 1315.57 581.385 1297.98 586.049C1277.66 591.579 1276.26 591.579 1256.47 586.049Z"
                fill="#6986E8" />
            <path
                d="M445.206 226.99C412.425 210.399 400.898 174.353 419.354 146.236C431.347 128.246 445.672 120.851 469.192 120.384C519.497 119.918 550.878 194.208 512.101 222.392C493.645 236.251 466.86 237.65 445.206 226.99Z"
                fill="#6986E8" />
            <path
                d="M66.7568 1233.08C63.5587 1222.48 74.619 1189.23 95.3404 1148.19C120.726 1097.42 133.185 1056.84 147.044 982.021C159.503 914.193 177.493 854.161 191.818 832.507C195.483 826.511 202.878 821.913 207.942 821.913C222.267 821.913 256.847 841.302 302.088 874.549C337.134 900.401 346.396 904.999 362.053 904.999C384.174 904.999 393.902 896.204 439.142 836.238C476.054 786.867 487.581 778.072 516.698 778.072C543.482 778.072 560.539 789.132 575.797 816.383C591.921 845.433 593.786 883.744 580.861 946.508C564.737 1024.93 565.603 1114.94 582.726 1183.24C589.656 1210.96 595.186 1235.41 595.186 1237.67C595.186 1240.01 489.513 1241.8 332.604 1241.8C79.2163 1241.8 69.5552 1241.34 66.7568 1233.01V1233.08Z"
                fill="#7DDDD1" />
            <path
                d="M1046.06 983.42C1008.21 973.759 957.91 937.713 943.585 910.062C935.256 893.006 926.062 834.373 926.062 796.061C926.062 753.619 940.387 725.902 970.369 711.577C1009.61 692.654 1035.93 701.916 1093.56 754.952C1138.34 795.995 1153.53 804.323 1209.43 814.917C1258.34 824.578 1280.52 836.638 1298.98 862.423C1326.7 902.134 1314.24 939.512 1265.27 963.498C1241.75 975.025 1232.02 976.891 1176.65 979.622C1142.47 981.021 1102.83 983.753 1088.97 985.152C1075.11 986.552 1055.72 985.619 1046.06 983.287V983.42Z"
                fill="#7DDDD1" />
            <path
                d="M18.7849 625.293C-8.93244 611.435 -24.1237 591.113 -22.2581 570.391C-20.8589 557.932 -19.06 556.533 -2.4029 555.134C23.9153 553.268 55.2972 574.056 69.1559 602.173C74.686 614.166 77.9508 626.626 76.5516 630.357C72.4207 640.951 46.1025 638.685 18.8515 625.293H18.7849Z"
                fill="#7DDDD1" />
            <path
                d="M415.223 465.119C373.247 442.532 269.373 371.439 248.652 351.118C221.401 323.867 212.206 295.283 223.267 271.297C231.595 254.24 246.786 244.979 267.108 244.979C282.766 244.979 315.547 262.036 369.116 298.948C408.826 326.199 424.484 333.128 499.707 353.85C503.838 355.249 514.033 361.712 521.428 368.175C538.485 382.033 539.418 399.557 525.559 428.14C504.305 471.515 456.799 487.706 415.289 465.052L415.223 465.119Z"
                fill="#7DDDD1" />
            <path
                d="M675.006 293.951C655.618 285.156 648.688 270.897 649.621 240.448C650.554 208.6 640.826 173.553 615.041 111.256C580.861 28.637 551.811 0.0534973 491.845 -10.1406C453.534 -16.6036 422.152 -9.67424 374.646 15.2447C262.977 74.344 262.511 74.344 241.256 74.344C229.73 74.344 201.08 67.8811 178.026 60.0189C82.4812 27.2378 52.9649 4.65083 36.3745 -50.2509C19.3176 -106.552 28.9787 -146.729 65.8908 -176.245C80.2158 -188.238 88.4777 -191.036 112.93 -192.369C147.977 -194.701 178.026 -186.372 262.911 -151.326C294.759 -138.4 344.13 -119.478 373.18 -109.35C421.153 -92.2933 432.28 -90.4277 490.846 -86.7632C526.825 -84.8976 581.794 -80.7666 613.575 -77.9682C648.622 -74.7701 697.127 -73.8373 736.771 -75.6362C798.135 -78.8344 803.666 -78.4346 823.054 -68.7069C849.839 -55.781 868.761 -34.1268 880.755 -2.27849C901.543 53.556 897.811 114.921 868.761 194.342C846.641 254.773 836.447 269.098 804.132 284.823C782.011 295.883 770.885 298.215 733.506 299.148C702.591 300.081 685.534 298.681 674.873 294.084L675.006 293.951Z"
                fill="#7DDDD1" />
        </g>
    </g>
    <defs>
        <clipPath id="clip0">
            <rect width="1024" height="1024" fill="white" />
        </clipPath>
        <clipPath id="clip1">
            <rect width="2132.1" height="1599.08" fill="white" transform="translate(-817 -359.539)" />
        </clipPath>
    </defs>
</svg>