<svg viewBox="0 0 220 44" version="1.1" xmlns="http://www.w3.org/2000/svg" xmlns:xlink="http://www.w3.org/1999/xlink">
    <g id="logo/pos" stroke="none" stroke-width="1" fill="none" fill-rule="evenodd"
        transform="translate(-20.000000, -18.000000)">
        <g transform="translate(20.000000, 18.000000)" fill="#1E6E8C">
            <g>
                <path
                    d="M145.909268,31.9095526 C148.398163,37.6336053 156.666689,38.1668158 160.701953,35.2008684 C162.382058,33.9659737 163.418374,31.9060789 163.277689,29.6452895 C163.147426,27.5356053 162.071163,25.7935526 160.298426,24.9158684 C156.113216,22.8443947 151.798321,23.0991316 151.912374,20.6420789 C151.969689,19.4089211 153.125268,18.5555526 155.222795,18.6782895 C156.807953,18.7720789 157.770742,19.5716053 158.606742,20.6999737 L162.731742,18.4299211 C162.056111,17.2934474 161.2259,16.4018684 160.198268,15.7106053 C158.168479,14.3431316 155.775111,13.8521842 153.089953,14.2470263 C151.100111,14.5399737 149.539847,15.3227105 148.323479,16.6392368 C146.231163,18.9040789 146.284426,22.6857632 148.447953,24.7705526 C150.517689,26.7650263 153.914953,27.2322368 156.647584,28.3773947 C159.0479,29.3841842 158.403532,31.8945 155.984111,32.4039737 C153.663689,32.8926053 151.228058,31.8308158 150.0829,29.5520789 L145.909268,31.9095526 Z"
                    id="Fill-1"></path>
                <polygon id="Fill-3"
                    points="96.2778474 36.2397895 101.955584 36.2397895 106.786321 29.4510526 111.576532 36.2415263 117.506111 36.2397895 109.752268 25.2617895 117.121689 14.8100526 111.436426 14.8117895 106.8969 21.2259474 102.342321 14.8100526 96.4399526 14.8123684 103.930374 25.4163684">
                </polygon>
                <path
                    d="M130.121663,31.9565053 C126.577347,31.9565053 123.704032,29.0831895 123.704032,25.5388737 C123.704032,21.9945579 126.577347,19.1212421 130.121663,19.1212421 C133.665979,19.1212421 136.539295,21.9945579 136.539295,25.5388737 C136.539295,29.0831895 133.665979,31.9565053 130.121663,31.9565053 Z M136.433347,14.8202421 L136.433347,17.0769789 C134.549453,15.2689263 132.1144,14.1683474 129.217347,14.1683474 C123.528032,14.1683474 118.690347,19.0986632 118.690347,25.5388737 C118.690347,31.2554 122.8304,36.9099789 129.329084,36.9099789 C132.080821,36.9099789 134.588242,35.7931895 136.477347,33.9608211 L136.477347,36.2412947 L141.532137,36.2412947 L141.532137,14.8202421 L136.433347,14.8202421 Z"
                    id="Fill-5"></path>
                <path
                    d="M81.5293947,31.9565053 C77.9850789,31.9565053 75.1117632,29.0831895 75.1117632,25.5388737 C75.1117632,21.9945579 77.9850789,19.1212421 81.5293947,19.1212421 C85.0737105,19.1212421 87.9470263,21.9945579 87.9470263,25.5388737 C87.9470263,29.0831895 85.0737105,31.9565053 81.5293947,31.9565053 Z M87.8410789,14.8202421 L87.8410789,17.0769789 C85.9571842,15.2689263 83.5221316,14.1683474 80.6250789,14.1683474 C74.9357632,14.1683474 70.0980789,19.0986632 70.0980789,25.5388737 C70.0980789,31.2554 74.2381316,36.9099789 80.7368158,36.9099789 C83.4885526,36.9099789 85.9959737,35.7931895 87.8845,33.9608211 L87.8845,36.2412947 L92.9398684,36.2412947 L92.9398684,14.8202421 L87.8410789,14.8202421 Z"
                    id="Fill-7"></path>

                <path
                    d="M11.4312,31.9757263 C7.88688421,31.9757263 5.01414737,29.1024105 5.01414737,25.5580947 C5.01414737,22.0137789 7.88688421,19.1404632 11.4312,19.1404632 C14.9755158,19.1404632 17.8488316,22.0137789 17.8488316,25.5580947 C17.8488316,29.1024105 14.9755158,31.9757263 11.4312,31.9757263 Z M17.7428842,14.8400421 L17.7428842,17.0962 C15.8595684,15.2887263 13.4245158,14.1875684 10.5268842,14.1875684 C4.83756842,14.1875684 -0.000115789474,19.1178842 -0.000115789474,25.5580947 C-0.000115789474,31.2746211 4.14051579,36.9292 10.6386211,36.9292 C13.3903579,36.9292 15.8977789,35.8124105 17.7868842,33.9800421 L17.7868842,36.2605158 L22.8416737,36.2605158 L22.8416737,14.8400421 L17.7428842,14.8400421 Z"
                    id="Fill-9"></path>

                <path
                    d="M39.8055842,31.9757263 C36.2612684,31.9757263 33.3879526,29.1024105 33.3879526,25.5580947 C33.3879526,22.0137789 36.2612684,19.1404632 39.8055842,19.1404632 C43.3499,19.1404632 46.2232158,22.0137789 46.2232158,25.5580947 C46.2232158,29.1024105 43.3499,31.9757263 39.8055842,31.9757263 M40.8772158,14.1539895 C37.7381632,14.1539895 35.1022158,15.4132 33.4857947,17.1106737 L33.4857947,6.02556842 L28.4414263,6.02556842 L28.4414263,36.2547263 L33.5089526,36.2547263 L33.5089526,33.9887263 C35.3505842,35.7076211 37.6015316,36.9095158 40.6907947,36.9095158 C46.1392684,36.9095158 51.2149,32.4180421 51.2149,25.5389895 C51.2149,18.5893053 46.2388474,14.1539895 40.8772158,14.1539895"
                    id="Fill-12"></path>
                <path
                    d="M68.2178316,14.2352737 C61.2409368,14.3394842 59.9000947,18.2624316 59.9000947,18.2624316 L59.9000947,14.8223263 L54.8615158,14.8223263 L54.8615158,36.2352737 L59.9267263,36.2352737 L59.9452526,25.8518526 C60.3111474,19.4197474 66.8538316,19.7937474 68.2178316,19.9413789 L68.2178316,14.2352737 Z"
                    id="Fill-14"></path>
                <path
                    d="M219.973832,1.21405263 L208.431358,1.21405263 L208.431358,6.80436842 C212.116358,10.7284737 214.388726,16.0252632 214.388726,21.8714737 C214.388726,27.7176842 212.116358,33.0150526 208.431358,36.9397368 L208.431358,42.6058947 L219.973832,42.6058947 L219.973832,1.21405263 Z"
                    id="Fill-16"></path>
                <path
                    d="M204.230863,21.8124789 C204.230863,28.2000053 199.125126,33.3781105 192.828495,33.3781105 C186.531863,33.3781105 181.426126,28.2000053 181.426126,21.8124789 C181.426126,15.4249526 186.531863,10.2468474 192.828495,10.2468474 C199.125126,10.2468474 204.230863,15.4249526 204.230863,21.8124789 M208.431705,36.9392158 L208.431705,6.80500526 C204.501811,2.62153158 198.972863,5.78947368e-05 192.828495,5.78947368e-05 C180.918968,5.78947368e-05 171.264442,9.79295263 171.264442,21.8715316 C171.264442,33.9518474 180.918968,43.7435842 192.828495,43.7435842 C198.972863,43.7435842 204.501811,41.1226895 208.431705,36.9392158"
                    id="Fill-18"></path>
            </g>
        </g>
    </g>
</svg>