<svg viewBox="0 0 220 44" xmlns="http://www.w3.org/2000/svg"><g fill="#1E6E8C" fill-rule="evenodd"><path d="M145.91 31.91c2.488 5.724 10.757 6.257 14.792 3.29a6.388 6.388 0 0 0 2.576-5.555c-.13-2.11-1.207-3.851-2.98-4.73-4.185-2.07-8.5-1.816-8.386-4.273.058-1.233 1.213-2.086 3.31-1.964 1.586.094 2.549.894 3.385 2.022l4.125-2.27c-.676-1.137-1.506-2.028-2.534-2.72-2.03-1.367-4.423-1.858-7.108-1.463-1.99.293-3.55 1.076-4.767 2.392-2.092 2.265-2.039 6.047.125 8.132 2.07 1.994 5.467 2.461 8.2 3.606 2.4 1.007 1.756 3.518-.664 4.027a5.33 5.33 0 0 1-5.901-2.852l-4.174 2.358ZM96.278 36.24h5.678l4.83-6.789 4.791 6.791 5.929-.002-7.754-10.978 7.37-10.452-5.686.002-4.539 6.414-4.555-6.416-5.902.002 7.49 10.604zM130.122 31.957a6.418 6.418 0 1 1 0-12.836 6.418 6.418 0 0 1 0 12.836Zm6.311-17.137v2.257c-1.884-1.808-4.319-2.909-7.216-2.909-5.689 0-10.527 4.93-10.527 11.37 0 5.717 4.14 11.372 10.64 11.372 2.75 0 5.258-1.117 7.147-2.95v2.281h5.055v-21.42h-5.099ZM81.53 31.957a6.418 6.418 0 1 1 0-12.836 6.418 6.418 0 0 1 0 12.836ZM87.84 14.82v2.257c-1.884-1.808-4.319-2.909-7.216-2.909-5.69 0-10.527 4.93-10.527 11.37 0 5.717 4.14 11.372 10.639 11.372 2.752 0 5.259-1.117 7.148-2.95v2.281h5.055v-21.42H87.84ZM11.431 31.976a6.417 6.417 0 0 1-6.417-6.418 6.417 6.417 0 1 1 6.417 6.418Zm6.312-17.136v2.256c-1.883-1.807-4.318-2.908-7.216-2.908C4.837 14.188 0 19.118 0 25.558 0 31.275 4.14 36.93 10.639 36.93c2.751 0 5.259-1.117 7.148-2.949v2.28h5.055V14.84h-5.1ZM39.806 31.976a6.418 6.418 0 1 1 0-12.836 6.418 6.418 0 0 1 0 12.836m1.071-17.822c-3.139 0-5.775 1.26-7.391 2.957V6.026H28.44v30.229h5.068v-2.266c1.842 1.719 4.093 2.92 7.182 2.92 5.448 0 10.524-4.491 10.524-11.37 0-6.95-4.976-11.385-10.338-11.385M68.218 14.235c-6.977.104-8.318 4.027-8.318 4.027v-3.44h-5.038v21.413h5.065l.018-10.383c.366-6.432 6.909-6.058 8.273-5.91v-5.707ZM219.974 1.214H208.43v5.59a21.936 21.936 0 0 1 5.958 15.067 21.94 21.94 0 0 1-5.958 15.069v5.666h11.543V1.214Z"/><path d="M204.23 21.812c0 6.388-5.105 11.566-11.402 11.566-6.296 0-11.402-5.178-11.402-11.566 0-6.387 5.106-11.565 11.402-11.565 6.297 0 11.403 5.178 11.403 11.565m4.2 15.127V6.805C204.502 2.622 198.974 0 192.829 0c-11.909 0-21.564 9.793-21.564 21.872 0 12.08 9.655 21.872 21.564 21.872 6.145 0 11.674-2.621 15.604-6.805"/></g></svg>
