<svg viewBox="0 0 387 88" fill="none" xmlns="http://www.w3.org/2000/svg">
  <path d="M86 84.1808V68.1619H88.0024V82.3076H95.7104V84.1808H86Z" fill="black" />
  <path
    d="M107.1 79.0785H99.0046C99.0046 80.112 99.4136 81.2532 100.103 81.9421C100.619 82.4589 101.33 82.7603 102.213 82.7603C103.117 82.7603 103.871 82.5019 104.344 82.0067C104.667 81.6838 104.861 81.3823 105.012 80.7579H106.885C106.734 81.8775 106.045 82.9541 105.119 83.5785C104.301 84.1167 103.289 84.4397 102.213 84.4397C100.598 84.4397 99.306 83.7507 98.4232 82.7172C97.4759 81.6192 97.0022 80.0905 97.0022 78.4757C97.0022 77.0977 97.2606 75.8705 97.885 74.8155C98.7031 73.4375 100.21 72.4255 102.213 72.4255C103.677 72.4255 104.861 72.9853 105.701 73.8896C106.626 74.9016 107.165 76.3657 107.143 77.9159L107.1 79.0785ZM104.473 75.1169C104 74.4925 103.225 74.0834 102.213 74.0834C100.124 74.0834 99.1122 75.7843 99.0691 77.4422H105.162C105.162 76.581 104.926 75.7197 104.473 75.1169Z"
    fill="black"
  />
  <path
    d="M115.497 74.5136C114.593 74.5136 113.839 74.9226 113.322 75.4179C112.397 76.3006 112.289 77.8724 112.289 79.0781V84.1594H110.394V72.7265H112.095L112.246 74.7289C112.827 73.3294 114.205 72.6404 115.648 72.6404C115.949 72.6404 116.251 72.6619 116.552 72.705V74.5782C116.208 74.5351 115.842 74.5136 115.497 74.5136Z"
    fill="black"
  />
  <path
    d="M126.499 84.1808V76.9249C126.499 75.2024 125.789 74.1905 123.98 74.1905C122.882 74.1905 121.999 74.9225 121.504 75.956C121.117 76.7957 121.095 77.9799 121.095 78.8627V84.1808H119.179V72.7479H120.858L121.009 74.4704C121.59 73.157 123.184 72.468 124.476 72.468C127.081 72.468 128.437 74.0182 128.437 76.6665V84.2023H126.499V84.1808Z"
    fill="black"
  />
  <path
    d="M141.657 79.0785H133.562C133.562 80.112 133.971 81.2532 134.66 81.9421C135.176 82.4589 135.887 82.7603 136.77 82.7603C137.674 82.7603 138.428 82.5019 138.901 82.0067C139.224 81.6838 139.418 81.3823 139.569 80.7579H141.442C141.291 81.8775 140.602 82.9541 139.676 83.5785C138.858 84.1167 137.846 84.4397 136.77 84.4397C135.155 84.4397 133.863 83.7507 132.98 82.7172C132.033 81.6192 131.559 80.0905 131.559 78.4757C131.559 77.0977 131.818 75.8705 132.442 74.8155C133.26 73.4375 134.767 72.4255 136.77 72.4255C138.234 72.4255 139.418 72.9853 140.258 73.8896C141.183 74.9016 141.722 76.3657 141.7 77.9159L141.657 79.0785ZM139.009 75.1169C138.535 74.4925 137.76 74.0834 136.748 74.0834C134.66 74.0834 133.648 75.7843 133.605 77.4422H139.698C139.698 76.581 139.461 75.7197 139.009 75.1169Z"
    fill="black"
  />
  <path
    d="M152.25 84.1808V76.9249C152.25 75.2024 151.54 74.1905 149.731 74.1905C148.633 74.1905 147.75 74.9225 147.255 75.956C146.867 76.7957 146.846 77.9799 146.846 78.8627V84.1808H144.93V72.7479H146.609L146.76 74.4704C147.341 73.157 148.934 72.468 150.226 72.468C152.831 72.468 154.188 74.0182 154.188 76.6665V84.2023H152.25V84.1808Z"
    fill="black"
  />
  <path
    d="M158.494 87.7338L157.913 86.6788C159.097 86.162 159.355 85.4731 159.355 84.2027H157.956V81.5544H160.712V84.2027C160.712 85.8606 160.152 87.0448 158.494 87.7338Z"
    fill="black"
  />
  <path
    d="M180.003 84.1811H178.152L175.159 75.4396L172.102 84.1811H170.272L167.343 72.7483H169.238L171.434 81.3821L174.341 72.8775H175.999L178.862 81.3821L181.08 72.7483H182.953L180.003 84.1811Z"
    fill="black"
  />
  <path
    d="M185.601 70.1213V67.8606H187.841V70.1213H185.601ZM185.731 84.1809V72.7481H187.69V84.1809H185.731Z"
    fill="black"
  />
  <path
    d="M199.381 83.1692C198.498 84.0735 197.142 84.461 195.656 84.461C194.235 84.461 192.922 84.1166 191.953 83.1692C191.242 82.4802 190.855 81.5113 190.855 80.5424H192.771C192.793 81.3391 193.159 81.9204 193.697 82.3295C194.214 82.7171 195.032 82.8462 195.742 82.8462C196.539 82.8462 197.249 82.7171 197.852 82.2218C198.175 81.9635 198.412 81.4898 198.412 80.9731C198.412 80.1118 197.809 79.509 196.625 79.3367L194.041 78.9922C192.319 78.7123 191.242 77.6573 191.242 75.9133C191.242 75.0306 191.673 74.1909 192.19 73.6741C192.943 72.899 194.127 72.4038 195.548 72.4038C197.056 72.4038 198.412 72.8775 199.187 73.8464C199.682 74.4492 200.005 75.1167 200.005 76.0425H198.089C198.068 75.4612 197.766 74.9014 197.443 74.6215C196.969 74.1909 196.345 74.0186 195.57 74.0186C195.118 74.0186 194.773 74.0186 194.235 74.2555C193.503 74.5569 193.094 75.1598 193.094 75.7841C193.094 76.7315 193.675 77.1406 194.623 77.2698C195.247 77.3559 196.151 77.442 197.379 77.6573C199.015 77.9372 200.285 79.0999 200.285 80.8223C200.285 81.8343 199.919 82.6094 199.381 83.1692Z"
    fill="black"
  />
  <path
    d="M211.374 83.1692C210.491 84.0735 209.135 84.461 207.649 84.461C206.228 84.461 204.914 84.1166 203.946 83.1692C203.235 82.4802 202.848 81.5113 202.848 80.5424H204.764C204.785 81.3391 205.151 81.9204 205.69 82.3295C206.206 82.7171 207.025 82.8462 207.757 82.8462C208.553 82.8462 209.264 82.7171 209.867 82.2218C210.19 81.9635 210.426 81.4898 210.426 80.9731C210.426 80.1118 209.824 79.509 208.639 79.3367L206.056 78.9922C204.333 78.7123 203.257 77.6573 203.257 75.9133C203.257 75.0306 203.687 74.1909 204.204 73.6741C204.958 72.899 206.142 72.4038 207.563 72.4038C209.07 72.4038 210.426 72.8775 211.201 73.8464C211.697 74.4492 212.02 75.1167 212.02 76.0425H210.103C210.082 75.4612 209.78 74.9014 209.457 74.6215C208.984 74.1909 208.359 74.0186 207.584 74.0186C207.132 74.0186 206.788 74.0186 206.249 74.2555C205.517 74.5569 205.087 75.1598 205.087 75.7841C205.087 76.7315 205.668 77.1406 206.615 77.2698C207.24 77.3559 208.144 77.442 209.371 77.6573C211.008 77.9372 212.278 79.0999 212.278 80.8223C212.278 81.8343 211.912 82.6094 211.374 83.1692Z"
    fill="black"
  />
  <path
    d="M224.874 79.0785H216.778C216.778 80.112 217.187 81.2532 217.876 81.9421C218.393 82.4589 219.103 82.7603 219.986 82.7603C220.89 82.7603 221.644 82.5019 222.118 82.0067C222.441 81.6838 222.634 81.3823 222.785 80.7579H224.658C224.508 81.8775 223.819 82.9541 222.893 83.5785C222.075 84.1167 221.063 84.4397 219.986 84.4397C218.371 84.4397 217.079 83.7507 216.197 82.7172C215.249 81.6192 214.776 80.0905 214.776 78.4757C214.776 77.0977 215.034 75.8705 215.658 74.8155C216.477 73.4375 217.984 72.4255 219.965 72.4255C221.429 72.4255 222.613 72.9853 223.453 73.8896C224.378 74.9016 224.917 76.3657 224.895 77.9159L224.874 79.0785ZM222.225 75.1169C221.752 74.4925 220.977 74.0834 219.965 74.0834C217.876 74.0834 216.864 75.7843 216.821 77.4422H222.914C222.936 76.581 222.677 75.7197 222.225 75.1169Z"
    fill="black"
  />
  <path
    d="M235.467 84.1808V76.9249C235.467 75.2024 234.756 74.1905 232.948 74.1905C231.849 74.1905 230.967 74.9225 230.45 75.956C230.062 76.7957 230.041 77.9799 230.041 78.8627V84.1808H228.125V72.7479H229.804L229.955 74.4704C230.536 73.157 232.129 72.468 233.421 72.468C236.026 72.468 237.383 74.0182 237.383 76.6665V84.2023H235.467V84.1808Z"
    fill="black"
  />
  <path
    d="M241.711 87.7338L241.129 86.6788C242.314 86.162 242.572 85.4731 242.572 84.2027H241.172V81.5544H243.928V84.2027C243.928 85.8606 243.369 87.0448 241.711 87.7338Z"
    fill="black"
  />
  <path
    d="M255.77 84.3316C253.316 84.3316 252.627 82.7814 252.627 81.2311V74.3844H250.409V72.7265H252.627V69.8198L254.543 69.3677V72.7265H257.923V74.3844H254.543V81.0158C254.543 82.1139 255.017 82.566 256.072 82.566C256.89 82.566 258.031 82.3723 258.031 82.3723V84.0301C257.536 84.1593 256.847 84.3316 255.77 84.3316Z"
    fill="black"
  />
  <path
    d="M270.045 79.0785H261.95C261.95 80.112 262.359 81.2532 263.048 81.9421C263.564 82.4589 264.275 82.7603 265.158 82.7603C266.062 82.7603 266.816 82.5019 267.289 82.0067C267.612 81.6838 267.806 81.3823 267.978 80.7579H269.851C269.701 81.8775 269.012 82.9541 268.086 83.5785C267.268 84.1167 266.256 84.4397 265.179 84.4397C263.564 84.4397 262.273 83.7507 261.39 82.7172C260.442 81.6192 259.969 80.0905 259.969 78.4757C259.969 77.0977 260.227 75.8705 260.852 74.8155C261.67 73.4375 263.177 72.4255 265.158 72.4255C266.622 72.4255 267.806 72.9853 268.646 73.8896C269.571 74.9016 270.11 76.3657 270.088 77.9159L270.045 79.0785ZM267.397 75.1169C266.923 74.4925 266.148 74.0834 265.136 74.0834C263.048 74.0834 262.036 75.7843 261.993 77.4422H268.086C268.107 76.581 267.849 75.7197 267.397 75.1169Z"
    fill="black"
  />
  <path
    d="M273.146 70.1213V67.8606H275.385V70.1213H273.146ZM273.275 84.1809V72.7481H275.234V84.1809H273.275Z"
    fill="black"
  />
  <path
    d="M281.542 84.3101C279.863 84.3101 279.152 83.3197 279.152 81.5111V67.8606H281.069V81.4035C281.069 82.1786 281.327 82.5877 282.102 82.5877C282.727 82.5877 282.899 82.5661 282.899 82.5661V84.2025C282.899 84.1809 282.468 84.3101 281.542 84.3101Z"
    fill="black"
  />
  <path
    d="M294.849 79.0785H286.753C286.753 80.112 287.162 81.2532 287.851 81.9421C288.368 82.4589 289.078 82.7603 289.961 82.7603C290.865 82.7603 291.619 82.5019 292.093 82.0067C292.416 81.6838 292.609 81.3823 292.76 80.7579H294.633C294.483 81.8775 293.794 82.9541 292.868 83.5785C292.05 84.1167 291.038 84.4397 289.961 84.4397C288.346 84.4397 287.055 83.7507 286.172 82.7172C285.224 81.6192 284.751 80.0905 284.751 78.4757C284.751 77.0977 285.009 75.8705 285.633 74.8155C286.452 73.4375 287.959 72.4255 289.94 72.4255C291.404 72.4255 292.588 72.9853 293.428 73.8896C294.353 74.9016 294.892 76.3657 294.87 77.9159L294.849 79.0785ZM292.222 75.1169C291.748 74.4925 290.973 74.0834 289.961 74.0834C287.873 74.0834 286.861 75.7843 286.818 77.4422H292.911C292.911 76.581 292.674 75.7197 292.222 75.1169Z"
    fill="black"
  />
  <path
    d="M305.463 84.1808V76.9249C305.463 75.2024 304.753 74.1905 302.944 74.1905C301.846 74.1905 300.963 74.9225 300.468 75.956C300.081 76.7957 300.059 77.9799 300.059 78.8627V84.1808H298.143V72.7479H299.822L299.973 74.4704C300.554 73.157 302.148 72.468 303.439 72.468C306.045 72.468 307.401 74.0182 307.401 76.6665V84.2023H305.463V84.1808Z"
    fill="black"
  />
  <path d="M311.126 84.1811V81.4897H313.796V84.1811H311.126Z" fill="black" />
  <path
    d="M101.742 51.2687C100.295 52.4569 98.4746 53.0966 96.6022 53.0752C95.4501 53.1391 94.3002 52.915 93.2564 52.4232C92.2126 51.9313 91.3078 51.1872 90.6237 50.258L90.3011 52.5806H86V23.0967H91.0968V32.9031C91.8224 32.1741 92.6933 31.6058 93.6529 31.2353C94.6125 30.8648 95.6394 30.7004 96.6667 30.7526C98.5431 30.6967 100.379 31.3061 101.849 32.473C103.165 33.6546 104.192 35.1218 104.852 36.7621C105.511 38.4024 105.787 40.1722 105.656 41.9354C105.766 43.6875 105.471 45.4414 104.792 47.0603C104.113 48.6793 103.069 50.1195 101.742 51.2687ZM99.0107 36.7741C98.6057 36.2478 98.0842 35.8225 97.4872 35.5315C96.8902 35.2405 96.234 35.0916 95.5699 35.0967C91.5699 35.0967 90.7527 38.8601 90.7527 41.9354C90.6607 42.9726 90.7749 44.0177 91.0886 45.0105C91.4023 46.0034 91.9094 46.9243 92.5806 47.7203C93.3963 48.4589 94.4707 48.8454 95.5699 48.7956C96.234 48.8006 96.8902 48.6518 97.4872 48.3608C98.0842 48.0698 98.6057 47.6445 99.0107 47.1182C99.9949 45.5763 100.462 43.7608 100.344 41.9354C100.457 40.1172 99.9905 38.3099 99.0107 36.7741Z"
    fill="#175A97"
  />
  <path
    d="M127.978 43.5483H113.763C113.72 44.3129 113.835 45.0784 114.101 45.7964C114.367 46.5144 114.78 47.1695 115.312 47.7204C115.718 48.1411 116.207 48.4744 116.746 48.7C117.286 48.9255 117.867 49.0386 118.452 49.0322C119.367 49.1592 120.296 48.941 121.06 48.4203C121.823 47.8996 122.365 47.1134 122.581 46.215H127.441C127.19 47.6547 126.567 49.004 125.634 50.129C124.738 51.1228 123.633 51.9062 122.399 52.4229C121.165 52.9397 119.831 53.1772 118.495 53.1182C117.257 53.1533 116.026 52.9391 114.873 52.4884C113.72 52.0377 112.67 51.3596 111.785 50.4946C110.689 49.3769 109.833 48.0466 109.271 46.5856C108.709 45.1246 108.452 43.564 108.516 41.9999C108.362 38.8385 109.468 35.7451 111.591 33.3978C112.477 32.5111 113.535 31.8152 114.7 31.3529C115.865 30.8906 117.113 30.6716 118.366 30.7096C119.885 30.6542 121.393 30.984 122.751 31.6683C124.108 32.3527 125.27 33.3693 126.129 34.6236C127.526 36.826 128.175 39.4207 127.978 42.0214C127.978 42.0214 127.978 43.1182 127.978 43.5483ZM121.527 36.129C121.103 35.713 120.597 35.3893 120.042 35.1784C119.487 34.9674 118.894 34.8737 118.301 34.9032C117.623 34.8761 116.947 35.0102 116.331 35.2942C115.714 35.5783 115.173 36.0044 114.753 36.5376C114.017 37.4824 113.63 38.6521 113.656 39.8494H122.839C122.892 38.4984 122.448 37.1748 121.591 36.129H121.527Z"
    fill="#175A97"
  />
  <path
    d="M143.011 35.8711C142.238 35.85 141.47 35.9958 140.759 36.2986C140.047 36.6013 139.41 37.0539 138.889 37.6254C138.369 38.1969 137.978 38.874 137.743 39.6104C137.507 40.3468 137.434 41.1252 137.527 41.8926V52.6453H132.387V31.3335H136.688L137.14 34.5378C137.675 33.4171 138.536 32.4846 139.611 31.8627C140.686 31.2409 141.923 30.9589 143.161 31.0539C143.694 31.055 144.227 31.0981 144.753 31.1829V36.0862C144.181 35.9527 143.598 35.8806 143.011 35.8711Z"
    fill="#175A97"
  />
  <path
    d="M161.183 52.5808L160.817 49.8066C160.223 50.8803 159.335 51.7623 158.257 52.3489C157.179 52.9355 155.956 53.2024 154.731 53.1185C153.731 53.1712 152.731 53.009 151.799 52.6428C150.867 52.2766 150.024 51.715 149.327 50.9957C148.63 50.2764 148.095 49.4161 147.759 48.4728C147.422 47.5295 147.292 46.525 147.376 45.527V31.3335H152.495V44.3658C152.495 46.8604 153.462 48.4303 156.172 48.4303C156.657 48.4447 157.14 48.3563 157.588 48.171C158.037 47.9857 158.441 47.7076 158.774 47.355C159.338 46.703 159.766 45.9446 160.032 45.1247C160.298 44.3047 160.397 43.4397 160.323 42.5808V31.3335H165.441V52.5808H161.183Z"
    fill="#175A97"
  />
  <path
    d="M180.366 26.8173C180.008 26.7699 179.643 26.8014 179.299 26.9098C178.954 27.0182 178.637 27.2008 178.371 27.4448C178.104 27.6887 177.895 27.9881 177.756 28.3218C177.618 28.6555 177.554 29.0155 177.57 29.3765V31.3335H183.355V35.6345H177.57V52.6668H172.473V35.5485H168.882V31.2474H172.473V29.2259C172.429 28.288 172.59 27.3517 172.944 26.4823C173.299 25.613 173.84 24.8316 174.528 24.1927C175.216 23.5537 176.035 23.0727 176.928 22.7832C177.821 22.4936 178.767 22.4025 179.699 22.5163C181.045 22.5129 182.387 22.6644 183.699 22.9679V27.0539C182.6 26.8552 181.482 26.7759 180.366 26.8173Z"
    fill="#175A97"
  />
  <path
    d="M200.946 50.6667C198.94 52.4073 196.328 53.288 193.678 53.1183C191.158 53.2305 188.695 52.3503 186.817 50.6667C186.151 50.0243 185.618 49.2568 185.249 48.408C184.88 47.5592 184.682 46.6459 184.667 45.7205H189.462C189.467 46.1929 189.571 46.659 189.768 47.0887C189.964 47.5184 190.248 47.9022 190.602 48.2151C191.527 48.9112 192.674 49.2475 193.828 49.1613C195.548 49.1613 198.129 48.7957 198.129 46.4517C198.129 45.8813 197.903 45.3343 197.499 44.931C197.096 44.5277 196.549 44.3011 195.979 44.3011C194.108 44.0216 191.979 43.8925 190.108 43.4839C188.768 43.2417 187.552 42.5446 186.667 41.5102C185.782 40.4759 185.28 39.1677 185.247 37.8065C185.226 36.9006 185.409 36.0015 185.781 35.1753C186.153 34.3492 186.706 33.6169 187.398 33.0323C189.221 31.5655 191.511 30.8023 193.85 30.8818C195.074 30.8161 196.299 30.9974 197.451 31.4149C198.604 31.8324 199.661 32.4775 200.559 33.3119C201.693 34.4672 202.366 35.9966 202.452 37.6129H197.484C197.463 36.8609 197.155 36.1453 196.624 35.6129C195.849 34.9447 194.851 34.5917 193.828 34.6237C193.097 34.5812 192.364 34.691 191.678 34.9463C191.226 35.1077 190.831 35.3969 190.541 35.7787C190.251 36.1605 190.078 36.6185 190.043 37.0968C190.043 38.6022 191.355 39.0538 192.495 39.2474C194.409 39.4839 194.946 39.5269 197.032 39.8495C198.58 39.9689 200.026 40.6693 201.079 41.81C202.132 42.9508 202.714 44.4476 202.71 46C202.74 46.856 202.6 47.7095 202.297 48.5107C201.995 49.3119 201.535 50.0449 200.946 50.6667Z"
    fill="#175A97"
  />
  <path
    d="M223.011 51.2687C221.565 52.4602 219.744 53.1003 217.871 53.0752C216.719 53.1391 215.569 52.915 214.525 52.4232C213.481 51.9313 212.577 51.1872 211.892 50.258L211.57 52.5806H207.161V23.0967H212.28V32.9031C212.999 32.1724 213.866 31.6029 214.823 31.2322C215.779 30.8614 216.804 30.698 217.828 30.7526C219.705 30.693 221.542 31.3028 223.011 32.473C224.326 33.6546 225.353 35.1218 226.013 36.7621C226.673 38.4024 226.948 40.1722 226.817 41.9354C226.941 43.6788 226.662 45.4273 226.002 47.0457C225.342 48.6641 224.318 50.109 223.011 51.2687ZM220.28 36.7741C219.874 36.2478 219.353 35.8225 218.756 35.5315C218.159 35.2405 217.503 35.0916 216.839 35.0967C212.839 35.0967 212.021 38.8601 212.021 41.9354C211.928 42.9743 212.043 44.0215 212.361 45.0151C212.678 46.0087 213.192 46.9286 213.871 47.7203C214.27 48.0874 214.737 48.3715 215.247 48.5561C215.756 48.7407 216.297 48.8221 216.839 48.7956C217.503 48.8006 218.159 48.6518 218.756 48.3608C219.353 48.0698 219.874 47.6445 220.28 47.1182C221.271 45.5788 221.746 43.7632 221.634 41.9354C221.741 40.1148 221.267 38.3074 220.28 36.7741Z"
    fill="#175A97"
  />
  <path
    d="M231.226 28.4087V23.1399H236.71V28.4087H231.226ZM231.398 52.5808V31.3334H236.581V52.5808H231.398Z"
    fill="#175A97"
  />
  <path
    d="M248.258 52.8386C247.479 52.9431 246.687 52.8677 245.942 52.6182C245.197 52.3686 244.519 51.9516 243.961 51.3992C243.402 50.8468 242.977 50.1737 242.72 49.4315C242.462 48.6894 242.377 47.898 242.473 47.1182V23.0537H247.613V46.258C247.613 47.4838 247.892 48.301 249.763 48.301C250.215 48.301 250.344 48.301 250.624 48.301V52.6021C249.851 52.7961 249.054 52.8758 248.258 52.8386Z"
    fill="#175A97"
  />
  <path
    d="M268.086 52.5806L267.742 50.258C267.063 51.1869 266.162 51.9312 265.121 52.4232C264.081 52.9153 262.934 53.1394 261.785 53.0752C259.899 53.0993 258.065 52.4599 256.602 51.2687C255.31 50.1127 254.299 48.6766 253.647 47.0702C252.995 45.4638 252.718 43.7295 252.839 41.9999C252.708 40.2367 252.983 38.467 253.643 36.8267C254.303 35.1863 255.33 33.7191 256.645 32.5375C258.114 31.3673 259.951 30.7575 261.828 30.8171C262.842 30.7388 263.86 30.8766 264.817 31.2214C265.773 31.5661 266.646 32.11 267.376 32.8171V23.0967H272.495V52.5806H268.086ZM262.925 35.0967C262.261 35.0916 261.604 35.2405 261.007 35.5315C260.411 35.8225 259.889 36.2478 259.484 36.7741C258.497 38.3074 258.022 40.1148 258.129 41.9354C258.018 43.7632 258.492 45.5788 259.484 47.1182C259.889 47.6445 260.411 48.0698 261.007 48.3608C261.604 48.6518 262.261 48.8006 262.925 48.7956C266.925 48.7956 267.742 44.9892 267.742 41.9354C267.742 38.8816 266.817 35.0967 262.925 35.0967Z"
    fill="#175A97"
  />
  <path
    d="M291.441 52.5807V39.5484C291.441 37.0538 290.624 35.5484 287.936 35.5484C287.119 35.5707 286.329 35.8423 285.672 36.3267C285.015 36.8111 284.521 37.4851 284.258 38.2581C283.662 40.0878 283.428 42.0163 283.57 43.9355V52.5376H278.452V31.3334H282.753L283.118 34.086C284.001 32.7553 285.293 31.7489 286.8 31.2198C288.306 30.6907 289.944 30.6677 291.465 31.1543C292.986 31.6409 294.306 32.6106 295.226 33.9161C296.145 35.2215 296.613 36.7913 296.559 38.3871V52.5592L291.441 52.5807Z"
    fill="#175A97"
  />
  <path
    d="M320.129 43.5483H305.936C305.897 44.3124 306.014 45.0764 306.281 45.7937C306.547 46.511 306.956 47.1665 307.484 47.7204C308.322 48.5594 309.459 49.0313 310.645 49.0322C311.204 49.0918 311.768 49.0325 312.302 48.8583C312.836 48.6841 313.326 48.3989 313.742 48.0214C314.24 47.5249 314.59 46.8994 314.753 46.215H319.656C319.422 47.6559 318.806 49.0077 317.871 50.129C316.062 51.9762 313.605 53.0472 311.02 53.1154C308.436 53.1836 305.926 52.2437 304.022 50.4946C302.926 49.3769 302.07 48.0466 301.508 46.5856C300.946 45.1246 300.689 43.564 300.753 41.9999C300.591 38.8412 301.689 35.7473 303.807 33.3978C304.697 32.5105 305.758 31.8144 306.927 31.3521C308.096 30.8899 309.346 30.6712 310.602 30.7096C312.121 30.6542 313.63 30.984 314.987 31.6683C316.345 32.3527 317.507 33.3693 318.366 34.6236C319.767 36.8236 320.409 39.422 320.194 42.0214C320.194 42.0214 320.129 43.1182 320.129 43.5483ZM313.678 36.129C313.209 35.7052 312.66 35.3793 312.064 35.1701C311.468 34.961 310.836 34.8729 310.205 34.9109C309.574 34.9489 308.957 35.1124 308.39 35.3917C307.823 35.671 307.318 36.0606 306.903 36.5376C306.152 37.4752 305.756 38.6481 305.785 39.8494H314.989C315.049 38.5012 314.613 37.1779 313.764 36.129H313.678Z"
    fill="#175A97"
  />
  <path
    d="M335.161 35.8709C334.389 35.8494 333.622 35.9951 332.912 36.298C332.201 36.6009 331.565 37.0539 331.046 37.6259C330.527 38.1979 330.138 38.8753 329.905 39.6118C329.673 40.3482 329.603 41.1262 329.699 41.8924V52.6451H324.559V31.3333H328.86L329.312 34.5376C329.84 33.4168 330.698 32.4832 331.769 31.861C332.841 31.2387 334.076 30.9572 335.312 31.0537C335.845 31.054 336.377 31.0971 336.903 31.1828V36.086C336.332 35.9511 335.748 35.879 335.161 35.8709Z"
    fill="#175A97"
  />
  <path d="M335.871 52.5808V46.1292H342.086V52.5808H335.871Z" fill="#175A97" />
  <path
    d="M362.882 49.6775C361.998 50.7444 360.886 51.5996 359.628 52.1802C358.37 52.7608 356.998 53.052 355.613 53.0324C354.21 53.0471 352.82 52.7543 351.542 52.1748C350.264 51.5952 349.129 50.7428 348.215 49.6775C346.573 47.4404 345.745 44.7082 345.871 41.9356C345.742 39.1559 346.569 36.416 348.215 34.1722C349.129 33.1069 350.264 32.2545 351.542 31.675C352.82 31.0954 354.21 30.8027 355.613 30.8173C356.998 30.7977 358.37 31.0889 359.628 31.6695C360.886 32.2501 361.998 33.1053 362.882 34.1722C363.873 35.5089 364.443 37.1116 364.516 38.7743H359.484C359.444 38.083 359.237 37.4117 358.882 36.8173C358.519 36.2946 358.027 35.8738 357.455 35.5952C356.883 35.3165 356.249 35.1894 355.613 35.2259C355.031 35.2147 354.452 35.3257 353.915 35.5516C353.378 35.7775 352.894 36.1135 352.495 36.5378C351.386 38.1062 350.889 40.026 351.097 41.9356C350.897 43.8275 351.402 45.7268 352.516 47.2689C352.91 47.7032 353.392 48.0486 353.93 48.2822C354.467 48.5158 355.048 48.6323 355.635 48.6238C356.27 48.6603 356.904 48.5332 357.477 48.2546C358.049 47.9759 358.54 47.5551 358.903 47.0324C359.259 46.438 359.465 45.7667 359.506 45.0754H364.538C364.458 46.7404 363.881 48.3433 362.882 49.6775Z"
    fill="#175A97"
  />
  <path
    d="M381.484 52.5806V39.4838C381.484 37.0107 380.667 35.5053 377.979 35.5053C374.903 35.5053 373.678 38.7741 373.678 41.3978V52.5806H368.559V23.0967H373.678V33.5913C374.355 32.7058 375.232 31.9929 376.237 31.5108C377.243 31.0287 378.348 30.791 379.462 30.8171C380.451 30.7829 381.436 30.9591 382.351 31.3338C383.267 31.7086 384.093 32.2734 384.774 32.991C385.455 33.7086 385.976 34.5626 386.302 35.4965C386.628 36.4304 386.753 37.4229 386.667 38.4085V52.5806H381.484Z"
    fill="#175A97"
  />
  <path d="M64 0H42.6666V21.3333H64V0Z" fill="#92BD55" />
  <path d="M42.6667 21.3333H21.3334V42.6666H42.6667V21.3333Z" fill="#6DABA8" />
  <path d="M21.3333 42.6667H0V64.0001H21.3333V42.6667Z" fill="#175A97" />
</svg>
