<svg viewBox="0 0 387 88" fill="none" xmlns="http://www.w3.org/2000/svg"><path d="M86 84.18V68.163h2.002v14.146h7.708v1.873H86ZM107.1 79.079h-8.095c0 1.033.409 2.174 1.098 2.863.516.517 1.227.818 2.11.818.904 0 1.658-.258 2.131-.753.323-.323.517-.625.668-1.25h1.873c-.151 1.12-.84 2.197-1.766 2.822a5.304 5.304 0 0 1-2.906.86c-1.615 0-2.907-.688-3.79-1.722-.947-1.098-1.42-2.626-1.42-4.241 0-1.378.258-2.605.882-3.66.818-1.379 2.325-2.39 4.328-2.39 1.464 0 2.648.56 3.488 1.464.925 1.012 1.464 2.476 1.442 4.026l-.043 1.163Zm-2.627-3.962c-.473-.624-1.248-1.034-2.26-1.034-2.089 0-3.1 1.701-3.144 3.36h6.093c0-.862-.236-1.723-.689-2.326ZM115.497 74.514c-.904 0-1.658.409-2.175.904-.925.883-1.033 2.454-1.033 3.66v5.081h-1.895V72.726h1.701l.151 2.003c.581-1.4 1.959-2.089 3.402-2.089.301 0 .603.022.904.065v1.873a8.652 8.652 0 0 0-1.055-.064ZM126.499 84.18v-7.255c0-1.723-.71-2.734-2.519-2.734-1.098 0-1.981.731-2.476 1.765-.387.84-.409 2.024-.409 2.907v5.318h-1.916V72.748h1.679l.151 1.722c.581-1.313 2.175-2.002 3.467-2.002 2.605 0 3.961 1.55 3.961 4.198v7.536h-1.938v-.021ZM141.657 79.079h-8.095c0 1.033.409 2.174 1.098 2.863.516.517 1.227.818 2.11.818.904 0 1.658-.258 2.131-.753.323-.323.517-.625.668-1.25h1.873c-.151 1.12-.84 2.197-1.766 2.822a5.304 5.304 0 0 1-2.906.86c-1.615 0-2.907-.688-3.79-1.722-.947-1.098-1.421-2.626-1.421-4.241 0-1.378.259-2.605.883-3.66.818-1.379 2.325-2.39 4.328-2.39 1.464 0 2.648.56 3.488 1.464.925 1.012 1.464 2.476 1.442 4.026l-.043 1.163Zm-2.648-3.962c-.474-.624-1.249-1.034-2.261-1.034-2.088 0-3.1 1.701-3.143 3.36h6.093c0-.862-.237-1.723-.689-2.326ZM152.25 84.18v-7.255c0-1.723-.71-2.734-2.519-2.734-1.098 0-1.981.731-2.476 1.765-.388.84-.409 2.024-.409 2.907v5.318h-1.916V72.748h1.679l.151 1.722c.581-1.313 2.174-2.002 3.466-2.002 2.605 0 3.962 1.55 3.962 4.198v7.536h-1.938v-.021ZM158.494 87.734l-.581-1.055c1.184-.517 1.442-1.206 1.442-2.476h-1.399v-2.649h2.756v2.649c0 1.658-.56 2.842-2.218 3.53ZM180.003 84.181h-1.851l-2.993-8.741-3.057 8.741h-1.83l-2.929-11.433h1.895l2.196 8.634 2.907-8.505h1.658l2.863 8.505 2.218-8.634h1.873l-2.95 11.433ZM185.601 70.121v-2.26h2.24v2.26h-2.24Zm.13 14.06V72.748h1.959v11.433h-1.959ZM199.381 83.17c-.883.903-2.239 1.291-3.725 1.291-1.421 0-2.734-.344-3.703-1.292a3.68 3.68 0 0 1-1.098-2.627h1.916c.022.797.388 1.378.926 1.787.517.388 1.335.517 2.045.517.797 0 1.507-.129 2.11-.624.323-.258.56-.732.56-1.249 0-.861-.603-1.464-1.787-1.636l-2.584-.345c-1.722-.28-2.799-1.335-2.799-3.079 0-.882.431-1.722.948-2.239.753-.775 1.937-1.27 3.358-1.27 1.508 0 2.864.474 3.639 1.442.495.603.818 1.27.818 2.197h-1.916c-.021-.582-.323-1.142-.646-1.422-.474-.43-1.098-.602-1.873-.602-.452 0-.797 0-1.335.236-.732.302-1.141.905-1.141 1.53 0 .947.581 1.356 1.529 1.485.624.086 1.528.172 2.756.387 1.636.28 2.906 1.443 2.906 3.165 0 1.012-.366 1.787-.904 2.347ZM211.374 83.17c-.883.903-2.239 1.291-3.725 1.291-1.421 0-2.735-.344-3.703-1.292a3.68 3.68 0 0 1-1.098-2.627h1.916c.021.797.387 1.378.926 1.787.516.388 1.335.517 2.067.517.796 0 1.507-.129 2.11-.624.323-.258.559-.732.559-1.249 0-.861-.602-1.464-1.787-1.636l-2.583-.345c-1.723-.28-2.799-1.335-2.799-3.079 0-.882.43-1.722.947-2.239.754-.775 1.938-1.27 3.359-1.27 1.507 0 2.863.474 3.638 1.442.496.603.819 1.27.819 2.197h-1.917c-.021-.582-.323-1.142-.646-1.422-.473-.43-1.098-.602-1.873-.602-.452 0-.796 0-1.335.236-.732.302-1.162.905-1.162 1.53 0 .947.581 1.356 1.528 1.485.625.086 1.529.172 2.756.387 1.637.28 2.907 1.443 2.907 3.165 0 1.012-.366 1.787-.904 2.347ZM224.874 79.079h-8.096c0 1.033.409 2.174 1.098 2.863.517.517 1.227.818 2.11.818.904 0 1.658-.258 2.132-.753.323-.323.516-.625.667-1.25h1.873c-.15 1.12-.839 2.197-1.765 2.822a5.305 5.305 0 0 1-2.907.86c-1.615 0-2.907-.688-3.789-1.722-.948-1.098-1.421-2.626-1.421-4.241 0-1.378.258-2.605.882-3.66.819-1.379 2.326-2.39 4.307-2.39 1.464 0 2.648.56 3.488 1.464.925 1.012 1.464 2.476 1.442 4.026l-.021 1.163Zm-2.649-3.962c-.473-.624-1.248-1.034-2.26-1.034-2.089 0-3.101 1.701-3.144 3.36h6.093c.022-.862-.237-1.723-.689-2.326ZM235.467 84.18v-7.255c0-1.723-.711-2.734-2.519-2.734-1.099 0-1.981.731-2.498 1.765-.388.84-.409 2.024-.409 2.907v5.318h-1.916V72.748h1.679l.151 1.722c.581-1.313 2.174-2.002 3.466-2.002 2.605 0 3.962 1.55 3.962 4.198v7.536h-1.916v-.021ZM241.711 87.734l-.582-1.055c1.185-.517 1.443-1.206 1.443-2.476h-1.4v-2.649h2.756v2.649c0 1.658-.559 2.842-2.217 3.53ZM255.77 84.332c-2.454 0-3.143-1.55-3.143-3.1v-6.848h-2.218v-1.657h2.218V69.82l1.916-.452v3.359h3.38v1.657h-3.38v6.632c0 1.098.474 1.55 1.529 1.55.818 0 1.959-.194 1.959-.194v1.658a8.215 8.215 0 0 1-2.261.302ZM270.045 79.079h-8.095c0 1.033.409 2.174 1.098 2.863.516.517 1.227.818 2.11.818.904 0 1.658-.258 2.131-.753.323-.323.517-.625.689-1.25h1.873c-.15 1.12-.839 2.197-1.765 2.822a5.305 5.305 0 0 1-2.907.86c-1.615 0-2.906-.688-3.789-1.722-.948-1.098-1.421-2.626-1.421-4.241 0-1.378.258-2.605.883-3.66.818-1.379 2.325-2.39 4.306-2.39 1.464 0 2.648.56 3.488 1.464.925 1.012 1.464 2.476 1.442 4.026l-.043 1.163Zm-2.648-3.962c-.474-.624-1.249-1.034-2.261-1.034-2.088 0-3.1 1.701-3.143 3.36h6.093c.021-.862-.237-1.723-.689-2.326ZM273.146 70.121v-2.26h2.239v2.26h-2.239Zm.129 14.06V72.748h1.959v11.433h-1.959ZM281.542 84.31c-1.679 0-2.39-.99-2.39-2.799v-13.65h1.917v13.542c0 .776.258 1.185 1.033 1.185.625 0 .797-.022.797-.022v1.636c0-.021-.431.108-1.357.108ZM294.849 79.079h-8.096c0 1.033.409 2.174 1.098 2.863.517.517 1.227.818 2.11.818.904 0 1.658-.258 2.132-.753.323-.323.516-.625.667-1.25h1.873c-.15 1.12-.839 2.197-1.765 2.822a5.305 5.305 0 0 1-2.907.86c-1.615 0-2.906-.688-3.789-1.722-.948-1.098-1.421-2.626-1.421-4.241 0-1.378.258-2.605.882-3.66.819-1.379 2.326-2.39 4.307-2.39 1.464 0 2.648.56 3.488 1.464.925 1.012 1.464 2.476 1.442 4.026l-.021 1.163Zm-2.627-3.962c-.474-.624-1.249-1.034-2.261-1.034-2.088 0-3.1 1.701-3.143 3.36h6.093c0-.862-.237-1.723-.689-2.326ZM305.463 84.18v-7.255c0-1.723-.71-2.734-2.519-2.734-1.098 0-1.981.731-2.476 1.765-.387.84-.409 2.024-.409 2.907v5.318h-1.916V72.748h1.679l.151 1.722c.581-1.313 2.175-2.002 3.466-2.002 2.606 0 3.962 1.55 3.962 4.198v7.536h-1.938v-.021ZM311.126 84.181V81.49h2.67v2.691h-2.67Z" fill="#000"/><path d="M101.742 51.269a7.956 7.956 0 0 1-5.14 1.806 6.947 6.947 0 0 1-5.978-2.817l-.323 2.323H86V23.097h5.097v9.806a7.333 7.333 0 0 1 5.57-2.15 7.955 7.955 0 0 1 5.182 1.72 11.566 11.566 0 0 1 3.807 9.462 11.402 11.402 0 0 1-3.914 9.334Zm-2.731-14.495a4.3 4.3 0 0 0-3.441-1.677c-4 0-4.817 3.763-4.817 6.838a7.892 7.892 0 0 0 1.828 5.785 4.172 4.172 0 0 0 2.989 1.076 4.302 4.302 0 0 0 3.44-1.678 8.602 8.602 0 0 0 1.334-5.183 8.604 8.604 0 0 0-1.333-5.16ZM127.978 43.548h-14.215a5.543 5.543 0 0 0 1.549 4.172 4.302 4.302 0 0 0 3.14 1.312 3.721 3.721 0 0 0 4.129-2.817h4.86a8.389 8.389 0 0 1-1.807 3.914 9.076 9.076 0 0 1-7.139 2.99 9.227 9.227 0 0 1-6.71-2.624A11.46 11.46 0 0 1 108.516 42a11.957 11.957 0 0 1 3.075-8.602 9.183 9.183 0 0 1 6.775-2.688 9.013 9.013 0 0 1 7.763 3.914 12.105 12.105 0 0 1 1.849 7.397v1.527Zm-6.451-7.419a4.304 4.304 0 0 0-3.226-1.226 4.298 4.298 0 0 0-3.548 1.635 5.205 5.205 0 0 0-1.097 3.311h9.183a5.528 5.528 0 0 0-1.248-3.72h-.064ZM143.011 35.871a5.373 5.373 0 0 0-5.268 3.74 5.363 5.363 0 0 0-.216 2.282v10.752h-5.14V31.333h4.301l.452 3.205a6.151 6.151 0 0 1 6.021-3.484 10.14 10.14 0 0 1 1.592.129v4.903a8.245 8.245 0 0 0-1.742-.215ZM161.183 52.58l-.366-2.773a6.448 6.448 0 0 1-6.086 3.311 7.01 7.01 0 0 1-7.355-7.591V31.333h5.119v13.033c0 2.494.967 4.064 3.677 4.064a3.44 3.44 0 0 0 2.602-1.075 6.454 6.454 0 0 0 1.549-4.774V31.333h5.118v21.248h-4.258ZM180.366 26.817a2.474 2.474 0 0 0-2.796 2.56v1.957h5.785v4.3h-5.785v17.033h-5.097V35.548h-3.591v-4.3h3.591v-2.022a6.457 6.457 0 0 1 7.226-6.71 17.55 17.55 0 0 1 4 .452v4.086a15.507 15.507 0 0 0-3.333-.237ZM200.946 50.667a10.106 10.106 0 0 1-7.268 2.451 9.636 9.636 0 0 1-6.861-2.451 7.036 7.036 0 0 1-2.15-4.947h4.795a3.37 3.37 0 0 0 1.14 2.495 4.775 4.775 0 0 0 3.226.946c1.72 0 4.301-.365 4.301-2.71a2.148 2.148 0 0 0-2.15-2.15c-1.871-.28-4-.409-5.871-.817a5.913 5.913 0 0 1-4.861-5.678 6.067 6.067 0 0 1 2.151-4.774 9.764 9.764 0 0 1 6.452-2.15 9.133 9.133 0 0 1 6.709 2.43 6.644 6.644 0 0 1 1.893 4.3h-4.968a2.95 2.95 0 0 0-.86-2 4.086 4.086 0 0 0-2.796-.988 5.288 5.288 0 0 0-2.15.322 2.471 2.471 0 0 0-1.635 2.15c0 1.506 1.312 1.958 2.452 2.151 1.914.237 2.451.28 4.537.602A6.152 6.152 0 0 1 202.71 46a6.458 6.458 0 0 1-1.764 4.667ZM223.011 51.269a7.916 7.916 0 0 1-5.14 1.806 6.949 6.949 0 0 1-5.979-2.817l-.322 2.323h-4.409V23.097h5.119v9.806a7.246 7.246 0 0 1 5.548-2.15 7.915 7.915 0 0 1 5.183 1.72 11.575 11.575 0 0 1 3.806 9.462 11.393 11.393 0 0 1-3.806 9.334Zm-2.731-14.495a4.31 4.31 0 0 0-3.441-1.677c-4 0-4.818 3.763-4.818 6.838a7.817 7.817 0 0 0 1.85 5.785 4.085 4.085 0 0 0 2.968 1.076 4.3 4.3 0 0 0 3.441-1.678 8.603 8.603 0 0 0 1.354-5.183 8.603 8.603 0 0 0-1.354-5.16ZM231.226 28.409v-5.27h5.484v5.27h-5.484Zm.172 24.172V31.333h5.183v21.248h-5.183ZM248.258 52.839a5.14 5.14 0 0 1-5.785-5.72V23.053h5.14v23.204c0 1.226.279 2.043 2.15 2.043h.861v4.301a8.155 8.155 0 0 1-2.366.237ZM268.086 52.58l-.344-2.322a6.896 6.896 0 0 1-5.957 2.817 8.045 8.045 0 0 1-5.183-1.806 11.374 11.374 0 0 1-3.763-9.27 11.563 11.563 0 0 1 3.806-9.462 7.915 7.915 0 0 1 5.183-1.72 7.183 7.183 0 0 1 5.548 2v-9.72h5.119V52.58h-4.409Zm-5.161-17.483a4.304 4.304 0 0 0-3.441 1.677 8.604 8.604 0 0 0-1.355 5.161 8.604 8.604 0 0 0 1.355 5.183 4.306 4.306 0 0 0 3.441 1.678c4 0 4.817-3.807 4.817-6.86 0-3.054-.925-6.84-4.817-6.84ZM291.441 52.58V39.549c0-2.494-.817-4-3.505-4a3.998 3.998 0 0 0-3.678 2.71 14.804 14.804 0 0 0-.688 5.677v8.603h-5.118V31.333h4.301l.365 2.753a7.335 7.335 0 0 1 13.441 4.301V52.56l-5.118.022ZM320.129 43.548h-14.193a5.628 5.628 0 0 0 1.548 4.172 4.472 4.472 0 0 0 3.161 1.312 3.98 3.98 0 0 0 3.097-1.01 3.79 3.79 0 0 0 1.011-1.807h4.903a8.151 8.151 0 0 1-1.785 3.914 9.957 9.957 0 0 1-13.849.366A11.46 11.46 0 0 1 300.753 42a11.934 11.934 0 0 1 3.054-8.602 9.222 9.222 0 0 1 6.795-2.688 9.01 9.01 0 0 1 7.764 3.914 11.94 11.94 0 0 1 1.828 7.397s-.065 1.097-.065 1.527Zm-6.451-7.419a4.758 4.758 0 0 0-5.288-.737 4.757 4.757 0 0 0-1.487 1.146 5.1 5.1 0 0 0-1.118 3.311h9.204a5.523 5.523 0 0 0-1.225-3.72h-.086ZM335.161 35.87a5.35 5.35 0 0 0-4.115 1.756 5.362 5.362 0 0 0-1.347 4.266v10.753h-5.14V31.333h4.301l.452 3.205a6.107 6.107 0 0 1 6-3.484c.533 0 1.065.043 1.591.129v4.903a8.06 8.06 0 0 0-1.742-.215ZM335.871 52.58v-6.45h6.215v6.45h-6.215ZM362.882 49.678a9.271 9.271 0 0 1-7.269 3.354 9.616 9.616 0 0 1-7.398-3.354 12.153 12.153 0 0 1-2.344-7.742 12.17 12.17 0 0 1 2.344-7.764 9.616 9.616 0 0 1 7.398-3.355 9.268 9.268 0 0 1 7.269 3.355 8.343 8.343 0 0 1 1.634 4.602h-5.032a4.302 4.302 0 0 0-.602-1.957 3.722 3.722 0 0 0-3.269-1.591 4.174 4.174 0 0 0-3.118 1.312 7.873 7.873 0 0 0-1.398 5.398 7.721 7.721 0 0 0 1.419 5.333 4.13 4.13 0 0 0 3.119 1.355 3.723 3.723 0 0 0 3.268-1.592 4.303 4.303 0 0 0 .603-1.957h5.032a8.347 8.347 0 0 1-1.656 4.602ZM381.484 52.58V39.485c0-2.473-.817-3.979-3.505-3.979-3.076 0-4.301 3.27-4.301 5.893V52.58h-5.119V23.097h5.119V33.59a7.071 7.071 0 0 1 5.784-2.774 6.987 6.987 0 0 1 6.84 4.68c.326.933.451 1.926.365 2.911v14.173h-5.183Z" fill="#175A97"/><path d="M64 0H42.667v21.333H64V0Z" fill="#92BD55"/><path d="M42.667 21.333H21.333v21.334h21.334V21.333Z" fill="#6DABA8"/><path d="M21.333 42.667H0V64h21.333V42.667Z" fill="#175A97"/></svg>
