<svg xmlns="http://www.w3.org/2000/svg" viewBox="0 0 170 87">
  <title>Schweizerisches Bundesarchiv BAR</title>
  <path d="M18.267,14.19434A24.65249,24.65249,0,0,0,9.1505,12.7012H9.14877a24.66,24.66,0,0,0-9.1174,1.49314s-.30531,6.61091.989,10.34885A13.82014,13.82014,0,0,0,9.148,32.96181h.00335a13.82218,13.82218,0,0,0,8.12755-8.41862c1.29428-3.73794.98815-10.34885.98815-10.34885" fill="red"/>
  <g>
    <path d="M25.82807,18.31543a1.70908,1.70908,0,0,0,.99533.26493,1.14552,1.14552,0,0,0,.724-.22609.85491.85491,0,0,0,.29046-.69849.68244.68244,0,0,0-.32291-.55539,2.15254,2.15254,0,0,0-.32983-.21971c-.125-.06916-.25163-.13831-.3809-.20694q-.19391-.11012-.375-.233a1.98868,1.98868,0,0,1-.33621-.25854.91475.91475,0,0,1-.32291-.70434,1.04884,1.04884,0,0,1,.41973-.86606,1.654,1.654,0,0,1,1.00863-.31014,3.84747,3.84747,0,0,1,.41335.02607,2.59812,2.59812,0,0,1,.47186.12235l-.07129.4075a2.00313,2.00313,0,0,0-1.1629-.13565.96952.96952,0,0,0-.31706.13565.68635.68635,0,0,0-.22609.23247.736.736,0,0,0-.09044.375.52725.52725,0,0,0,.09044.29738.93316.93316,0,0,0,.23247.23886,2.46524,2.46524,0,0,0,.33621.20694c.12076.06916.24577.13991.375.21332a2.62279,2.62279,0,0,1,.71072.491,1.18217,1.18217,0,0,1-.14842,1.75819,1.79493,1.79493,0,0,1-1.0081.29738,2.31124,2.31124,0,0,1-1.0214-.20694Z"/>
    <path d="M31.76761,16.03377a1.74248,1.74248,0,0,0-.70434-.16811,1.14356,1.14356,0,0,0-.91128.38143,1.46876,1.46876,0,0,0-.32983.99533,1.45321,1.45321,0,0,0,.32344.96288,1.06126,1.06126,0,0,0,.87244.41388,1.93074,1.93074,0,0,0,.74317-.149l.03883.38781a2.86915,2.86915,0,0,1-.84638.11012,1.42283,1.42283,0,0,1-1.18312-.52347,1.87685,1.87685,0,0,1-.3942-1.20227,1.7493,1.7493,0,0,1,.45271-1.24749,1.54929,1.54929,0,0,1,1.1762-.47825,2.366,2.366,0,0,1,.50378.04522c.06916.01277.12927.02607.1814.03883a1.04884,1.04884,0,0,1,.10959.04522Z"/>
    <path d="M32.97626,14.04311h.407v2.10717h.0133a1.17373,1.17373,0,0,1,.40058-.4591,1.18879,1.18879,0,0,1,.62667-.17449.98959.98959,0,0,1,.89851.38781,1.91346,1.91346,0,0,1,.22609,1.01448V18.8905h-.407V16.9259a3.16893,3.16893,0,0,0-.02607-.41388.87831.87831,0,0,0-.10959-.32983.66245.66245,0,0,0-.64635-.31653.828.828,0,0,0-.75647.4075,1.639,1.639,0,0,0-.21971.85276V18.8905h-.407Z"/>
    <path d="M40.441,18.8905H39.95l-.89851-2.85034h-.01277l-.89851,2.85034h-.491l-1.06023-3.29614h.4458l.86606,2.85034h.0133l.91766-2.85034h.491l.87244,2.85034h.0133l.91128-2.85034h.407Z"/>
    <path d="M44.7782,18.78729a2.81809,2.81809,0,0,1-.9565.18087,1.3571,1.3571,0,0,1-1.15705-.49793,1.98414,1.98414,0,0,1-.34259-1.22781,1.96853,1.96853,0,0,1,.38781-1.24749,1.22022,1.22022,0,0,1,1.00171-.47825,1.1553,1.1553,0,0,1,1.00863.48463A2.06416,2.06416,0,0,1,45.024,17.152v.20694H42.76785a1.37733,1.37733,0,0,0,.27822.88521.954.954,0,0,0,.80807.375,1.67286,1.67286,0,0,0,.50378-.08405,1.73965,1.73965,0,0,0,.42026-.16172ZM44.57764,17.01a1.595,1.595,0,0,0-.18726-.78892.72375.72375,0,0,0-.65274-.35536.86255.86255,0,0,0-.70434.36175,1.26048,1.26048,0,0,0-.26546.78254Z"/>
    <path d="M46.69119,14.71553h-.407v-.54315h.407Zm-.407.87883h.407V18.8905h-.407Z"/>
    <path d="M47.89984,18.5479l1.98428-2.60456H47.97751v-.349H50.356v.349l-1.98428,2.59818H50.356v.349H47.89984Z"/>
    <path d="M53.7681,18.78729a2.81809,2.81809,0,0,1-.9565.18087,1.3571,1.3571,0,0,1-1.15705-.49793,1.98414,1.98414,0,0,1-.34259-1.22781,1.96853,1.96853,0,0,1,.38781-1.24749,1.22022,1.22022,0,0,1,1.00171-.47825,1.1553,1.1553,0,0,1,1.00863.48463,2.06416,2.06416,0,0,1,.30376,1.15067v.20694H51.75775a1.37733,1.37733,0,0,0,.27822.88521.954.954,0,0,0,.80807.375,1.67286,1.67286,0,0,0,.50378-.08405,1.73965,1.73965,0,0,0,.42026-.16172ZM53.56754,17.01a1.595,1.595,0,0,0-.18726-.78892.72375.72375,0,0,0-.65274-.35536.86255.86255,0,0,0-.70434.36175,1.26048,1.26048,0,0,0-.26546.78254Z"/>
    <path d="M55.27413,16.33115q0-.45883-.02607-.73679h.4075v.63305h.01277a1.41318,1.41318,0,0,1,.32983-.4974.72375.72375,0,0,1,.51655-.21332,1.34755,1.34755,0,0,1,.28461.03883v.42665a1.0701,1.0701,0,0,0-.29738-.03883.69715.69715,0,0,0-.3942.1165.84971.84971,0,0,0-.25216.31653,1.66109,1.66109,0,0,0-.12927.42026,2.48252,2.48252,0,0,0-.04522.46495V18.8905h-.407Z"/>
    <path d="M58.3181,14.71553h-.407v-.54315h.407Zm-.407.87883h.407V18.8905h-.407Z"/>
    <path d="M60.438,18.61919a.83137.83137,0,0,0,.51708-.16172.50942.50942,0,0,0,.21332-.42665.55127.55127,0,0,0-.23939-.45857,2.82468,2.82468,0,0,0-.54953-.291q-.14842-.071-.28408-.149a2.0574,2.0574,0,0,1-.25854-.17449A.88777.88777,0,0,1,59.656,16.719a.62077.62077,0,0,1-.07129-.30376.77179.77179,0,0,1,.33621-.698,1.34849,1.34849,0,0,1,.73679-.20056,3.21872,3.21872,0,0,1,.36813.02713,2.29925,2.29925,0,0,1,.44633.12821l-.03883.349a1.95815,1.95815,0,0,0-.73041-.15534.95912.95912,0,0,0-.50432.11544.3899.3899,0,0,0-.14842.16066.54525.54525,0,0,0-.058.26971.30617.30617,0,0,0,.07075.19311.76364.76364,0,0,0,.18779.15374c.07714.04309.16545.08778.26493.13512.09895.04309.19577.091.29046.14257a1.847,1.847,0,0,1,.5623.36334.94138.94138,0,0,1,.14257,1.06289.89832.89832,0,0,1-.27822.29206,1.48775,1.48775,0,0,1-.76924.21386,2.78528,2.78528,0,0,1-.924-.15534l.03883-.40058A1.84893,1.84893,0,0,0,60.438,18.61919Z"/>
    <path d="M64.97475,16.03377a1.74248,1.74248,0,0,0-.70434-.16811,1.14356,1.14356,0,0,0-.91128.38143,1.46876,1.46876,0,0,0-.32983.99533,1.45321,1.45321,0,0,0,.32344.96288,1.06126,1.06126,0,0,0,.87244.41388,1.93074,1.93074,0,0,0,.74317-.149l.03883.38781a2.86915,2.86915,0,0,1-.84638.11012,1.42283,1.42283,0,0,1-1.18312-.52347,1.87685,1.87685,0,0,1-.3942-1.20227,1.7493,1.7493,0,0,1,.45271-1.24749,1.54929,1.54929,0,0,1,1.1762-.47825,2.366,2.366,0,0,1,.50378.04522c.06916.01277.12927.02607.1814.03883a1.04884,1.04884,0,0,1,.10959.04522Z"/>
    <path d="M66.1834,14.04311h.407v2.10717h.0133a1.17373,1.17373,0,0,1,.40058-.4591,1.18879,1.18879,0,0,1,.62667-.17449.98959.98959,0,0,1,.89851.38781,1.91346,1.91346,0,0,1,.22609,1.01448V18.8905h-.407V16.9259a3.16893,3.16893,0,0,0-.02607-.41388.87831.87831,0,0,0-.10959-.32983.66245.66245,0,0,0-.64635-.31653.828.828,0,0,0-.75647.4075,1.639,1.639,0,0,0-.21971.85276V18.8905h-.407Z"/>
    <path d="M72.47191,18.78729a2.81809,2.81809,0,0,1-.9565.18087,1.3571,1.3571,0,0,1-1.15705-.49793,1.98414,1.98414,0,0,1-.34259-1.22781,1.96853,1.96853,0,0,1,.38781-1.24749,1.22022,1.22022,0,0,1,1.00171-.47825,1.1553,1.1553,0,0,1,1.00863.48463,2.06416,2.06416,0,0,1,.30376,1.15067v.20694H70.46157a1.37733,1.37733,0,0,0,.27822.88521.954.954,0,0,0,.80807.375,1.67286,1.67286,0,0,0,.50378-.08405,1.73965,1.73965,0,0,0,.42026-.16172ZM72.27136,17.01a1.595,1.595,0,0,0-.18726-.78892.72375.72375,0,0,0-.65274-.35536.86255.86255,0,0,0-.70434.36175,1.26048,1.26048,0,0,0-.26546.78254Z"/>
    <path d="M76.30482,14.37932h2.21037v.38781H76.75061v1.60923h1.67414v.38781H76.75061v1.7385h1.84224v.38781h-2.288Z"/>
    <path d="M80.383,14.71553h-.407v-.54315h.407Zm-.407.87883h.407V18.8905h-.407Z"/>
    <path d="M84.50632,18.8905h-.407V18.367h-.0133a1.0714,1.0714,0,0,1-1.02725.60114,1.18229,1.18229,0,0,1-1.015-.49793,2.07762,2.07762,0,0,1-.34259-1.22781,2.125,2.125,0,0,1,.31706-1.24111,1.347,1.347,0,0,1,1.4672-.41335.98339.98339,0,0,1,.31014.18087.88419.88419,0,0,1,.29046.38143h.0133V14.04311h.407Zm-2.35879-1.64807a2.52051,2.52051,0,0,0,.04522.47186,1.857,1.857,0,0,0,.15481.45218.97256.97256,0,0,0,.30376.31706.76729.76729,0,0,0,.47186.13565.79177.79177,0,0,0,.46548-.13565.95975.95975,0,0,0,.29738-.32983,1.95622,1.95622,0,0,0,.21332-.91128,2.67019,2.67019,0,0,0-.04522-.47825,1.59479,1.59479,0,0,0-.16811-.43941,1.0226,1.0226,0,0,0-.29738-.33621.852.852,0,0,0-.46548-.12289.82536.82536,0,0,0-.47186.12289.87961.87961,0,0,0-.30376.32291,1.65067,1.65067,0,0,0-.15481.43995A2.68543,2.68543,0,0,0,82.14753,17.24243Z"/>
    <path d="M88.59085,18.61919a1.94747,1.94747,0,0,1-.34313,1.1762,1.43675,1.43675,0,0,1-1.20546.491,2.85347,2.85347,0,0,1-.59582-.07075q-.26572-.06464-.40218-.10374l.03245-.407a2.12018,2.12018,0,0,0,.9698.23247,1.246,1.246,0,0,0,.62029-.142.79837.79837,0,0,0,.34259-.36175,1.55372,1.55372,0,0,0,.14842-.53677c.01756-.20215.02607-.42026.02607-.65274h-.01277a1.06493,1.06493,0,0,1-1.00225.64635,1.18454,1.18454,0,0,1-1.08577-.55592,1.61091,1.61091,0,0,1-.22609-.52985,2.40792,2.40792,0,0,1,.23939-1.80341,1.17886,1.17886,0,0,1,1.04055-.48463,2.05347,2.05347,0,0,1,.56868.07129,1.07769,1.07769,0,0,1,.45857.38143h.0133v-.375h.41335Zm-2.36517-1.37676a1.65042,1.65042,0,0,0,.21971.88521.791.791,0,0,0,.73041.41388.84918.84918,0,0,0,.782-.42665,1.7872,1.7872,0,0,0,.21971-.87244,2.046,2.046,0,0,0-.20694-.98895.81533.81533,0,0,0-.76924-.38781.82536.82536,0,0,0-.47186.12289.87961.87961,0,0,0-.30376.32291,1.65067,1.65067,0,0,0-.15481.43995A2.68543,2.68543,0,0,0,86.22568,17.24243Z"/>
    <path d="M92.262,18.78729a2.81809,2.81809,0,0,1-.9565.18087,1.3571,1.3571,0,0,1-1.15705-.49793,1.98414,1.98414,0,0,1-.34259-1.22781,1.96853,1.96853,0,0,1,.38781-1.24749,1.22022,1.22022,0,0,1,1.00171-.47825,1.1553,1.1553,0,0,1,1.00863.48463,2.06416,2.06416,0,0,1,.30376,1.15067v.20694H90.25169a1.37733,1.37733,0,0,0,.27822.88521.954.954,0,0,0,.80807.375,1.67286,1.67286,0,0,0,.50378-.08405,1.73965,1.73965,0,0,0,.42026-.16172ZM92.06148,17.01a1.595,1.595,0,0,0-.18726-.78892.72375.72375,0,0,0-.65274-.35536.86255.86255,0,0,0-.70434.36175,1.26048,1.26048,0,0,0-.26546.78254Z"/>
    <path d="M93.7686,16.37c0-.25429-.00958-.51283-.0266-.77562h.39473v.58784h.01277a2.07553,2.07553,0,0,1,.13619-.23247.95688.95688,0,0,1,.19364-.21332.88073.88073,0,0,1,.30429-.16172,1.42424,1.42424,0,0,1,.432-.058,1.0332,1.0332,0,0,1,.87244.36175,1.51046,1.51046,0,0,1,.25322.90489V18.8905h-.40856V16.88707a1.39545,1.39545,0,0,0-.17449-.75009.70668.70668,0,0,0-.60646-.27131.83767.83767,0,0,0-.76392.38781,1.144,1.144,0,0,0-.16172.38143,1.85351,1.85351,0,0,0-.05107.433V18.8905H93.7686Z"/>
    <path d="M97.59458,17.24243a1.94019,1.94019,0,0,1,.37451-1.20227,1.56884,1.56884,0,0,1,2.33964,0,2.16286,2.16286,0,0,1,0,2.39816,1.55629,1.55629,0,0,1-2.33964,0A1.94733,1.94733,0,0,1,97.59458,17.24243Zm.4458,0a1.57751,1.57751,0,0,0,.28408.96926.92808.92808,0,0,0,.80861.4075.958.958,0,0,0,.82031-.4075,1.63059,1.63059,0,0,0,.27131-.96926,1.69324,1.69324,0,0,0-.27131-.98256.9699.9699,0,0,0-.82031-.3942.93909.93909,0,0,0-.80861.3942A1.63744,1.63744,0,0,0,98.04038,17.24243Z"/>
    <path d="M102.5324,18.61919a.83137.83137,0,0,0,.51708-.16172.51034.51034,0,0,0,.21279-.42665.553.553,0,0,0-.23833-.45857,2.82992,2.82992,0,0,0-.55007-.291q-.14842-.071-.28408-.149a2.05741,2.05741,0,0,1-.25854-.17449.877.877,0,0,1-.18087-.23886.615.615,0,0,1-.07129-.30376.77066.77066,0,0,1,.33621-.698,1.34667,1.34667,0,0,1,.73626-.20056,3.24294,3.24294,0,0,1,.36919.02713,2.31586,2.31586,0,0,1,.4458.12821l-.03937.349a1.95107,1.95107,0,0,0-.72987-.15534.96173.96173,0,0,0-.50432.11544.39114.39114,0,0,0-.149.16066.5514.5514,0,0,0-.05745.26971.3038.3038,0,0,0,.07129.19311.75055.75055,0,0,0,.18726.15374c.07767.04309.166.08778.26493.13512.09895.04309.19577.091.29046.14257a1.84961,1.84961,0,0,1,.56283.36334.852.852,0,0,1,.24577.6288.83789.83789,0,0,1-.10427.43409.90234.90234,0,0,1-.27769.29206,1.48915,1.48915,0,0,1-.76924.21386,2.7776,2.7776,0,0,1-.92351-.15534l.0383-.40058A1.84893,1.84893,0,0,0,102.5324,18.61919Z"/>
    <path d="M105.53063,18.61919a.83137.83137,0,0,0,.51708-.16172.51034.51034,0,0,0,.21279-.42665.553.553,0,0,0-.23833-.45857,2.82992,2.82992,0,0,0-.55007-.291q-.14842-.071-.28408-.149a2.05741,2.05741,0,0,1-.25854-.17449.877.877,0,0,1-.18087-.23886.615.615,0,0,1-.07129-.30376.77066.77066,0,0,1,.33621-.698,1.34667,1.34667,0,0,1,.73626-.20056,3.24293,3.24293,0,0,1,.36919.02713,2.31587,2.31587,0,0,1,.4458.12821l-.03937.349a1.95107,1.95107,0,0,0-.72987-.15534.96173.96173,0,0,0-.50432.11544.39114.39114,0,0,0-.149.16066.5514.5514,0,0,0-.05745.26971.3038.3038,0,0,0,.07128.19311.75055.75055,0,0,0,.18726.15374c.07767.04309.166.08778.26493.13512.09895.04309.19577.091.29046.14257a1.84961,1.84961,0,0,1,.56283.36334.852.852,0,0,1,.24577.6288.83789.83789,0,0,1-.10427.43409.90234.90234,0,0,1-.27769.29206,1.48915,1.48915,0,0,1-.76924.21386,2.7776,2.7776,0,0,1-.92351-.15534l.0383-.40058A1.84893,1.84893,0,0,0,105.53063,18.61919Z"/>
    <path d="M110.13224,18.78729a2.81325,2.81325,0,0,1-.9565.18087,1.35739,1.35739,0,0,1-1.15652-.49793,1.98072,1.98072,0,0,1-.34259-1.22781,1.96874,1.96874,0,0,1,.38834-1.24749,1.21778,1.21778,0,0,1,1.00118-.47825,1.15659,1.15659,0,0,1,1.00863.48463A2.064,2.064,0,0,1,110.378,17.152v.20694h-2.25559a1.37707,1.37707,0,0,0,.27769.88521.957.957,0,0,0,.80861.375,1.67882,1.67882,0,0,0,.50432-.08405,1.72081,1.72081,0,0,0,.4192-.16172Zm-.2-1.77734a1.60068,1.60068,0,0,0-.18726-.78892.72463.72463,0,0,0-.65327-.35536.864.864,0,0,0-.70434.36175,1.2632,1.2632,0,0,0-.26493.78254Z"/>
    <path d="M111.63881,16.37q0-.38143-.02553-.77562h.39366v.58784h.01277a2.25258,2.25258,0,0,1,.13619-.23247.98332.98332,0,0,1,.19364-.21332.89053.89053,0,0,1,.30429-.16172,1.43647,1.43647,0,0,1,.433-.058,1.0332,1.0332,0,0,1,.87244.36175,1.51021,1.51021,0,0,1,.25216.90489V18.8905h-.4075V16.88707a1.40517,1.40517,0,0,0-.17449-.75009.70742.70742,0,0,0-.60752-.27131.83585.83585,0,0,0-.76286.38781,1.102,1.102,0,0,0-.16172.38143,1.85351,1.85351,0,0,0-.05107.433V18.8905h-.4075Z"/>
    <path d="M116.32447,18.61919a.83137.83137,0,0,0,.51708-.16172.51034.51034,0,0,0,.21279-.42665.553.553,0,0,0-.23833-.45857,2.82992,2.82992,0,0,0-.55007-.291q-.14842-.071-.28408-.149a2.0574,2.0574,0,0,1-.25854-.17449.877.877,0,0,1-.18087-.23886.615.615,0,0,1-.07129-.30376.77066.77066,0,0,1,.33621-.698,1.34667,1.34667,0,0,1,.73626-.20056,3.24293,3.24293,0,0,1,.36919.02713,2.31586,2.31586,0,0,1,.4458.12821l-.03937.349a1.95107,1.95107,0,0,0-.72987-.15534.96173.96173,0,0,0-.50432.11544.39114.39114,0,0,0-.149.16066.5514.5514,0,0,0-.05745.26971.3038.3038,0,0,0,.07129.19311.75055.75055,0,0,0,.18726.15374c.07767.04309.166.08778.26493.13512.09895.04309.19577.091.29046.14257a1.84961,1.84961,0,0,1,.56283.36334.852.852,0,0,1,.24577.6288.83789.83789,0,0,1-.10427.43409.90234.90234,0,0,1-.27769.29206,1.48915,1.48915,0,0,1-.76924.21386,2.7776,2.7776,0,0,1-.92351-.15534l.0383-.40058A1.84893,1.84893,0,0,0,116.32447,18.61919Z"/>
    <path d="M120.86224,16.03377a1.74657,1.74657,0,0,0-.70434-.16811,1.14319,1.14319,0,0,0-.91181.38143,1.46609,1.46609,0,0,0-.32983.99533,1.45041,1.45041,0,0,0,.32344.96288,1.06125,1.06125,0,0,0,.87244.41388,1.93533,1.93533,0,0,0,.74371-.149l.0383.38781a2.86807,2.86807,0,0,1-.84691.11012,1.4214,1.4214,0,0,1-1.18206-.52347,1.87721,1.87721,0,0,1-.39473-1.20227,1.75131,1.75131,0,0,1,.45218-1.24749,1.55211,1.55211,0,0,1,1.17674-.47825,2.37486,2.37486,0,0,1,.50432.04522c.06809.01277.12874.02607.18087.03883a1.1006,1.1006,0,0,1,.10959.04522Z"/>
    <path d="M122.06983,14.04311h.4075v2.10717h.01277a1.17235,1.17235,0,0,1,.4-.4591,1.1912,1.1912,0,0,1,.62773-.17449.98859.98859,0,0,1,.898.38781,1.91333,1.91333,0,0,1,.22662,1.01448V18.8905h-.4075V16.9259a3.17211,3.17211,0,0,0-.02553-.41388.88862.88862,0,0,0-.11065-.32983.66052.66052,0,0,0-.64582-.31653.828.828,0,0,0-.75647.4075,1.63352,1.63352,0,0,0-.21918.85276V18.8905h-.4075Z"/>
    <path d="M128.04182,18.36065h-.01277a.99138.99138,0,0,1-.433.4458,1.35118,1.35118,0,0,1-.6139.16172,1.33733,1.33733,0,0,1-.55645-.11012.84993.84993,0,0,1-.33621-.24524,1.01,1.01,0,0,1-.19364-.5756.9887.9887,0,0,1,.2-.65274,1.07962,1.07962,0,0,1,.49793-.34259,2.65692,2.65692,0,0,1,.65965-.142c.23194-.01277.45644-.01915.67136-.01915h.07767v-.16811q.01915-.84664-.749-.84691a1.80209,1.80209,0,0,0-.97033.27131v-.38781a2.3819,2.3819,0,0,1,.97033-.23247q1.16982-.01277,1.15652,1.22781v1.45443a5.06151,5.06151,0,0,0,.03192.69157h-.4Zm-.03937-1.131h-.116q-.26493,0-.52985.01277a1.971,1.971,0,0,0-.50432.10959.80192.80192,0,0,0-.36175.23939.616.616,0,0,0-.149.433.49909.49909,0,0,0,.20747.45218.78173.78173,0,0,0,.47772.14257.97745.97745,0,0,0,.56283-.14257.83073.83073,0,0,0,.29046-.32291,1.05778,1.05778,0,0,0,.10959-.3942q.01277-.20029.01277-.32983Z"/>
    <path d="M130.14207,15.94334h-.666v-.349h.666V15.355a5.13064,5.13064,0,0,1,.02553-.51708,1.25627,1.25627,0,0,1,.09788-.43941.67324.67324,0,0,1,.26493-.31653.864.864,0,0,1,.4841-.1165q.10374,0,.21386.00638a.45963.45963,0,0,1,.16811.05852l-.0266.349a.74309.74309,0,0,0-.32238-.0649.45091.45091,0,0,0-.30429.09044.52591.52591,0,0,0-.149.25216,1.26911,1.26911,0,0,0-.0383.31706c-.00426.116-.00638.22822-.00638.33568v.28461h.74264v.349h-.74264V18.8905h-.4075Z"/>
    <path d="M133.92337,15.94334h-.749V18.076a.66971.66971,0,0,0,.1032.38143.35955.35955,0,0,0,.33621.16172.83224.83224,0,0,0,.37451-.07767l.02553.33621c-.04681.017-.11384.03617-.2.058a1.29472,1.29472,0,0,1-.29684.03245.83542.83542,0,0,1-.42026-.09044.60812.60812,0,0,1-.22662-.23939,1.22961,1.22961,0,0,1-.08405-.349q-.01915-.19391-.01915-.42026V15.94334H132.12v-.349h.64689v-.79531l.4075-.142v.93735h.749Z"/>
    <path d="M29.04654,23.78948a1.60509,1.60509,0,0,0-.48463-.16119,4.48219,4.48219,0,0,0-.52347-.03245,1.73724,1.73724,0,0,0-1.35069.54953,2.28842,2.28842,0,0,0-.00638,2.79182,1.70468,1.70468,0,0,0,1.35708.54953,3.41258,3.41258,0,0,0,.52347-.04522,1.39638,1.39638,0,0,0,.48463-.149l.02607.38781a1.61529,1.61529,0,0,1-.49793.149,3.73579,3.73579,0,0,1-.53623.04522,2.21467,2.21467,0,0,1-1.66722-.64635,2.32006,2.32006,0,0,1-.60752-1.6869,2.36751,2.36751,0,0,1,.6139-1.6869,2.21859,2.21859,0,0,1,1.66084-.64635,5.33773,5.33773,0,0,1,.53623.03245,1.48819,1.48819,0,0,1,.49793.13565Z"/>
    <path d="M30.44937,26.14881a1.94052,1.94052,0,0,1,.375-1.20227,1.37611,1.37611,0,0,1,1.16344-.52347,1.39164,1.39164,0,0,1,1.1762.52347,2.16816,2.16816,0,0,1,0,2.39816,1.38574,1.38574,0,0,1-1.1762.52985,1.37041,1.37041,0,0,1-1.16344-.52985A1.9477,1.9477,0,0,1,30.44937,26.14881Zm.4458,0a1.57428,1.57428,0,0,0,.28461.96926.92524.92524,0,0,0,.80807.4075.958.958,0,0,0,.82031-.4075,1.627,1.627,0,0,0,.27184-.96926,1.68948,1.68948,0,0,0-.27184-.98256.9699.9699,0,0,0-.82031-.3942.93617.93617,0,0,0-.80807.3942A1.634,1.634,0,0,0,30.89516,26.14881Z"/>
    <path d="M34.77967,25.27636q0-.38143-.02607-.77562h.3942v.58784h.0133a2.24566,2.24566,0,0,1,.13565-.23247.9971.9971,0,0,1,.19364-.21332.8928.8928,0,0,1,.30376-.16172,1.43892,1.43892,0,0,1,.433-.058,1.03252,1.03252,0,0,1,.87244.36175,1.51021,1.51021,0,0,1,.25216.90489v2.10717h-.407V25.79344a1.40517,1.40517,0,0,0-.17449-.75009.70676.70676,0,0,0-.60752-.27131.83466.83466,0,0,0-.76286.38781,1.11219,1.11219,0,0,0-.16172.38143,1.82611,1.82611,0,0,0-.0516.433v1.82256h-.407Z"/>
    <path d="M39.1355,24.84971H38.47v-.349h.6655v-.23939a4.97735,4.97735,0,0,1,.02607-.51708,1.26815,1.26815,0,0,1,.09682-.43941.67934.67934,0,0,1,.26493-.31653.86707.86707,0,0,1,.48463-.1165c.06916,0,.13991.00213.21332.00638a.44888.44888,0,0,1,.16811.05852l-.02553.349a.748.748,0,0,0-.32344-.0649.45033.45033,0,0,0-.30376.09044.51679.51679,0,0,0-.14842.25216,1.24466,1.24466,0,0,0-.03883.31706c-.00426.116-.00638.22822-.00638.33568v.28461h.74317v.349H39.543v2.94716h-.4075Z"/>
    <path d="M43.7052,27.69367a2.81809,2.81809,0,0,1-.9565.18087,1.3571,1.3571,0,0,1-1.15705-.49793,2.2814,2.2814,0,0,1,.04522-2.47529,1.22022,1.22022,0,0,1,1.00171-.47825,1.1553,1.1553,0,0,1,1.00863.48463,2.06416,2.06416,0,0,1,.30376,1.15067v.20694H41.69485a1.37733,1.37733,0,0,0,.27822.88521.954.954,0,0,0,.80807.375,1.67286,1.67286,0,0,0,.50378-.08405,1.73965,1.73965,0,0,0,.42026-.16172Zm-.20056-1.77734a1.595,1.595,0,0,0-.18726-.78892.72375.72375,0,0,0-.65274-.35536.86255.86255,0,0,0-.70434.36175,1.26048,1.26048,0,0,0-.26546.78254Zm-.65912-2.7083h.5107l-.81446.93043h-.29738Z"/>
    <path d="M47.82218,27.79687h-.407v-.52347h-.0133a1.0714,1.0714,0,0,1-1.02725.60114,1.18229,1.18229,0,0,1-1.015-.49793,2.07762,2.07762,0,0,1-.34259-1.22781,2.125,2.125,0,0,1,.31706-1.24111,1.347,1.347,0,0,1,1.4672-.41335.98339.98339,0,0,1,.31014.18087.88419.88419,0,0,1,.29046.38143h.0133V22.94949h.407Zm-2.35879-1.64807a2.52051,2.52051,0,0,0,.04522.47186,1.857,1.857,0,0,0,.15481.45218.97256.97256,0,0,0,.30376.31706.76729.76729,0,0,0,.47186.13565.79177.79177,0,0,0,.46548-.13565.95975.95975,0,0,0,.29738-.32983,1.95622,1.95622,0,0,0,.21332-.91128,2.67019,2.67019,0,0,0-.04522-.47825,1.59479,1.59479,0,0,0-.16811-.43941,1.0226,1.0226,0,0,0-.29738-.33621A.852.852,0,0,0,46.439,24.772a.82536.82536,0,0,0-.47186.12289.87961.87961,0,0,0-.30376.32291,1.65067,1.65067,0,0,0-.15481.43995A2.68543,2.68543,0,0,0,45.46338,26.14881Z"/>
    <path d="M51.49974,27.69367a2.81809,2.81809,0,0,1-.9565.18087,1.3571,1.3571,0,0,1-1.15705-.49793,2.2814,2.2814,0,0,1,.04522-2.47529,1.22022,1.22022,0,0,1,1.00171-.47825,1.1553,1.1553,0,0,1,1.00863.48463,2.06416,2.06416,0,0,1,.30376,1.15067v.20694H49.48939a1.37733,1.37733,0,0,0,.27822.88521.954.954,0,0,0,.80807.375,1.67286,1.67286,0,0,0,.50378-.08405,1.73965,1.73965,0,0,0,.42026-.16172Zm-.20056-1.77734a1.595,1.595,0,0,0-.18726-.78892.72375.72375,0,0,0-.65274-.35536.86255.86255,0,0,0-.70434.36175,1.26048,1.26048,0,0,0-.26546.78254Zm-.65912-2.7083h.5107l-.81446.93043h-.29738Z"/>
    <path d="M53.00577,25.23753q0-.45883-.02607-.73679h.4075v.63305H53.4a1.41318,1.41318,0,0,1,.32983-.4974.72375.72375,0,0,1,.51655-.21332,1.34755,1.34755,0,0,1,.28461.03883v.42665a1.0701,1.0701,0,0,0-.29738-.03883.69715.69715,0,0,0-.3942.1165.84971.84971,0,0,0-.25216.31653,1.66109,1.66109,0,0,0-.12927.42026,2.48252,2.48252,0,0,0-.04522.46495v1.62892h-.407Z"/>
    <path d="M57.53663,27.267h-.0133a.98335.98335,0,0,1-.433.4458,1.33736,1.33736,0,0,1-1.16982.0516.85379.85379,0,0,1-.33621-.24524,1.006,1.006,0,0,1-.19364-.5756.98309.98309,0,0,1,.20056-.65274,1.07263,1.07263,0,0,1,.4974-.34259,2.66315,2.66315,0,0,1,.65912-.142q.34951-.01915.67242-.01915h.07767V25.619q.01915-.84664-.75009-.84691a1.79727,1.79727,0,0,0-.96926.27131v-.38781a2.375,2.375,0,0,1,.96926-.23247q1.16982-.01277,1.15705,1.22781V27.1053a4.9738,4.9738,0,0,0,.03245.69157h-.40058Zm-.03883-1.131h-.1165q-.26493,0-.52985.01277a1.96108,1.96108,0,0,0-.50432.10959.80192.80192,0,0,0-.36175.23939.61361.61361,0,0,0-.149.433.5.5,0,0,0,.20694.45218.78444.78444,0,0,0,.47825.14257.97561.97561,0,0,0,.5623-.14257.82814.82814,0,0,0,.291-.32291,1.06789,1.06789,0,0,0,.10959-.3942c.00851-.13353.0133-.24365.0133-.32983Z"/>
    <path d="M60.78063,24.84971h-.75009v2.1327a.66989.66989,0,0,0,.10374.38143.35864.35864,0,0,0,.33568.16172.83145.83145,0,0,0,.375-.07767l.02607.33621c-.04735.017-.11438.03617-.20056.058a1.2961,1.2961,0,0,1-.29738.03245.83326.83326,0,0,1-.41973-.09044.60441.60441,0,0,1-.22662-.23939,1.22961,1.22961,0,0,1-.08405-.349q-.01915-.19391-.01915-.42026V24.84971h-.64635v-.349h.64635v-.79531l.407-.142v.93735h.75009Z"/>
    <path d="M62.40263,23.62191h-.407v-.54315h.407Zm-.407.87883h.407v3.29614h-.407Z"/>
    <path d="M63.66289,26.14881a1.94052,1.94052,0,0,1,.375-1.20227,1.37611,1.37611,0,0,1,1.16344-.52347,1.39164,1.39164,0,0,1,1.1762.52347,2.16816,2.16816,0,0,1,0,2.39816,1.38574,1.38574,0,0,1-1.1762.52985,1.37041,1.37041,0,0,1-1.16344-.52985A1.9477,1.9477,0,0,1,63.66289,26.14881Zm.4458,0a1.57428,1.57428,0,0,0,.28461.96926.92524.92524,0,0,0,.80807.4075.958.958,0,0,0,.82031-.4075,1.627,1.627,0,0,0,.27184-.96926,1.68948,1.68948,0,0,0-.27184-.98256.9699.9699,0,0,0-.82031-.3942.93617.93617,0,0,0-.80807.3942A1.634,1.634,0,0,0,64.10869,26.14881Z"/>
    <path d="M67.99372,25.27636q0-.38143-.02607-.77562h.3942v.58784h.0133a2.24566,2.24566,0,0,1,.13565-.23247.9971.9971,0,0,1,.19364-.21332.8928.8928,0,0,1,.30376-.16172,1.43892,1.43892,0,0,1,.433-.058,1.03252,1.03252,0,0,1,.87244.36175,1.51021,1.51021,0,0,1,.25216.90489v2.10717h-.407V25.79344a1.40517,1.40517,0,0,0-.17449-.75009.70676.70676,0,0,0-.60752-.27131.83466.83466,0,0,0-.76286.38781,1.11219,1.11219,0,0,0-.16172.38143,1.82611,1.82611,0,0,0-.0516.433v1.82256h-.407Z"/>
    <path d="M74.961,27.52557a.83137.83137,0,0,0,.51708-.16172.50942.50942,0,0,0,.21332-.42665.55127.55127,0,0,0-.23939-.45857,2.82468,2.82468,0,0,0-.54953-.291q-.14842-.071-.28408-.149a2.0574,2.0574,0,0,1-.25854-.17449.88777.88777,0,0,1-.18087-.23886.62077.62077,0,0,1-.07129-.30376.77179.77179,0,0,1,.33621-.698,1.34849,1.34849,0,0,1,.73679-.20056,3.21872,3.21872,0,0,1,.36813.02713,2.29925,2.29925,0,0,1,.44633.12821l-.03883.349A1.95815,1.95815,0,0,0,75.226,24.772a.95912.95912,0,0,0-.50432.11544.3899.3899,0,0,0-.14842.16066.54525.54525,0,0,0-.058.26971.30617.30617,0,0,0,.07075.19311.76364.76364,0,0,0,.18779.15374c.07714.04309.16545.08778.26493.13512.09895.04309.19577.091.29046.14257a1.847,1.847,0,0,1,.5623.36334.94138.94138,0,0,1,.14257,1.06289.89832.89832,0,0,1-.27822.29206,1.48775,1.48775,0,0,1-.76924.21386,2.78528,2.78528,0,0,1-.924-.15534l.03883-.40058A1.84893,1.84893,0,0,0,74.961,27.52557Z"/>
    <path d="M79.9244,27.02125q-.00638.375.02607.77562h-.3942v-.58837H79.543a1.09408,1.09408,0,0,1-.12235.21971,1.06945,1.06945,0,0,1-.20056.22024.96456.96456,0,0,1-.30376.15481,1.20506,1.20506,0,0,1-.43941.07129,1.0237,1.0237,0,0,1-.86606-.36228,1.4265,1.4265,0,0,1-.25854-.90436V24.50074h.407v2.00343a1.25886,1.25886,0,0,0,.18779.73679.64941.64941,0,0,0,.59422.28461.90088.90088,0,0,0,.47186-.1165.79009.79009,0,0,0,.29738-.28461,1.17313,1.17313,0,0,0,.16172-.38728,1.96034,1.96034,0,0,0,.04522-.41388V24.50074h.407Z"/>
    <path d="M81.83739,23.62191h-.407v-.54315h.407Zm-.407.87883h.407v3.29614h-.407Z"/>
    <path d="M83.95732,27.52557a.83137.83137,0,0,0,.51708-.16172.50942.50942,0,0,0,.21332-.42665.55127.55127,0,0,0-.23939-.45857,2.82468,2.82468,0,0,0-.54953-.291q-.14842-.071-.28408-.149a2.0574,2.0574,0,0,1-.25854-.17449.88777.88777,0,0,1-.18087-.23886.62077.62077,0,0,1-.07129-.30376.77179.77179,0,0,1,.33621-.698,1.34849,1.34849,0,0,1,.73679-.20056,3.21872,3.21872,0,0,1,.36813.02713,2.29925,2.29925,0,0,1,.44633.12821l-.03883.349a1.95815,1.95815,0,0,0-.73041-.15534.95912.95912,0,0,0-.50432.11544.3899.3899,0,0,0-.14842.16066.54525.54525,0,0,0-.058.26971.30617.30617,0,0,0,.07075.19311.76364.76364,0,0,0,.18779.15374c.07714.04309.16545.08778.26493.13512.09895.04309.19577.091.29046.14257a1.847,1.847,0,0,1,.5623.36334.94138.94138,0,0,1,.14257,1.06289.89832.89832,0,0,1-.27822.29206,1.48775,1.48775,0,0,1-.76924.21386,2.78528,2.78528,0,0,1-.924-.15534l.03883-.40058A1.84893,1.84893,0,0,0,83.95732,27.52557Z"/>
    <path d="M86.95608,27.52557a.83137.83137,0,0,0,.51708-.16172.50942.50942,0,0,0,.21332-.42665.55127.55127,0,0,0-.23939-.45857,2.82468,2.82468,0,0,0-.54953-.291q-.14842-.071-.28408-.149a2.0574,2.0574,0,0,1-.25854-.17449.88777.88777,0,0,1-.18087-.23886.62077.62077,0,0,1-.07129-.30376.77179.77179,0,0,1,.33621-.698,1.34849,1.34849,0,0,1,.73679-.20056,3.21872,3.21872,0,0,1,.36813.02713,2.29925,2.29925,0,0,1,.44633.12821l-.03883.349A1.95815,1.95815,0,0,0,87.221,24.772a.95912.95912,0,0,0-.50432.11544.3899.3899,0,0,0-.14842.16066.54525.54525,0,0,0-.058.26971.30617.30617,0,0,0,.07075.19311.76364.76364,0,0,0,.18779.15374c.07714.04309.16545.08778.26493.13512.09895.04309.19577.091.29046.14257a1.847,1.847,0,0,1,.5623.36334.94138.94138,0,0,1,.14257,1.06289.89832.89832,0,0,1-.27822.29206,1.48775,1.48775,0,0,1-.76924.21386,2.78528,2.78528,0,0,1-.924-.15534l.03883-.40058A1.84893,1.84893,0,0,0,86.95608,27.52557Z"/>
    <path d="M91.55769,27.69367a2.81809,2.81809,0,0,1-.9565.18087,1.3571,1.3571,0,0,1-1.15705-.49793,2.2814,2.2814,0,0,1,.04522-2.47529,1.22022,1.22022,0,0,1,1.00171-.47825,1.1553,1.1553,0,0,1,1.00863.48463,2.06416,2.06416,0,0,1,.30376,1.15067v.20694H89.54735a1.37733,1.37733,0,0,0,.27822.88521.954.954,0,0,0,.80807.375,1.67286,1.67286,0,0,0,.50378-.08405,1.73965,1.73965,0,0,0,.42026-.16172Zm-.20056-1.77734a1.595,1.595,0,0,0-.18726-.78892.72375.72375,0,0,0-.65274-.35536.86255.86255,0,0,0-.70434.36175,1.26048,1.26048,0,0,0-.26546.78254Z"/>
    <path d="M29.04654,32.69639a1.60509,1.60509,0,0,0-.48463-.16119,4.48219,4.48219,0,0,0-.52347-.03245,1.73724,1.73724,0,0,0-1.35069.54953,2.28842,2.28842,0,0,0-.00638,2.79182,1.70468,1.70468,0,0,0,1.35708.54953,3.41258,3.41258,0,0,0,.52347-.04522,1.39638,1.39638,0,0,0,.48463-.149l.02607.38781a1.61529,1.61529,0,0,1-.49793.149,3.73578,3.73578,0,0,1-.53623.04522,2.21467,2.21467,0,0,1-1.66722-.64635,2.32006,2.32006,0,0,1-.60752-1.6869,2.36751,2.36751,0,0,1,.6139-1.6869,2.21859,2.21859,0,0,1,1.66084-.64635,5.33774,5.33774,0,0,1,.53623.03245,1.48819,1.48819,0,0,1,.49793.13565Z"/>
    <path d="M30.44937,35.05572a1.94052,1.94052,0,0,1,.375-1.20227A1.37611,1.37611,0,0,1,31.98785,33.33a1.39164,1.39164,0,0,1,1.1762.52347,2.16816,2.16816,0,0,1,0,2.39816,1.38574,1.38574,0,0,1-1.1762.52985,1.37041,1.37041,0,0,1-1.16344-.52985A1.9477,1.9477,0,0,1,30.44937,35.05572Zm.4458,0a1.57428,1.57428,0,0,0,.28461.96926.92524.92524,0,0,0,.80807.4075.958.958,0,0,0,.82031-.4075,1.627,1.627,0,0,0,.27184-.96926,1.68948,1.68948,0,0,0-.27184-.98256.9699.9699,0,0,0-.82031-.3942.93617.93617,0,0,0-.80807.3942A1.634,1.634,0,0,0,30.89516,35.05572Z"/>
    <path d="M34.77967,34.18327q0-.38143-.02607-.77562h.3942v.58784h.0133a2.24566,2.24566,0,0,1,.13565-.23247.9971.9971,0,0,1,.19364-.21332.8928.8928,0,0,1,.30376-.16172,1.43892,1.43892,0,0,1,.433-.058,1.03252,1.03252,0,0,1,.87244.36175,1.51021,1.51021,0,0,1,.25216.90489v2.10717h-.407V34.70035a1.40517,1.40517,0,0,0-.17449-.75009.70676.70676,0,0,0-.60752-.27131.83466.83466,0,0,0-.76286.38781,1.11219,1.11219,0,0,0-.16172.38143,1.82611,1.82611,0,0,0-.0516.433v1.82256h-.407Z"/>
    <path d="M39.1355,33.75663H38.47v-.349h.6655v-.23939a4.97735,4.97735,0,0,1,.02607-.51708,1.26815,1.26815,0,0,1,.09682-.43941.67934.67934,0,0,1,.26493-.31653.86707.86707,0,0,1,.48463-.1165c.06916,0,.13991.00213.21332.00638a.44888.44888,0,0,1,.16811.05852l-.02553.349a.748.748,0,0,0-.32344-.0649.45033.45033,0,0,0-.30376.09044.51679.51679,0,0,0-.14842.25216,1.24466,1.24466,0,0,0-.03883.31706c-.00426.116-.00638.22822-.00638.33568v.28461h.74317v.349H39.543v2.94716h-.4075Z"/>
    <path d="M43.7052,36.60058a2.81809,2.81809,0,0,1-.9565.18087,1.3571,1.3571,0,0,1-1.15705-.49793,2.2814,2.2814,0,0,1,.04522-2.47529A1.22022,1.22022,0,0,1,42.63858,33.33a1.1553,1.1553,0,0,1,1.00863.48463,2.06416,2.06416,0,0,1,.30376,1.15067v.20694H41.69485a1.37733,1.37733,0,0,0,.27822.88521.954.954,0,0,0,.80807.375,1.67286,1.67286,0,0,0,.50378-.08405,1.73965,1.73965,0,0,0,.42026-.16172Zm-.20056-1.77734a1.595,1.595,0,0,0-.18726-.78892.72375.72375,0,0,0-.65274-.35536.86255.86255,0,0,0-.70434.36175,1.26048,1.26048,0,0,0-.26546.78254Z"/>
    <path d="M47.82218,36.70378h-.407v-.52347h-.0133a1.0714,1.0714,0,0,1-1.02725.60114,1.18229,1.18229,0,0,1-1.015-.49793,2.07762,2.07762,0,0,1-.34259-1.22781,2.125,2.125,0,0,1,.31706-1.24111,1.347,1.347,0,0,1,1.4672-.41335.98339.98339,0,0,1,.31014.18087.88419.88419,0,0,1,.29046.38143h.0133V31.8564h.407Zm-2.35879-1.64807a2.52051,2.52051,0,0,0,.04522.47186,1.857,1.857,0,0,0,.15481.45218.97256.97256,0,0,0,.30376.31706.76729.76729,0,0,0,.47186.13565.79177.79177,0,0,0,.46548-.13565.95975.95975,0,0,0,.29738-.32983,1.95622,1.95622,0,0,0,.21332-.91128,2.67019,2.67019,0,0,0-.04522-.47825,1.59479,1.59479,0,0,0-.16811-.43941,1.0226,1.0226,0,0,0-.29738-.33621A.852.852,0,0,0,46.439,33.679a.82536.82536,0,0,0-.47186.12289.87961.87961,0,0,0-.30376.32291,1.65067,1.65067,0,0,0-.15481.43995A2.68543,2.68543,0,0,0,45.46338,35.05572Z"/>
    <path d="M51.49974,36.60058a2.81809,2.81809,0,0,1-.9565.18087,1.3571,1.3571,0,0,1-1.15705-.49793,2.2814,2.2814,0,0,1,.04522-2.47529A1.22022,1.22022,0,0,1,50.43312,33.33a1.1553,1.1553,0,0,1,1.00863.48463,2.06416,2.06416,0,0,1,.30376,1.15067v.20694H49.48939a1.37733,1.37733,0,0,0,.27822.88521.954.954,0,0,0,.80807.375,1.67286,1.67286,0,0,0,.50378-.08405,1.73965,1.73965,0,0,0,.42026-.16172Zm-.20056-1.77734a1.595,1.595,0,0,0-.18726-.78892.72375.72375,0,0,0-.65274-.35536.86255.86255,0,0,0-.70434.36175,1.26048,1.26048,0,0,0-.26546.78254Z"/>
    <path d="M53.00577,34.14444q0-.45883-.02607-.73679h.4075v.63305H53.4a1.41318,1.41318,0,0,1,.32983-.4974.72375.72375,0,0,1,.51655-.21332,1.34755,1.34755,0,0,1,.28461.03883v.42665a1.0701,1.0701,0,0,0-.29738-.03883.69715.69715,0,0,0-.3942.1165.84971.84971,0,0,0-.25216.31653,1.66109,1.66109,0,0,0-.12927.42026,2.48252,2.48252,0,0,0-.04522.46495v1.62892h-.407Z"/>
    <path d="M57.53663,36.17393h-.0133a.98335.98335,0,0,1-.433.4458,1.33736,1.33736,0,0,1-1.16982.0516.85379.85379,0,0,1-.33621-.24524,1.006,1.006,0,0,1-.19364-.5756.98309.98309,0,0,1,.20056-.65274,1.07263,1.07263,0,0,1,.4974-.34259,2.66314,2.66314,0,0,1,.65912-.142q.34951-.01915.67242-.01915h.07767v-.16811q.01915-.84664-.75009-.84691a1.79727,1.79727,0,0,0-.96926.27131v-.38781A2.375,2.375,0,0,1,56.7477,33.33q1.16982-.01277,1.15705,1.22781v1.45443a4.9738,4.9738,0,0,0,.03245.69157h-.40058Zm-.03883-1.131h-.1165q-.26493,0-.52985.01277a1.96108,1.96108,0,0,0-.50432.10959.80192.80192,0,0,0-.36175.23939.61361.61361,0,0,0-.149.433.5.5,0,0,0,.20694.45218.78444.78444,0,0,0,.47825.14257.97561.97561,0,0,0,.5623-.14257.82814.82814,0,0,0,.291-.32291,1.06789,1.06789,0,0,0,.10959-.3942c.00851-.13353.0133-.24365.0133-.32983Z"/>
    <path d="M59.05489,36.36119l1.98428-2.60457H59.13256v-.349H61.511v.349l-1.98428,2.59818H61.511v.349H59.05489Z"/>
    <path d="M63.12027,32.52882h-.407v-.54315h.407Zm-.407.87883h.407v3.29614h-.407Z"/>
    <path d="M64.38053,35.05572a1.94052,1.94052,0,0,1,.375-1.20227A1.37611,1.37611,0,0,1,65.919,33.33a1.39164,1.39164,0,0,1,1.1762.52347,2.16816,2.16816,0,0,1,0,2.39816,1.38574,1.38574,0,0,1-1.1762.52985,1.37041,1.37041,0,0,1-1.16344-.52985A1.9477,1.9477,0,0,1,64.38053,35.05572Zm.4458,0a1.57428,1.57428,0,0,0,.28461.96926.92524.92524,0,0,0,.80807.4075.958.958,0,0,0,.82031-.4075,1.627,1.627,0,0,0,.27184-.96926,1.68948,1.68948,0,0,0-.27184-.98256.9699.9699,0,0,0-.82031-.3942.93617.93617,0,0,0-.80807.3942A1.634,1.634,0,0,0,64.82632,35.05572Z"/>
    <path d="M68.71083,34.18327q0-.38143-.02607-.77562h.3942v.58784h.0133a2.24566,2.24566,0,0,1,.13565-.23247.9971.9971,0,0,1,.19364-.21332.8928.8928,0,0,1,.30376-.16172,1.43892,1.43892,0,0,1,.433-.058,1.03252,1.03252,0,0,1,.87244.36175,1.51021,1.51021,0,0,1,.25216.90489v2.10717h-.407V34.70035a1.40517,1.40517,0,0,0-.17449-.75009A.70676.70676,0,0,0,70.094,33.679a.83466.83466,0,0,0-.76286.38781,1.11219,1.11219,0,0,0-.16172.38143,1.82611,1.82611,0,0,0-.0516.433v1.82256h-.407Z"/>
    <path d="M74.99934,36.60058a2.81809,2.81809,0,0,1-.9565.18087,1.3571,1.3571,0,0,1-1.15705-.49793,2.2814,2.2814,0,0,1,.04522-2.47529A1.22022,1.22022,0,0,1,73.93273,33.33a1.1553,1.1553,0,0,1,1.00863.48463,2.06416,2.06416,0,0,1,.30376,1.15067v.20694H72.989a1.37733,1.37733,0,0,0,.27822.88521.954.954,0,0,0,.80807.375,1.67286,1.67286,0,0,0,.50378-.08405,1.73965,1.73965,0,0,0,.42026-.16172Zm-.20056-1.77734a1.595,1.595,0,0,0-.18726-.78892.72375.72375,0,0,0-.65274-.35536.86255.86255,0,0,0-.70434.36175,1.26048,1.26048,0,0,0-.26546.78254Z"/>
    <path d="M78.70936,36.12872a1.70908,1.70908,0,0,0,.99533.26493,1.14552,1.14552,0,0,0,.724-.22609.85491.85491,0,0,0,.29046-.69849.68244.68244,0,0,0-.32291-.55539,2.15254,2.15254,0,0,0-.32983-.21971c-.125-.06916-.25163-.13831-.3809-.20694q-.19391-.11012-.375-.233a1.98868,1.98868,0,0,1-.33621-.25854.91475.91475,0,0,1-.32291-.70434,1.04884,1.04884,0,0,1,.41973-.86606,1.654,1.654,0,0,1,1.00863-.31014,3.84747,3.84747,0,0,1,.41335.02607,2.59812,2.59812,0,0,1,.47186.12235l-.07129.4075a2.00313,2.00313,0,0,0-1.1629-.13565.96952.96952,0,0,0-.31706.13565.68635.68635,0,0,0-.22609.23247.736.736,0,0,0-.09044.375.52725.52725,0,0,0,.09044.29738.93316.93316,0,0,0,.23247.23886,2.46524,2.46524,0,0,0,.33621.20694c.12076.06916.24577.13991.375.21332a2.6228,2.6228,0,0,1,.71072.491,1.18217,1.18217,0,0,1-.14842,1.75819,1.79493,1.79493,0,0,1-1.0081.29738,2.31124,2.31124,0,0,1-1.0214-.20694Z"/>
    <path d="M83.64718,36.70378h-.47825l-1.11822-3.29614H82.497l.91128,2.85034h.01277l.9565-2.85034h.42665Z"/>
    <path d="M86.26451,32.52882h-.407v-.54315h.407Zm-.407.87883h.407v3.29614h-.407Z"/>
    <path d="M87.47317,36.36119l1.98428-2.60457H87.55084v-.349h2.37847v.349L87.945,36.35481h1.98428v.349H87.47317Z"/>
    <path d="M90.82729,36.36119l1.98428-2.60457H90.905v-.349h2.37847v.349l-1.98428,2.59818h1.98428v.349H90.82729Z"/>
    <path d="M96.69554,36.60058a2.81325,2.81325,0,0,1-.9565.18087,1.35739,1.35739,0,0,1-1.15652-.49793,2.28,2.28,0,0,1,.04575-2.47529A1.21778,1.21778,0,0,1,95.62946,33.33a1.15659,1.15659,0,0,1,1.00863.48463,2.064,2.064,0,0,1,.30323,1.15067v.20694H94.68573a1.37707,1.37707,0,0,0,.27769.88521.957.957,0,0,0,.80861.375,1.67882,1.67882,0,0,0,.50432-.08405,1.72081,1.72081,0,0,0,.4192-.16172Zm-.2-1.77734a1.60068,1.60068,0,0,0-.18726-.78892A.72463.72463,0,0,0,95.655,33.679a.864.864,0,0,0-.70434.36175,1.2632,1.2632,0,0,0-.26493.78254Z"/>
    <path d="M98.2021,34.14444q0-.45883-.02553-.73679H98.583v.63305h.01277a1.42773,1.42773,0,0,1,.32983-.4974.72591.72591,0,0,1,.51708-.21332,1.35787,1.35787,0,0,1,.28514.03883v.42665a1.08211,1.08211,0,0,0-.29791-.03883.69536.69536,0,0,0-.39366.1165.82928.82928,0,0,0-.25216.31653,1.6199,1.6199,0,0,0-.1298.42026,2.52626,2.52626,0,0,0-.04469.46495v1.62892h-.4075Z"/>
    <path d="M102.73243,36.17393h-.01277a.99138.99138,0,0,1-.433.4458,1.35118,1.35118,0,0,1-.6139.16172,1.33733,1.33733,0,0,1-.55645-.11012.84993.84993,0,0,1-.33621-.24524,1.01,1.01,0,0,1-.19364-.5756.9887.9887,0,0,1,.2-.65274,1.07962,1.07962,0,0,1,.49793-.34259,2.65692,2.65692,0,0,1,.65965-.142c.23194-.01277.45644-.01915.67136-.01915h.07767v-.16811q.01915-.84664-.749-.84691a1.80209,1.80209,0,0,0-.97033.27131v-.38781A2.3819,2.3819,0,0,1,101.944,33.33q1.16982-.01277,1.15652,1.22781v1.45443a5.0615,5.0615,0,0,0,.03192.69157h-.4Zm-.03937-1.131h-.116q-.26493,0-.52985.01277a1.971,1.971,0,0,0-.50432.10959.80192.80192,0,0,0-.36175.23939.616.616,0,0,0-.149.433.49909.49909,0,0,0,.20747.45218.78173.78173,0,0,0,.47772.14257.97745.97745,0,0,0,.56283-.14257.83074.83074,0,0,0,.29046-.32291,1.05778,1.05778,0,0,0,.10959-.3942q.01277-.20029.01277-.32983Z"/>
    <path d="M29.04654,41.60277a1.60509,1.60509,0,0,0-.48463-.16119,4.48219,4.48219,0,0,0-.52347-.03245,1.73724,1.73724,0,0,0-1.35069.54953,2.28842,2.28842,0,0,0-.00638,2.79182A1.70468,1.70468,0,0,0,28.03844,45.3a3.41258,3.41258,0,0,0,.52347-.04522,1.39638,1.39638,0,0,0,.48463-.149l.02607.38781a1.61529,1.61529,0,0,1-.49793.149,3.73579,3.73579,0,0,1-.53623.04522,2.21467,2.21467,0,0,1-1.66722-.64635,2.32006,2.32006,0,0,1-.60752-1.6869,2.36751,2.36751,0,0,1,.6139-1.6869,2.21859,2.21859,0,0,1,1.66084-.64635,5.33773,5.33773,0,0,1,.53623.03245,1.48819,1.48819,0,0,1,.49793.13565Z"/>
    <path d="M30.44937,43.96209a1.94052,1.94052,0,0,1,.375-1.20227,1.37611,1.37611,0,0,1,1.16344-.52347,1.39164,1.39164,0,0,1,1.1762.52347,2.16816,2.16816,0,0,1,0,2.39816,1.38574,1.38574,0,0,1-1.1762.52985,1.37041,1.37041,0,0,1-1.16344-.52985A1.9477,1.9477,0,0,1,30.44937,43.96209Zm.4458,0a1.57428,1.57428,0,0,0,.28461.96926.92524.92524,0,0,0,.80807.4075.958.958,0,0,0,.82031-.4075,1.627,1.627,0,0,0,.27184-.96926,1.68948,1.68948,0,0,0-.27184-.98256.9699.9699,0,0,0-.82031-.3942.93617.93617,0,0,0-.80807.3942A1.634,1.634,0,0,0,30.89516,43.96209Z"/>
    <path d="M34.77967,43.08965q0-.38143-.02607-.77562h.3942v.58784h.0133a2.24566,2.24566,0,0,1,.13565-.23247.9971.9971,0,0,1,.19364-.21332.8928.8928,0,0,1,.30376-.16172,1.43892,1.43892,0,0,1,.433-.058,1.03252,1.03252,0,0,1,.87244.36175,1.51021,1.51021,0,0,1,.25216.90489v2.10717h-.407V43.60673a1.40517,1.40517,0,0,0-.17449-.75009.70676.70676,0,0,0-.60752-.27131.83466.83466,0,0,0-.76286.38781,1.11219,1.11219,0,0,0-.16172.38143,1.82611,1.82611,0,0,0-.0516.433v1.82256h-.407Z"/>
    <path d="M39.1355,42.663H38.47v-.349h.6655v-.23939a4.97735,4.97735,0,0,1,.02607-.51708,1.26815,1.26815,0,0,1,.09682-.43941.67934.67934,0,0,1,.26493-.31653.86707.86707,0,0,1,.48463-.1165c.06916,0,.13991.00213.21332.00638a.44888.44888,0,0,1,.16811.05852l-.02553.349a.748.748,0,0,0-.32344-.0649.45033.45033,0,0,0-.30376.09044.51679.51679,0,0,0-.14842.25216,1.24466,1.24466,0,0,0-.03883.31706c-.00426.116-.00638.22822-.00638.33568V42.314h.74317v.349H39.543v2.94716h-.4075Z"/>
    <path d="M43.7052,45.507a2.81809,2.81809,0,0,1-.9565.18087,1.3571,1.3571,0,0,1-1.15705-.49793,2.2814,2.2814,0,0,1,.04522-2.47529,1.22022,1.22022,0,0,1,1.00171-.47825,1.1553,1.1553,0,0,1,1.00863.48463,2.06416,2.06416,0,0,1,.30376,1.15067v.20694H41.69485a1.37733,1.37733,0,0,0,.27822.88521.954.954,0,0,0,.80807.375,1.67286,1.67286,0,0,0,.50378-.08405,1.73965,1.73965,0,0,0,.42026-.16172Zm-.20056-1.77734a1.595,1.595,0,0,0-.18726-.78892.72375.72375,0,0,0-.65274-.35536.86255.86255,0,0,0-.70434.36175,1.26048,1.26048,0,0,0-.26546.78254Z"/>
    <path d="M47.82218,45.61016h-.407V45.0867h-.0133a1.0714,1.0714,0,0,1-1.02725.60114,1.18229,1.18229,0,0,1-1.015-.49793,2.07762,2.07762,0,0,1-.34259-1.22781,2.125,2.125,0,0,1,.31706-1.24111,1.347,1.347,0,0,1,1.4672-.41335.98339.98339,0,0,1,.31014.18087.88419.88419,0,0,1,.29046.38143h.0133V40.76278h.407Zm-2.35879-1.64807a2.52051,2.52051,0,0,0,.04522.47186,1.857,1.857,0,0,0,.15481.45218.97256.97256,0,0,0,.30376.31706.76729.76729,0,0,0,.47186.13565.79177.79177,0,0,0,.46548-.13565.95975.95975,0,0,0,.29738-.32983,1.95622,1.95622,0,0,0,.21332-.91128,2.67019,2.67019,0,0,0-.04522-.47825,1.59479,1.59479,0,0,0-.16811-.43941,1.0226,1.0226,0,0,0-.29738-.33621.852.852,0,0,0-.46548-.12289.82536.82536,0,0,0-.47186.12289.87961.87961,0,0,0-.30376.32291,1.65067,1.65067,0,0,0-.15481.43995A2.68543,2.68543,0,0,0,45.46338,43.96209Z"/>
    <path d="M51.49974,45.507a2.81809,2.81809,0,0,1-.9565.18087,1.3571,1.3571,0,0,1-1.15705-.49793,2.2814,2.2814,0,0,1,.04522-2.47529,1.22022,1.22022,0,0,1,1.00171-.47825,1.1553,1.1553,0,0,1,1.00863.48463,2.06416,2.06416,0,0,1,.30376,1.15067v.20694H49.48939a1.37733,1.37733,0,0,0,.27822.88521.954.954,0,0,0,.80807.375,1.67286,1.67286,0,0,0,.50378-.08405,1.73965,1.73965,0,0,0,.42026-.16172Zm-.20056-1.77734a1.595,1.595,0,0,0-.18726-.78892.72375.72375,0,0,0-.65274-.35536.86255.86255,0,0,0-.70434.36175,1.26048,1.26048,0,0,0-.26546.78254Z"/>
    <path d="M53.00577,43.05082q0-.45883-.02607-.73679h.4075v.63305H53.4a1.41318,1.41318,0,0,1,.32983-.4974.72375.72375,0,0,1,.51655-.21332,1.34755,1.34755,0,0,1,.28461.03883v.42665a1.0701,1.0701,0,0,0-.29738-.03883.69715.69715,0,0,0-.3942.1165.84971.84971,0,0,0-.25216.31653,1.66109,1.66109,0,0,0-.12927.42026,2.48252,2.48252,0,0,0-.04522.46495v1.62892h-.407Z"/>
    <path d="M57.53663,45.08031h-.0133a.98335.98335,0,0,1-.433.4458,1.33736,1.33736,0,0,1-1.16982.0516.85379.85379,0,0,1-.33621-.24524,1.006,1.006,0,0,1-.19364-.5756.98309.98309,0,0,1,.20056-.65274,1.07263,1.07263,0,0,1,.4974-.34259,2.66314,2.66314,0,0,1,.65912-.142q.34951-.01915.67242-.01915h.07767v-.16811q.01915-.84664-.75009-.84691a1.79727,1.79727,0,0,0-.96926.27131v-.38781a2.375,2.375,0,0,1,.96926-.23247q1.16982-.01277,1.15705,1.22781v1.45443a4.9738,4.9738,0,0,0,.03245.69157h-.40058Zm-.03883-1.131h-.1165q-.26493,0-.52985.01277a1.96108,1.96108,0,0,0-.50432.10959.80192.80192,0,0,0-.36175.23939.61361.61361,0,0,0-.149.433.5.5,0,0,0,.20694.45218.78444.78444,0,0,0,.47825.14257.97561.97561,0,0,0,.5623-.14257.82814.82814,0,0,0,.291-.32291,1.06789,1.06789,0,0,0,.10959-.3942c.00851-.13353.0133-.24365.0133-.32983Z"/>
    <path d="M59.05489,45.26757,61.03917,42.663H59.13256v-.349H61.511v.349l-1.98428,2.59818H61.511v.349H59.05489Z"/>
    <path d="M63.12027,41.4352h-.407V40.892h.407Zm-.407.87883h.407v3.29614h-.407Z"/>
    <path d="M67.2048,44.83454q-.00638.375.02607.77562h-.3942v-.58837h-.0133a1.09408,1.09408,0,0,1-.12235.21971,1.06945,1.06945,0,0,1-.20056.22024.96456.96456,0,0,1-.30376.15481,1.20506,1.20506,0,0,1-.43941.07129,1.0237,1.0237,0,0,1-.86606-.36228,1.4265,1.4265,0,0,1-.25854-.90436V42.314h.407v2.00343a1.25886,1.25886,0,0,0,.18779.73679.64941.64941,0,0,0,.59422.28461.90088.90088,0,0,0,.47186-.1165.79009.79009,0,0,0,.29738-.28461,1.17313,1.17313,0,0,0,.16172-.38728,1.96034,1.96034,0,0,0,.04522-.41388V42.314h.407Z"/>
    <path d="M68.71083,43.08965q0-.38143-.02607-.77562h.3942v.58784h.0133a2.24566,2.24566,0,0,1,.13565-.23247.9971.9971,0,0,1,.19364-.21332.8928.8928,0,0,1,.30376-.16172,1.43892,1.43892,0,0,1,.433-.058,1.03252,1.03252,0,0,1,.87244.36175,1.51021,1.51021,0,0,1,.25216.90489v2.10717h-.407V43.60673a1.40517,1.40517,0,0,0-.17449-.75009.70676.70676,0,0,0-.60752-.27131.83466.83466,0,0,0-.76286.38781,1.11219,1.11219,0,0,0-.16172.38143,1.82611,1.82611,0,0,0-.0516.433v1.82256h-.407Z"/>
    <path d="M75.67815,45.33885a.83137.83137,0,0,0,.51708-.16172.50942.50942,0,0,0,.21332-.42665.55127.55127,0,0,0-.23939-.45857,2.82468,2.82468,0,0,0-.54953-.291q-.14842-.071-.28408-.149a2.0574,2.0574,0,0,1-.25854-.17449.88777.88777,0,0,1-.18087-.23886.62077.62077,0,0,1-.07129-.30376.77179.77179,0,0,1,.33621-.698,1.34849,1.34849,0,0,1,.73679-.20056,3.21872,3.21872,0,0,1,.36813.02713,2.29925,2.29925,0,0,1,.44633.12821l-.03883.349a1.95815,1.95815,0,0,0-.73041-.15534.95912.95912,0,0,0-.50432.11544.3899.3899,0,0,0-.14842.16066.54525.54525,0,0,0-.058.26971.30617.30617,0,0,0,.07075.19311.76364.76364,0,0,0,.18779.15374c.07714.04309.16545.08778.26493.13512.09895.04309.19577.091.29046.14257a1.847,1.847,0,0,1,.5623.36334.94138.94138,0,0,1,.14257,1.06289.89832.89832,0,0,1-.27822.29206,1.48775,1.48775,0,0,1-.76924.21386,2.78528,2.78528,0,0,1-.924-.15534l.03883-.40058A1.84893,1.84893,0,0,0,75.67815,45.33885Z"/>
    <path d="M79.21314,45.61016h-.47825L77.61668,42.314H78.063l.91128,2.85034h.01277l.9565-2.85034h.42665Z"/>
    <path d="M81.83047,41.4352h-.407V40.892h.407Zm-.407.87883h.407v3.29614h-.407Z"/>
    <path d="M83.03966,45.26757,85.02394,42.663H83.11733v-.349H85.4958v.349l-1.98428,2.59818H85.4958v.349H83.03966Z"/>
    <path d="M86.69754,43.05082q0-.45883-.02607-.73679h.4075v.63305h.01277a1.41318,1.41318,0,0,1,.32983-.4974.72375.72375,0,0,1,.51655-.21332,1.34755,1.34755,0,0,1,.28461.03883v.42665a1.0701,1.0701,0,0,0-.29738-.03883.69715.69715,0,0,0-.3942.1165.84971.84971,0,0,0-.25216.31653,1.66109,1.66109,0,0,0-.12927.42026,2.48252,2.48252,0,0,0-.04522.46495v1.62892h-.407Z"/>
    <path d="M91.2284,45.08031h-.0133a.98335.98335,0,0,1-.433.4458,1.33736,1.33736,0,0,1-1.16982.0516.85379.85379,0,0,1-.33621-.24524,1.006,1.006,0,0,1-.19364-.5756.98309.98309,0,0,1,.20056-.65274,1.07263,1.07263,0,0,1,.4974-.34259,2.66315,2.66315,0,0,1,.65912-.142q.34951-.01915.67242-.01915h.07767v-.16811q.01915-.84664-.75009-.84691a1.79727,1.79727,0,0,0-.96926.27131v-.38781a2.375,2.375,0,0,1,.96926-.23247q1.16982-.01277,1.15705,1.22781v1.45443a4.9738,4.9738,0,0,0,.03245.69157H91.2284Zm-.03883-1.131h-.1165q-.26493,0-.52985.01277a1.96108,1.96108,0,0,0-.50432.10959.80192.80192,0,0,0-.36175.23939.61361.61361,0,0,0-.149.433.5.5,0,0,0,.20694.45218.78444.78444,0,0,0,.47825.14257.97561.97561,0,0,0,.5623-.14257.82814.82814,0,0,0,.291-.32291,1.06789,1.06789,0,0,0,.10959-.3942c.00851-.13353.0133-.24365.0133-.32983Z"/>
  </g>
  <path d="M15.20857,19.89343v3.64224h-4.2495v4.24963H7.31672V23.53568H3.06717V19.89343H7.31672V15.6447h3.64149l.00086,4.24873h4.2495" fill="#fff"/>
  <g>
    <path d="M27.42454,59.98634a1.01557,1.01557,0,0,0-.23247.0266.67409.67409,0,0,0-.233.09682.506.506,0,0,0-.17449.19364.61155.61155,0,0,0-.07129.30961.33569.33569,0,0,0,.091.23939.92638.92638,0,0,0,.22609.17449,2.8335,2.8335,0,0,0,.32291.14257c.11225.04681.23035.09682.35536.149a2.66353,2.66353,0,0,1,.36228.16811,1.28262,1.28262,0,0,1,.31653.25109,1.23349,1.23349,0,0,1,.22609.34259,1.41462,1.41462,0,0,1,.07767.49793,1.18223,1.18223,0,0,1-.4974,1.04693,2.13709,2.13709,0,0,1-1.19589.31706,2.79473,2.79473,0,0,1-.58837-.05213c-.16332-.02979-.35323-.07129-.56868-.12235l.08405-.815a2.07878,2.07878,0,0,0,1.0214.27876,1.10011,1.10011,0,0,0,.53623-.14257.48188.48188,0,0,0,.26493-.43941.49.49,0,0,0-.07714-.27769.7557.7557,0,0,0-.22662-.19364,5.85015,5.85015,0,0,0-.67827-.29791,2.53835,2.53835,0,0,1-.35589-.18087,1.72918,1.72918,0,0,1-.32291-.233,1.203,1.203,0,0,1-.22609-.34259,1.129,1.129,0,0,1-.09044-.47133,1.21925,1.21925,0,0,1,.4974-1.07247,1.92506,1.92506,0,0,1,1.07938-.30429,3.48536,3.48536,0,0,1,1.07938.16172L28.3422,60.18A2.37515,2.37515,0,0,0,27.42454,59.98634Z"/>
    <path d="M31.67717,61.25351a.99585.99585,0,0,0-.24577-.09044,1.575,1.575,0,0,0-.34206-.033.80485.80485,0,0,0-.63359.28514,1.13566,1.13566,0,0,0-.24577.76924,1.24881,1.24881,0,0,0,.22662.76818.78071.78071,0,0,0,.67189.31706,1.24189,1.24189,0,0,0,.375-.05852,1.54721,1.54721,0,0,0,.29046-.09682l.03883.71817a1.91156,1.91156,0,0,1-.38781.07767,3.16852,3.16852,0,0,1-.47825.03192,1.50178,1.50178,0,0,1-1.22142-.50432,1.84344,1.84344,0,0,1-.42026-1.25334,1.80865,1.80865,0,0,1,.42026-1.22887,1.48732,1.48732,0,0,1,1.1895-.49687,2.73617,2.73617,0,0,1,.84.10959Z"/>
    <path d="M32.47195,59.01708H33.338v1.97151h.0133a1.20733,1.20733,0,0,1,1.04693-.52985,1.03775,1.03775,0,0,1,.86606.36813,1.54752,1.54752,0,0,1,.26493.93735v2.10025h-.86606V62.08659q0-.16119-.00638-.32876a.8448.8448,0,0,0-.0649-.30429.46893.46893,0,0,0-.16119-.23939.58118.58118,0,0,0-.32983-.08405.59559.59559,0,0,0-.375.11065.86494.86494,0,0,0-.23247.27769,1.29,1.29,0,0,0-.1165.35536,1.87318,1.87318,0,0,0-.03883.36175v1.62892h-.86606Z"/>
    <path d="M36.13036,60.5364H37.048l.73679,2.462h.01277l.67242-2.462h1.0081l.724,2.462h.01277l.69157-2.462h.82723l-1.02087,3.32806h-1.0214l-.724-2.53966h-.01277l-.71125,2.53966H37.255Z"/>
    <path d="M45.00429,63.6772a2.25859,2.25859,0,0,1-1.14375.26493,1.55625,1.55625,0,0,1-1.739-1.72574,1.98129,1.98129,0,0,1,.38781-1.247,1.40809,1.40809,0,0,1,1.15705-.5107,1.38193,1.38193,0,0,1,1.26026.56177,2.77366,2.77366,0,0,1,.32344,1.448H42.94872a.8459.8459,0,0,0,.291.6139.96338.96338,0,0,0,.65912.22662,1.68671,1.68671,0,0,0,.59475-.10427,2.58,2.58,0,0,0,.5107-.23194Zm-.58145-1.80341a.96618.96618,0,0,0-.175-.549.63012.63012,0,0,0-.52985-.233.7219.7219,0,0,0-.549.22024.9271.9271,0,0,0-.22024.56177Z"/>
    <path d="M46.03207,59.10113h.86606v.82776h-.86606Zm0,1.43528h.86606v3.32806h-.86606Z"/>
    <path d="M47.75089,60.5364h2.637v.71072L48.73345,63.192h1.71244v.67242H47.67961v-.70434l1.6869-1.95236H47.75089Z"/>
    <path d="M53.87821,63.6772a2.25859,2.25859,0,0,1-1.14375.26493,1.55625,1.55625,0,0,1-1.739-1.72574,1.98129,1.98129,0,0,1,.38781-1.247,1.40809,1.40809,0,0,1,1.15705-.5107,1.38193,1.38193,0,0,1,1.26026.56177,2.77366,2.77366,0,0,1,.32344,1.448H51.82265a.8459.8459,0,0,0,.291.6139.96338.96338,0,0,0,.65912.22662,1.68671,1.68671,0,0,0,.59475-.10427,2.58,2.58,0,0,0,.5107-.23194Zm-.58145-1.80341a.96618.96618,0,0,0-.175-.549.63012.63012,0,0,0-.52985-.233.7219.7219,0,0,0-.549.22024.9271.9271,0,0,0-.22024.56177Z"/>
    <path d="M54.906,60.5364h.76924v.75541H55.688a1.06879,1.06879,0,0,1,.28408-.53623.81829.81829,0,0,1,.6272-.29684,1.43061,1.43061,0,0,1,.26493.02553v.87244a.85981.85981,0,0,0-.38781-.07129.54192.54192,0,0,0-.40058.14257.8341.8341,0,0,0-.21332.35536,1.79954,1.79954,0,0,0-.07767.43941c-.00851.15108-.01277.29046-.01277.42026v1.22142H54.906Z"/>
    <path d="M57.50365,59.10113h.86606v.82776h-.86606Zm0,1.43528h.86606v3.32806h-.86606Z"/>
    <path d="M61.34293,61.23436a2.69548,2.69548,0,0,0-.36175-.11065,2.3332,2.3332,0,0,0-.41388-.03192.791.791,0,0,0-.33621.07129.315.315,0,0,0-.17449.29684q.00638.18832.23939.26493a2.08715,2.08715,0,0,0,.24524.08405c.091.0266.1814.05639.27184.09044a1.66118,1.66118,0,0,1,.28408.117,1.17753,1.17753,0,0,1,.233.18087.82029.82029,0,0,1,.17449.26493,1.1683,1.1683,0,0,1,.058.39366A.9361.9361,0,0,1,61.136,63.69a1.8251,1.8251,0,0,1-.96926.25216,3.81445,3.81445,0,0,1-.98256-.14257l.0516-.71072a1.77035,1.77035,0,0,0,.85329.22024.8544.8544,0,0,0,.36866-.09044.325.325,0,0,0,.2-.31706.36858.36858,0,0,0-.058-.21386.44417.44417,0,0,0-.17449-.12235,4.62821,4.62821,0,0,0-.51708-.16811,2.41263,2.41263,0,0,1-.27131-.10959.95958.95958,0,0,1-.24577-.16811A.67526.67526,0,0,1,59.223,61.861a.85211.85211,0,0,1-.07129-.36813.86833.86833,0,0,1,.4075-.78946,1.60818,1.60818,0,0,1,.89851-.24471,3.84874,3.84874,0,0,1,.52985.03192c.14629.02553.28408.05639.41335.09044Z"/>
    <path d="M64.47735,61.25351a.99585.99585,0,0,0-.24577-.09044,1.575,1.575,0,0,0-.34206-.033.80485.80485,0,0,0-.63359.28514,1.13566,1.13566,0,0,0-.24577.76924,1.24881,1.24881,0,0,0,.22662.76818.78071.78071,0,0,0,.67189.31706,1.24189,1.24189,0,0,0,.375-.05852,1.54721,1.54721,0,0,0,.29046-.09682l.03883.71817a1.91156,1.91156,0,0,1-.38781.07767,3.16852,3.16852,0,0,1-.47825.03192,1.50178,1.50178,0,0,1-1.22142-.50432,1.84344,1.84344,0,0,1-.42026-1.25334,1.80865,1.80865,0,0,1,.42026-1.22887,1.48732,1.48732,0,0,1,1.1895-.49687,2.73617,2.73617,0,0,1,.84.10959Z"/>
    <path d="M65.27212,59.01708h.86606v1.97151h.0133a1.20733,1.20733,0,0,1,1.04693-.52985,1.03775,1.03775,0,0,1,.86606.36813,1.54752,1.54752,0,0,1,.26493.93735v2.10025h-.86606V62.08659q0-.16119-.00638-.32876a.8448.8448,0,0,0-.0649-.30429.46893.46893,0,0,0-.16119-.23939.58118.58118,0,0,0-.32983-.08405.59559.59559,0,0,0-.375.11065.86494.86494,0,0,0-.23247.27769,1.29,1.29,0,0,0-.1165.35536,1.87318,1.87318,0,0,0-.03883.36175v1.62892h-.86606Z"/>
    <path d="M71.97452,63.6772a2.25859,2.25859,0,0,1-1.14375.26493,1.55625,1.55625,0,0,1-1.739-1.72574,1.98129,1.98129,0,0,1,.38781-1.247,1.40809,1.40809,0,0,1,1.15705-.5107,1.38193,1.38193,0,0,1,1.26026.56177,2.77366,2.77366,0,0,1,.32344,1.448H69.919a.8459.8459,0,0,0,.291.6139.96338.96338,0,0,0,.65912.22662,1.68671,1.68671,0,0,0,.59475-.10427,2.58,2.58,0,0,0,.5107-.23194Zm-.58145-1.80341a.96618.96618,0,0,0-.175-.549.63012.63012,0,0,0-.52985-.233.7219.7219,0,0,0-.549.22024.9271.9271,0,0,0-.22024.56177Z"/>
    <path d="M74.96051,61.23436a2.69548,2.69548,0,0,0-.36175-.11065,2.3332,2.3332,0,0,0-.41388-.03192.791.791,0,0,0-.33621.07129.315.315,0,0,0-.17449.29684q.00638.18832.23939.26493a2.08715,2.08715,0,0,0,.24524.08405c.091.0266.1814.05639.27184.09044a1.66118,1.66118,0,0,1,.28408.117,1.17753,1.17753,0,0,1,.233.18087.82029.82029,0,0,1,.17449.26493,1.1683,1.1683,0,0,1,.058.39366.9361.9361,0,0,1-.42665.83414,1.8251,1.8251,0,0,1-.96926.25216,3.81445,3.81445,0,0,1-.98256-.14257l.0516-.71072a1.77035,1.77035,0,0,0,.85329.22024.8544.8544,0,0,0,.36866-.09044.325.325,0,0,0,.2-.31706.36858.36858,0,0,0-.058-.21386.44417.44417,0,0,0-.17449-.12235,4.62821,4.62821,0,0,0-.51708-.16811,2.41263,2.41263,0,0,1-.27131-.10959.95958.95958,0,0,1-.24577-.16811.67526.67526,0,0,1-.16811-.25854.85211.85211,0,0,1-.07129-.36813.86833.86833,0,0,1,.4075-.78946,1.60818,1.60818,0,0,1,.89851-.24471,3.84874,3.84874,0,0,1,.52985.03192c.14629.02553.28408.05639.41335.09044Z"/>
    <path d="M77.89437,59.35329h1.57678a3.97145,3.97145,0,0,1,.48516.03192,1.51409,1.51409,0,0,1,.46495.16811.98876.98876,0,0,1,.36813.349,1.29254,1.29254,0,0,1,.13619.60752.9812.9812,0,0,1-.24577.666,1.13084,1.13084,0,0,1-.65221.34259v.01277a1.17922,1.17922,0,0,1,.749.32344.97776.97776,0,0,1,.28514.70434,1.26939,1.26939,0,0,1-.16172.6788,1.10148,1.10148,0,0,1-.41388.39366,1.60292,1.60292,0,0,1-.51708.18087,2.69648,2.69648,0,0,1-.49793.05213H77.89437Zm.90436,1.82256h.36919a1.40479,1.40479,0,0,0,.57454-.1032.50522.50522,0,0,0,.20747-.16811.48792.48792,0,0,0,.07129-.27769.61113.61113,0,0,0-.07129-.31706.44.44,0,0,0-.20747-.16811.86126.86126,0,0,0-.27769-.07129q-.15481-.00638-.316-.00638h-.35Zm0,1.97789h.42665a1.98082,1.98082,0,0,0,.32983-.0266,1.23812,1.23812,0,0,0,.29791-.09682.50641.50641,0,0,0,.30323-.50325.74831.74831,0,0,0-.07767-.36281.47693.47693,0,0,0-.21279-.2.85465.85465,0,0,0-.29791-.1032c-.11172-.00851-.22556-.01277-.34259-.01277h-.42665Z"/>
    <path d="M84.9069,63.86446h-.82031v-.45218h-.01277a1.35417,1.35417,0,0,1-1.09268.52985.99627.99627,0,0,1-.85329-.37451,1.48777,1.48777,0,0,1-.27769-.931V60.5364h.86606v1.77681a.91878.91878,0,0,0,.01277.149c0,.05107.00213.10533.00638.16172a1.48455,1.48455,0,0,0,.05852.316.57749.57749,0,0,0,.16811.233.47841.47841,0,0,0,.31706.09682.6147.6147,0,0,0,.39366-.12235.71933.71933,0,0,0,.22662-.27769,1.06256,1.06256,0,0,0,.116-.35643,2.58038,2.58038,0,0,0,.02553-.349V60.5364h.86606Z"/>
    <path d="M85.88255,60.5364h.82137v.45218h.01277a1.29466,1.29466,0,0,1,1.09162-.52985,1.03635,1.03635,0,0,1,.86606.36813,1.54752,1.54752,0,0,1,.26493.93735v2.10025h-.86606V62.08659q0-.16119-.00638-.32876a.856.856,0,0,0-.06384-.30429.47308.47308,0,0,0-.16172-.23939.58.58,0,0,0-.32983-.08405.594.594,0,0,0-.37451.11065.87322.87322,0,0,0-.233.27769,1.2544,1.2544,0,0,0-.116.35536,1.79572,1.79572,0,0,0-.03937.36175v1.62892h-.86606Z"/>
    <path d="M92.13329,63.48995h-.01277a1.27981,1.27981,0,0,1-1.0214.45218,1.19564,1.19564,0,0,1-1.07992-.53623,2.494,2.494,0,0,1,0-2.43008,1.34218,1.34218,0,0,1,2.07471-.05213h.01277V59.01708h.86606v4.84738h-.83946Zm-1.52571-1.29909a1.61039,1.61039,0,0,0,.15534.71072.76679.76679,0,0,0,.22662.25854.53512.53512,0,0,0,.349.10959.58488.58488,0,0,0,.36813-.10959.75232.75232,0,0,0,.233-.25854,1.226,1.226,0,0,0,.12874-.349,2.16225,2.16225,0,0,0,.03192-.36175,1.473,1.473,0,0,0-.17449-.70434.78746.78746,0,0,0-.23833-.25854.65068.65068,0,0,0-.36281-.09788.60063.60063,0,0,0-.56815.35643,1.2013,1.2013,0,0,0-.10959.34153A1.743,1.743,0,0,0,90.60758,62.19086Z"/>
    <path d="M96.61787,63.6772a2.26,2.26,0,0,1-1.14375.26493,1.5554,1.5554,0,0,1-1.7385-1.72574,1.981,1.981,0,0,1,.38728-1.247,1.40917,1.40917,0,0,1,1.15758-.5107,1.38154,1.38154,0,0,1,1.25972.56177,2.76851,2.76851,0,0,1,.32344,1.448H94.56231a.84437.84437,0,0,0,.29152.6139.962.962,0,0,0,.65859.22662,1.68457,1.68457,0,0,0,.59475-.10427,2.58,2.58,0,0,0,.5107-.23194Zm-.582-1.80341a.96592.96592,0,0,0-.17449-.549.63012.63012,0,0,0-.52985-.233.72026.72026,0,0,0-.549.22024.92073.92073,0,0,0-.22024.56177Z"/>
    <path d="M99.6044,61.23436a2.71916,2.71916,0,0,0-.36175-.11065,2.33741,2.33741,0,0,0-.41388-.03192.791.791,0,0,0-.33621.07129.315.315,0,0,0-.17449.29684q.00638.18832.23939.26493a2.13163,2.13163,0,0,0,.24577.08405c.09044.0266.18087.05639.27131.09044a1.66118,1.66118,0,0,1,.28408.117,1.17753,1.17753,0,0,1,.233.18087.82029.82029,0,0,1,.17449.26493,1.18091,1.18091,0,0,1,.05852.39366A.93837.93837,0,0,1,99.398,63.69a1.82891,1.82891,0,0,1-.97033.25216,3.8171,3.8171,0,0,1-.982-.14257l.05213-.71072a1.76732,1.76732,0,0,0,.85329.22024.85579.85579,0,0,0,.36813-.09044.32569.32569,0,0,0,.2-.31706.3648.3648,0,0,0-.05852-.21386.43656.43656,0,0,0-.17449-.12235,4.48814,4.48814,0,0,0-.51708-.16811,2.41263,2.41263,0,0,1-.27131-.10959.96885.96885,0,0,1-.24577-.16811.67934.67934,0,0,1-.167-.25854.84437.84437,0,0,1-.07129-.36813.86863.86863,0,0,1,.40643-.78946,1.61245,1.61245,0,0,1,.899-.24471,3.84874,3.84874,0,0,1,.52985.03192c.14683.02553.28408.05639.41388.09044Z"/>
    <path d="M100.729,60.71089a2.90846,2.90846,0,0,1,1.15652-.25216q1.4539-.01915,1.43528,1.40229v.42665q0,.48516.01277.83308.01277.36866.0383.74371h-.76179a3.94984,3.94984,0,0,1-.03937-.49793h-.01277a1.06948,1.06948,0,0,1-.433.42026,1.22561,1.22561,0,0,1-.59475.15534,1.33974,1.33974,0,0,1-.79478-.25854.84977.84977,0,0,1-.36813-.73094,1.01112,1.01112,0,0,1,.16811-.60752.93561.93561,0,0,1,.4-.34259,1.8547,1.8547,0,0,1,.55007-.16066,5.06518,5.06518,0,0,1,.56815-.033h.47878a.72744.72744,0,0,0-.18087-.56177.86622.86622,0,0,0-.56922-.15534,1.66877,1.66877,0,0,0-1.02778.36175Zm.46495,2.19069a.3272.3272,0,0,0,.16172.30323.665.665,0,0,0,.38834.10427.71487.71487,0,0,0,.60752-.29791,1.203,1.203,0,0,0,.18087-.68519h-.52347a.94646.94646,0,0,0-.15534.01277,1.32979,1.32979,0,0,0-.31706.07767.55641.55641,0,0,0-.23939.17449A.45423.45423,0,0,0,101.19395,62.90158Z"/>
    <path d="M104.27623,60.5364h.76924v.75541h.01277a1.08,1.08,0,0,1,.28514-.53623.81555.81555,0,0,1,.62667-.29684,1.43061,1.43061,0,0,1,.26493.02553v.87244a.86041.86041,0,0,0-.38728-.07129.54156.54156,0,0,0-.40111.14257.84019.84019,0,0,0-.21386.35536,1.82493,1.82493,0,0,0-.0766.43941c-.00958.15108-.01383.29046-.01383.42026v1.22142h-.86606Z"/>
    <path d="M108.89805,61.25351a1.00386,1.00386,0,0,0-.24577-.09044,1.57675,1.57675,0,0,0-.34259-.033.80453.80453,0,0,0-.63305.28514,1.13566,1.13566,0,0,0-.24577.76924,1.24881,1.24881,0,0,0,.22662.76818.78039.78039,0,0,0,.67242.31706,1.24364,1.24364,0,0,0,.37451-.05852,1.56066,1.56066,0,0,0,.29046-.09682l.03937.71817a1.91682,1.91682,0,0,1-.38834.07767,3.15611,3.15611,0,0,1-.47772.03192,1.50033,1.50033,0,0,1-1.22142-.50432,1.8408,1.8408,0,0,1-.42026-1.25334,1.806,1.806,0,0,1,.42026-1.22887,1.48507,1.48507,0,0,1,1.18844-.49687,2.73984,2.73984,0,0,1,.84053.10959Z"/>
    <path d="M109.69283,59.01708h.86606v1.97151h.01277a1.20862,1.20862,0,0,1,1.04693-.52985,1.03635,1.03635,0,0,1,.86606.36813,1.54752,1.54752,0,0,1,.26493.93735v2.10025h-.86606V62.08659q0-.16119-.00638-.32876a.856.856,0,0,0-.06384-.30429.47308.47308,0,0,0-.16172-.23939.58.58,0,0,0-.32983-.08405.594.594,0,0,0-.37451.11065.87322.87322,0,0,0-.233.27769,1.2544,1.2544,0,0,0-.116.35536,1.79572,1.79572,0,0,0-.03937.36175v1.62892h-.86606Z"/>
    <path d="M113.74544,59.10113h.86606v.82776h-.86606Zm0,1.43528h.86606v3.32806h-.86606Z"/>
    <path d="M115.23817,60.5364h.931l.82669,2.42369h.01277l.80222-2.42369h.86606L117.448,63.86446h-.97565Z"/>
    <path d="M121.24208,59.35329h1.57678a3.97145,3.97145,0,0,1,.48516.03192,1.5141,1.5141,0,0,1,.46495.16811.98876.98876,0,0,1,.36813.349,1.29254,1.29254,0,0,1,.13619.60752.9812.9812,0,0,1-.24577.666,1.13084,1.13084,0,0,1-.65221.34259v.01277a1.17922,1.17922,0,0,1,.749.32344.97776.97776,0,0,1,.28514.70434,1.26939,1.26939,0,0,1-.16172.6788,1.10148,1.10148,0,0,1-.41388.39366,1.60292,1.60292,0,0,1-.51708.18087,2.69648,2.69648,0,0,1-.49793.05213h-1.57678Zm.90436,1.82256h.36919a1.40479,1.40479,0,0,0,.57454-.1032.50522.50522,0,0,0,.20747-.16811.48792.48792,0,0,0,.07129-.27769.61113.61113,0,0,0-.07129-.31706.44.44,0,0,0-.20747-.16811.86126.86126,0,0,0-.27769-.07129q-.15481-.00638-.316-.00638h-.35Zm0,1.97789h.42665a1.98082,1.98082,0,0,0,.32983-.0266,1.23812,1.23812,0,0,0,.29791-.09682.50641.50641,0,0,0,.30323-.50325.74831.74831,0,0,0-.07767-.36281.47693.47693,0,0,0-.21279-.2.85465.85465,0,0,0-.29791-.1032c-.11172-.00851-.22556-.01277-.34259-.01277h-.42665Z"/>
    <path d="M126.56824,59.35329h1.0214l1.77042,4.51117h-1.00118l-.38834-1.03417h-1.82894l-.39473,1.03417h-.93628Zm.49793.90436h-.01277l-.65327,1.86192h1.31824Z"/>
    <path d="M129.94843,59.35329h.97565q.375,0,.75009.00638a2.44193,2.44193,0,0,1,.68519.12874.98875.98875,0,0,1,.50432.36281,1.26151,1.26151,0,0,1,.18726.72349,1.03663,1.03663,0,0,1-.24577.69157,1.05877,1.05877,0,0,1-.68519.35536v.01277a.43008.43008,0,0,1,.29791.16172,1.15625,1.15625,0,0,1,.18087.30429l.72349,1.764H132.3136l-.54262-1.40868a.78466.78466,0,0,0-.21279-.36175.67906.67906,0,0,0-.41388-.10427h-.29046v1.87469h-.90543Zm.90543,1.92576h.29684a2.407,2.407,0,0,0,.349-.02553.97181.97181,0,0,0,.30429-.08405.59976.59976,0,0,0,.22556-.18726.63076.63076,0,0,0,.07767-.32983.60782.60782,0,0,0-.07767-.32983.56775.56775,0,0,0-.22556-.17449,1.1,1.1,0,0,0-.30429-.07767c-.116-.00426-.233-.00638-.349-.00638h-.29684Z"/>
  </g>
</svg>
