<svg xmlns="http://www.w3.org/2000/svg" viewBox="0 0 170 87"><path d="M18.267 14.194a24.652 24.652 0 0 0-9.117-1.493H9.15A24.66 24.66 0 0 0 .03 14.194s-.305 6.611.99 10.35a13.82 13.82 0 0 0 8.127 8.418h.003a13.822 13.822 0 0 0 8.128-8.419c1.294-3.738.988-10.349.988-10.349" fill="red"/><path d="M25.828 18.315a1.71 1.71 0 0 0 .995.265 1.146 1.146 0 0 0 .724-.226.855.855 0 0 0 .29-.698.682.682 0 0 0-.322-.556 2.153 2.153 0 0 0-.33-.22c-.125-.068-.252-.138-.38-.206q-.195-.11-.376-.233a1.989 1.989 0 0 1-.336-.259.915.915 0 0 1-.323-.704 1.049 1.049 0 0 1 .42-.866 1.654 1.654 0 0 1 1.008-.31 3.847 3.847 0 0 1 .414.026 2.598 2.598 0 0 1 .472.122l-.072.408a2.003 2.003 0 0 0-1.163-.136.97.97 0 0 0-.317.136.686.686 0 0 0-.226.232.736.736 0 0 0-.09.375.527.527 0 0 0 .09.297.933.933 0 0 0 .233.24 2.465 2.465 0 0 0 .336.206c.12.07.246.14.375.214a2.623 2.623 0 0 1 .71.49 1.182 1.182 0 0 1-.148 1.759 1.795 1.795 0 0 1-1.008.297 2.311 2.311 0 0 1-1.021-.207ZM31.768 16.034a1.742 1.742 0 0 0-.705-.168 1.144 1.144 0 0 0-.911.381 1.469 1.469 0 0 0-.33.995 1.453 1.453 0 0 0 .324.963 1.061 1.061 0 0 0 .872.414 1.93 1.93 0 0 0 .743-.149l.039.388a2.87 2.87 0 0 1-.846.11 1.423 1.423 0 0 1-1.183-.523 1.877 1.877 0 0 1-.395-1.203 1.75 1.75 0 0 1 .453-1.247 1.55 1.55 0 0 1 1.176-.478 2.366 2.366 0 0 1 .504.045c.07.013.13.026.181.039a1.049 1.049 0 0 1 .11.045ZM32.976 14.043h.407v2.107h.014a1.174 1.174 0 0 1 .4-.459 1.189 1.189 0 0 1 .627-.174.99.99 0 0 1 .898.388 1.913 1.913 0 0 1 .226 1.014v1.971h-.407v-1.964a3.169 3.169 0 0 0-.026-.414.878.878 0 0 0-.11-.33.662.662 0 0 0-.646-.316.828.828 0 0 0-.756.407 1.639 1.639 0 0 0-.22.853v1.764h-.407ZM40.441 18.89h-.491l-.899-2.85h-.012l-.899 2.85h-.49l-1.061-3.296h.446l.866 2.85h.013l.918-2.85h.49l.873 2.85h.014l.91-2.85h.408ZM44.778 18.787a2.818 2.818 0 0 1-.956.181 1.357 1.357 0 0 1-1.157-.498 1.984 1.984 0 0 1-.343-1.228 1.969 1.969 0 0 1 .388-1.247 1.22 1.22 0 0 1 1.002-.478A1.155 1.155 0 0 1 44.72 16a2.064 2.064 0 0 1 .304 1.151v.207h-2.256a1.377 1.377 0 0 0 .278.885.954.954 0 0 0 .808.375 1.673 1.673 0 0 0 .504-.084 1.74 1.74 0 0 0 .42-.162Zm-.2-1.777a1.595 1.595 0 0 0-.188-.789.724.724 0 0 0-.652-.355.863.863 0 0 0-.705.361 1.26 1.26 0 0 0-.265.783ZM46.691 14.716h-.407v-.544h.407Zm-.407.878h.407v3.296h-.407ZM47.9 18.548l1.984-2.605h-1.906v-.349h2.378v.35l-1.984 2.598h1.984v.349H47.9ZM53.768 18.787a2.818 2.818 0 0 1-.956.181 1.357 1.357 0 0 1-1.157-.498 1.984 1.984 0 0 1-.343-1.228 1.969 1.969 0 0 1 .388-1.247 1.22 1.22 0 0 1 1.001-.478 1.155 1.155 0 0 1 1.01.484 2.064 2.064 0 0 1 .303 1.151v.207h-2.256a1.377 1.377 0 0 0 .278.885.954.954 0 0 0 .808.375 1.673 1.673 0 0 0 .504-.084 1.74 1.74 0 0 0 .42-.162Zm-.2-1.777a1.595 1.595 0 0 0-.188-.789.724.724 0 0 0-.652-.355.863.863 0 0 0-.705.361 1.26 1.26 0 0 0-.265.783ZM55.274 16.331q0-.459-.026-.737h.408v.633h.012a1.413 1.413 0 0 1 .33-.497.724.724 0 0 1 .517-.213 1.348 1.348 0 0 1 .284.039v.426a1.07 1.07 0 0 0-.297-.039.697.697 0 0 0-.394.117.85.85 0 0 0-.252.316 1.661 1.661 0 0 0-.13.42 2.483 2.483 0 0 0-.045.466v1.628h-.407ZM58.318 14.716h-.407v-.544h.407Zm-.407.878h.407v3.296h-.407ZM60.438 18.62a.831.831 0 0 0 .517-.163.51.51 0 0 0 .213-.426.551.551 0 0 0-.239-.459 2.825 2.825 0 0 0-.55-.29q-.148-.072-.284-.15a2.057 2.057 0 0 1-.258-.174.888.888 0 0 1-.181-.239.62.62 0 0 1-.071-.304.772.772 0 0 1 .336-.698 1.348 1.348 0 0 1 .737-.2 3.219 3.219 0 0 1 .368.027 2.3 2.3 0 0 1 .446.128l-.039.349a1.958 1.958 0 0 0-.73-.155.96.96 0 0 0-.504.115.39.39 0 0 0-.149.16.545.545 0 0 0-.058.27.306.306 0 0 0 .07.194.764.764 0 0 0 .189.153c.077.043.165.088.265.135.099.044.195.091.29.143a1.847 1.847 0 0 1 .562.363.941.941 0 0 1 .143 1.063.898.898 0 0 1-.278.292 1.488 1.488 0 0 1-.77.214 2.785 2.785 0 0 1-.923-.155l.038-.4a1.849 1.849 0 0 0 .86.206ZM64.975 16.034a1.742 1.742 0 0 0-.705-.168 1.144 1.144 0 0 0-.91.381 1.469 1.469 0 0 0-.33.995 1.453 1.453 0 0 0 .323.963 1.061 1.061 0 0 0 .872.414 1.93 1.93 0 0 0 .743-.149l.04.388a2.87 2.87 0 0 1-.847.11 1.423 1.423 0 0 1-1.183-.523 1.877 1.877 0 0 1-.395-1.203 1.75 1.75 0 0 1 .453-1.247 1.55 1.55 0 0 1 1.176-.478 2.366 2.366 0 0 1 .504.045c.07.013.13.026.182.039a1.049 1.049 0 0 1 .11.045ZM66.183 14.043h.407v2.107h.014a1.174 1.174 0 0 1 .4-.459 1.189 1.189 0 0 1 .627-.174.99.99 0 0 1 .898.388 1.913 1.913 0 0 1 .227 1.014v1.971h-.407v-1.964a3.169 3.169 0 0 0-.027-.414.878.878 0 0 0-.11-.33.662.662 0 0 0-.645-.316.828.828 0 0 0-.757.407 1.639 1.639 0 0 0-.22.853v1.764h-.407ZM72.472 18.787a2.818 2.818 0 0 1-.957.181 1.357 1.357 0 0 1-1.157-.498 1.984 1.984 0 0 1-.342-1.228 1.969 1.969 0 0 1 .388-1.247 1.22 1.22 0 0 1 1.001-.478 1.155 1.155 0 0 1 1.009.484 2.064 2.064 0 0 1 .304 1.151v.207h-2.256a1.377 1.377 0 0 0 .278.885.954.954 0 0 0 .808.375 1.673 1.673 0 0 0 .504-.084 1.74 1.74 0 0 0 .42-.162Zm-.2-1.777a1.595 1.595 0 0 0-.188-.789.724.724 0 0 0-.653-.355.863.863 0 0 0-.704.361 1.26 1.26 0 0 0-.265.783ZM76.305 14.38h2.21v.387h-1.764v1.61h1.674v.387H76.75v1.739h1.842v.387h-2.288ZM80.383 14.716h-.407v-.544h.407Zm-.407.878h.407v3.296h-.407ZM84.506 18.89H84.1v-.523h-.013a1.071 1.071 0 0 1-1.027.601 1.182 1.182 0 0 1-1.015-.498 2.078 2.078 0 0 1-.343-1.228 2.125 2.125 0 0 1 .317-1.24 1.347 1.347 0 0 1 1.467-.414.983.983 0 0 1 .31.18.884.884 0 0 1 .291.382h.013v-2.107h.407Zm-2.358-1.648a2.52 2.52 0 0 0 .045.472 1.857 1.857 0 0 0 .155.452.973.973 0 0 0 .303.318.767.767 0 0 0 .472.135.792.792 0 0 0 .466-.135.96.96 0 0 0 .297-.33 1.956 1.956 0 0 0 .213-.912 2.67 2.67 0 0 0-.045-.478 1.595 1.595 0 0 0-.168-.44 1.023 1.023 0 0 0-.297-.335.852.852 0 0 0-.466-.123.825.825 0 0 0-.472.123.88.88 0 0 0-.303.322 1.65 1.65 0 0 0-.155.44 2.685 2.685 0 0 0-.045.491ZM88.59 18.62a1.947 1.947 0 0 1-.342 1.175 1.437 1.437 0 0 1-1.206.491 2.853 2.853 0 0 1-.596-.07q-.265-.065-.402-.104l.033-.407a2.12 2.12 0 0 0 .97.232 1.246 1.246 0 0 0 .62-.142.798.798 0 0 0 .342-.361 1.554 1.554 0 0 0 .149-.537c.017-.202.026-.42.026-.653h-.013a1.065 1.065 0 0 1-1.002.646 1.185 1.185 0 0 1-1.086-.555 1.61 1.61 0 0 1-.226-.53 2.408 2.408 0 0 1 .24-1.804 1.179 1.179 0 0 1 1.04-.484 2.053 2.053 0 0 1 .569.07 1.078 1.078 0 0 1 .458.382h.013v-.375h.414Zm-2.364-1.378a1.65 1.65 0 0 0 .22.886.791.791 0 0 0 .73.414.85.85 0 0 0 .782-.427 1.787 1.787 0 0 0 .22-.873 2.046 2.046 0 0 0-.207-.989.815.815 0 0 0-.77-.387.825.825 0 0 0-.472.123.88.88 0 0 0-.303.322 1.65 1.65 0 0 0-.155.44 2.685 2.685 0 0 0-.045.491ZM92.262 18.787a2.818 2.818 0 0 1-.957.181 1.357 1.357 0 0 1-1.157-.498 1.984 1.984 0 0 1-.342-1.228 1.969 1.969 0 0 1 .388-1.247 1.22 1.22 0 0 1 1.001-.478 1.155 1.155 0 0 1 1.009.484 2.064 2.064 0 0 1 .304 1.151v.207h-2.256a1.377 1.377 0 0 0 .278.885.954.954 0 0 0 .808.375 1.673 1.673 0 0 0 .504-.084 1.74 1.74 0 0 0 .42-.162Zm-.2-1.777a1.595 1.595 0 0 0-.188-.789.724.724 0 0 0-.653-.355.863.863 0 0 0-.704.361 1.26 1.26 0 0 0-.265.783ZM93.769 16.37c0-.254-.01-.513-.027-.776h.395v.588h.012a2.076 2.076 0 0 1 .137-.232.957.957 0 0 1 .193-.214.88.88 0 0 1 .305-.161 1.424 1.424 0 0 1 .432-.058 1.033 1.033 0 0 1 .872.361 1.51 1.51 0 0 1 .253.905v2.107h-.408v-2.003a1.395 1.395 0 0 0-.175-.75.707.707 0 0 0-.606-.271.838.838 0 0 0-.764.387 1.144 1.144 0 0 0-.162.382 1.854 1.854 0 0 0-.05.433v1.822h-.407ZM97.595 17.242a1.94 1.94 0 0 1 .374-1.202 1.569 1.569 0 0 1 2.34 0 2.163 2.163 0 0 1 0 2.398 1.556 1.556 0 0 1-2.34 0 1.947 1.947 0 0 1-.374-1.196Zm.445 0a1.578 1.578 0 0 0 .284.97.928.928 0 0 0 .81.407.958.958 0 0 0 .82-.407 1.63 1.63 0 0 0 .27-.97 1.693 1.693 0 0 0-.27-.982.97.97 0 0 0-.82-.394.94.94 0 0 0-.81.394 1.637 1.637 0 0 0-.284.982ZM102.532 18.62a.831.831 0 0 0 .517-.163.51.51 0 0 0 .213-.426.553.553 0 0 0-.238-.459 2.83 2.83 0 0 0-.55-.29q-.149-.072-.284-.15a2.057 2.057 0 0 1-.259-.174.877.877 0 0 1-.18-.24.615.615 0 0 1-.072-.303.77.77 0 0 1 .336-.698 1.347 1.347 0 0 1 .737-.2 3.243 3.243 0 0 1 .369.027 2.316 2.316 0 0 1 .446.128l-.04.349a1.951 1.951 0 0 0-.73-.155.962.962 0 0 0-.504.115.391.391 0 0 0-.149.16.551.551 0 0 0-.057.27.304.304 0 0 0 .07.193.75.75 0 0 0 .188.154c.078.043.166.088.265.135.099.043.196.091.29.143a1.85 1.85 0 0 1 .563.363.852.852 0 0 1 .246.63.838.838 0 0 1-.104.433.902.902 0 0 1-.278.292 1.49 1.49 0 0 1-.77.214 2.778 2.778 0 0 1-.923-.155l.039-.4a1.849 1.849 0 0 0 .86.206ZM105.53 18.62a.831.831 0 0 0 .518-.163.51.51 0 0 0 .212-.426.553.553 0 0 0-.238-.459 2.83 2.83 0 0 0-.55-.29q-.148-.072-.284-.15a2.057 2.057 0 0 1-.259-.174.877.877 0 0 1-.18-.24.615.615 0 0 1-.072-.303.77.77 0 0 1 .337-.698 1.347 1.347 0 0 1 .736-.2 3.243 3.243 0 0 1 .369.027 2.316 2.316 0 0 1 .446.128l-.04.349a1.951 1.951 0 0 0-.73-.155.962.962 0 0 0-.504.115.391.391 0 0 0-.149.16.551.551 0 0 0-.057.27.304.304 0 0 0 .071.193.75.75 0 0 0 .187.154c.078.043.166.088.265.135.1.043.196.091.29.143a1.85 1.85 0 0 1 .564.363.852.852 0 0 1 .245.63.838.838 0 0 1-.104.433.902.902 0 0 1-.278.292 1.49 1.49 0 0 1-.769.214 2.778 2.778 0 0 1-.923-.155l.038-.4a1.849 1.849 0 0 0 .86.206ZM110.132 18.787a2.813 2.813 0 0 1-.956.181 1.357 1.357 0 0 1-1.157-.498 1.98 1.98 0 0 1-.342-1.228 1.969 1.969 0 0 1 .388-1.247 1.218 1.218 0 0 1 1.001-.478 1.157 1.157 0 0 1 1.009.484 2.064 2.064 0 0 1 .303 1.151v.207h-2.256a1.377 1.377 0 0 0 .278.885.957.957 0 0 0 .809.375 1.679 1.679 0 0 0 .504-.084 1.72 1.72 0 0 0 .42-.162Zm-.2-1.777a1.6 1.6 0 0 0-.187-.789.725.725 0 0 0-.653-.355.864.864 0 0 0-.705.361 1.263 1.263 0 0 0-.265.783ZM111.639 16.37q0-.381-.026-.776h.394v.588h.013a2.253 2.253 0 0 1 .136-.232.983.983 0 0 1 .194-.214.89.89 0 0 1 .304-.161 1.436 1.436 0 0 1 .433-.058 1.033 1.033 0 0 1 .872.361 1.51 1.51 0 0 1 .252.905v2.107h-.407v-2.003a1.405 1.405 0 0 0-.175-.75.707.707 0 0 0-.607-.271.836.836 0 0 0-.763.387 1.102 1.102 0 0 0-.162.382 1.854 1.854 0 0 0-.05.433v1.822h-.408ZM116.324 18.62a.831.831 0 0 0 .518-.163.51.51 0 0 0 .212-.426.553.553 0 0 0-.238-.459 2.83 2.83 0 0 0-.55-.29q-.148-.072-.284-.15a2.057 2.057 0 0 1-.259-.174.877.877 0 0 1-.18-.24.615.615 0 0 1-.072-.303.77.77 0 0 1 .336-.698 1.347 1.347 0 0 1 .737-.2 3.243 3.243 0 0 1 .369.027 2.316 2.316 0 0 1 .446.128l-.04.349a1.951 1.951 0 0 0-.73-.155.962.962 0 0 0-.504.115.391.391 0 0 0-.149.16.551.551 0 0 0-.057.27.304.304 0 0 0 .07.193.75.75 0 0 0 .188.154c.078.043.166.088.265.135.099.043.196.091.29.143a1.85 1.85 0 0 1 .563.363.852.852 0 0 1 .246.63.838.838 0 0 1-.104.433.902.902 0 0 1-.278.292 1.49 1.49 0 0 1-.77.214 2.778 2.778 0 0 1-.923-.155l.039-.4a1.849 1.849 0 0 0 .86.206ZM120.862 16.034a1.747 1.747 0 0 0-.704-.168 1.143 1.143 0 0 0-.912.381 1.466 1.466 0 0 0-.33.995 1.45 1.45 0 0 0 .324.963 1.061 1.061 0 0 0 .872.414 1.935 1.935 0 0 0 .744-.149l.038.388a2.868 2.868 0 0 1-.847.11 1.421 1.421 0 0 1-1.182-.523 1.877 1.877 0 0 1-.395-1.203 1.751 1.751 0 0 1 .453-1.247 1.552 1.552 0 0 1 1.176-.478 2.375 2.375 0 0 1 .505.045c.068.013.128.026.18.039a1.1 1.1 0 0 1 .11.045ZM122.07 14.043h.407v2.107h.013a1.172 1.172 0 0 1 .4-.459 1.191 1.191 0 0 1 .628-.174.989.989 0 0 1 .898.388 1.913 1.913 0 0 1 .226 1.014v1.971h-.407v-1.964a3.172 3.172 0 0 0-.026-.414.889.889 0 0 0-.11-.33.66.66 0 0 0-.646-.316.828.828 0 0 0-.757.407 1.634 1.634 0 0 0-.219.853v1.764h-.407ZM128.042 18.36h-.013a.991.991 0 0 1-.433.446 1.351 1.351 0 0 1-.614.162 1.337 1.337 0 0 1-.556-.11.85.85 0 0 1-.337-.245 1.01 1.01 0 0 1-.193-.576.989.989 0 0 1 .2-.653 1.08 1.08 0 0 1 .498-.342 2.657 2.657 0 0 1 .66-.142c.231-.013.456-.02.67-.02h.078v-.167q.02-.847-.749-.847a1.802 1.802 0 0 0-.97.271v-.388a2.382 2.382 0 0 1 .97-.232q1.17-.013 1.157 1.228v1.454a5.062 5.062 0 0 0 .032.692h-.4Zm-.04-1.13h-.116q-.264 0-.53.012a1.971 1.971 0 0 0-.504.11.802.802 0 0 0-.361.24.616.616 0 0 0-.15.432.5.5 0 0 0 .208.453.782.782 0 0 0 .478.142.977.977 0 0 0 .563-.142.83.83 0 0 0 .29-.323 1.058 1.058 0 0 0 .11-.395q.012-.2.012-.33ZM130.142 15.943h-.666v-.349h.666v-.239a5.13 5.13 0 0 1 .026-.517 1.256 1.256 0 0 1 .097-.44.673.673 0 0 1 .265-.316.864.864 0 0 1 .485-.117q.103 0 .213.007a.46.46 0 0 1 .168.058l-.026.35a.743.743 0 0 0-.322-.066.45.45 0 0 0-.305.09.526.526 0 0 0-.149.253 1.27 1.27 0 0 0-.038.317 9.169 9.169 0 0 0-.006.336v.284h.742v.35h-.742v2.946h-.408ZM133.923 15.943h-.749v2.133a.67.67 0 0 0 .104.381.36.36 0 0 0 .336.162.832.832 0 0 0 .374-.078l.026.337a2.243 2.243 0 0 1-.2.058 1.295 1.295 0 0 1-.297.032.835.835 0 0 1-.42-.09.608.608 0 0 1-.227-.24 1.23 1.23 0 0 1-.084-.349q-.02-.194-.02-.42v-1.926h-.646v-.349h.647V14.8l.407-.142v.937h.75ZM29.047 23.79a1.605 1.605 0 0 0-.485-.162 4.482 4.482 0 0 0-.524-.032 1.737 1.737 0 0 0-1.35.55 2.288 2.288 0 0 0-.007 2.791 1.705 1.705 0 0 0 1.357.55 3.413 3.413 0 0 0 .524-.045 1.396 1.396 0 0 0 .485-.15l.026.388a1.615 1.615 0 0 1-.498.15 3.736 3.736 0 0 1-.537.045 2.215 2.215 0 0 1-1.667-.647 2.32 2.32 0 0 1-.607-1.687 2.368 2.368 0 0 1 .614-1.687 2.219 2.219 0 0 1 1.66-.646 5.338 5.338 0 0 1 .537.032 1.488 1.488 0 0 1 .498.136ZM30.45 26.149a1.94 1.94 0 0 1 .374-1.202 1.376 1.376 0 0 1 1.164-.524 1.392 1.392 0 0 1 1.176.524 2.168 2.168 0 0 1 0 2.398 1.386 1.386 0 0 1-1.176.53 1.37 1.37 0 0 1-1.164-.53 1.948 1.948 0 0 1-.375-1.196Zm.445 0a1.574 1.574 0 0 0 .285.97.925.925 0 0 0 .808.407.958.958 0 0 0 .82-.408 1.627 1.627 0 0 0 .272-.97 1.69 1.69 0 0 0-.272-.982.97.97 0 0 0-.82-.394.936.936 0 0 0-.808.394 1.634 1.634 0 0 0-.285.983ZM34.78 25.276q0-.381-.026-.775h.394v.588h.013a2.246 2.246 0 0 1 .136-.233.997.997 0 0 1 .193-.213.893.893 0 0 1 .304-.162 1.439 1.439 0 0 1 .433-.058 1.033 1.033 0 0 1 .873.362 1.51 1.51 0 0 1 .252.905v2.107h-.407v-2.004a1.405 1.405 0 0 0-.175-.75.707.707 0 0 0-.607-.271.835.835 0 0 0-.763.388 1.112 1.112 0 0 0-.162.381 1.826 1.826 0 0 0-.051.433v1.823h-.407ZM39.136 24.85h-.666v-.35h.665v-.239a4.977 4.977 0 0 1 .027-.517 1.268 1.268 0 0 1 .096-.44.68.68 0 0 1 .265-.316.867.867 0 0 1 .485-.116c.07 0 .14.002.213.006a.449.449 0 0 1 .168.059l-.025.349a.748.748 0 0 0-.324-.065.45.45 0 0 0-.303.09.517.517 0 0 0-.149.252 1.245 1.245 0 0 0-.039.317 9.169 9.169 0 0 0-.006.336v.285h.743v.349h-.743v2.947h-.407ZM43.705 27.694a2.818 2.818 0 0 1-.956.18 1.357 1.357 0 0 1-1.157-.497 2.281 2.281 0 0 1 .045-2.476 1.22 1.22 0 0 1 1.002-.478 1.155 1.155 0 0 1 1.008.485 2.064 2.064 0 0 1 .304 1.15v.207h-2.256a1.377 1.377 0 0 0 .278.886.954.954 0 0 0 .808.375 1.673 1.673 0 0 0 .504-.085 1.74 1.74 0 0 0 .42-.161Zm-.2-1.778a1.595 1.595 0 0 0-.188-.789.724.724 0 0 0-.652-.355.863.863 0 0 0-.705.362 1.26 1.26 0 0 0-.265.782Zm-.66-2.708h.511l-.814.93h-.298ZM47.822 27.797h-.407v-.524h-.013a1.071 1.071 0 0 1-1.027.602 1.182 1.182 0 0 1-1.015-.498 2.078 2.078 0 0 1-.343-1.228 2.125 2.125 0 0 1 .317-1.241 1.347 1.347 0 0 1 1.467-.414.983.983 0 0 1 .31.181.884.884 0 0 1 .29.382h.014v-2.108h.407Zm-2.359-1.648a2.52 2.52 0 0 0 .046.472 1.857 1.857 0 0 0 .154.452.973.973 0 0 0 .304.317.767.767 0 0 0 .472.136.792.792 0 0 0 .466-.136.96.96 0 0 0 .297-.33 1.956 1.956 0 0 0 .213-.911 2.67 2.67 0 0 0-.045-.478 1.595 1.595 0 0 0-.168-.44 1.023 1.023 0 0 0-.297-.336.852.852 0 0 0-.466-.123.825.825 0 0 0-.472.123.88.88 0 0 0-.304.323 1.65 1.65 0 0 0-.154.44 2.685 2.685 0 0 0-.046.49ZM51.5 27.694a2.818 2.818 0 0 1-.957.18 1.357 1.357 0 0 1-1.157-.497 2.281 2.281 0 0 1 .045-2.476 1.22 1.22 0 0 1 1.002-.478 1.155 1.155 0 0 1 1.009.485 2.064 2.064 0 0 1 .304 1.15v.207h-2.257a1.377 1.377 0 0 0 .279.886.954.954 0 0 0 .808.375 1.673 1.673 0 0 0 .503-.085 1.74 1.74 0 0 0 .42-.161Zm-.2-1.778a1.595 1.595 0 0 0-.188-.789.724.724 0 0 0-.653-.355.863.863 0 0 0-.704.362 1.26 1.26 0 0 0-.266.782Zm-.66-2.708h.51l-.814.93h-.297ZM53.006 25.238q0-.46-.026-.737h.407v.633h.013a1.413 1.413 0 0 1 .33-.498.724.724 0 0 1 .516-.213 1.348 1.348 0 0 1 .285.039v.427a1.07 1.07 0 0 0-.297-.04.697.697 0 0 0-.395.117.85.85 0 0 0-.252.317 1.661 1.661 0 0 0-.129.42 2.483 2.483 0 0 0-.045.465v1.629h-.407ZM57.537 27.267h-.014a.983.983 0 0 1-.433.446 1.337 1.337 0 0 1-1.17.051.854.854 0 0 1-.336-.245 1.006 1.006 0 0 1-.193-.575.983.983 0 0 1 .2-.653 1.073 1.073 0 0 1 .498-.343 2.663 2.663 0 0 1 .659-.142q.35-.019.672-.019h.078v-.168q.019-.847-.75-.847a1.797 1.797 0 0 0-.97.271v-.387a2.375 2.375 0 0 1 .97-.233q1.17-.013 1.157 1.228v1.454a4.974 4.974 0 0 0 .032.692h-.4Zm-.04-1.131h-.116q-.265 0-.53.013a1.961 1.961 0 0 0-.504.11.802.802 0 0 0-.362.239.614.614 0 0 0-.149.433.5.5 0 0 0 .207.452.784.784 0 0 0 .479.142.976.976 0 0 0 .562-.142.828.828 0 0 0 .29-.323 1.068 1.068 0 0 0 .11-.394c.009-.134.014-.244.014-.33ZM60.78 24.85h-.75v2.132a.67.67 0 0 0 .104.382.359.359 0 0 0 .336.162.831.831 0 0 0 .375-.078l.026.336a2.32 2.32 0 0 1-.2.058 1.296 1.296 0 0 1-.298.033.833.833 0 0 1-.42-.09.604.604 0 0 1-.226-.24 1.23 1.23 0 0 1-.084-.35q-.02-.193-.02-.42V24.85h-.646v-.35h.647v-.795l.407-.142v.938h.75ZM62.403 23.622h-.407v-.543h.407Zm-.407.879h.407v3.296h-.407ZM63.663 26.149a1.94 1.94 0 0 1 .375-1.202 1.376 1.376 0 0 1 1.163-.524 1.392 1.392 0 0 1 1.177.524 2.168 2.168 0 0 1 0 2.398 1.386 1.386 0 0 1-1.177.53 1.37 1.37 0 0 1-1.163-.53 1.948 1.948 0 0 1-.375-1.196Zm.446 0a1.574 1.574 0 0 0 .284.97.925.925 0 0 0 .808.407.958.958 0 0 0 .82-.408 1.627 1.627 0 0 0 .273-.97 1.69 1.69 0 0 0-.272-.982.97.97 0 0 0-.82-.394.936.936 0 0 0-.809.394 1.634 1.634 0 0 0-.284.983ZM67.994 25.276q0-.381-.026-.775h.394v.588h.013a2.246 2.246 0 0 1 .136-.233.997.997 0 0 1 .193-.213.893.893 0 0 1 .304-.162 1.439 1.439 0 0 1 .433-.058 1.033 1.033 0 0 1 .873.362 1.51 1.51 0 0 1 .252.905v2.107h-.407v-2.004a1.405 1.405 0 0 0-.175-.75.707.707 0 0 0-.607-.271.835.835 0 0 0-.763.388 1.112 1.112 0 0 0-.162.381 1.826 1.826 0 0 0-.051.433v1.823h-.407ZM74.961 27.526a.831.831 0 0 0 .517-.162.51.51 0 0 0 .213-.427.551.551 0 0 0-.239-.458 2.825 2.825 0 0 0-.55-.291q-.148-.071-.284-.15a2.057 2.057 0 0 1-.258-.174.888.888 0 0 1-.181-.239.62.62 0 0 1-.071-.303.772.772 0 0 1 .336-.698 1.348 1.348 0 0 1 .737-.201 3.219 3.219 0 0 1 .368.027 2.3 2.3 0 0 1 .446.128l-.039.35a1.958 1.958 0 0 0-.73-.156.96.96 0 0 0-.504.115.39.39 0 0 0-.149.161.545.545 0 0 0-.058.27.306.306 0 0 0 .071.193.764.764 0 0 0 .188.154c.077.043.165.087.265.135.099.043.195.09.29.142a1.847 1.847 0 0 1 .562.364.941.941 0 0 1 .143 1.063.898.898 0 0 1-.278.292 1.488 1.488 0 0 1-.77.213 2.785 2.785 0 0 1-.923-.155l.038-.4a1.849 1.849 0 0 0 .86.207ZM79.924 27.021q-.006.375.026.776h-.394v-.589h-.013a1.094 1.094 0 0 1-.122.22 1.07 1.07 0 0 1-.2.22.965.965 0 0 1-.305.155 1.205 1.205 0 0 1-.44.072 1.024 1.024 0 0 1-.865-.363 1.427 1.427 0 0 1-.259-.904V24.5h.407v2.003a1.259 1.259 0 0 0 .188.737.65.65 0 0 0 .594.285.9.9 0 0 0 .472-.117.79.79 0 0 0 .298-.285 1.173 1.173 0 0 0 .161-.387 1.96 1.96 0 0 0 .046-.414v-1.822h.407ZM81.837 23.622h-.407v-.543h.407Zm-.407.879h.407v3.296h-.407ZM83.957 27.526a.831.831 0 0 0 .517-.162.51.51 0 0 0 .214-.427.551.551 0 0 0-.24-.458 2.825 2.825 0 0 0-.55-.291q-.148-.071-.283-.15a2.057 2.057 0 0 1-.259-.174.888.888 0 0 1-.18-.239.62.62 0 0 1-.072-.303.772.772 0 0 1 .336-.698 1.348 1.348 0 0 1 .737-.201 3.219 3.219 0 0 1 .368.027 2.3 2.3 0 0 1 .446.128l-.038.35a1.958 1.958 0 0 0-.73-.156.96.96 0 0 0-.505.115.39.39 0 0 0-.149.161.545.545 0 0 0-.058.27.306.306 0 0 0 .071.193.764.764 0 0 0 .188.154c.077.043.165.087.265.135.099.043.196.09.29.142a1.847 1.847 0 0 1 .563.364.941.941 0 0 1 .142 1.063.898.898 0 0 1-.278.292 1.488 1.488 0 0 1-.77.213 2.785 2.785 0 0 1-.923-.155l.039-.4a1.849 1.849 0 0 0 .86.207ZM86.956 27.526a.831.831 0 0 0 .517-.162.51.51 0 0 0 .213-.427.551.551 0 0 0-.239-.458 2.825 2.825 0 0 0-.55-.291q-.148-.071-.284-.15a2.057 2.057 0 0 1-.258-.174.888.888 0 0 1-.18-.239.62.62 0 0 1-.072-.303.772.772 0 0 1 .336-.698 1.348 1.348 0 0 1 .737-.201 3.219 3.219 0 0 1 .368.027 2.3 2.3 0 0 1 .446.128l-.039.35a1.958 1.958 0 0 0-.73-.156.96.96 0 0 0-.504.115.39.39 0 0 0-.149.161.545.545 0 0 0-.058.27.306.306 0 0 0 .071.193.764.764 0 0 0 .188.154c.077.043.165.087.265.135.099.043.195.09.29.142a1.847 1.847 0 0 1 .562.364.941.941 0 0 1 .143 1.063.898.898 0 0 1-.278.292 1.488 1.488 0 0 1-.77.213 2.785 2.785 0 0 1-.923-.155l.038-.4a1.849 1.849 0 0 0 .86.207ZM91.558 27.694a2.818 2.818 0 0 1-.957.18 1.357 1.357 0 0 1-1.157-.497 2.281 2.281 0 0 1 .045-2.476 1.22 1.22 0 0 1 1.002-.478 1.155 1.155 0 0 1 1.009.485 2.064 2.064 0 0 1 .303 1.15v.207h-2.256a1.377 1.377 0 0 0 .279.886.954.954 0 0 0 .808.375 1.673 1.673 0 0 0 .503-.085 1.74 1.74 0 0 0 .42-.161Zm-.2-1.778a1.595 1.595 0 0 0-.188-.789.724.724 0 0 0-.653-.355.863.863 0 0 0-.704.362 1.26 1.26 0 0 0-.266.782ZM29.047 32.696a1.605 1.605 0 0 0-.485-.16 4.482 4.482 0 0 0-.524-.033 1.737 1.737 0 0 0-1.35.55 2.288 2.288 0 0 0-.007 2.791 1.705 1.705 0 0 0 1.357.55 3.413 3.413 0 0 0 .524-.046 1.396 1.396 0 0 0 .485-.149l.026.388a1.615 1.615 0 0 1-.498.15 3.736 3.736 0 0 1-.537.044 2.215 2.215 0 0 1-1.667-.646 2.32 2.32 0 0 1-.607-1.687 2.368 2.368 0 0 1 .614-1.687 2.219 2.219 0 0 1 1.66-.646 5.338 5.338 0 0 1 .537.032 1.488 1.488 0 0 1 .498.136ZM30.45 35.056a1.94 1.94 0 0 1 .374-1.203 1.376 1.376 0 0 1 1.164-.523 1.392 1.392 0 0 1 1.176.523 2.168 2.168 0 0 1 0 2.399 1.386 1.386 0 0 1-1.176.53 1.37 1.37 0 0 1-1.164-.53 1.948 1.948 0 0 1-.375-1.196Zm.445 0a1.574 1.574 0 0 0 .285.969.925.925 0 0 0 .808.407.958.958 0 0 0 .82-.407 1.627 1.627 0 0 0 .272-.97 1.69 1.69 0 0 0-.272-.982.97.97 0 0 0-.82-.394.936.936 0 0 0-.808.394 1.634 1.634 0 0 0-.285.983ZM34.78 34.183q0-.381-.026-.775h.394v.587h.013a2.246 2.246 0 0 1 .136-.232.997.997 0 0 1 .193-.213.893.893 0 0 1 .304-.162 1.439 1.439 0 0 1 .433-.058 1.033 1.033 0 0 1 .873.362 1.51 1.51 0 0 1 .252.905v2.107h-.407V34.7a1.405 1.405 0 0 0-.175-.75.707.707 0 0 0-.607-.271.835.835 0 0 0-.763.388 1.112 1.112 0 0 0-.162.381 1.826 1.826 0 0 0-.051.433v1.823h-.407ZM39.136 33.757h-.666v-.35h.665v-.239a4.977 4.977 0 0 1 .027-.517 1.268 1.268 0 0 1 .096-.44.68.68 0 0 1 .265-.316.867.867 0 0 1 .485-.116c.07 0 .14.002.213.006a.449.449 0 0 1 .168.059l-.025.349a.748.748 0 0 0-.324-.065.45.45 0 0 0-.303.09.517.517 0 0 0-.149.252 1.245 1.245 0 0 0-.039.317 9.169 9.169 0 0 0-.006.336v.285h.743v.349h-.743v2.947h-.407ZM43.705 36.6a2.818 2.818 0 0 1-.956.181 1.357 1.357 0 0 1-1.157-.497 2.281 2.281 0 0 1 .045-2.476 1.22 1.22 0 0 1 1.002-.478 1.155 1.155 0 0 1 1.008.485 2.064 2.064 0 0 1 .304 1.15v.207h-2.256a1.377 1.377 0 0 0 .278.885.954.954 0 0 0 .808.375 1.673 1.673 0 0 0 .504-.084 1.74 1.74 0 0 0 .42-.161Zm-.2-1.777a1.595 1.595 0 0 0-.188-.789.724.724 0 0 0-.652-.355.863.863 0 0 0-.705.362 1.26 1.26 0 0 0-.265.782ZM47.822 36.704h-.407v-.524h-.013a1.071 1.071 0 0 1-1.027.601 1.182 1.182 0 0 1-1.015-.497 2.078 2.078 0 0 1-.343-1.228 2.125 2.125 0 0 1 .317-1.241 1.347 1.347 0 0 1 1.467-.414.983.983 0 0 1 .31.181.884.884 0 0 1 .29.382h.014v-2.108h.407Zm-2.359-1.648a2.52 2.52 0 0 0 .046.472 1.857 1.857 0 0 0 .154.452.973.973 0 0 0 .304.317.767.767 0 0 0 .472.135.792.792 0 0 0 .466-.135.96.96 0 0 0 .297-.33 1.956 1.956 0 0 0 .213-.911 2.67 2.67 0 0 0-.045-.479 1.595 1.595 0 0 0-.168-.439 1.023 1.023 0 0 0-.297-.336.852.852 0 0 0-.466-.123.825.825 0 0 0-.472.123.88.88 0 0 0-.304.323 1.65 1.65 0 0 0-.154.44 2.685 2.685 0 0 0-.046.49ZM51.5 36.6a2.818 2.818 0 0 1-.957.181 1.357 1.357 0 0 1-1.157-.497 2.281 2.281 0 0 1 .045-2.476 1.22 1.22 0 0 1 1.002-.478 1.155 1.155 0 0 1 1.009.485 2.064 2.064 0 0 1 .304 1.15v.207h-2.257a1.377 1.377 0 0 0 .279.885.954.954 0 0 0 .808.375 1.673 1.673 0 0 0 .503-.084 1.74 1.74 0 0 0 .42-.161Zm-.2-1.777a1.595 1.595 0 0 0-.188-.789.724.724 0 0 0-.653-.355.863.863 0 0 0-.704.362 1.26 1.26 0 0 0-.266.782ZM53.006 34.144q0-.458-.026-.736h.407v.633h.013a1.413 1.413 0 0 1 .33-.498.724.724 0 0 1 .516-.213 1.348 1.348 0 0 1 .285.039v.426a1.07 1.07 0 0 0-.297-.038.697.697 0 0 0-.395.116.85.85 0 0 0-.252.317 1.661 1.661 0 0 0-.129.42 2.483 2.483 0 0 0-.045.465v1.629h-.407ZM57.537 36.174h-.014a.983.983 0 0 1-.433.446 1.337 1.337 0 0 1-1.17.051.854.854 0 0 1-.336-.245 1.006 1.006 0 0 1-.193-.576.983.983 0 0 1 .2-.652 1.073 1.073 0 0 1 .498-.343 2.663 2.663 0 0 1 .659-.142q.35-.019.672-.019h.078v-.168q.019-.847-.75-.847a1.797 1.797 0 0 0-.97.271v-.388a2.375 2.375 0 0 1 .97-.232q1.17-.013 1.157 1.228v1.454a4.974 4.974 0 0 0 .032.692h-.4Zm-.04-1.131h-.116q-.265 0-.53.013a1.961 1.961 0 0 0-.504.11.802.802 0 0 0-.362.239.614.614 0 0 0-.149.433.5.5 0 0 0 .207.452.784.784 0 0 0 .479.142.976.976 0 0 0 .562-.142.828.828 0 0 0 .29-.323 1.068 1.068 0 0 0 .11-.394c.009-.134.014-.244.014-.33ZM59.055 36.361l1.984-2.604h-1.906v-.35h2.378v.35l-1.984 2.598h1.984v.349h-2.456ZM63.12 32.529h-.407v-.543h.407Zm-.407.879h.407v3.296h-.407ZM64.38 35.056a1.94 1.94 0 0 1 .376-1.203 1.376 1.376 0 0 1 1.163-.523 1.392 1.392 0 0 1 1.176.523 2.168 2.168 0 0 1 0 2.399 1.386 1.386 0 0 1-1.176.53 1.37 1.37 0 0 1-1.163-.53 1.948 1.948 0 0 1-.375-1.196Zm.446 0a1.574 1.574 0 0 0 .285.969.925.925 0 0 0 .808.407.958.958 0 0 0 .82-.407 1.627 1.627 0 0 0 .272-.97 1.69 1.69 0 0 0-.272-.982.97.97 0 0 0-.82-.394.936.936 0 0 0-.808.394 1.634 1.634 0 0 0-.285.983ZM68.71 34.183q0-.381-.025-.775h.394v.587h.013a2.246 2.246 0 0 1 .136-.232.997.997 0 0 1 .194-.213.893.893 0 0 1 .303-.162 1.439 1.439 0 0 1 .433-.058 1.033 1.033 0 0 1 .873.362 1.51 1.51 0 0 1 .252.905v2.107h-.407V34.7a1.405 1.405 0 0 0-.175-.75.707.707 0 0 0-.607-.271.835.835 0 0 0-.763.388 1.112 1.112 0 0 0-.162.381 1.826 1.826 0 0 0-.051.433v1.823h-.407ZM75 36.6a2.818 2.818 0 0 1-.957.181 1.357 1.357 0 0 1-1.157-.497 2.281 2.281 0 0 1 .045-2.476 1.22 1.22 0 0 1 1.002-.478 1.155 1.155 0 0 1 1.008.485 2.064 2.064 0 0 1 .304 1.15v.207H72.99a1.377 1.377 0 0 0 .278.885.954.954 0 0 0 .808.375 1.673 1.673 0 0 0 .504-.084 1.74 1.74 0 0 0 .42-.161Zm-.201-1.777a1.595 1.595 0 0 0-.187-.789.724.724 0 0 0-.653-.355.863.863 0 0 0-.705.362 1.26 1.26 0 0 0-.265.782ZM78.71 36.129a1.71 1.71 0 0 0 .995.265 1.146 1.146 0 0 0 .724-.226.855.855 0 0 0 .29-.699.682.682 0 0 0-.323-.555 2.153 2.153 0 0 0-.33-.22c-.125-.07-.251-.138-.38-.207q-.194-.11-.375-.233a1.989 1.989 0 0 1-.337-.259.915.915 0 0 1-.323-.704 1.049 1.049 0 0 1 .42-.866 1.654 1.654 0 0 1 1.009-.31 3.847 3.847 0 0 1 .413.026 2.598 2.598 0 0 1 .472.122l-.071.408a2.003 2.003 0 0 0-1.163-.136.97.97 0 0 0-.317.136.686.686 0 0 0-.226.232.736.736 0 0 0-.09.375.527.527 0 0 0 .09.298.933.933 0 0 0 .232.239 2.465 2.465 0 0 0 .336.207l.375.213a2.623 2.623 0 0 1 .711.49 1.182 1.182 0 0 1-.148 1.759 1.795 1.795 0 0 1-1.008.297 2.311 2.311 0 0 1-1.022-.207ZM83.647 36.704h-.478l-1.118-3.296h.446l.911 2.85h.013l.957-2.85h.426ZM86.265 32.529h-.407v-.543h.407Zm-.407.879h.407v3.296h-.407ZM87.473 36.361l1.984-2.604h-1.906v-.35h2.378v.35l-1.984 2.598h1.984v.349h-2.456ZM90.827 36.361l1.985-2.604h-1.907v-.35h2.378v.35L91.3 36.355h1.984v.349h-2.456ZM96.696 36.6a2.813 2.813 0 0 1-.957.181 1.357 1.357 0 0 1-1.156-.497 2.28 2.28 0 0 1 .045-2.476 1.218 1.218 0 0 1 1.001-.478 1.157 1.157 0 0 1 1.01.485 2.064 2.064 0 0 1 .302 1.15v.207h-2.255a1.377 1.377 0 0 0 .277.885.957.957 0 0 0 .809.375 1.679 1.679 0 0 0 .504-.084 1.72 1.72 0 0 0 .42-.161Zm-.2-1.777a1.6 1.6 0 0 0-.188-.789.725.725 0 0 0-.653-.355.864.864 0 0 0-.704.362 1.263 1.263 0 0 0-.265.782ZM98.202 34.144q0-.458-.025-.736h.406v.633h.013a1.428 1.428 0 0 1 .33-.498.726.726 0 0 1 .517-.213 1.358 1.358 0 0 1 .285.039v.426a1.082 1.082 0 0 0-.298-.038.695.695 0 0 0-.394.116.83.83 0 0 0-.252.317 1.62 1.62 0 0 0-.13.42 2.526 2.526 0 0 0-.044.465v1.629h-.408ZM102.732 36.174h-.012a.991.991 0 0 1-.433.446 1.351 1.351 0 0 1-.614.161 1.337 1.337 0 0 1-.557-.11.85.85 0 0 1-.336-.245 1.01 1.01 0 0 1-.194-.576.989.989 0 0 1 .2-.652 1.08 1.08 0 0 1 .498-.343 2.657 2.657 0 0 1 .66-.142c.232-.013.456-.019.671-.019h.078v-.168q.02-.847-.749-.847a1.802 1.802 0 0 0-.97.271v-.388a2.382 2.382 0 0 1 .97-.232q1.17-.013 1.157 1.228v1.454a5.061 5.061 0 0 0 .031.692h-.4Zm-.039-1.131h-.116q-.265 0-.53.013a1.971 1.971 0 0 0-.504.11.802.802 0 0 0-.362.239.616.616 0 0 0-.149.433.5.5 0 0 0 .208.452.782.782 0 0 0 .477.142.977.977 0 0 0 .563-.142.83.83 0 0 0 .29-.323 1.058 1.058 0 0 0 .11-.394q.013-.2.013-.33ZM29.047 41.603a1.605 1.605 0 0 0-.485-.161 4.482 4.482 0 0 0-.524-.033 1.737 1.737 0 0 0-1.35.55 2.288 2.288 0 0 0-.007 2.791 1.705 1.705 0 0 0 1.357.55 3.413 3.413 0 0 0 .524-.045 1.396 1.396 0 0 0 .485-.15l.026.389a1.615 1.615 0 0 1-.498.149 3.736 3.736 0 0 1-.537.045 2.215 2.215 0 0 1-1.667-.647 2.32 2.32 0 0 1-.607-1.686 2.368 2.368 0 0 1 .614-1.687 2.219 2.219 0 0 1 1.66-.647 5.338 5.338 0 0 1 .537.033 1.488 1.488 0 0 1 .498.135ZM30.45 43.962a1.94 1.94 0 0 1 .374-1.202 1.376 1.376 0 0 1 1.164-.524 1.392 1.392 0 0 1 1.176.524 2.168 2.168 0 0 1 0 2.398 1.386 1.386 0 0 1-1.176.53 1.37 1.37 0 0 1-1.164-.53 1.948 1.948 0 0 1-.375-1.196Zm.445 0a1.574 1.574 0 0 0 .285.97.925.925 0 0 0 .808.407.958.958 0 0 0 .82-.408 1.627 1.627 0 0 0 .272-.969 1.69 1.69 0 0 0-.272-.982.97.97 0 0 0-.82-.395.936.936 0 0 0-.808.395 1.634 1.634 0 0 0-.285.982ZM34.78 43.09q0-.382-.026-.776h.394v.588h.013a2.246 2.246 0 0 1 .136-.233.997.997 0 0 1 .193-.213.893.893 0 0 1 .304-.162 1.439 1.439 0 0 1 .433-.058 1.033 1.033 0 0 1 .873.362 1.51 1.51 0 0 1 .252.905v2.107h-.407v-2.003a1.405 1.405 0 0 0-.175-.75.707.707 0 0 0-.607-.272.835.835 0 0 0-.763.388 1.112 1.112 0 0 0-.162.382 1.826 1.826 0 0 0-.051.433v1.822h-.407ZM39.136 42.663h-.666v-.349h.665v-.24a4.977 4.977 0 0 1 .027-.516 1.268 1.268 0 0 1 .096-.44.68.68 0 0 1 .265-.316.867.867 0 0 1 .485-.117c.07 0 .14.002.213.006a.449.449 0 0 1 .168.059l-.025.349a.748.748 0 0 0-.324-.065.45.45 0 0 0-.303.09.517.517 0 0 0-.149.253 1.245 1.245 0 0 0-.039.317 9.169 9.169 0 0 0-.006.335v.285h.743v.349h-.743v2.947h-.407ZM43.705 45.507a2.818 2.818 0 0 1-.956.18 1.357 1.357 0 0 1-1.157-.497 2.281 2.281 0 0 1 .045-2.475 1.22 1.22 0 0 1 1.002-.479 1.155 1.155 0 0 1 1.008.485 2.064 2.064 0 0 1 .304 1.15v.208h-2.256a1.377 1.377 0 0 0 .278.885.954.954 0 0 0 .808.375 1.673 1.673 0 0 0 .504-.084 1.74 1.74 0 0 0 .42-.162Zm-.2-1.777a1.595 1.595 0 0 0-.188-.79.724.724 0 0 0-.652-.355.863.863 0 0 0-.705.362 1.26 1.26 0 0 0-.265.783ZM47.822 45.61h-.407v-.523h-.013a1.071 1.071 0 0 1-1.027.6 1.182 1.182 0 0 1-1.015-.497 2.078 2.078 0 0 1-.343-1.228 2.125 2.125 0 0 1 .317-1.241 1.347 1.347 0 0 1 1.467-.413.983.983 0 0 1 .31.18.884.884 0 0 1 .29.382h.014v-2.107h.407Zm-2.359-1.648a2.52 2.52 0 0 0 .046.472 1.857 1.857 0 0 0 .154.452.973.973 0 0 0 .304.317.767.767 0 0 0 .472.136.792.792 0 0 0 .466-.136.96.96 0 0 0 .297-.33 1.956 1.956 0 0 0 .213-.91 2.67 2.67 0 0 0-.045-.48 1.595 1.595 0 0 0-.168-.439 1.023 1.023 0 0 0-.297-.336.852.852 0 0 0-.466-.123.825.825 0 0 0-.472.123.88.88 0 0 0-.304.323 1.65 1.65 0 0 0-.154.44 2.685 2.685 0 0 0-.046.491ZM51.5 45.507a2.818 2.818 0 0 1-.957.18 1.357 1.357 0 0 1-1.157-.497 2.281 2.281 0 0 1 .045-2.475 1.22 1.22 0 0 1 1.002-.479 1.155 1.155 0 0 1 1.009.485 2.064 2.064 0 0 1 .304 1.15v.208h-2.257a1.377 1.377 0 0 0 .279.885.954.954 0 0 0 .808.375 1.673 1.673 0 0 0 .503-.084 1.74 1.74 0 0 0 .42-.162Zm-.2-1.777a1.595 1.595 0 0 0-.188-.79.724.724 0 0 0-.653-.355.863.863 0 0 0-.704.362 1.26 1.26 0 0 0-.266.783ZM53.006 43.05q0-.458-.026-.736h.407v.633h.013a1.413 1.413 0 0 1 .33-.497.724.724 0 0 1 .516-.214 1.348 1.348 0 0 1 .285.04v.426a1.07 1.07 0 0 0-.297-.039.697.697 0 0 0-.395.117.85.85 0 0 0-.252.316 1.661 1.661 0 0 0-.129.42 2.483 2.483 0 0 0-.045.465v1.63h-.407ZM57.537 45.08h-.014a.983.983 0 0 1-.433.446 1.337 1.337 0 0 1-1.17.052.854.854 0 0 1-.336-.246 1.006 1.006 0 0 1-.193-.575.983.983 0 0 1 .2-.653 1.073 1.073 0 0 1 .498-.342 2.663 2.663 0 0 1 .659-.142q.35-.02.672-.02h.078v-.168q.019-.846-.75-.847a1.797 1.797 0 0 0-.97.272v-.388a2.375 2.375 0 0 1 .97-.233q1.17-.012 1.157 1.228v1.455a4.974 4.974 0 0 0 .032.691h-.4Zm-.04-1.13h-.116q-.265 0-.53.012a1.961 1.961 0 0 0-.504.11.802.802 0 0 0-.362.24.614.614 0 0 0-.149.432.5.5 0 0 0 .207.452.784.784 0 0 0 .479.143.976.976 0 0 0 .562-.143.828.828 0 0 0 .29-.323 1.068 1.068 0 0 0 .11-.394c.009-.133.014-.244.014-.33ZM59.055 45.268l1.984-2.605h-1.906v-.349h2.378v.349l-1.984 2.598h1.984v.35h-2.456ZM63.12 41.435h-.407v-.543h.407Zm-.407.879h.407v3.296h-.407ZM67.205 44.835q-.007.375.026.775h-.394v-.588h-.014a1.094 1.094 0 0 1-.122.22 1.07 1.07 0 0 1-.2.22.965.965 0 0 1-.304.155 1.205 1.205 0 0 1-.44.07 1.024 1.024 0 0 1-.866-.361 1.427 1.427 0 0 1-.258-.905v-2.107h.407v2.003a1.259 1.259 0 0 0 .187.737.65.65 0 0 0 .595.285.9.9 0 0 0 .472-.117.79.79 0 0 0 .297-.284 1.173 1.173 0 0 0 .162-.388 1.96 1.96 0 0 0 .045-.413v-1.823h.407ZM68.71 43.09q0-.382-.025-.776h.394v.588h.013a2.246 2.246 0 0 1 .136-.233.997.997 0 0 1 .194-.213.893.893 0 0 1 .303-.162 1.439 1.439 0 0 1 .433-.058 1.033 1.033 0 0 1 .873.362 1.51 1.51 0 0 1 .252.905v2.107h-.407v-2.003a1.405 1.405 0 0 0-.175-.75.707.707 0 0 0-.607-.272.835.835 0 0 0-.763.388 1.112 1.112 0 0 0-.162.382 1.826 1.826 0 0 0-.051.433v1.822h-.407ZM75.678 45.339a.831.831 0 0 0 .517-.162.51.51 0 0 0 .214-.427.551.551 0 0 0-.24-.458 2.825 2.825 0 0 0-.55-.291q-.148-.071-.283-.15a2.057 2.057 0 0 1-.259-.174.888.888 0 0 1-.18-.238.62.62 0 0 1-.072-.304.772.772 0 0 1 .336-.698 1.348 1.348 0 0 1 .737-.2 3.219 3.219 0 0 1 .368.026 2.3 2.3 0 0 1 .446.129l-.039.349a1.958 1.958 0 0 0-.73-.156.96.96 0 0 0-.504.116.39.39 0 0 0-.149.16.545.545 0 0 0-.058.27.306.306 0 0 0 .071.193.764.764 0 0 0 .188.154c.077.043.165.088.265.135.099.043.196.091.29.143a1.847 1.847 0 0 1 .563.363.941.941 0 0 1 .142 1.063.898.898 0 0 1-.278.292 1.488 1.488 0 0 1-.77.214 2.785 2.785 0 0 1-.923-.156l.038-.4a1.849 1.849 0 0 0 .86.207ZM79.213 45.61h-.478l-1.118-3.296h.446l.911 2.85h.013l.957-2.85h.426ZM81.83 41.435h-.407v-.543h.407Zm-.407.879h.407v3.296h-.407ZM83.04 45.268l1.984-2.605h-1.907v-.349h2.379v.349l-1.984 2.598h1.984v.35H83.04ZM86.698 43.05q0-.458-.027-.736h.408v.633h.013a1.413 1.413 0 0 1 .33-.497.724.724 0 0 1 .516-.214 1.348 1.348 0 0 1 .285.04v.426a1.07 1.07 0 0 0-.298-.039.697.697 0 0 0-.394.117.85.85 0 0 0-.252.316 1.661 1.661 0 0 0-.13.42 2.483 2.483 0 0 0-.045.465v1.63h-.407ZM91.228 45.08h-.013a.983.983 0 0 1-.433.446 1.337 1.337 0 0 1-1.17.052.854.854 0 0 1-.336-.246 1.006 1.006 0 0 1-.194-.575.983.983 0 0 1 .201-.653 1.073 1.073 0 0 1 .497-.342 2.663 2.663 0 0 1 .66-.142q.349-.02.672-.02h.078v-.168q.019-.846-.75-.847a1.797 1.797 0 0 0-.97.272v-.388a2.375 2.375 0 0 1 .97-.233q1.17-.012 1.157 1.228v1.455a4.974 4.974 0 0 0 .032.691h-.4Zm-.038-1.13h-.117q-.265 0-.53.012a1.961 1.961 0 0 0-.504.11.802.802 0 0 0-.362.24.614.614 0 0 0-.149.432.5.5 0 0 0 .207.452.784.784 0 0 0 .478.143.976.976 0 0 0 .563-.143.828.828 0 0 0 .29-.323 1.068 1.068 0 0 0 .11-.394c.009-.133.014-.244.014-.33Z"/><path d="M15.209 19.893v3.643h-4.25v4.25H7.317v-4.25h-4.25v-3.643h4.25v-4.248h3.641l.001 4.248h4.25" fill="#fff"/><g><path d="M27.425 59.986a1.016 1.016 0 0 0-.233.027.674.674 0 0 0-.233.097.506.506 0 0 0-.174.193.612.612 0 0 0-.072.31.336.336 0 0 0 .091.24.926.926 0 0 0 .226.174 2.833 2.833 0 0 0 .323.142l.356.15a2.664 2.664 0 0 1 .362.168 1.283 1.283 0 0 1 .316.25 1.233 1.233 0 0 1 .227.343 1.415 1.415 0 0 1 .077.498 1.182 1.182 0 0 1-.497 1.047 2.137 2.137 0 0 1-1.196.317 2.795 2.795 0 0 1-.588-.052c-.164-.03-.354-.071-.57-.122l.085-.815a2.079 2.079 0 0 0 1.021.278 1.1 1.1 0 0 0 .537-.142.482.482 0 0 0 .264-.44.49.49 0 0 0-.077-.277.756.756 0 0 0-.226-.194 5.85 5.85 0 0 0-.679-.298 2.538 2.538 0 0 1-.355-.18 1.73 1.73 0 0 1-.323-.234 1.203 1.203 0 0 1-.226-.342 1.129 1.129 0 0 1-.09-.472 1.22 1.22 0 0 1 .497-1.072 1.925 1.925 0 0 1 1.079-.304 3.485 3.485 0 0 1 1.08.161l-.085.743a2.375 2.375 0 0 0-.917-.194ZM31.677 61.254a.996.996 0 0 0-.246-.09 1.575 1.575 0 0 0-.342-.034.805.805 0 0 0-.633.285 1.136 1.136 0 0 0-.246.77 1.249 1.249 0 0 0 .227.768.78.78 0 0 0 .671.317 1.242 1.242 0 0 0 .375-.059 1.547 1.547 0 0 0 .29-.097l.04.719a1.912 1.912 0 0 1-.388.077 3.169 3.169 0 0 1-.478.032 1.502 1.502 0 0 1-1.222-.504 1.843 1.843 0 0 1-.42-1.254 1.809 1.809 0 0 1 .42-1.228 1.487 1.487 0 0 1 1.19-.497 2.736 2.736 0 0 1 .84.11ZM32.472 59.017h.866v1.972h.013a1.207 1.207 0 0 1 1.047-.53 1.038 1.038 0 0 1 .866.368 1.548 1.548 0 0 1 .265.937v2.1h-.866v-1.777q0-.162-.006-.33a.845.845 0 0 0-.065-.303.469.469 0 0 0-.161-.24.581.581 0 0 0-.33-.084.596.596 0 0 0-.375.11.865.865 0 0 0-.233.278 1.29 1.29 0 0 0-.116.356 1.873 1.873 0 0 0-.039.362v1.628h-.866ZM36.13 60.536h.918l.737 2.462h.013l.672-2.462h1.008l.724 2.462h.013l.691-2.462h.828l-1.021 3.328H39.69l-.724-2.54h-.012l-.712 2.54h-.988ZM45.004 63.677a2.259 2.259 0 0 1-1.143.265 1.556 1.556 0 0 1-1.74-1.726 1.981 1.981 0 0 1 .388-1.247 1.408 1.408 0 0 1 1.157-.51 1.382 1.382 0 0 1 1.26.561 2.774 2.774 0 0 1 .324 1.448H42.95a.846.846 0 0 0 .29.614.963.963 0 0 0 .66.227 1.687 1.687 0 0 0 .595-.104 2.58 2.58 0 0 0 .51-.232Zm-.581-1.803a.966.966 0 0 0-.175-.55.63.63 0 0 0-.53-.232.722.722 0 0 0-.549.22.927.927 0 0 0-.22.562ZM46.032 59.101h.866v.828h-.866Zm0 1.435h.866v3.328h-.866ZM47.75 60.536h2.638v.711l-1.655 1.945h1.713v.672H47.68v-.704l1.687-1.952H47.75ZM53.878 63.677a2.259 2.259 0 0 1-1.144.265 1.556 1.556 0 0 1-1.739-1.726 1.981 1.981 0 0 1 .388-1.247 1.408 1.408 0 0 1 1.157-.51 1.382 1.382 0 0 1 1.26.561 2.774 2.774 0 0 1 .324 1.448h-2.301a.846.846 0 0 0 .29.614.963.963 0 0 0 .66.227 1.687 1.687 0 0 0 .595-.104 2.58 2.58 0 0 0 .51-.232Zm-.581-1.803a.966.966 0 0 0-.175-.55.63.63 0 0 0-.53-.232.722.722 0 0 0-.55.22.927.927 0 0 0-.22.562ZM54.906 60.536h.77v.756h.012a1.069 1.069 0 0 1 .284-.536.818.818 0 0 1 .627-.297 1.43 1.43 0 0 1 .265.025v.873a.86.86 0 0 0-.388-.072.542.542 0 0 0-.4.143.834.834 0 0 0-.213.355 1.8 1.8 0 0 0-.078.44c-.009.15-.013.29-.013.42v1.221h-.866ZM57.504 59.101h.866v.828h-.866Zm0 1.435h.866v3.328h-.866ZM61.343 61.234a2.695 2.695 0 0 0-.362-.11 2.333 2.333 0 0 0-.414-.032.791.791 0 0 0-.336.071.315.315 0 0 0-.174.297q.006.188.239.265a2.087 2.087 0 0 0 .245.084c.091.027.182.056.272.09a1.661 1.661 0 0 1 .284.117 1.178 1.178 0 0 1 .233.181.82.82 0 0 1 .175.265 1.168 1.168 0 0 1 .058.394.936.936 0 0 1-.427.834 1.825 1.825 0 0 1-.97.252 3.814 3.814 0 0 1-.982-.142l.052-.711a1.77 1.77 0 0 0 .853.22.854.854 0 0 0 .369-.09.325.325 0 0 0 .2-.317.369.369 0 0 0-.058-.214.444.444 0 0 0-.175-.123 4.628 4.628 0 0 0-.517-.168 2.413 2.413 0 0 1-.271-.11.96.96 0 0 1-.246-.167.675.675 0 0 1-.168-.259.852.852 0 0 1-.071-.368.868.868 0 0 1 .407-.79 1.608 1.608 0 0 1 .899-.244 3.849 3.849 0 0 1 .53.032c.146.025.284.056.413.09ZM64.477 61.254a.996.996 0 0 0-.245-.09 1.575 1.575 0 0 0-.342-.034.805.805 0 0 0-.634.285 1.136 1.136 0 0 0-.246.77 1.249 1.249 0 0 0 .227.768.78.78 0 0 0 .672.317 1.242 1.242 0 0 0 .375-.059 1.547 1.547 0 0 0 .29-.097l.039.719a1.912 1.912 0 0 1-.388.077 3.169 3.169 0 0 1-.478.032 1.502 1.502 0 0 1-1.222-.504 1.843 1.843 0 0 1-.42-1.254 1.809 1.809 0 0 1 .42-1.228 1.487 1.487 0 0 1 1.19-.497 2.736 2.736 0 0 1 .84.11ZM65.272 59.017h.866v1.972h.013a1.207 1.207 0 0 1 1.047-.53 1.038 1.038 0 0 1 .866.368 1.548 1.548 0 0 1 .265.937v2.1h-.866v-1.777q0-.162-.006-.33a.845.845 0 0 0-.065-.303.469.469 0 0 0-.161-.24.581.581 0 0 0-.33-.084.596.596 0 0 0-.375.11.865.865 0 0 0-.232.278 1.29 1.29 0 0 0-.117.356 1.873 1.873 0 0 0-.039.362v1.628h-.866ZM71.975 63.677a2.259 2.259 0 0 1-1.144.265 1.556 1.556 0 0 1-1.74-1.726 1.981 1.981 0 0 1 .389-1.247 1.408 1.408 0 0 1 1.157-.51 1.382 1.382 0 0 1 1.26.561 2.774 2.774 0 0 1 .323 1.448H69.92a.846.846 0 0 0 .291.614.963.963 0 0 0 .66.227 1.687 1.687 0 0 0 .594-.104 2.58 2.58 0 0 0 .51-.232Zm-.582-1.803a.966.966 0 0 0-.175-.55.63.63 0 0 0-.53-.232.722.722 0 0 0-.549.22.927.927 0 0 0-.22.562ZM74.96 61.234a2.695 2.695 0 0 0-.361-.11 2.333 2.333 0 0 0-.414-.032.791.791 0 0 0-.336.071.315.315 0 0 0-.175.297q.007.188.24.265a2.087 2.087 0 0 0 .245.084c.09.027.181.056.272.09a1.661 1.661 0 0 1 .284.117 1.178 1.178 0 0 1 .233.181.82.82 0 0 1 .174.265 1.168 1.168 0 0 1 .058.394.936.936 0 0 1-.426.834 1.825 1.825 0 0 1-.97.252 3.814 3.814 0 0 1-.982-.142l.051-.711a1.77 1.77 0 0 0 .854.22.854.854 0 0 0 .368-.09.325.325 0 0 0 .2-.317.369.369 0 0 0-.058-.214.444.444 0 0 0-.174-.123 4.628 4.628 0 0 0-.517-.168 2.413 2.413 0 0 1-.272-.11.96.96 0 0 1-.245-.167.675.675 0 0 1-.168-.259.852.852 0 0 1-.072-.368.868.868 0 0 1 .408-.79 1.608 1.608 0 0 1 .898-.244 3.849 3.849 0 0 1 .53.032c.146.025.284.056.413.09ZM77.894 59.353h1.577a3.971 3.971 0 0 1 .485.032 1.514 1.514 0 0 1 .465.168.989.989 0 0 1 .368.35 1.293 1.293 0 0 1 .137.607.981.981 0 0 1-.246.666 1.13 1.13 0 0 1-.652.342v.013a1.18 1.18 0 0 1 .749.324.978.978 0 0 1 .285.704 1.27 1.27 0 0 1-.162.679 1.101 1.101 0 0 1-.414.393 1.603 1.603 0 0 1-.517.181 2.696 2.696 0 0 1-.498.052h-1.577Zm.905 1.823h.369a1.405 1.405 0 0 0 .574-.103.505.505 0 0 0 .208-.168.488.488 0 0 0 .071-.278.611.611 0 0 0-.071-.317.44.44 0 0 0-.208-.168.861.861 0 0 0-.277-.072q-.155-.006-.316-.006h-.35Zm0 1.978h.426a1.98 1.98 0 0 0 .33-.027 1.238 1.238 0 0 0 .298-.097.506.506 0 0 0 .303-.503.748.748 0 0 0-.077-.363.477.477 0 0 0-.213-.2.855.855 0 0 0-.298-.103 4.503 4.503 0 0 0-.343-.013H78.8ZM84.907 63.864h-.82v-.452h-.013a1.354 1.354 0 0 1-1.093.53.996.996 0 0 1-.853-.374 1.488 1.488 0 0 1-.278-.931v-2.1h.866v1.776a.919.919 0 0 0 .013.15c0 .05.002.105.006.16a1.485 1.485 0 0 0 .059.317.577.577 0 0 0 .168.233.478.478 0 0 0 .317.097.615.615 0 0 0 .394-.123.72.72 0 0 0 .226-.277 1.063 1.063 0 0 0 .116-.357 2.58 2.58 0 0 0 .026-.349v-1.628h.866ZM85.883 60.536h.82v.453h.014a1.295 1.295 0 0 1 1.091-.53 1.036 1.036 0 0 1 .866.368 1.548 1.548 0 0 1 .265.937v2.1h-.866v-1.777q0-.162-.006-.33a.856.856 0 0 0-.064-.303.473.473 0 0 0-.162-.24.58.58 0 0 0-.33-.084.594.594 0 0 0-.374.11.873.873 0 0 0-.233.278 1.254 1.254 0 0 0-.116.356 1.796 1.796 0 0 0-.04.362v1.628h-.865ZM92.133 63.49h-.012a1.28 1.28 0 0 1-1.022.452 1.196 1.196 0 0 1-1.08-.536 2.494 2.494 0 0 1 0-2.43 1.342 1.342 0 0 1 2.075-.052h.013v-1.907h.866v4.847h-.84Zm-1.525-1.3a1.61 1.61 0 0 0 .155.712.767.767 0 0 0 .227.258.535.535 0 0 0 .349.11.585.585 0 0 0 .368-.11.752.752 0 0 0 .233-.258 1.226 1.226 0 0 0 .128-.35 2.162 2.162 0 0 0 .032-.361 1.473 1.473 0 0 0-.174-.705.787.787 0 0 0-.238-.258.65.65 0 0 0-.363-.098.6.6 0 0 0-.568.357 1.201 1.201 0 0 0-.11.341 1.743 1.743 0 0 0-.04.363ZM96.618 63.677a2.26 2.26 0 0 1-1.144.265 1.555 1.555 0 0 1-1.738-1.726 1.981 1.981 0 0 1 .387-1.247 1.41 1.41 0 0 1 1.157-.51 1.382 1.382 0 0 1 1.26.561 2.769 2.769 0 0 1 .324 1.448h-2.302a.844.844 0 0 0 .292.614.962.962 0 0 0 .658.227 1.685 1.685 0 0 0 .595-.104 2.58 2.58 0 0 0 .51-.232Zm-.582-1.803a.966.966 0 0 0-.175-.55.63.63 0 0 0-.53-.232.72.72 0 0 0-.548.22.92.92 0 0 0-.22.562ZM99.604 61.234a2.72 2.72 0 0 0-.361-.11 2.337 2.337 0 0 0-.414-.032.791.791 0 0 0-.336.071.315.315 0 0 0-.175.297q.006.188.24.265a2.132 2.132 0 0 0 .245.084c.09.027.181.056.272.09a1.661 1.661 0 0 1 .284.117 1.178 1.178 0 0 1 .233.181.82.82 0 0 1 .174.265 1.18 1.18 0 0 1 .059.394.938.938 0 0 1-.427.834 1.829 1.829 0 0 1-.97.252 3.817 3.817 0 0 1-.982-.142l.052-.711a1.767 1.767 0 0 0 .853.22.856.856 0 0 0 .368-.09.326.326 0 0 0 .2-.317.365.365 0 0 0-.058-.214.437.437 0 0 0-.175-.123 4.488 4.488 0 0 0-.517-.168 2.413 2.413 0 0 1-.271-.11.969.969 0 0 1-.246-.167.68.68 0 0 1-.167-.259.844.844 0 0 1-.071-.368.869.869 0 0 1 .406-.79 1.612 1.612 0 0 1 .9-.244 3.849 3.849 0 0 1 .529.032c.147.025.284.056.414.09ZM100.729 60.71a2.908 2.908 0 0 1 1.157-.251q1.453-.02 1.435 1.402v.427q0 .485.013.833.012.368.038.743h-.762a3.95 3.95 0 0 1-.04-.497h-.012a1.07 1.07 0 0 1-.433.42 1.226 1.226 0 0 1-.595.155 1.34 1.34 0 0 1-.795-.258.85.85 0 0 1-.368-.731 1.011 1.011 0 0 1 .168-.608.936.936 0 0 1 .4-.342 1.855 1.855 0 0 1 .55-.161 5.065 5.065 0 0 1 .569-.033h.478a.727.727 0 0 0-.18-.562.866.866 0 0 0-.57-.155 1.669 1.669 0 0 0-1.027.362Zm.465 2.192a.327.327 0 0 0 .162.303.665.665 0 0 0 .388.104.715.715 0 0 0 .608-.298 1.203 1.203 0 0 0 .18-.685h-.523a.946.946 0 0 0-.155.013 1.33 1.33 0 0 0-.317.077.556.556 0 0 0-.24.175.454.454 0 0 0-.103.31ZM104.276 60.536h.77v.756h.012a1.08 1.08 0 0 1 .285-.536.816.816 0 0 1 .627-.297 1.43 1.43 0 0 1 .265.025v.873a.86.86 0 0 0-.387-.072.542.542 0 0 0-.401.143.84.84 0 0 0-.214.355 1.825 1.825 0 0 0-.077.44c-.01.15-.014.29-.014.42v1.221h-.866ZM108.898 61.254a1.004 1.004 0 0 0-.246-.09 1.577 1.577 0 0 0-.342-.034.805.805 0 0 0-.633.285 1.136 1.136 0 0 0-.246.77 1.249 1.249 0 0 0 .226.768.78.78 0 0 0 .673.317 1.244 1.244 0 0 0 .374-.059 1.56 1.56 0 0 0 .29-.097l.04.719a1.917 1.917 0 0 1-.388.077 3.156 3.156 0 0 1-.478.032 1.5 1.5 0 0 1-1.221-.504 1.84 1.84 0 0 1-.42-1.254 1.806 1.806 0 0 1 .42-1.228 1.485 1.485 0 0 1 1.188-.497 2.74 2.74 0 0 1 .84.11ZM109.693 59.017h.866v1.972h.013a1.209 1.209 0 0 1 1.047-.53 1.036 1.036 0 0 1 .866.368 1.548 1.548 0 0 1 .265.937v2.1h-.866v-1.777q0-.162-.007-.33a.856.856 0 0 0-.064-.303.473.473 0 0 0-.161-.24.58.58 0 0 0-.33-.084.594.594 0 0 0-.375.11.873.873 0 0 0-.233.278 1.254 1.254 0 0 0-.116.356 1.796 1.796 0 0 0-.04.362v1.628h-.865ZM113.745 59.101h.866v.828h-.866Zm0 1.435h.866v3.328h-.866ZM115.238 60.536h.931l.827 2.424h.013l.802-2.424h.866l-1.229 3.328h-.976ZM121.242 59.353h1.577a3.971 3.971 0 0 1 .485.032 1.514 1.514 0 0 1 .465.168.989.989 0 0 1 .368.35 1.293 1.293 0 0 1 .136.607.981.981 0 0 1-.245.666 1.13 1.13 0 0 1-.653.342v.013a1.18 1.18 0 0 1 .75.324.978.978 0 0 1 .284.704 1.27 1.27 0 0 1-.161.679 1.101 1.101 0 0 1-.414.393 1.603 1.603 0 0 1-.517.181 2.696 2.696 0 0 1-.498.052h-1.577Zm.904 1.823h.37a1.405 1.405 0 0 0 .574-.103.505.505 0 0 0 .208-.168.488.488 0 0 0 .07-.278.611.611 0 0 0-.07-.317.44.44 0 0 0-.208-.168.861.861 0 0 0-.278-.072q-.154-.006-.316-.006h-.35Zm0 1.978h.427a1.98 1.98 0 0 0 .33-.027 1.238 1.238 0 0 0 .298-.097.506.506 0 0 0 .303-.503.748.748 0 0 0-.078-.363.477.477 0 0 0-.212-.2.855.855 0 0 0-.298-.103 4.503 4.503 0 0 0-.343-.013h-.427ZM126.568 59.353h1.022l1.77 4.511h-1.001l-.388-1.034h-1.83l-.394 1.034h-.936Zm.498.905h-.013l-.653 1.862h1.318ZM129.948 59.353h.976q.375 0 .75.007a2.442 2.442 0 0 1 .685.128.989.989 0 0 1 .505.363 1.262 1.262 0 0 1 .187.724 1.037 1.037 0 0 1-.246.691 1.059 1.059 0 0 1-.685.356v.012a.43.43 0 0 1 .298.162 1.156 1.156 0 0 1 .18.304l.724 1.764h-1.008l-.543-1.408a.785.785 0 0 0-.213-.362.68.68 0 0 0-.414-.104h-.29v1.874h-.906Zm.906 1.926h.297a2.407 2.407 0 0 0 .349-.025.972.972 0 0 0 .304-.085.6.6 0 0 0 .226-.187.63.63 0 0 0 .077-.33.608.608 0 0 0-.077-.33.568.568 0 0 0-.226-.174 1.1 1.1 0 0 0-.304-.078 9.536 9.536 0 0 0-.35-.006h-.296Z"/></g></svg>
