<?xml version="1.0" encoding="UTF-8"?>
<svg width="316px" height="82px" viewBox="0 0 316 82" xmlns="http://www.w3.org/2000/svg" xmlns:xlink="http://www.w3.org/1999/xlink" version="1.1">
 <!-- Generated by Pixelmator Pro 2.0.7 -->
 <g id="group">
  <path id="Pfad" d="M-0 37 L316 37 316 -1 -0 -1 Z" fill="#ced8e2" fill-opacity="1" stroke="none"/>
  <path id="Pfad-1" d="M10.357 69.555 L83.442 69.555 83.442 26.448 46.446 6.193 10.357 26.448 Z" fill="#ffffff" fill-opacity="1" stroke="none"/>
  <path id="Pfad-2" d="M17.388 62.289 L76.41 62.289 76.41 29.069 46.533 13.458 17.388 29.07 17.388 62.29" fill="#017aaf" fill-opacity="1" stroke="none"/>
  <path id="Pfad-3" d="M117.853 26.497 C115.39 27.577 113.386 28.008 110.816 28.008 105.159 28.008 100.991 24.07 100.991 18.676 100.991 13.256 105.267 9.129 110.897 9.129 113.062 9.129 114.578 9.48 117.474 10.693 L117.474 13.363 C115.307 12.175 113.062 11.556 110.842 11.556 106.836 11.556 103.724 14.604 103.724 18.596 103.724 22.696 106.809 25.581 111.194 25.581 112.629 25.581 113.927 25.257 115.199 24.853 L115.199 21.077 111.654 21.077 111.654 18.703 117.853 18.703 Z M129.68 27.927 L129.139 27.927 121.154 9.372 123.807 9.372 129.355 22.292 134.875 9.372 137.501 9.372 129.681 27.927 M156.393 26.497 C153.931 27.577 151.927 28.008 149.356 28.008 143.699 28.008 139.53 24.07 139.53 18.676 139.53 13.256 143.807 9.129 149.438 9.129 151.603 9.129 153.118 9.48 156.015 10.693 L156.015 13.363 C153.848 12.175 151.603 11.556 149.383 11.556 145.378 11.556 142.265 14.604 142.265 18.596 142.265 22.696 145.35 25.581 149.735 25.581 151.169 25.581 152.468 25.257 153.74 24.853 L153.74 21.077 150.195 21.077 150.195 18.703 156.393 18.703 Z" fill="#ffffff" fill-opacity="1" stroke="none"/>
  <g id="group-1">
   <path id="Pfad-4" d="M106.774 44.878 L106.33 45.488 C105.656 45.033 105.176 44.854 104.536 44.854 103.576 44.854 102.816 45.298 102.48 46.244 102.263 46.856 102.155 47.551 102.155 48.33 102.155 49.409 102.36 50.283 102.733 50.824 103.107 51.362 103.947 51.698 104.731 51.698 105.247 51.698 105.693 51.589 106.04 51.374 L106.04 48.87 104.38 48.87 104.188 48.054 106.967 48.054 106.967 51.89 C106.377 52.274 105.487 52.514 104.646 52.514 103.611 52.514 102.733 52.154 102.107 51.484 101.41 50.728 101.085 49.709 101.085 48.294 101.085 46.724 101.493 45.599 102.36 44.842 102.95 44.315 103.659 44.063 104.513 44.063 105.39 44.063 106.149 44.338 106.773 44.879 M109.6 46.123 L113.512 46.123 113.379 46.927 110.565 46.927 110.565 48.702 112.921 48.702 112.921 49.504 110.575 49.504 110.575 51.517 113.618 51.517 113.618 52.357 109.6 52.357 Z M115.928 46.1 L117.54 46.1 C118.635 46.1 118.815 46.123 119.153 46.232 119.863 46.46 120.343 47.036 120.343 47.671 120.343 48.053 120.163 48.425 119.839 48.689 119.622 48.869 119.479 48.929 119.105 49.037 119.586 49.132 119.765 49.194 120.02 49.386 120.416 49.673 120.642 50.14 120.642 50.62 120.642 51.302 120.163 51.938 119.466 52.188 119.056 52.333 118.886 52.358 117.745 52.358 L115.928 52.358 Z M116.866 46.916 L116.866 48.712 118.033 48.712 C118.732 48.712 118.983 48.605 119.188 48.245 119.259 48.116 119.296 47.972 119.296 47.825 119.296 47.406 119.02 47.082 118.575 46.987 118.335 46.927 118.215 46.917 117.83 46.917 L116.866 46.917 Z M116.866 49.504 L116.866 51.566 118.046 51.566 C118.49 51.566 118.828 51.516 119.056 51.434 119.379 51.302 119.609 50.932 119.609 50.547 119.609 50.056 119.286 49.661 118.815 49.577 118.57 49.522 118.32 49.498 118.069 49.504 Z M125.696 46.1 L128.017 52.358 126.933 52.358 126.296 50.62 123.77 50.62 123.123 52.358 122.146 52.358 124.492 46.1 Z M123.88 44.302 C124.228 44.302 124.504 44.579 124.504 44.914 124.508 45.079 124.445 45.24 124.33 45.359 124.215 45.478 124.057 45.546 123.892 45.548 123.725 45.547 123.565 45.48 123.448 45.361 123.33 45.242 123.265 45.081 123.266 44.914 123.266 44.579 123.542 44.302 123.88 44.302 Z M124.035 49.828 L126.07 49.828 C126.032 49.756 125.058 46.951 125.058 46.951 Z M126.369 44.302 C126.706 44.302 126.995 44.579 126.995 44.914 126.998 45.258 126.725 45.54 126.381 45.548 126.03 45.547 125.746 45.264 125.742 44.914 125.746 44.572 126.027 44.298 126.369 44.302 Z M129.799 46.1 L130.759 46.1 130.759 49.853 C130.759 50.343 130.796 50.727 130.846 50.895 131.002 51.362 131.518 51.638 132.203 51.638 132.769 51.638 133.167 51.494 133.37 51.207 133.575 50.919 133.623 50.692 133.623 50.103 L133.623 46.1 134.585 46.1 134.585 50.08 C134.585 51.111 134.479 51.471 134.019 51.889 133.575 52.296 133.009 52.465 132.179 52.465 130.906 52.465 130.292 51.961 130.014 51.399 129.846 51.049 129.799 50.824 129.799 50.08 Z M137.209 46.137 L138.628 46.137 C139.059 46.137 139.482 46.16 139.758 46.185 140.274 46.245 140.77 46.449 141.201 46.807 141.863 47.371 142.151 48.09 142.151 49.239 142.151 51.326 140.781 52.238 139.903 52.321 139.615 52.349 139.325 52.361 139.036 52.358 L137.209 52.358 Z M138.169 46.927 L138.169 51.567 138.941 51.567 C139.325 51.567 139.481 51.554 139.746 51.494 140.516 51.326 141.106 50.739 141.106 49.301 141.106 48.414 140.936 47.873 140.54 47.466 140.106 47.024 139.65 46.926 138.964 46.926 L138.169 46.926 Z M144.653 46.123 L148.562 46.123 148.432 46.927 145.615 46.927 145.615 48.702 147.973 48.702 147.973 49.504 145.627 49.504 145.627 51.517 148.67 51.517 148.67 52.357 144.653 52.357 Z M150.186 46.1 L151.233 46.1 152.615 49.624 C152.882 50.295 153.075 51.05 153.075 51.05 153.075 51.05 153.255 50.32 153.506 49.684 L154.95 46.1 155.95 46.1 153.506 52.38 152.579 52.38 Z M157.87 46.123 L161.782 46.123 161.649 46.927 158.834 46.927 158.834 48.702 161.192 48.702 161.192 49.504 158.843 49.504 158.843 51.517 161.888 51.517 161.888 52.357 157.87 52.357 Z M164.175 46.1 L165.857 46.1 C166.89 46.1 167.302 46.197 167.665 46.424 168.121 46.712 168.433 47.239 168.433 47.838 168.433 48.941 167.734 49.588 166.531 49.601 166.701 49.696 166.771 49.756 166.869 49.876 167.064 50.116 167.459 50.595 167.809 51.05 168.182 51.542 168.806 52.358 168.806 52.358 L167.614 52.358 C167.435 51.996 167.35 51.854 167.05 51.422 166.58 50.715 166.197 50.248 165.847 49.936 165.606 49.721 165.426 49.648 165.135 49.624 L165.135 52.358 164.175 52.358 Z M165.135 46.891 L165.135 48.952 165.788 48.952 C166.473 48.952 166.821 48.882 167.087 48.677 167.302 48.51 167.435 48.235 167.435 47.873 167.435 47.453 167.182 47.143 166.772 46.999 166.485 46.923 166.189 46.887 165.892 46.891 Z M175.266 46.556 L174.833 47.251 C174.277 46.916 173.703 46.736 173.113 46.736 172.305 46.736 171.776 47.082 171.776 47.634 171.776 47.934 171.969 48.185 172.353 48.34 172.51 48.414 172.57 48.45 172.882 48.522 L173.738 48.749 C174.219 48.869 174.713 49.109 174.999 49.386 175.277 49.661 175.447 50.091 175.447 50.512 175.447 51.159 175.059 51.782 174.423 52.13 173.991 52.368 173.45 52.488 172.823 52.488 172.014 52.49 171.216 52.292 170.501 51.913 L170.899 51.159 C171.562 51.517 172.187 51.686 172.882 51.686 173.329 51.686 173.628 51.626 173.894 51.446 174.209 51.254 174.387 50.99 174.387 50.667 174.387 50.175 174.037 49.853 173.172 49.636 L172.247 49.396 C171.332 49.169 170.743 48.534 170.743 47.778 170.743 46.699 171.705 45.945 173.066 45.945 173.871 45.945 174.723 46.172 175.266 46.556 M177.888 46.088 L178.85 46.088 178.85 52.358 177.888 52.358 Z M186.078 46.495 L185.585 47.143 C185.21 46.896 184.771 46.767 184.322 46.772 183.565 46.772 182.915 47.154 182.592 47.826 182.412 48.198 182.325 48.652 182.325 49.313 182.325 50.175 182.484 50.62 182.891 51.063 183.276 51.483 183.782 51.686 184.371 51.686 184.803 51.686 185.236 51.566 185.585 51.362 185.609 51.352 185.659 51.326 185.721 51.292 L186.197 51.913 C185.742 52.261 185.02 52.453 184.253 52.453 182.496 52.453 181.256 51.134 181.256 49.276 181.256 47.406 182.576 45.992 184.311 45.992 184.959 45.992 185.634 46.172 186.078 46.495 M188.173 46.1 L189.124 46.1 189.124 48.642 191.926 48.642 191.926 46.1 192.889 46.1 192.889 52.358 191.926 52.358 191.926 49.432 189.124 49.432 189.124 52.358 188.173 52.358 Z M195.69 46.123 L199.604 46.123 199.469 46.927 196.651 46.927 196.651 48.702 199.013 48.702 199.013 49.504 196.666 49.504 196.666 51.517 199.706 51.517 199.706 52.357 195.691 52.357 195.691 46.123 M201.992 46.1 L203.678 46.1 C204.713 46.1 205.121 46.197 205.48 46.424 205.938 46.712 206.25 47.239 206.25 47.838 206.25 48.941 205.555 49.588 204.35 49.601 204.518 49.696 204.592 49.756 204.69 49.876 204.879 50.116 205.275 50.595 205.625 51.05 205.999 51.542 206.623 52.358 206.623 52.358 L205.434 52.358 C205.274 52.03 205.084 51.716 204.868 51.422 204.398 50.715 204.012 50.248 203.665 49.936 203.425 49.721 203.245 49.648 202.955 49.624 L202.955 52.358 201.992 52.358 Z M202.954 46.891 L202.954 48.952 203.604 48.952 C204.292 48.952 204.638 48.882 204.902 48.677 205.122 48.51 205.252 48.235 205.252 47.873 205.252 47.453 204.999 47.143 204.592 46.999 204.306 46.924 204.011 46.887 203.715 46.891 L202.955 46.891 Z M208.877 46.1 L209.837 46.1 209.837 49.853 C209.837 50.343 209.874 50.727 209.92 50.895 210.076 51.362 210.593 51.638 211.28 51.638 211.843 51.638 212.245 51.494 212.446 51.207 212.652 50.919 212.701 50.692 212.701 50.103 L212.701 46.1 213.664 46.1 213.664 50.08 C213.664 51.111 213.554 51.471 213.096 51.889 212.652 52.296 212.086 52.465 211.256 52.465 209.984 52.465 209.37 51.961 209.091 51.399 208.923 51.049 208.877 50.824 208.877 50.08 Z M216.248 46.1 L217.355 46.1 219.4 49.504 C219.809 50.188 220.17 50.919 220.205 50.967 220.205 50.967 220.108 50.08 220.097 49.253 L220.062 46.1 220.999 46.1 220.999 52.358 220.002 52.358 217.98 49.037 C217.594 48.39 217.102 47.407 217.102 47.407 217.125 47.658 217.164 48.235 217.175 49.144 L217.233 52.358 216.248 52.358 Z M228.372 46.687 L227.914 47.299 C227.437 46.999 227.064 46.807 226.388 46.807 225.56 46.807 224.957 47.131 224.705 47.706 224.511 48.138 224.417 48.665 224.417 49.276 224.417 50.356 224.717 51.05 225.33 51.386 225.682 51.579 226.135 51.698 226.57 51.698 226.954 51.698 227.34 51.626 227.592 51.494 L227.592 49.79 226.22 49.79 226.064 48.988 228.518 48.988 228.518 51.949 C227.966 52.284 227.278 52.452 226.506 52.452 225.523 52.452 224.776 52.14 224.222 51.588 223.644 51.013 223.37 50.247 223.37 49.203 223.37 47.969 223.754 47.107 224.55 46.555 225.066 46.195 225.641 46.027 226.365 46.027 227.135 46.027 227.737 46.219 228.372 46.686 M240.966 44.878 L240.522 45.488 C239.848 45.033 239.368 44.854 238.728 44.854 237.768 44.854 237.01 45.298 236.672 46.244 236.453 46.856 236.347 47.551 236.347 48.33 236.347 49.409 236.55 50.283 236.924 50.824 237.297 51.362 238.141 51.698 238.921 51.698 239.439 51.698 239.885 51.589 240.231 51.374 L240.231 48.87 238.572 48.87 238.382 48.054 241.16 48.054 241.16 51.89 C240.57 52.274 239.68 52.514 238.838 52.514 237.803 52.514 236.924 52.154 236.299 51.484 235.604 50.728 235.277 49.709 235.277 48.294 235.277 46.724 235.685 45.599 236.55 44.842 237.141 44.315 237.849 44.063 238.705 44.063 239.582 44.063 240.341 44.338 240.965 44.879 M243.83 46.1 L245.516 46.1 C246.549 46.1 246.957 46.197 247.318 46.424 247.776 46.712 248.088 47.239 248.088 47.838 248.088 48.941 247.392 49.588 246.186 49.601 246.318 49.666 246.435 49.76 246.526 49.876 246.715 50.116 247.113 50.595 247.461 51.05 247.835 51.542 248.461 52.358 248.461 52.358 L247.272 52.358 C247.11 52.03 246.92 51.717 246.704 51.422 246.235 50.715 245.85 50.248 245.504 49.936 245.263 49.721 245.08 49.648 244.792 49.624 L244.792 52.358 243.83 52.358 Z M244.792 46.891 L244.792 48.952 245.442 48.952 C246.128 48.952 246.474 48.882 246.74 48.677 246.957 48.51 247.088 48.235 247.088 47.873 247.088 47.453 246.837 47.143 246.428 46.999 246.142 46.924 245.847 46.887 245.551 46.891 Z M253.478 46.1 L255.798 52.358 254.716 52.358 254.077 50.62 251.553 50.62 250.902 52.358 249.929 52.358 252.273 46.1 Z M251.818 49.828 L253.849 49.828 C253.815 49.756 252.839 46.951 252.839 46.951 L251.819 49.828 Z M257.71 46.1 L258.675 46.1 258.675 49.853 C258.675 50.343 258.708 50.727 258.76 50.895 258.915 51.362 259.434 51.638 260.117 51.638 260.684 51.638 261.079 51.494 261.286 51.207 261.489 50.919 261.537 50.692 261.537 50.103 L261.537 46.1 262.497 46.1 262.497 50.08 C262.497 51.111 262.393 51.471 261.935 51.889 261.489 52.296 260.923 52.465 260.094 52.465 258.818 52.465 258.204 51.961 257.928 51.399 257.76 51.049 257.711 50.824 257.711 50.08 L257.711 46.1 M265.206 46.1 L266.817 46.1 C267.912 46.1 268.091 46.123 268.431 46.232 269.138 46.46 269.618 47.036 269.618 47.671 269.618 48.053 269.441 48.425 269.114 48.689 268.896 48.869 268.753 48.929 268.381 49.037 268.862 49.132 269.041 49.194 269.294 49.386 269.692 49.673 269.92 50.14 269.92 50.62 269.92 51.302 269.44 51.938 268.74 52.188 268.333 52.333 268.164 52.358 267.02 52.358 L265.206 52.358 Z M266.143 46.916 L266.143 48.712 267.311 48.712 C268.008 48.712 268.261 48.605 268.464 48.245 268.536 48.117 268.575 47.972 268.576 47.825 268.576 47.406 268.298 47.082 267.854 46.987 267.612 46.927 267.49 46.917 267.108 46.917 L266.143 46.917 Z M266.143 49.504 L266.143 51.566 267.325 51.566 C267.767 51.566 268.105 51.516 268.333 51.434 268.657 51.302 268.885 50.932 268.885 50.547 268.885 50.056 268.562 49.661 268.091 49.577 267.847 49.522 267.596 49.498 267.346 49.504 Z M272.23 46.1 L273.191 46.1 273.191 49.853 C273.191 50.343 273.228 50.727 273.276 50.895 273.433 51.362 273.948 51.638 274.634 51.638 275.199 51.638 275.599 51.494 275.802 51.207 276.007 50.919 276.055 50.692 276.055 50.103 L276.055 46.1 277.017 46.1 277.017 50.08 C277.017 51.111 276.909 51.471 276.451 51.889 276.007 52.296 275.439 52.465 274.611 52.465 273.338 52.465 272.724 51.961 272.444 51.399 272.276 51.049 272.23 50.824 272.23 50.08 Z M273.396 44.302 C273.746 44.302 274.022 44.579 274.022 44.914 274.026 45.08 273.963 45.24 273.848 45.359 273.733 45.478 273.575 45.546 273.409 45.548 273.061 45.545 272.782 45.262 272.784 44.914 272.784 44.579 273.06 44.302 273.396 44.302 Z M275.886 44.302 C276.225 44.302 276.511 44.579 276.511 44.914 276.516 45.257 276.242 45.54 275.899 45.548 275.549 45.547 275.264 45.264 275.261 44.914 275.261 44.579 275.537 44.302 275.885 44.302 Z M279.662 46.1 L280.771 46.1 282.816 49.504 C283.226 50.188 283.587 50.919 283.621 50.967 283.621 50.967 283.525 50.08 283.515 49.253 L283.478 46.1 284.417 46.1 284.417 52.358 283.417 52.358 281.397 49.037 C281.012 48.39 280.52 47.407 280.52 47.407 280.541 47.658 280.58 48.235 280.592 49.144 L280.651 52.358 279.661 52.358 279.661 46.1 M287.22 46.137 L288.64 46.137 C289.071 46.137 289.492 46.16 289.768 46.185 290.3 46.247 290.802 46.463 291.213 46.807 291.877 47.371 292.163 48.09 292.163 49.239 292.163 51.326 290.79 52.238 289.913 52.321 289.625 52.349 289.335 52.361 289.046 52.358 L287.221 52.358 287.221 46.137 Z M288.18 46.927 L288.18 51.567 288.952 51.567 C289.336 51.567 289.492 51.554 289.757 51.494 290.527 51.326 291.116 50.739 291.116 49.301 291.116 48.414 290.946 47.873 290.55 47.466 290.116 47.024 289.662 46.926 288.977 46.926 L288.179 46.926 Z M294.723 46.123 L298.634 46.123 298.504 46.927 295.687 46.927 295.687 48.702 298.045 48.702 298.045 49.504 295.698 49.504 295.698 51.517 298.74 51.517 298.74 52.357 294.723 52.357 Z M301.052 46.1 L302.158 46.1 304.203 49.504 C304.611 50.188 304.974 50.919 305.008 50.967 305.008 50.967 304.916 50.08 304.901 49.253 L304.863 46.1 305.803 46.1 305.803 52.358 304.804 52.358 302.786 49.037 C302.4 48.39 301.906 47.407 301.906 47.407 301.93 47.658 301.965 48.235 301.979 49.144 L302.039 52.358 301.052 52.358 Z M104.766 58.818 L107.497 67.041 106.377 67.041 105.596 64.511 102.516 64.511 101.723 67.041 100.723 67.041 103.48 58.818 Z M102.794 63.708 L105.343 63.708 C105.343 63.708 104.693 61.658 104.478 60.951 L104.08 59.681 103.673 60.891 C103.623 61.059 102.793 63.708 102.793 63.708 Z M113.211 61.238 L112.776 61.935 C112.224 61.598 111.646 61.418 111.056 61.418 110.25 61.418 109.721 61.768 109.721 62.318 109.721 62.617 109.914 62.868 110.299 63.024 110.455 63.096 110.515 63.134 110.829 63.204 L111.681 63.431 C112.164 63.553 112.657 63.793 112.944 64.068 113.222 64.344 113.391 64.774 113.391 65.194 113.391 65.843 113.004 66.464 112.367 66.812 111.934 67.052 111.394 67.172 110.768 67.172 109.959 67.174 109.162 66.976 108.448 66.597 L108.843 65.843 C109.505 66.203 110.131 66.37 110.828 66.37 111.274 66.37 111.575 66.31 111.838 66.13 112.151 65.938 112.332 65.673 112.332 65.35 112.332 64.86 111.983 64.535 111.117 64.32 L110.19 64.08 C109.277 63.853 108.686 63.218 108.686 62.46 108.686 61.383 109.648 60.627 111.009 60.627 111.814 60.627 112.668 60.856 113.211 61.238 M119.73 61.238 L119.296 61.935 C118.743 61.598 118.166 61.418 117.576 61.418 116.77 61.418 116.241 61.768 116.241 62.318 116.241 62.617 116.432 62.868 116.818 63.024 116.975 63.096 117.036 63.134 117.348 63.204 L118.201 63.431 C118.682 63.553 119.176 63.793 119.464 64.068 119.742 64.344 119.91 64.774 119.91 65.194 119.91 65.843 119.524 66.464 118.886 66.812 118.454 67.052 117.913 67.172 117.289 67.172 116.479 67.174 115.681 66.977 114.966 66.597 L115.362 65.843 C116.025 66.203 116.65 66.37 117.349 66.37 117.793 66.37 118.093 66.31 118.359 66.13 118.67 65.938 118.852 65.673 118.852 65.35 118.852 64.86 118.502 64.535 117.635 64.32 L116.71 64.08 C115.797 63.853 115.205 63.218 115.205 62.46 115.205 61.383 116.169 60.627 117.529 60.627 118.334 60.627 119.189 60.856 119.729 61.238 M122.11 60.771 L123.073 60.771 123.073 67.041 122.111 67.041 122.111 60.771 Z M130.06 61.178 L129.569 61.828 C129.195 61.581 128.755 61.451 128.306 61.455 127.549 61.455 126.898 61.838 126.574 62.509 126.394 62.881 126.308 63.336 126.308 63.997 126.308 64.859 126.466 65.302 126.873 65.746 127.26 66.166 127.764 66.37 128.353 66.37 128.787 66.37 129.22 66.25 129.569 66.045 129.593 66.033 129.641 66.01 129.701 65.973 L130.182 66.597 C129.724 66.944 129.002 67.137 128.233 67.137 126.477 67.137 125.238 65.818 125.238 63.96 125.238 62.09 126.56 60.676 128.293 60.676 128.943 60.676 129.616 60.856 130.06 61.178 M131.819 60.784 L132.781 60.784 132.781 64.534 C132.781 65.027 132.816 65.411 132.866 65.578 133.022 66.045 133.538 66.32 134.225 66.32 134.789 66.32 135.187 66.178 135.392 65.89 135.596 65.603 135.645 65.374 135.645 64.787 L135.645 60.784 136.605 60.784 136.605 64.764 C136.605 65.794 136.499 66.153 136.041 66.572 135.596 66.982 135.029 67.149 134.2 67.149 132.926 67.149 132.312 66.645 132.035 66.081 131.867 65.733 131.819 65.506 131.819 64.764 Z M138.987 60.784 L140.671 60.784 C141.706 60.784 142.114 60.881 142.477 61.106 142.933 61.394 143.247 61.922 143.247 62.522 143.247 63.625 142.549 64.27 141.345 64.284 141.513 64.38 141.585 64.44 141.683 64.559 141.875 64.799 142.272 65.279 142.62 65.733 142.993 66.225 143.62 67.041 143.62 67.041 L142.429 67.041 C142.269 66.713 142.079 66.399 141.863 66.105 141.393 65.398 141.009 64.93 140.66 64.619 140.42 64.404 140.24 64.332 139.949 64.307 L139.949 67.041 138.987 67.041 Z M139.949 61.575 L139.949 63.635 140.599 63.635 C141.286 63.635 141.633 63.565 141.899 63.361 142.114 63.193 142.247 62.917 142.247 62.557 142.247 62.137 141.994 61.827 141.585 61.683 141.298 61.608 141.003 61.571 140.706 61.575 Z M148.336 60.784 L150.656 67.041 149.574 67.041 148.935 65.301 146.411 65.301 145.761 67.041 144.787 67.041 147.131 60.784 Z M146.675 64.512 L148.707 64.512 C148.672 64.44 147.699 61.635 147.699 61.635 Z M152.279 60.784 L153.388 60.784 155.433 64.187 C155.84 64.871 156.203 65.603 156.236 65.651 156.236 65.651 156.142 64.764 156.13 63.935 L156.093 60.784 157.032 60.784 157.032 67.041 156.032 67.041 154.012 63.721 C153.627 63.073 153.133 62.09 153.133 62.09 153.158 62.342 153.195 62.917 153.206 63.828 L153.266 67.041 152.279 67.041 Z M159.255 60.819 L163.347 60.819 163.347 61.575 160.462 65.723 C160.253 66.01 160.037 66.26 160.037 66.26 160.037 66.26 160.327 66.238 160.664 66.238 L163.394 66.238 163.142 67.041 158.907 67.041 158.907 66.333 161.843 62.187 C162.023 61.935 162.3 61.598 162.3 61.598 162.3 61.598 161.902 61.623 161.564 61.623 L159.002 61.623 Z M168.014 60.784 L170.334 67.041 169.25 67.041 168.613 65.301 166.087 65.301 165.438 67.041 164.463 67.041 166.809 60.784 Z M166.353 64.512 L168.387 64.512 C168.044 63.553 167.708 62.598 167.375 61.636 Z M176.361 60.819 L177.78 60.819 C178.213 60.819 178.634 60.844 178.912 60.866 179.429 60.926 179.922 61.131 180.356 61.49 181.016 62.055 181.306 62.774 181.306 63.925 181.306 66.01 179.933 66.92 179.056 67.005 178.768 67.033 178.478 67.045 178.189 67.041 L176.361 67.041 176.361 60.82 Z M177.324 61.61 L177.324 66.25 178.091 66.25 C178.477 66.25 178.634 66.238 178.896 66.178 179.671 66.01 180.258 65.421 180.258 63.983 180.258 63.096 180.088 62.557 179.694 62.15 179.259 61.706 178.804 61.61 178.116 61.61 Z M183.665 58.554 L184.53 58.554 184.53 61.431 183.665 61.431 Z M187.212 60.807 L191.122 60.807 190.987 61.61 188.173 61.61 188.173 63.385 190.529 63.385 190.529 64.187 188.187 64.187 188.187 66.202 191.227 66.202 191.227 67.042 187.212 67.042 Z M193.214 60.819 L194.633 60.819 C195.065 60.819 195.487 60.844 195.765 60.866 196.297 60.929 196.799 61.146 197.209 61.49 197.869 62.055 198.157 62.774 198.157 63.925 198.157 66.01 196.786 66.92 195.907 67.005 195.619 67.033 195.329 67.045 195.04 67.041 L193.214 67.041 193.214 60.82 Z M194.174 61.61 L194.174 66.25 194.948 66.25 C195.332 66.25 195.488 66.238 195.751 66.178 196.521 66.01 197.111 65.421 197.111 63.983 197.111 63.096 196.941 62.557 196.545 62.15 196.114 61.706 195.654 61.61 194.969 61.61 L194.175 61.61 Z M200.384 60.771 L201.346 60.771 201.346 67.041 200.384 67.041 Z M203.872 60.807 L207.626 60.807 207.492 61.598 204.832 61.598 204.832 63.361 207.022 63.361 207.022 64.152 204.832 64.152 204.832 67.042 203.872 67.042 Z M209.38 60.771 L210.341 60.771 210.341 67.041 209.381 67.041 209.381 60.771 Z M212.58 60.819 L216.67 60.819 216.67 61.575 213.782 65.723 C213.65 65.908 213.511 66.087 213.365 66.26 213.365 66.26 213.651 66.238 213.989 66.238 L216.717 66.238 216.464 67.041 212.232 67.041 212.232 66.333 215.167 62.187 C215.347 61.935 215.624 61.598 215.624 61.598 215.624 61.598 215.227 61.623 214.891 61.623 L212.328 61.623 212.579 60.819 M218.643 60.771 L219.603 60.771 219.603 67.041 218.643 67.041 Z M226.306 61.238 L225.871 61.935 C225.319 61.598 224.741 61.418 224.15 61.418 223.345 61.418 222.818 61.768 222.818 62.318 222.818 62.617 223.008 62.868 223.393 63.024 223.552 63.096 223.61 63.134 223.922 63.204 L224.776 63.431 C225.256 63.553 225.751 63.793 226.037 64.068 226.317 64.344 226.485 64.774 226.485 65.194 226.485 65.843 226.099 66.464 225.465 66.812 225.029 67.052 224.488 67.172 223.862 67.172 223.053 67.174 222.256 66.977 221.542 66.597 L221.939 65.843 C222.6 66.203 223.225 66.37 223.922 66.37 224.368 66.37 224.668 66.31 224.935 66.13 225.245 65.938 225.427 65.673 225.427 65.35 225.427 64.86 225.079 64.535 224.214 64.32 L223.284 64.08 C222.37 63.853 221.781 63.218 221.781 62.46 221.781 61.383 222.745 60.627 224.102 60.627 224.907 60.627 225.763 60.856 226.306 61.238 M232.945 60.819 L234.364 60.819 C234.796 60.819 235.218 60.844 235.493 60.866 236.013 60.926 236.506 61.131 236.94 61.49 237.601 62.055 237.888 62.774 237.888 63.925 237.888 66.01 236.517 66.92 235.638 67.005 235.35 67.033 235.06 67.045 234.771 67.041 L232.945 67.041 232.945 60.82 Z M233.905 61.61 L233.905 66.25 234.679 66.25 C235.063 66.25 235.219 66.238 235.484 66.178 236.254 66.01 236.842 65.421 236.842 63.983 236.842 63.096 236.672 62.557 236.276 62.15 235.845 61.706 235.386 61.61 234.702 61.61 L233.906 61.61 Z M242.749 60.784 L245.068 67.041 243.985 67.041 243.347 65.301 240.821 65.301 240.173 67.041 239.197 67.041 241.542 60.784 Z M241.088 64.512 L243.122 64.512 C243.085 64.44 242.108 61.635 242.108 61.635 Z M246.694 60.784 L247.656 60.784 247.656 66.238 250.398 66.238 250.267 67.041 246.694 67.041 Z M261.562 59.562 L261.116 60.172 C260.442 59.715 259.961 59.537 259.322 59.537 258.36 59.537 257.602 59.98 257.267 60.927 257.049 61.54 256.941 62.234 256.941 63.012 256.941 64.092 257.148 64.967 257.52 65.506 257.893 66.046 258.733 66.382 259.515 66.382 260.035 66.382 260.477 66.272 260.828 66.058 L260.828 63.553 259.167 63.553 258.974 62.737 261.751 62.737 261.751 66.572 C261.164 66.957 260.276 67.196 259.434 67.196 258.399 67.196 257.52 66.836 256.894 66.166 256.197 65.411 255.871 64.392 255.871 62.976 255.871 61.408 256.281 60.281 257.148 59.525 257.736 58.998 258.445 58.745 259.299 58.745 260.179 58.745 260.936 59.021 261.562 59.562 M264.063 60.784 L265.745 60.784 C266.78 60.784 267.191 60.881 267.553 61.106 268.008 61.394 268.323 61.922 268.323 62.522 268.323 63.625 267.623 64.27 266.419 64.284 266.589 64.38 266.66 64.44 266.755 64.559 266.952 64.799 267.346 65.279 267.697 65.733 268.07 66.225 268.694 67.041 268.694 67.041 L267.502 67.041 C267.325 66.68 267.238 66.537 266.938 66.105 266.468 65.398 266.085 64.93 265.735 64.619 265.495 64.404 265.314 64.332 265.024 64.307 L265.024 67.041 264.064 67.041 264.064 60.784 Z M265.023 61.575 L265.023 63.635 265.676 63.635 C266.361 63.635 266.709 63.565 266.973 63.361 267.191 63.193 267.325 62.917 267.325 62.557 267.325 62.137 267.07 61.827 266.66 61.683 266.374 61.608 266.079 61.571 265.783 61.575 Z M270.716 60.771 L271.679 60.771 271.679 67.041 270.716 67.041 Z M278.378 61.238 L277.946 61.935 C277.39 61.598 276.816 61.418 276.225 61.418 275.416 61.418 274.887 61.768 274.887 62.318 274.887 62.617 275.08 62.868 275.467 63.024 275.623 63.096 275.683 63.134 275.997 63.204 L276.849 63.431 C277.332 63.553 277.824 63.793 278.112 64.068 278.39 64.344 278.56 64.774 278.56 65.194 278.56 65.843 278.17 66.464 277.534 66.812 277.102 67.052 276.563 67.172 275.938 67.172 275.118 67.172 274.3 66.969 273.612 66.597 L274.01 65.843 C274.673 66.203 275.298 66.37 275.997 66.37 276.442 66.37 276.741 66.31 277.005 66.13 277.32 65.938 277.5 65.673 277.5 65.35 277.5 64.86 277.15 64.535 276.283 64.32 L275.358 64.08 C274.445 63.853 273.854 63.218 273.854 62.46 273.854 61.383 274.818 60.627 276.179 60.627 276.982 60.627 277.838 60.856 278.378 61.238 M285.064 61.178 L284.572 61.828 C284.197 61.581 283.757 61.451 283.308 61.455 282.551 61.455 281.901 61.838 281.578 62.509 281.398 62.881 281.311 63.336 281.311 63.997 281.311 64.859 281.47 65.302 281.877 65.746 282.262 66.166 282.768 66.37 283.359 66.37 283.789 66.37 284.224 66.25 284.572 66.045 284.595 66.033 284.645 66.01 284.707 65.973 L285.183 66.597 C284.728 66.944 284.006 67.137 283.239 67.137 281.482 67.137 280.242 65.818 280.242 63.96 280.242 62.09 281.563 60.676 283.297 60.676 283.947 60.676 284.62 60.856 285.064 61.178 M286.856 60.784 L287.808 60.784 287.808 63.324 290.608 63.324 290.608 60.784 291.572 60.784 291.572 67.041 290.608 67.041 290.608 64.115 287.808 64.115 287.808 67.041 286.856 67.041 Z M293.932 60.784 L294.894 60.784 294.894 64.534 C294.894 65.027 294.93 65.411 294.978 65.578 295.133 66.045 295.652 66.32 296.336 66.32 296.902 66.32 297.298 66.178 297.504 65.89 297.707 65.603 297.757 65.374 297.757 64.787 L297.757 60.784 298.717 60.784 298.717 64.764 C298.717 65.794 298.611 66.153 298.153 66.572 297.707 66.982 297.143 67.149 296.311 67.149 295.038 67.149 294.424 66.645 294.148 66.081 293.98 65.733 293.932 65.506 293.932 64.764 Z M301.003 60.784 L302.11 60.784 304.155 64.187 C304.564 64.871 304.925 65.603 304.96 65.651 304.96 65.651 304.863 64.764 304.852 63.935 L304.817 60.784 305.754 60.784 305.754 67.041 304.756 67.041 302.734 63.721 C302.349 63.073 301.857 62.09 301.857 62.09 301.88 62.342 301.919 62.917 301.93 63.828 L301.988 67.041 301.003 67.041 Z M104.766 73.502 L107.497 81.725 106.377 81.725 105.596 79.195 102.516 79.195 101.723 81.725 100.723 81.725 103.48 73.502 Z M102.794 78.392 L105.343 78.392 C105.343 78.392 104.693 76.342 104.478 75.635 L104.08 74.364 103.673 75.574 C103.623 75.742 102.793 78.392 102.793 78.392 Z M113.029 75.922 L112.595 76.618 C112.042 76.283 111.465 76.104 110.876 76.104 110.069 76.104 109.54 76.451 109.54 77.003 109.54 77.303 109.733 77.553 110.117 77.708 110.275 77.78 110.335 77.817 110.647 77.888 L111.5 78.117 C111.983 78.237 112.475 78.477 112.763 78.751 113.041 79.028 113.211 79.46 113.211 79.878 113.211 80.526 112.824 81.15 112.187 81.498 111.753 81.738 111.214 81.855 110.587 81.855 109.778 81.857 108.981 81.66 108.267 81.281 L108.663 80.526 C109.325 80.886 109.951 81.053 110.648 81.053 111.094 81.053 111.394 80.993 111.658 80.813 111.971 80.622 112.151 80.357 112.151 80.035 112.151 79.543 111.803 79.22 110.936 79.003 L110.011 78.763 C109.096 78.536 108.507 77.902 108.507 77.145 108.507 76.067 109.467 75.312 110.828 75.312 111.633 75.312 112.488 75.54 113.028 75.922 M119.37 75.922 L118.937 76.618 C118.383 76.283 117.807 76.104 117.216 76.104 116.409 76.104 115.88 76.451 115.88 77.003 115.88 77.303 116.073 77.553 116.457 77.708 116.615 77.78 116.675 77.817 116.987 77.888 L117.842 78.117 C118.323 78.237 118.817 78.477 119.105 78.751 119.381 79.028 119.551 79.46 119.551 79.878 119.551 80.526 119.164 81.15 118.527 81.498 118.093 81.738 117.554 81.855 116.927 81.855 116.118 81.857 115.322 81.66 114.607 81.281 L115.003 80.526 C115.665 80.886 116.291 81.053 116.988 81.053 117.434 81.053 117.734 80.993 118 80.813 118.311 80.622 118.491 80.357 118.491 80.035 118.491 79.543 118.143 79.22 117.276 79.003 L116.351 78.763 C115.436 78.536 114.847 77.902 114.847 77.145 114.847 76.067 115.81 75.312 117.168 75.312 117.973 75.312 118.828 75.54 119.371 75.922 M121.571 75.455 L122.533 75.455 122.533 81.725 121.571 81.725 Z M129.34 75.864 L128.847 76.511 C128.473 76.264 128.033 76.134 127.584 76.139 126.827 76.139 126.178 76.523 125.854 77.193 125.672 77.565 125.587 78.02 125.587 78.679 125.587 79.543 125.744 79.985 126.153 80.429 126.538 80.849 127.044 81.053 127.632 81.053 128.067 81.053 128.498 80.933 128.847 80.729 128.872 80.717 128.919 80.694 128.981 80.659 L129.461 81.281 C129.004 81.63 128.283 81.821 127.511 81.821 125.757 81.821 124.516 80.501 124.516 78.644 124.516 76.774 125.84 75.36 127.573 75.36 128.221 75.36 128.895 75.54 129.34 75.864 M130.917 75.467 L131.877 75.467 131.877 79.22 C131.877 79.712 131.914 80.094 131.964 80.262 132.12 80.729 132.634 81.004 133.321 81.004 133.887 81.004 134.285 80.861 134.488 80.574 134.693 80.287 134.741 80.059 134.741 79.47 L134.741 75.467 135.703 75.467 135.703 79.447 C135.703 80.479 135.596 80.838 135.137 81.257 134.693 81.665 134.127 81.833 133.297 81.833 132.022 81.833 131.41 81.328 131.131 80.766 130.964 80.419 130.917 80.191 130.917 79.448 L130.917 75.468 M137.906 75.467 L139.59 75.467 C140.623 75.467 141.033 75.564 141.394 75.792 141.851 76.079 142.164 76.606 142.164 77.205 142.164 78.309 141.467 78.955 140.262 78.968 140.432 79.065 140.502 79.123 140.6 79.243 140.793 79.483 141.189 79.963 141.537 80.419 L142.537 81.725 141.347 81.725 C141.187 81.397 140.997 81.084 140.78 80.791 140.31 80.082 139.926 79.615 139.577 79.303 139.337 79.088 139.157 79.016 138.867 78.991 L138.867 81.725 137.906 81.725 Z M138.866 76.259 L138.866 78.321 139.517 78.321 C140.204 78.321 140.552 78.249 140.816 78.044 141.033 77.877 141.166 77.6 141.166 77.241 141.166 76.821 140.913 76.511 140.503 76.366 140.217 76.291 139.921 76.255 139.625 76.259 Z M147.07 75.467 L149.393 81.725 148.309 81.725 147.67 79.985 145.146 79.985 144.497 81.725 143.522 81.725 145.866 75.467 147.071 75.467 Z M145.41 79.195 L147.444 79.195 C147.407 79.123 146.432 76.319 146.432 76.319 Z M150.595 75.504 L154.686 75.504 154.686 76.259 151.799 80.406 C151.594 80.694 151.379 80.946 151.379 80.946 151.379 80.946 151.667 80.921 152.003 80.921 L154.734 80.921 154.481 81.725 150.248 81.725 150.248 81.016 153.183 76.87 C153.363 76.618 153.639 76.283 153.639 76.283 153.639 76.283 153.243 76.306 152.905 76.306 L150.343 76.306 Z M156.538 75.455 L157.501 75.455 157.501 81.725 156.538 81.725 Z M162.43 75.36 C163.44 75.36 164.175 75.742 164.693 76.366 165.15 76.906 165.357 77.625 165.357 78.631 165.357 79.687 165.185 80.321 164.718 80.886 164.175 81.546 163.54 81.833 162.505 81.833 161.553 81.833 160.955 81.593 160.423 81.004 159.846 80.357 159.583 79.603 159.583 78.571 159.583 76.581 160.663 75.36 162.431 75.36 Z M162.395 76.139 C161.82 76.139 161.267 76.391 161.014 76.773 160.759 77.145 160.651 77.673 160.651 78.452 160.651 79.328 160.796 80.01 161.086 80.454 161.326 80.861 161.843 81.089 162.528 81.089 163.285 81.089 163.814 80.791 164.044 80.202 164.214 79.795 164.272 79.422 164.272 78.752 164.272 77.902 164.175 77.372 163.961 76.953 163.646 76.366 163.108 76.139 162.395 76.139 Z M167.267 75.467 L168.374 75.467 170.418 78.873 C170.826 79.555 171.188 80.287 171.224 80.334 171.224 80.334 171.131 79.448 171.118 78.619 L171.079 75.467 172.02 75.467 172.02 81.725 171.02 81.725 169.002 78.404 C168.615 77.757 168.123 76.774 168.123 76.774 168.144 77.026 168.182 77.6 168.194 78.514 L168.256 81.725 167.267 81.725 Z M174.364 75.492 L178.275 75.492 178.145 76.294 175.326 76.294 175.326 78.069 177.685 78.069 177.685 78.873 175.339 78.873 175.339 80.886 178.379 80.886 178.379 81.725 174.364 81.725 Z M184.384 75.492 L188.136 75.492 188.005 76.283 185.348 76.283 185.348 78.044 187.534 78.044 187.534 78.836 185.348 78.836 185.348 81.725 184.384 81.725 Z M192.29 75.467 L194.61 81.725 193.526 81.725 192.889 79.985 190.363 79.985 189.715 81.725 188.739 81.725 191.086 75.467 192.289 75.467 Z M190.626 79.195 L192.662 79.195 C192.623 79.123 191.649 76.319 191.649 76.319 Z M195.992 75.467 L197.605 75.467 C198.698 75.467 198.878 75.492 199.216 75.599 199.924 75.827 200.406 76.403 200.406 77.038 200.406 77.42 200.228 77.792 199.899 78.057 199.683 78.237 199.54 78.297 199.167 78.404 199.648 78.501 199.827 78.561 200.08 78.751 200.48 79.039 200.704 79.507 200.704 79.985 200.704 80.669 200.228 81.305 199.528 81.558 199.119 81.7 198.949 81.725 197.807 81.725 L195.992 81.725 Z M196.929 76.283 L196.929 78.08 198.099 78.08 C198.794 78.08 199.047 77.972 199.252 77.613 199.323 77.484 199.361 77.34 199.362 77.193 199.362 76.773 199.085 76.451 198.64 76.353 198.397 76.294 198.277 76.283 197.893 76.283 Z M196.929 78.873 L196.929 80.933 198.111 80.933 C198.553 80.933 198.891 80.886 199.119 80.801 199.445 80.669 199.671 80.297 199.671 79.915 199.671 79.423 199.349 79.028 198.878 78.943 198.634 78.89 198.384 78.866 198.134 78.873 Z M202.558 75.467 L204.171 75.467 C205.266 75.467 205.445 75.492 205.785 75.599 206.494 75.827 206.975 76.403 206.975 77.038 206.975 77.42 206.793 77.792 206.471 78.057 206.253 78.237 206.108 78.297 205.735 78.404 206.22 78.501 206.397 78.561 206.651 78.751 207.046 79.039 207.276 79.507 207.276 79.985 207.276 80.669 206.793 81.305 206.098 81.558 205.688 81.7 205.519 81.725 204.378 81.725 L202.558 81.725 Z M203.499 76.283 L203.499 78.08 204.665 78.08 C205.362 78.08 205.616 77.972 205.818 77.613 205.89 77.485 205.927 77.34 205.928 77.193 205.928 76.773 205.652 76.451 205.204 76.353 204.967 76.294 204.847 76.283 204.461 76.283 Z M203.499 78.873 L203.499 80.933 204.677 80.933 C205.123 80.933 205.461 80.886 205.687 80.801 206.011 80.669 206.241 80.297 206.241 79.915 206.253 79.439 205.914 79.025 205.445 78.943 205.2 78.889 204.949 78.866 204.698 78.873 L203.5 78.873 Z M209.103 75.467 L210.787 75.467 C211.822 75.467 212.232 75.564 212.593 75.792 213.05 76.079 213.365 76.606 213.365 77.205 213.365 78.309 212.664 78.955 211.461 78.968 211.629 79.065 211.701 79.123 211.799 79.243 211.992 79.483 212.389 79.963 212.739 80.419 213.112 80.909 213.738 81.725 213.738 81.725 L212.544 81.725 C212.365 81.365 212.278 81.221 211.979 80.791 211.511 80.082 211.125 79.615 210.777 79.303 210.534 79.088 210.356 79.016 210.064 78.991 L210.064 81.725 209.104 81.725 209.104 75.467 Z M210.063 76.259 L210.063 78.321 210.718 78.321 C211.401 78.321 211.751 78.249 212.015 78.044 212.232 77.877 212.365 77.6 212.365 77.241 212.365 76.821 212.114 76.511 211.702 76.366 211.415 76.291 211.119 76.255 210.822 76.259 L210.064 76.259 Z M215.516 75.455 L216.476 75.455 216.476 81.725 215.516 81.725 Z M223.163 75.864 L222.669 76.511 C222.295 76.264 221.856 76.134 221.408 76.139 220.649 76.139 220.002 76.523 219.676 77.193 219.496 77.565 219.411 78.02 219.411 78.679 219.411 79.543 219.571 79.985 219.977 80.429 220.361 80.849 220.867 81.053 221.456 81.053 221.887 81.053 222.323 80.933 222.669 80.729 222.696 80.717 222.745 80.694 222.806 80.659 L223.283 81.281 C222.827 81.63 222.105 81.821 221.337 81.821 219.579 81.821 218.341 80.501 218.341 78.644 218.341 76.774 219.662 75.36 221.396 75.36 222.043 75.36 222.721 75.54 223.163 75.864 M227.424 75.467 L229.745 81.725 228.661 81.725 228.024 79.985 225.498 79.985 224.848 81.725 223.874 81.725 226.22 75.467 Z M225.764 79.195 L227.798 79.195 C227.758 79.123 226.784 76.319 226.784 76.319 Z M230.432 75.467 L235.231 75.467 235.123 76.271 233.233 76.271 233.233 81.725 232.298 81.725 232.298 76.271 230.432 76.271 Z M236.782 75.455 L237.744 75.455 237.744 81.725 236.782 81.725 Z M243.54 75.504 L244.964 75.504 C245.395 75.504 245.813 75.527 246.094 75.552 246.61 75.61 247.104 75.816 247.534 76.174 248.195 76.738 248.487 77.457 248.487 78.608 248.487 80.694 247.117 81.605 246.239 81.688 245.951 81.716 245.661 81.728 245.372 81.725 L243.54 81.725 243.54 75.505 Z M244.504 76.294 L244.504 80.934 245.274 80.934 C245.659 80.934 245.813 80.921 246.08 80.861 246.85 80.694 247.437 80.107 247.437 78.668 247.437 77.78 247.272 77.241 246.874 76.833 246.439 76.391 245.984 76.294 245.3 76.294 Z M250.447 75.492 L254.359 75.492 254.226 76.294 251.41 76.294 251.41 78.069 253.768 78.069 253.768 78.873 251.42 78.873 251.42 80.886 254.463 80.886 254.463 81.725 250.447 81.725 Z M256.258 75.455 L257.219 75.455 257.219 81.725 256.259 81.725 256.259 75.455 Z M268.296 74.246 L267.854 74.856 C267.176 74.401 266.697 74.221 266.057 74.221 265.097 74.221 264.339 74.663 264.001 75.61 263.785 76.223 263.676 76.918 263.676 77.697 263.676 78.776 263.881 79.652 264.254 80.191 264.626 80.729 265.469 81.066 266.251 81.066 266.768 81.066 267.214 80.956 267.561 80.741 L267.561 78.237 265.901 78.237 265.71 77.42 268.49 77.42 268.49 81.258 C267.898 81.64 267.01 81.88 266.166 81.88 265.132 81.88 264.254 81.52 263.628 80.849 262.933 80.094 262.608 79.076 262.608 77.662 262.608 76.092 263.016 74.965 263.881 74.209 264.47 73.682 265.179 73.429 266.034 73.429 266.913 73.429 267.67 73.705 268.296 74.246 M270.737 75.467 L272.423 75.467 C273.456 75.467 273.867 75.564 274.228 75.792 274.686 76.079 274.998 76.606 274.998 77.205 274.998 78.309 274.3 78.955 273.098 78.968 273.263 79.065 273.338 79.123 273.435 79.243 273.626 79.483 274.022 79.963 274.373 80.419 274.744 80.909 275.373 81.725 275.373 81.725 L274.182 81.725 C274.021 81.397 273.831 81.084 273.612 80.791 273.143 80.082 272.759 79.615 272.414 79.303 272.172 79.088 271.988 79.016 271.702 78.991 L271.702 81.725 270.737 81.725 Z M271.702 76.259 L271.702 78.321 272.352 78.321 C273.039 78.321 273.384 78.249 273.649 78.044 273.867 77.877 273.999 77.6 273.999 77.241 273.999 76.821 273.746 76.511 273.338 76.366 273.051 76.291 272.755 76.255 272.458 76.259 Z M277.332 75.455 L278.292 75.455 278.292 81.725 277.332 81.725 Z M285.197 76.054 L284.737 76.666 C284.259 76.366 283.887 76.174 283.21 76.174 282.383 76.174 281.781 76.498 281.528 77.074 281.335 77.505 281.242 78.034 281.242 78.644 281.242 79.723 281.54 80.419 282.152 80.754 282.502 80.946 282.957 81.066 283.394 81.066 283.776 81.066 284.162 80.993 284.417 80.861 L284.417 79.161 283.044 79.161 282.89 78.356 285.34 78.356 285.34 81.318 C284.788 81.653 284.102 81.82 283.332 81.82 282.345 81.82 281.599 81.508 281.047 80.956 280.467 80.382 280.191 79.615 280.191 78.571 280.191 77.338 280.578 76.474 281.372 75.922 281.891 75.564 282.464 75.395 283.187 75.395 283.957 75.395 284.558 75.587 285.197 76.055 M287.353 75.455 L288.313 75.455 288.313 81.725 287.353 81.725 Z M293.124 75.36 C294.132 75.36 294.868 75.742 295.384 76.366 295.843 76.906 296.048 77.625 296.048 78.631 296.048 79.687 295.876 80.321 295.411 80.886 294.868 81.546 294.229 81.833 293.196 81.833 292.244 81.833 291.645 81.593 291.114 81.004 290.539 80.357 290.274 79.603 290.274 78.571 290.274 76.581 291.354 75.36 293.124 75.36 Z M293.088 76.139 C292.512 76.139 291.956 76.391 291.703 76.773 291.45 77.145 291.344 77.673 291.344 78.452 291.344 79.328 291.487 80.01 291.777 80.454 292.018 80.861 292.537 81.089 293.219 81.089 293.976 81.089 294.505 80.791 294.735 80.202 294.907 79.795 294.965 79.422 294.965 78.752 294.965 77.902 294.868 77.372 294.654 76.953 294.339 76.366 293.799 76.139 293.088 76.139 Z M297.84 75.467 L298.947 75.467 300.99 78.873 C301.397 79.555 301.762 80.287 301.795 80.334 301.795 80.334 301.701 79.448 301.687 78.619 L301.65 75.467 302.59 75.467 302.59 81.725 301.592 81.725 299.572 78.404 C299.186 77.757 298.692 76.774 298.692 76.774 298.717 77.026 298.751 77.6 298.765 78.514 L298.825 81.725 297.84 81.725 Z M304.841 75.455 L305.804 75.455 305.804 81.725 304.841 81.725 Z" fill="#1a1918" fill-opacity="1" stroke="none"/>
  </g>
 </g>
</svg>
