<svg id="Ebene_1" data-name="Ebene 1" xmlns="http://www.w3.org/2000/svg" xmlns:xlink="http://www.w3.org/1999/xlink" viewBox="0 0 276.05 46.43"><defs><style>.cls-1{fill:none;}.cls-2{fill:#1d1d1b;}.cls-3{clip-path:url(#clip-path);}.cls-4{fill:#fff;}.cls-5{fill:#009a3f;}</style><clipPath id="clip-path" transform="translate(-265.63 -261.5)"><rect class="cls-1" x="-66.8" width="841.89" height="595.28"/></clipPath></defs><title>Logo_KT_SG_3</title><path class="cls-2" d="M265.63,262.46h5.67v6.35h.05l5.06-6.35h7l-6.68,7.2,7.77,11.22h-7.07l-4.54-7.17-1.58,1.73v5.44h-5.67Z" transform="translate(-265.63 -261.5)"/><path class="cls-2" d="M298.52,277.89a5.37,5.37,0,0,0,.62,3h-5.21a3.44,3.44,0,0,1-.18-1.26h-.05a5.44,5.44,0,0,1-4.31,1.6c-2.58,0-4.72-1.24-4.72-4.05,0-4.23,4.95-4.08,7.56-4.57.69-.13,1.39-.33,1.39-1.18s-.85-1.24-1.68-1.24c-1.57,0-1.88.8-1.91,1.36h-4.74a3.85,3.85,0,0,1,2.32-3.61,11,11,0,0,1,4.56-.77c6.4,0,6.35,2.66,6.35,5.24Zm-4.9-3a9.09,9.09,0,0,1-2,.65c-1.14.26-1.73.54-1.73,1.44a1.47,1.47,0,0,0,1.6,1.24,2,2,0,0,0,2.14-2.09Z" transform="translate(-265.63 -261.5)"/><path class="cls-2" d="M301.23,267.49h4.93v1.71h0a4.88,4.88,0,0,1,4.36-2,4.31,4.31,0,0,1,4.59,4.54v9.18h-5.11v-7c0-1.55-.18-2.64-1.67-2.64-.88,0-2,.44-2,2.58v7.07h-5.11Z" transform="translate(-265.63 -261.5)"/><path class="cls-2" d="M324.09,267.49h2.73v3.15h-2.73v4.67c0,1.24.28,1.78,1.57,1.78a7.45,7.45,0,0,0,1.16-.08v3.87c-1,0-2.19.16-3.27.16-2.17,0-4.57-.34-4.57-4v-6.4h-2.27v-3.15H319v-4.07h5.11Z" transform="translate(-265.63 -261.5)"/><path class="cls-2" d="M335.18,281.22c-5,0-7.3-3.33-7.3-7s2.27-7,7.3-7,7.3,3.3,7.3,7S340.21,281.22,335.18,281.22Zm0-10.35c-1.93,0-2.19,1.89-2.19,3.31s.26,3.32,2.19,3.32,2.2-1.9,2.2-3.32S337.12,270.87,335.18,270.87Z" transform="translate(-265.63 -261.5)"/><path class="cls-2" d="M344.7,267.49h4.93v1.71h.05a4.9,4.9,0,0,1,4.36-2,4.32,4.32,0,0,1,4.6,4.54v9.18h-5.11v-7c0-1.55-.18-2.64-1.68-2.64-.88,0-2,.44-2,2.58v7.07H344.7Z" transform="translate(-265.63 -261.5)"/><path class="cls-2" d="M374.63,274.69a3.42,3.42,0,0,0,.21,1.22c.41,1.1,1.65,1.34,2.71,1.34s2.34-.31,2.34-1.68c0-1-.8-1.21-4-2.12-2.92-.82-6.24-1.62-6.24-5.34,0-4.26,3.63-6.09,7.43-6.09,4,0,7.53,1.53,7.69,6h-5.37a1.43,1.43,0,0,0-.67-1.48,3,3,0,0,0-1.68-.46c-.77,0-2,.21-2,1.24.11,1.31,2.74,1.6,5.34,2.32s5.19,1.94,5.19,5.32c0,4.8-4.41,6.34-8.51,6.34-2.09,0-8.05-.74-8.11-6.63Z" transform="translate(-265.63 -261.5)"/><path class="cls-2" d="M393.39,267.49h2.73v3.15h-2.73v4.67c0,1.24.28,1.78,1.57,1.78a7.54,7.54,0,0,0,1.16-.08v3.87c-1,0-2.19.16-3.27.16-2.17,0-4.57-.34-4.57-4v-6.4H386v-3.15h2.27v-4.07h5.11Z" transform="translate(-265.63 -261.5)"/><path class="cls-2" d="M398,275.78h5.37v5.1H398Z" transform="translate(-265.63 -261.5)"/><path class="cls-2" d="M419.94,279a6.45,6.45,0,0,1-5.24,2.32c-5.45,0-8.8-4.23-8.8-9.47,0-7,4.93-9.83,9.08-9.83,4.7,0,7.66,2.56,8.49,6.89H418a2.7,2.7,0,0,0-2.69-2.29c-3.89,0-3.76,4.1-3.76,5.36,0,1.73.69,4.75,4.15,4.75a2.81,2.81,0,0,0,2.94-2h-2.5v-3.95h7.53v10.14h-3.58Z" transform="translate(-265.63 -261.5)"/><path class="cls-2" d="M439.49,277.89a5.37,5.37,0,0,0,.62,3H434.9a3.44,3.44,0,0,1-.18-1.26h-.05a5.44,5.44,0,0,1-4.31,1.6c-2.58,0-4.72-1.24-4.72-4.05,0-4.23,4.95-4.08,7.56-4.57.69-.13,1.39-.33,1.39-1.18s-.85-1.24-1.68-1.24c-1.57,0-1.88.8-1.91,1.36h-4.75a3.88,3.88,0,0,1,2.33-3.61,11,11,0,0,1,4.56-.77c6.4,0,6.35,2.66,6.35,5.24Zm-4.9-3a9.09,9.09,0,0,1-2,.65c-1.14.26-1.73.54-1.73,1.44a1.47,1.47,0,0,0,1.6,1.24,2,2,0,0,0,2.14-2.09Z" transform="translate(-265.63 -261.5)"/><path class="cls-2" d="M442.3,262.46h5.11v18.42H442.3Z" transform="translate(-265.63 -261.5)"/><path class="cls-2" d="M450.43,262.46h5.11v18.42h-5.11Z" transform="translate(-265.63 -261.5)"/><path class="cls-2" d="M462.76,275.34a2.54,2.54,0,0,0,2.61,2.6,2.57,2.57,0,0,0,2.14-.95h4.77c-1,2.89-3.84,4.23-6.89,4.23-4.28,0-7.51-2.53-7.51-7a6.88,6.88,0,0,1,7.08-7.07c5.31,0,7.61,3,7.61,8.18Zm4.9-2.66a2.2,2.2,0,0,0-2.24-2.25,2.42,2.42,0,0,0-2.63,2.25Z" transform="translate(-265.63 -261.5)"/><path class="cls-2" d="M474.71,267.49h4.92v1.71h.06a4.88,4.88,0,0,1,4.36-2,4.31,4.31,0,0,1,4.59,4.54v9.18h-5.11v-7c0-1.55-.18-2.64-1.68-2.64-.87,0-2,.44-2,2.58v7.07h-5.11Z" transform="translate(-265.63 -261.5)"/><g class="cls-3"><path class="cls-4" d="M541.14,262v17.76c0,6.91-1.06,12.85-4.07,17.55-2.84,4.5-7.38,7.85-13.82,10-6.43-2.18-11-5.53-13.81-10-3-4.7-4.07-10.64-4.07-17.55V262Z" transform="translate(-265.63 -261.5)"/><path class="cls-5" d="M505.37,262v17.76c0,6.91,1.06,12.84,4.07,17.55,2.84,4.5,7.38,7.85,13.81,10,6.44-2.18,11-5.53,13.82-10,3-4.71,4.07-10.64,4.07-17.55V262Zm17.25,3.26a.65.65,0,0,1,1.29,0v1.17h-1.29ZM517,267.48a7.54,7.54,0,0,1,.74-3.13,6.08,6.08,0,0,0,5.09,2.56h2.35v2.43h-2.5A6.22,6.22,0,0,0,518,271.2a7.25,7.25,0,0,1-.94-3.72m6.9,2.32v2.8a1.79,1.79,0,0,0-1.29,0v-2.8Zm-3.79,15.39,1.31,1.55-1.31,1.56Zm-.46,14.75a.51.51,0,0,1-.54.54.52.52,0,0,1-.54-.54v-1.39h1.08Zm0-4.13h-1.08v-1.37l1.08-1.28Zm0-7-1.08,1.28v-6.75l1.08,1.28Zm0-8.54L518.58,279v-1.37h1.08Zm0-5.4h-1.08v-1.39a.55.55,0,0,1,1.09,0Zm2,24.9a.75.75,0,0,1-1.49,0v-1.25h1.49Zm0-4h-1.5v-3.19l1.5-1.76Zm0-13.19-1.5-1.78v-3.2h1.5Zm0-7.72h-1.5v-1.25a.75.75,0,0,1,1.5,0Zm1.64,30a.62.62,0,0,1-.64-.65v-3.38a1.95,1.95,0,0,0,1.29,0v3.38a.62.62,0,0,1-.65.65m1.19-5.58a1.19,1.19,0,1,1-2.38,0v-.76h2.38Zm0-3.5h-2.39v-5.49l1.19-1.41,1.2,1.41Zm0-12.66-1.2,1.42-1.19-1.42v-5.51h2.39Zm0-8.25h-2.39v-.75a1.2,1.2,0,1,1,2.39,0Zm1.94,24.9a.75.75,0,0,1-1.49,0v-1.25h1.49Zm0-4h-1.49v-4.95l1.49,1.76Zm0-7.51-1.31-1.56,1.31-1.55Zm0-7.46-1.49,1.77v-5h1.49Zm0-5.94h-1.49v-1.25a.75.75,0,0,1,1.49,0Zm1.54,25a.51.51,0,0,1-.54.54.52.52,0,0,1-.54-.54v-1.39h1.08Zm0-4.13h-1.08v-2.64l1.08,1.27Zm0-5.68-1.08-1.29v-4.19l1.08-1.29Zm0-11.11-1.08,1.28v-2.66h1.08Zm0-4.12h-1.08v-1.39a.52.52,0,0,1,.54-.53.51.51,0,0,1,.54.53Z" transform="translate(-265.63 -261.5)"/><path class="cls-2" d="M504.83,261.5v18.29c0,12.39,3.31,23.07,18.42,28.14,15.11-5.07,18.43-15.75,18.43-28.14V261.5Zm36.31.53v17.76c0,6.91-1.06,12.85-4.07,17.55-2.84,4.5-7.38,7.85-13.82,10-6.43-2.18-11-5.53-13.81-10-3-4.7-4.07-10.64-4.07-17.55V262Z" transform="translate(-265.63 -261.5)"/><path class="cls-2" d="M528.86,282.29v-3.6a.22.22,0,0,0-.23-.22h-.23v-.83h.23a.22.22,0,0,0,.23-.22v-2.3a.23.23,0,0,0-.23-.22h-.23v-1.39a1,1,0,0,0-1-1,1,1,0,0,0-.8.4,1.22,1.22,0,0,0-2,.15,1.09,1.09,0,0,0-.25-.27v-3h1.29v-3.34h-1.29v-1.18a1.11,1.11,0,0,0-2.22,0v1.13a6.33,6.33,0,0,1-4.48-3.06,8.15,8.15,0,0,0-1.18,4.13,7.64,7.64,0,0,0,1.37,4.54,6.13,6.13,0,0,1,4.29-2.19v3a1,1,0,0,0-.24.27,1.22,1.22,0,0,0-1-.59,1.18,1.18,0,0,0-.94.44,1,1,0,0,0-.8-.4,1,1,0,0,0-1,1v1.39h-.23a.22.22,0,0,0-.23.22v2.3a.22.22,0,0,0,.23.22h.22v.83h-.22a.22.22,0,0,0-.23.22v3.6l.45.54v7.83l-.45.54v3.56a.22.22,0,0,0,.23.22h.22v.83h-.22a.22.22,0,0,0-.23.22v2.3a.22.22,0,0,0,.23.22h.22v1.39a1,1,0,0,0,1,1,1,1,0,0,0,.79-.41,1.18,1.18,0,0,0,1,.44,1.22,1.22,0,0,0,1-.58.86.86,0,0,0,.24.26v3.62a1.11,1.11,0,0,0,2.22,0v-3.62a.86.86,0,0,0,.24-.26,1.23,1.23,0,0,0,1,.58,1.17,1.17,0,0,0,1-.44,1,1,0,0,0,.8.41,1,1,0,0,0,1-1v-1.39h.23a.23.23,0,0,0,.23-.22V296a.23.23,0,0,0-.23-.22h-.23V295h.23a.23.23,0,0,0,.23-.22v-3.55l-.46-.54v-7.84Zm-2-8.78a.52.52,0,0,1,.54-.53.51.51,0,0,1,.54.53v1.39h-1.08Zm-2,.14a.75.75,0,0,1,1.49,0v1.25h-1.49Zm-2.29-8.36a.65.65,0,0,1,1.29,0v1.17h-1.29ZM518,271.2a7.25,7.25,0,0,1-.94-3.72,7.54,7.54,0,0,1,.74-3.13,6.08,6.08,0,0,0,5.09,2.56h2.35v2.43h-2.5A6.22,6.22,0,0,0,518,271.2m6-1.4v2.8a1.79,1.79,0,0,0-1.29,0v-2.8Zm-1.84,4.35a1.2,1.2,0,1,1,2.39,0v.75h-2.39Zm-2-.5a.75.75,0,0,1,1.5,0v1.25h-1.5Zm-1.54-.14a.55.55,0,0,1,1.09,0v1.39h-1.08Zm-.46,1.85H528.4v1.83H518.12Zm9.82,2.28V279l-1.08,1.28v-2.66Zm-1.54,0v3.2l-1.49,1.77v-5Zm-1.94,0v5.51l-1.2,1.42-1.19-1.42v-5.51Zm-2.84,0v5l-1.5-1.78v-3.2Zm-2,0v2.66L518.58,279v-1.37Zm-1.54,4.45v-2.88l10.28,12.15v2.93Zm7,4.65,1.31-1.55v3.11Zm1.77,2.1v-4.19l1.08-1.28v6.76Zm1.08,5.6v1.37h-1.08v-2.64Zm-1.54-1.82v3.19h-1.49v-4.95Zm-8.27,1.66v-2.92l3.6-4.26,1.23,1.45Zm3.49-3.42v4.95h-1.5v-3.19Zm-2,2.3v2.65h-1.08v-1.37Zm-1.08-3v-6.75l1.08,1.28v4.19Zm1.54-1.82v-3.11l1.31,1.55Zm2,2,1.19-1.41,1.2,1.41v5.49h-2.39Zm-2.41,9.62a.51.51,0,0,1-.54.54.52.52,0,0,1-.54-.54v-1.39h1.08Zm2-.14a.75.75,0,0,1-1.49,0v-1.25h1.49Zm1.65,5.09a.62.62,0,0,1-.64-.65v-3.38a1.95,1.95,0,0,0,1.29,0v3.38a.62.62,0,0,1-.65.65m1.19-5.58a1.19,1.19,0,1,1-2.38,0v-.76h2.38Zm1.95.49a.75.75,0,0,1-1.49,0v-1.25h1.49Zm1.54.14a.51.51,0,0,1-.54.54.52.52,0,0,1-.54-.54v-1.39h1.08Zm.46-1.85H518.12v-1.82H528.4Zm-3.61-11.71-1.23-1.45,4.84-5.72v2.88Z" transform="translate(-265.63 -261.5)"/></g></svg>