<svg viewBox="0 0 178 54" xmlns="http://www.w3.org/2000/svg"><g fill="none" fill-rule="evenodd"><g fill="#cf121c" fill-rule="nonzero"><path d="m38.76 15.89c1.606.073 3.177-.483 4.38-1.55.86-.804 1.342-1.933 1.33-3.11 0-2.43-1.62-4.12-4.33-4.51l-.85-.14c-.5-.08-1-.17-1.52-.23-.52-.06-1.84-.35-1.84-1.69-.022-.483.143-.955.46-1.32.575-.632 1.407-.967 2.26-.91.851-.046 1.678.287 2.26.91.375.439.59.993.61 1.57v.35h2.64v-.39c-.015-1.292-.552-2.522-1.49-3.41-2.317-1.961-5.722-1.927-8 .08-.871.821-1.366 1.963-1.37 3.16 0 2.29 1.52 3.84 4.17 4.24l2.25.35c1.38.21 2.1.9 2.1 2 .02.551-.212 1.081-.63 1.44-.682.554-1.554.82-2.43.74-.899.065-1.789-.214-2.49-.78-.542-.529-.863-1.244-.9-2v-.37h-2.65v.37c.002 1.432.595 2.8 1.64 3.78 1.221 1.035 2.792 1.564 4.39 1.48"/><path d="m52.03 8.48l2.15 7.15h2.83l1.06-15.36h-2.47l-.62 10.18-1.8-5.99h-2.26l-1.79 6.02-.64-10.21h-2.47l1.06 15.35 2.84.01z"/><path d="m69.86 13.37h-3.24v-10.86h3.24v-2.24h-9.07v2.24h3.24v10.86h-3.24v2.26h9.07z"/><path d="m77.33 15.63h2.61v-12.92h4.95v-2.44h-12.53v2.44h4.97z"/><path d="m97.54 13.18h-7.77l7.71-10.57v-2.34h-10.74v2.44l7.57.01-7.7 10.58v2.33h10.93z"/><path d="m110.94 13.2h-7.83v-4.32h5.92v-2.46h-5.92v-3.72h7.83v-2.43h-10.4v15.36h10.4z"/><path d="m121.62 4.91c0 1.47-.85 2.19-2.6 2.19h-2.82v-4.4h2.8c1.75 0 2.6.72 2.6 2.21m1.4 3.09c.812-.839 1.249-1.973 1.21-3.14.031-1.178-.404-2.32-1.21-3.18-1.08-1-2.529-1.515-4-1.41h-5.38v15.36h2.57v-6.09h2.74l2.76 6.08h2.81l-3-6.62c.564-.225 1.076-.565 1.5-1"/><path d="m129.63.27h-2.56v15.36h10.11v-2.45h-7.55z"/><path d="m146.58 9.39h-3.58l1.77-5.66 1.81 5.66m-3.17-9.12l-5 15.36h2.59l1.2-3.77h5.14l1.22 3.77h2.67l-5.06-15.36h-2.76"/><path d="m160.9 10.89l-5.24-10.62h-2.88v15.36h2.53v-10.56l5.26 10.56h2.84v-15.36h-2.5z"/><path d="m174.56 7.92c0 1.84-.07 3.43-.93 4.37-.666.645-1.575.976-2.5.91h-2.13v-10.5h2.15c.896-.057 1.778.253 2.44.86.91.93 1 2.6 1 4.36m1.57-5.2c-1.111-1.649-3.02-2.579-5-2.44h-4.72v15.35h4.72c2.9 0 4.31-1.29 5-2.38.821-1.651 1.19-3.49 1.07-5.33.148-1.792-.198-3.591-1-5.2"/><path d="m38.66 34.6c.929-.004 1.839-.264 2.63-.75.319-.191.615-.419.88-.68l.21 1.15h2v-8.62h-6.2v2.44h3.72c.072 1.142-.309 2.267-1.06 3.13-.564.588-1.356.902-2.17.86-.835.076-1.656-.251-2.21-.88-1.17-1.19-1.17-3.5-1.17-4.61 0-2.21.41-3.72 1.26-4.59.56-.61 1.363-.94 2.19-.9.77-.046 1.522.237 2.07.78.448.431.713 1.019.74 1.64v.35h2.65v-.39c-.056-1.119-.506-2.181-1.27-3-1.061-1.19-2.597-1.846-4.19-1.79-1.498-.037-2.945.545-4 1.61-1.39 1.37-2.09 3.5-2.09 6.35 0 3.1.63 5.09 2 6.45 1.069 1.031 2.516 1.577 4 1.51"/><path d="m50.58 18.96h-2.57v15.36h10.11v-2.45h-7.54z"/><path d="m68.65 26.5v.29c0 1.44 0 3.23-1.05 4.32-1.146 1.256-3.093 1.346-4.35.2l-.2-.2c-1-1.11-1-2.87-1-4.31v-.3c0-1.44 0-3.23 1-4.32 1.152-1.25 3.099-1.331 4.35-.18l.2.2c1.06 1.09 1.05 2.88 1.05 4.32m-3.33-7.81c-1.528-.003-2.994.606-4.07 1.69-1.74 1.69-1.89 4-1.89 6.26 0 2.26.15 4.57 1.88 6.26 1.077 1.077 2.537 1.682 4.06 1.682 1.523 0 2.983-.605 4.06-1.682 1.74-1.69 1.89-4 1.89-6.27 0-2.27-.15-4.57-1.88-6.26-1.076-1.084-2.542-1.693-4.07-1.69"/><path d="m81.79 29.74c0 1.43-.84 2.15-2.5 2.15h-2.75v-4.36h2.73c.635-.077 1.273.12 1.754.542.481.422.76 1.028.766 1.668m-5.25-4.55v-3.87h2.65c.562-.077 1.13.088 1.563.455.433.366.69.899.707 1.465 0 1.41-.75 1.94-2.23 1.94l-2.69.01m2.75 9.13c1.447.082 2.865-.427 3.93-1.41.759-.814 1.178-1.887 1.17-3 .011-1.452-.751-2.8-2-3.54 1.042-.736 1.646-1.945 1.61-3.22.026-1.01-.331-1.993-1-2.75-.995-.952-2.334-1.458-3.71-1.4h-5.29v15.32h5.29"/><path d="m93.72 28.08h-3.6l1.77-5.66 1.83 5.66m-3.17-9.08l-5 15.36h2.65l1.2-3.78h5.14l1.22 3.77h2.67l-5.12-15.35h-2.76"/><path d="m103.79 18.96h-2.57v15.36h10.12v-2.44l-7.55-.01z"/><path d="m7.93 53.01h10.41v-2.43h-7.84v-4.32h5.92v-2.46h-5.92v-3.72h7.84v-2.43h-10.41z"/><path d="m28.74 48.27l-5.24-10.62h-2.88v15.36h2.52v-10.57l5.27 10.57h2.84v-15.36h-2.51z"/><path d="m32.97 40.1h4.97v12.91h2.61v-12.91h4.95v-2.45h-12.53z"/><path d="m47.84 53.01h10.41v-2.42l-7.84-.01v-4.32h5.92v-2.46h-5.92v-3.72h7.84v-2.43h-10.41z"/><path d="m68.92 42.29c0 1.47-.85 2.19-2.6 2.19h-2.81v-4.4h2.81c1.73 0 2.6.74 2.6 2.21m1.42 3.14c.812-.839 1.249-1.973 1.21-3.14.031-1.202-.424-2.366-1.26-3.23-1.08-1-2.529-1.515-4-1.41h-5.35v15.35h2.57v-6.08h2.74l2.75 6.08h2.81l-3-6.59c.572-.222 1.09-.563 1.52-1"/><path d="m82.74 42.43c0 1.66-.94 2.5-2.79 2.5h-3v-4.87h3c.84 0 2.81.23 2.81 2.38m-2.76-4.79h-5.66v15.35h2.57v-5.66h3.09c1.454.072 2.883-.406 4-1.34.914-.938 1.402-2.211 1.35-3.52.029-1.211-.412-2.387-1.23-3.28-1.108-1.051-2.594-1.61-4.12-1.55"/><path d="m95.53 42.29c0 1.47-.85 2.19-2.6 2.19h-2.82v-4.4h2.81c1.75 0 2.6.72 2.6 2.21m1.42 3.14c.813-.839 1.25-1.972 1.21-3.14.031-1.202-.424-2.366-1.26-3.23-1.081-1-2.529-1.514-4-1.41h-5.34v15.35h2.57v-6.07h2.74l2.76 6.07h2.81l-3-6.59c.572-.222 1.09-.563 1.52-1"/><path d="m101.22 39.89h3.24v10.86h-3.24v2.26h9.07v-2.26h-3.24v-10.86h3.24v-2.23h-9.07z"/><path d="m120.47 44.12l-.85-.14c-.5-.08-1-.17-1.53-.23-.53-.06-1.83-.38-1.83-1.7-.022-.488.147-.964.47-1.33.576-.631 1.408-.966 2.26-.91.851-.046 1.678.287 2.26.91.375.439.59.993.61 1.57v.35h2.64v-.38c-.016-1.293-.557-2.524-1.5-3.41-2.317-1.961-5.722-1.927-8 .08-.861.822-1.349 1.96-1.35 3.15 0 2.3 1.52 3.84 4.17 4.24l2.25.35c1.38.21 2.1.9 2.1 2 .022.551-.21 1.082-.63 1.44-.681.558-1.553.827-2.43.75-.899.064-1.788-.215-2.49-.78-.542-.529-.863-1.244-.9-2v-.37h-2.65v.29c.002 1.432.595 2.8 1.64 3.78 1.224 1.037 2.798 1.567 4.4 1.48 1.606.072 3.177-.484 4.38-1.55.86-.804 1.342-1.933 1.33-3.11 0-2.43-1.62-4.12-4.33-4.51"/><path d="m138.07 40.08v-2.42h-10.41v15.35h10.41v-2.42h-7.84v-4.32h5.92v-2.47h-5.92v-3.72z"/></g><path stroke="#cf121c" stroke-width=".79" d="m8.33 8.58h-1.01-3.73-3.19v2.97 3.69h3.61 3.31 1.01v4.16 3.77h3.26 3.4v-4.05-3.88h4.17 3.76v-3.26-3.4h-4.62-3.31v-7.93h-3.69-2.97z"/></g></svg>
