<svg viewBox="0 0 178 54" xmlns="http://www.w3.org/2000/svg"><g fill="none" fill-rule="evenodd"><g fill="#cf121c" fill-rule="nonzero"><path d="M38.76 15.89a6.178 6.178 0 0 0 4.38-1.55 4.199 4.199 0 0 0 1.33-3.11c0-2.43-1.62-4.12-4.33-4.51l-.85-.14c-.5-.08-1-.17-1.52-.23S35.93 6 35.93 4.66a1.882 1.882 0 0 1 .46-1.32 2.802 2.802 0 0 1 2.26-.91 2.88 2.88 0 0 1 2.26.91c.375.439.59.993.61 1.57v.35h2.64v-.39a4.77 4.77 0 0 0-1.49-3.41 6.12 6.12 0 0 0-8 .08A4.361 4.361 0 0 0 33.3 4.7c0 2.29 1.52 3.84 4.17 4.24l2.25.35c1.38.21 2.1.9 2.1 2a1.812 1.812 0 0 1-.63 1.44 3.368 3.368 0 0 1-2.43.74 3.556 3.556 0 0 1-2.49-.78 3 3 0 0 1-.9-2v-.37h-2.65v.37a5.192 5.192 0 0 0 1.64 3.78 6.28 6.28 0 0 0 4.39 1.48M52.03 8.48l2.15 7.15h2.83L58.07.27H55.6l-.62 10.18-1.8-5.99h-2.26l-1.79 6.02L48.49.27h-2.47l1.06 15.35 2.84.01zM69.86 13.37h-3.24V2.51h3.24V.27h-9.07v2.24h3.24v10.86h-3.24v2.26h9.07zM77.33 15.63h2.61V2.71h4.95V.27H72.36v2.44h4.97zM97.54 13.18h-7.77l7.71-10.57V.27H86.74v2.44l7.57.01-7.7 10.58v2.33h10.93zM110.94 13.2h-7.83V8.88h5.92V6.42h-5.92V2.7h7.83V.27h-10.4v15.36h10.4zM121.62 4.91c0 1.47-.85 2.19-2.6 2.19h-2.82V2.7h2.8c1.75 0 2.6.72 2.6 2.21M123 8a4.31 4.31 0 0 0 1.21-3.14A4.478 4.478 0 0 0 123 1.68a5.335 5.335 0 0 0-4-1.41h-5.38v15.36h2.57V9.54h2.74l2.76 6.08h2.81l-3-6.62a4.34 4.34 0 0 0 1.5-1M129.63.27h-2.56v15.36h10.11v-2.45h-7.55zM146.58 9.39H143l1.77-5.66 1.81 5.66M143.41.27l-5 15.36H141l1.2-3.77h5.14l1.22 3.77h2.67L146.17.27h-2.76M160.9 10.89 155.66.27h-2.88v15.36h2.53V5.07l5.26 10.56h2.84V.27h-2.5zM174.56 7.92c0 1.84-.07 3.43-.93 4.37a3.26 3.26 0 0 1-2.5.91H169V2.7h2.15a3.301 3.301 0 0 1 2.44.86c.91.93 1 2.6 1 4.36m1.57-5.2a5.563 5.563 0 0 0-5-2.44h-4.72v15.35h4.72c2.9 0 4.31-1.29 5-2.38a10.444 10.444 0 0 0 1.07-5.33 9.842 9.842 0 0 0-1-5.2M38.66 34.6a5.067 5.067 0 0 0 2.63-.75 4.68 4.68 0 0 0 .88-.68l.21 1.15h2V25.7h-6.2v2.44h3.72a4.352 4.352 0 0 1-1.06 3.13 2.807 2.807 0 0 1-2.17.86 2.628 2.628 0 0 1-2.21-.88c-1.17-1.19-1.17-3.5-1.17-4.61 0-2.21.41-3.72 1.26-4.59.56-.61 1.363-.94 2.19-.9a2.71 2.71 0 0 1 2.07.78c.448.431.713 1.019.74 1.64v.35h2.65v-.39a4.745 4.745 0 0 0-1.27-3 5.362 5.362 0 0 0-4.19-1.79 5.44 5.44 0 0 0-4 1.61c-1.39 1.37-2.09 3.5-2.09 6.35 0 3.1.63 5.09 2 6.45a5.411 5.411 0 0 0 4 1.51M50.58 18.96h-2.57v15.36h10.11v-2.45h-7.54zM68.65 26.5v.29c0 1.44 0 3.23-1.05 4.32a3.08 3.08 0 0 1-4.35.2l-.2-.2c-1-1.11-1-2.87-1-4.31v-.3c0-1.44 0-3.23 1-4.32A3.08 3.08 0 0 1 67.4 22l.2.2c1.06 1.09 1.05 2.88 1.05 4.32m-3.33-7.81a5.72 5.72 0 0 0-4.07 1.69c-1.74 1.69-1.89 4-1.89 6.26s.15 4.57 1.88 6.26a5.741 5.741 0 0 0 8.12 0c1.74-1.69 1.89-4 1.89-6.27 0-2.27-.15-4.57-1.88-6.26a5.72 5.72 0 0 0-4.07-1.69M81.79 29.74c0 1.43-.84 2.15-2.5 2.15h-2.75v-4.36h2.73a2.25 2.25 0 0 1 2.52 2.21m-5.25-4.55v-3.87h2.65a1.997 1.997 0 0 1 2.27 1.92c0 1.41-.75 1.94-2.23 1.94l-2.69.01m2.75 9.13a5.348 5.348 0 0 0 3.93-1.41 4.353 4.353 0 0 0 1.17-3 4.079 4.079 0 0 0-2-3.54A3.81 3.81 0 0 0 84 23.15a3.998 3.998 0 0 0-1-2.75 5.058 5.058 0 0 0-3.71-1.4H74v15.32h5.29M93.72 28.08h-3.6l1.77-5.66 1.83 5.66M90.55 19l-5 15.36h2.65l1.2-3.78h5.14l1.22 3.77h2.67L93.31 19h-2.76M103.79 18.96h-2.57v15.36h10.12v-2.44l-7.55-.01zM7.93 53.01h10.41v-2.43H10.5v-4.32h5.92V43.8H10.5v-3.72h7.84v-2.43H7.93zM28.74 48.27 23.5 37.65h-2.88v15.36h2.52V42.44l5.27 10.57h2.84V37.65h-2.51zM32.97 40.1h4.97v12.91h2.61V40.1h4.95v-2.45H32.97zM47.84 53.01h10.41v-2.42l-7.84-.01v-4.32h5.92V43.8h-5.92v-3.72h7.84v-2.43H47.84zM68.92 42.29c0 1.47-.85 2.19-2.6 2.19h-2.81v-4.4h2.81c1.73 0 2.6.74 2.6 2.21m1.42 3.14a4.31 4.31 0 0 0 1.21-3.14 4.48 4.48 0 0 0-1.26-3.23 5.335 5.335 0 0 0-4-1.41h-5.35V53h2.57v-6.08h2.74L69 53h2.81l-3-6.59a4.331 4.331 0 0 0 1.52-1M82.74 42.43c0 1.66-.94 2.5-2.79 2.5h-3v-4.87h3c.84 0 2.81.23 2.81 2.38M80 37.65h-5.66V53h2.57v-5.66H80A5.79 5.79 0 0 0 84 46a4.772 4.772 0 0 0 1.35-3.52 4.69 4.69 0 0 0-1.23-3.28A5.664 5.664 0 0 0 80 37.65M95.53 42.29c0 1.47-.85 2.19-2.6 2.19h-2.82v-4.4h2.81c1.75 0 2.6.72 2.6 2.21m1.42 3.14a4.3 4.3 0 0 0 1.21-3.14 4.48 4.48 0 0 0-1.26-3.23 5.34 5.34 0 0 0-4-1.41h-5.34V53h2.57v-6.07h2.74L95.62 53h2.81l-3-6.59a4.331 4.331 0 0 0 1.52-1M101.22 39.89h3.24v10.86h-3.24v2.26h9.07v-2.26h-3.24V39.89h3.24v-2.23h-9.07zM120.47 44.12l-.85-.14c-.5-.08-1-.17-1.53-.23s-1.83-.38-1.83-1.7a1.881 1.881 0 0 1 .47-1.33 2.811 2.811 0 0 1 2.26-.91 2.88 2.88 0 0 1 2.26.91c.375.439.59.993.61 1.57v.35h2.64v-.38a4.76 4.76 0 0 0-1.5-3.41 6.12 6.12 0 0 0-8 .08 4.36 4.36 0 0 0-1.35 3.15c0 2.3 1.52 3.84 4.17 4.24l2.25.35c1.38.21 2.1.9 2.1 2a1.798 1.798 0 0 1-.63 1.44 3.369 3.369 0 0 1-2.43.75 3.567 3.567 0 0 1-2.49-.78 3 3 0 0 1-.9-2v-.37h-2.65V48a5.192 5.192 0 0 0 1.64 3.78 6.28 6.28 0 0 0 4.4 1.48 6.187 6.187 0 0 0 4.38-1.55 4.199 4.199 0 0 0 1.33-3.11c0-2.43-1.62-4.12-4.33-4.51M138.07 40.08v-2.42h-10.41v15.35h10.41v-2.42h-7.84v-4.32h5.92V43.8h-5.92v-3.72z"/></g><path stroke="#cf121c" stroke-width=".79" d="M8.33 8.58H.4v6.66h7.93v7.93h6.66v-7.93h7.93V8.58h-7.93V.65H8.33z"/></g></svg>
