<svg width="2070" height="449" fill="none" xmlns="http://www.w3.org/2000/svg"><path d="M2069.1.12h-425v425h425V.12Z" fill="#6ECD96"/><path d="m1714.94 179.875 170-98.247 56.66 32.746-170 98.246-56.66-32.745ZM1941.6 212.62l56.66 32.745-169.99 98.237-56.67-32.746 170-98.236ZM1785.77 220.804l56.67 32.745 85-49.113-56.67-32.755-85 49.123Z" fill="#fff"/><path d="M57.78 204c.78 17.29 14.54 32.62 40.48 32.62 23.19 0 39.31-11 39.7-28.69.4-12.19-5.11-22.8-32.62-30.66l-32.63-9c-59.74-18.48-70-53.46-70-77.83 0-48.34 41.27-81 93.15-81 52.28 0 91.59 31.05 91.59 82.94H130.1c0-18.08-12.18-30.66-35-30.66-20.05 0-35 11-35 27.12 0 7.07 2.75 20 29.08 27.51l32.23 10.22c65.64 18.87 75.08 55.82 74.29 81.76-.79 53.85-49.52 79.4-97.48 79.4C39.31 287.72 0 252.73 0 204h57.78ZM350.3 99.84h54.63v183.55H350.3v-25.15c-9.83 18.47-29.88 29.08-47.56 29.08-41.27 0-72.72-25.54-72.72-77.82V99.84h54.64v97.87c0 29.08 20 36.55 32.62 36.55 16.9 0 33-9.43 33-37.34l.02-97.08ZM446.24 283.39V0h54.24v122.24c9-16.9 31-26.34 53.85-26.34 47.17 0 88.83 37.35 88.83 96.3 0 57.78-41.66 95.12-88.83 95.12-22.8 0-44.81-9.82-53.85-26.72v22.79h-54.24Zm97.87-47.95c23.19 0 42.45-17.3 42.45-44.42 0-26.33-19.26-43.62-42.45-43.62-22.4 0-42.45 16.11-42.45 43.62 0 26.34 19.65 44.42 42.45 44.42ZM730.42 207.93c-55-14.94-55.42-42.85-55-59.75.39-27.12 33-52.28 71.54-52.28 36.55 0 75.07 16.12 75.46 60.93H770.9c-.39-13.76-12.18-16.12-20.83-16.12-11.79 0-19.65 5.51-19.26 13.76.39 5.5 5.11 11 16.12 13.76l31.07 8.25c44.41 12.19 49.92 41.66 49.92 53.46 0 38.91-40.88 57.38-79.4 57.38-37.34 0-76.25-22.4-76.65-63.28H723c.39 10.61 12.19 21.23 27.12 21.23 12.19-.4 22.41-5.9 22.41-15.33 0-7.86-4.72-12.19-18.09-15.72l-24.02-6.29ZM893.54 0C912 0 927 13.76 927 31.84s-15 32.23-33.46 32.23-34.2-14.15-34.2-32.23S875.06 0 893.54 0Zm27.12 283.39h-54.24V99.84h54.24v183.55ZM1103 283.39V260.6c-9 16.9-31 26.72-53.85 26.72-47.16 0-88.83-37.34-88.83-95.12 0-58.95 41.67-96.3 88.83-96.3 22.8 0 44.81 9.44 53.85 26.34V0h54.24v283.39H1103Zm-43.63-136c-23.19 0-42.45 17.29-42.45 43.62 0 27.12 19.26 44.42 42.45 44.42 22.8 0 42.45-18.08 42.45-44.42.03-27.5-20.01-43.61-42.42-43.61l-.03-.01ZM1234.7 0c18.48 0 33.41 13.76 33.41 31.84s-14.93 32.23-33.41 32.23c-18.48 0-34.19-14.15-34.19-32.23S1216.23 0 1234.7 0Zm27.12 283.39h-54.24V99.84h54.24v183.55ZM1448.13 262.56c-11.79 17.69-39.31 24.37-53.46 24.37-46.77 0-93.54-36.55-93.54-95.51 0-58.96 46.77-95.52 93.54-95.52 11.8 0 39.31 3.94 53.46 24.37V99.84h54.24v183.55h-54.24v-20.83Zm-44.42-27.51c22.41 0 44.42-16.12 44.42-43.63s-22-43.63-44.42-43.63c-22.79 0-46 17.29-46 43.63 0 26.34 23.21 43.63 46 43.63ZM488.17 425.1v-67.76h26.55c19.47 0 30.59 14.76 30.59 34 0 19.24-11.12 33.73-30.59 33.73l-26.55.03Zm14.36-13.1h12.19c10.82 0 16.23-9.54 16.23-20.65s-5.41-20.95-16.23-20.95h-12.19V412ZM562.22 354.2a8.087 8.087 0 0 1 8.36 8 8.173 8.173 0 0 1-5.198 7.513 8.174 8.174 0 0 1-3.162.557 8.349 8.349 0 0 1-8.56-8.07c0-4.56 3.94-8 8.56-8Zm6.78 70.9h-13.57v-45.92H569v45.92ZM602.84 435.73c10.42 0 13.27-7.18 12.68-16.33-2.16 4.23-8.06 6.69-13.77 6.69-11.8 0-22.91-9.34-22.91-23.8 0-14.75 11.11-24.1 22.91-24.1 5.71 0 11.51 2.46 13.77 6.69v-5.7h13.28v39.53c0 19.77-9.64 29.31-26 29.31a24.483 24.483 0 0 1-22.62-14.26c3.44-1.67 7.57-3.74 11-5.41 1.62 4.23 7.03 7.38 11.66 7.38Zm1.27-44.56a10.998 10.998 0 0 0-7.778 18.778 10.998 10.998 0 0 0 7.778 3.222A11.178 11.178 0 0 0 615.23 402c0-6.89-5.41-10.83-11.12-10.83ZM648.17 354.2a8.087 8.087 0 0 1 8.36 8 8.173 8.173 0 0 1-5.198 7.513 8.174 8.174 0 0 1-3.162.557 8.349 8.349 0 0 1-8.56-8.07c0-4.56 3.94-8 8.56-8Zm6.83 70.9h-13.61v-45.92H655v45.92ZM695.08 379.18V390h-9.64v35.1h-13.57V390h-8.36v-10.82h8.36v-17.61h13.57v17.61h9.64ZM736.78 419.89c-2.95 4.43-9.84 6.1-13.38 6.1a23.911 23.911 0 0 1 0-47.8c3 0 9.84 1 13.38 6.1v-5.11h13.57v45.92h-13.57v-5.21ZM725.67 413c5.6 0 11.11-4 11.11-10.92s-5.51-10.92-11.11-10.92-11.51 4.33-11.51 10.92S720 413 725.67 413ZM776.61 354.2v70.9h-13.67v-70.9h13.67ZM865 425.1h-17.29l-15.15-23.4h-3.24v23.4h-14.46v-67.76h27.73c15.35 0 22.53 11.12 22.53 22.23 0 9.64-5.32 19.08-16.92 21.54L865 425.1ZM829.32 370v19.08h12.19c5.61 0 8.56-5.11 8.56-9.54 0-4.23-2.76-9.54-8.16-9.54h-12.59ZM916 416.75c-4.62 6.88-13.18 9.34-21 9.34-13.18 0-24-9.64-24-24.1s10.82-23.8 24-23.8 23.51 9.74 23.51 24.2c0 1.18-.1 3.05-.2 4.23h-33.62c.68 5.31 6.49 7.67 11.3 7.67 3.74 0 7.77-1.38 10-4.33l10.01 6.79Zm-11.21-18.69c-.69-5.61-5.81-7.87-9.64-7.87-3.83 0-9.05 2.07-10.23 7.87h19.87ZM955 379.18V390h-9.64v35.1h-13.57V390h-8.36v-10.82h8.36v-17.61h13.57v17.61H955ZM996.7 419.89c-3 4.43-9.84 6.1-13.38 6.1a23.911 23.911 0 0 1 0-47.8c2.95 0 9.84 1 13.38 6.1v-5.11h13.57v45.92H996.7v-5.21ZM985.59 413c5.6 0 11.11-4 11.11-10.92s-5.51-10.92-11.11-10.92-11.51 4.33-11.51 10.92 5.8 10.92 11.51 10.92ZM1029.64 354.2a8.115 8.115 0 0 1 3.16.528c1 .385 1.92.967 2.7 1.713.78.745 1.4 1.638 1.83 2.627.43.989.66 2.054.67 3.132a8.163 8.163 0 0 1-2.5 5.78 8.043 8.043 0 0 1-2.7 1.733 8.177 8.177 0 0 1-3.16.557 8.34 8.34 0 0 1-8.55-8.07c0-4.56 3.91-8 8.55-8Zm6.79 70.9h-13.57v-45.92h13.57v45.92ZM1062.69 354.2v70.9H1049v-70.9h13.69ZM1111.76 405.24c.19 4.33 3.64 8.16 10.13 8.16 5.8 0 9.83-2.75 9.93-7.18.1-3.05-1.28-5.7-8.16-7.67l-8.17-2.26c-14.94-4.62-17.5-13.38-17.5-19.47 0-12.1 10.32-20.26 23.31-20.26 12.99 0 22.91 7.77 22.91 20.75h-14.36c0-4.53-3-7.67-8.75-7.67-5 0-8.75 2.75-8.75 6.78 0 1.77.69 5 7.27 6.89l8.07 2.55c16.42 4.73 18.78 14 18.59 20.46-.2 13.47-12.4 19.87-24.39 19.87-14.76 0-24.59-8.76-24.59-20.95h14.46ZM1153.75 402c0-14.45 10.82-23.8 23.8-23.8s23.9 9.35 23.9 23.8c0 14.45-10.92 23.9-23.9 23.9-12.98 0-23.8-9.45-23.8-23.9Zm34.22 0a10.355 10.355 0 0 0-1.82-5.721 10.372 10.372 0 0 0-10.66-4.294c-2 .414-3.84 1.41-5.28 2.864a10.419 10.419 0 0 0-2.81 5.306c-.39 2.007-.18 4.085.6 5.973a10.394 10.394 0 0 0 9.55 6.402 10.178 10.178 0 0 0 7.5-3.005c.98-.987 1.75-2.164 2.25-3.458a10.1 10.1 0 0 0 .7-4.067h-.03ZM1225 354.2v70.9h-13.67v-70.9H1225ZM1267.14 379.18h13.67v45.92h-13.67v-6.29a13.961 13.961 0 0 1-4.98 5.228 13.993 13.993 0 0 1-6.92 2.052c-10.33 0-18.2-6.39-18.2-19.47v-27.44h13.67v24.49c0 7.27 5 9.14 8.17 9.14 4.23 0 8.26-2.36 8.26-9.34v-24.29ZM1320.93 379.18V390h-9.64v35.1h-13.57V390h-8.36v-10.82h8.36v-17.61h13.57v17.61h9.64ZM1336.07 354.2a8.094 8.094 0 0 1 5.87 2.237 8.1 8.1 0 0 1 1.83 2.63c.42.989.65 2.055.66 3.133a8.098 8.098 0 0 1-.67 3.142 7.987 7.987 0 0 1-1.82 2.641c-.78.751-1.7 1.34-2.71 1.732-1 .393-2.08.581-3.16.555a8.34 8.34 0 0 1-8.55-8.07c0-4.56 3.93-8 8.55-8Zm6.79 70.9h-13.57v-45.92h13.57v45.92ZM1352.69 402c0-14.45 10.82-23.8 23.8-23.8s23.9 9.35 23.9 23.8c0 14.45-10.92 23.9-23.9 23.9-12.98 0-23.8-9.45-23.8-23.9Zm34.23 0a10.386 10.386 0 0 0-6.5-9.478c-1.9-.764-3.98-.951-5.98-.538-2 .414-3.84 1.409-5.27 2.861a10.342 10.342 0 0 0-2.81 5.304 10.35 10.35 0 0 0 .59 5.973 10.41 10.41 0 0 0 3.8 4.644c1.7 1.14 3.7 1.754 5.74 1.764 1.39.033 2.77-.217 4.05-.735a10.098 10.098 0 0 0 3.43-2.281c.98-.986 1.75-2.161 2.25-3.453.51-1.292.75-2.674.7-4.061ZM1423.89 425.1h-13.67v-45.92h13.67v6.68a15.38 15.38 0 0 1 5.61-5.614 15.357 15.357 0 0 1 7.67-2.056c10.33 0 16.82 6.4 16.82 19.48v27.43h-13.67v-24.48c0-6.1-3.35-9.15-8-9.15-4.82 0-8.46 2.36-8.46 9.34l.03 24.29ZM1478 406.22c-13.77-3.74-13.86-10.72-13.77-15 .1-6.78 8.26-13.08 17.9-13.08 9.15 0 18.79 4 18.88 15.25h-12.88c-.1-3.44-3-4-5.21-4-3 0-4.92 1.38-4.82 3.45.1 1.37 1.28 2.75 4 3.44l7.77 2.06c11.11 3 12.49 10.43 12.49 13.38 0 9.74-10.23 14.36-19.86 14.36-9.35 0-19.08-5.61-19.18-15.84h12.78c.1 2.66 3.05 5.31 6.79 5.31 3-.09 5.61-1.47 5.61-3.83 0-2-1.18-3.05-4.53-3.93l-5.97-1.57Z" fill="#000"/></svg>
