<svg width="2070" height="449" viewBox="0 0 2070 449" fill="none" xmlns="http://www.w3.org/2000/svg">
<path d="M2069.1 0.120117H1644.1V425.12H2069.1V0.120117Z" fill="#6ECD96"/>
<path d="M1714.94 179.875L1884.94 81.6284L1941.6 114.374L1771.6 212.62L1714.94 179.875Z" fill="white"/>
<path d="M1941.6 212.62L1998.26 245.365L1828.27 343.602L1771.6 310.856L1941.6 212.62Z" fill="white"/>
<path d="M1785.77 220.804L1842.44 253.549L1927.44 204.436L1870.77 171.681L1785.77 220.804Z" fill="white"/>
<path d="M57.78 204C58.56 221.29 72.32 236.62 98.26 236.62C121.45 236.62 137.57 225.62 137.96 207.93C138.36 195.74 132.85 185.13 105.34 177.27L72.71 168.27C12.97 149.79 2.71 114.81 2.71 90.4399C2.71 42.0999 43.98 9.43994 95.86 9.43994C148.14 9.43994 187.45 40.4899 187.45 92.3799H130.1C130.1 74.2999 117.92 61.7199 95.1 61.7199C75.05 61.7199 60.1 72.7199 60.1 88.8399C60.1 95.9099 62.85 108.84 89.18 116.35L121.41 126.57C187.05 145.44 196.49 182.39 195.7 208.33C194.91 262.18 146.18 287.73 98.22 287.73C39.31 287.72 0 252.73 0 204H57.78Z" fill="black"/>
<path d="M350.3 99.8401H404.93V283.39H350.3V258.24C340.47 276.71 320.42 287.32 302.74 287.32C261.47 287.32 230.02 261.78 230.02 209.5V99.8401H284.66V197.71C284.66 226.79 304.66 234.26 317.28 234.26C334.18 234.26 350.28 224.83 350.28 196.92L350.3 99.8401Z" fill="black"/>
<path d="M446.24 283.39V0H500.48V122.24C509.48 105.34 531.48 95.9 554.33 95.9C601.5 95.9 643.16 133.25 643.16 192.2C643.16 249.98 601.5 287.32 554.33 287.32C531.53 287.32 509.52 277.5 500.48 260.6V283.39H446.24ZM544.11 235.44C567.3 235.44 586.56 218.14 586.56 191.02C586.56 164.69 567.3 147.4 544.11 147.4C521.71 147.4 501.66 163.51 501.66 191.02C501.66 217.36 521.31 235.44 544.11 235.44Z" fill="black"/>
<path d="M730.42 207.93C675.42 192.99 675 165.08 675.42 148.18C675.81 121.06 708.42 95.8999 746.96 95.8999C783.51 95.8999 822.03 112.02 822.42 156.83H770.9C770.51 143.07 758.72 140.71 750.07 140.71C738.28 140.71 730.42 146.22 730.81 154.47C731.2 159.97 735.92 165.47 746.93 168.23L778 176.48C822.41 188.67 827.92 218.14 827.92 229.94C827.92 268.85 787.04 287.32 748.52 287.32C711.18 287.32 672.27 264.92 671.87 224.04H723C723.39 234.65 735.19 245.27 750.12 245.27C762.31 244.87 772.53 239.37 772.53 229.94C772.53 222.08 767.81 217.75 754.44 214.22L730.42 207.93Z" fill="black"/>
<path d="M893.54 0C912 0 927 13.76 927 31.84C927 49.92 912 64.07 893.54 64.07C875.08 64.07 859.34 49.92 859.34 31.84C859.34 13.76 875.06 0 893.54 0ZM920.66 283.39H866.42V99.84H920.66V283.39Z" fill="black"/>
<path d="M1103 283.39V260.6C1094 277.5 1072 287.32 1049.15 287.32C1001.99 287.32 960.32 249.98 960.32 192.2C960.32 133.25 1001.99 95.9 1049.15 95.9C1071.95 95.9 1093.96 105.34 1103 122.24V0H1157.24V283.39H1103ZM1059.37 147.39C1036.18 147.39 1016.92 164.68 1016.92 191.01C1016.92 218.13 1036.18 235.43 1059.37 235.43C1082.17 235.43 1101.82 217.35 1101.82 191.01C1101.85 163.51 1081.81 147.4 1059.4 147.4L1059.37 147.39Z" fill="black"/>
<path d="M1234.7 0C1253.18 0 1268.11 13.76 1268.11 31.84C1268.11 49.92 1253.18 64.07 1234.7 64.07C1216.22 64.07 1200.51 49.92 1200.51 31.84C1200.51 13.76 1216.23 0 1234.7 0ZM1261.82 283.39H1207.58V99.84H1261.82V283.39Z" fill="black"/>
<path d="M1448.13 262.56C1436.34 280.25 1408.82 286.93 1394.67 286.93C1347.9 286.93 1301.13 250.38 1301.13 191.42C1301.13 132.46 1347.9 95.8999 1394.67 95.8999C1406.47 95.8999 1433.98 99.8399 1448.13 120.27V99.8399H1502.37V283.39H1448.13V262.56ZM1403.71 235.05C1426.12 235.05 1448.13 218.93 1448.13 191.42C1448.13 163.91 1426.13 147.79 1403.71 147.79C1380.92 147.79 1357.71 165.08 1357.71 191.42C1357.71 217.76 1380.92 235.05 1403.71 235.05Z" fill="black"/>
<path d="M488.17 425.1V357.34H514.72C534.19 357.34 545.31 372.1 545.31 391.34C545.31 410.58 534.19 425.07 514.72 425.07L488.17 425.1ZM502.53 412H514.72C525.54 412 530.95 402.46 530.95 391.35C530.95 380.24 525.54 370.4 514.72 370.4H502.53V412Z" fill="black"/>
<path d="M562.22 354.2C563.297 354.164 564.371 354.344 565.378 354.728C566.385 355.113 567.305 355.695 568.084 356.441C568.863 357.186 569.485 358.079 569.913 359.068C570.342 360.057 570.569 361.122 570.58 362.2C570.567 363.281 570.34 364.348 569.912 365.34C569.483 366.332 568.862 367.23 568.085 367.98C567.307 368.731 566.389 369.32 565.382 369.713C564.375 370.106 563.301 370.295 562.22 370.27C560.017 370.327 557.881 369.51 556.278 367.999C554.674 366.487 553.733 364.403 553.66 362.2C553.66 357.64 557.6 354.2 562.22 354.2ZM569 425.1H555.43V379.18H569V425.1Z" fill="black"/>
<path d="M602.84 435.73C613.26 435.73 616.11 428.55 615.52 419.4C613.36 423.63 607.46 426.09 601.75 426.09C589.95 426.09 578.84 416.75 578.84 402.29C578.84 387.54 589.95 378.19 601.75 378.19C607.46 378.19 613.26 380.65 615.52 384.88V379.18H628.8V418.71C628.8 438.48 619.16 448.02 602.8 448.02C598.053 448.092 593.387 446.783 589.371 444.251C585.355 441.719 582.161 438.074 580.18 433.76C583.62 432.09 587.75 430.02 591.18 428.35C592.8 432.58 598.21 435.73 602.84 435.73ZM604.11 391.17C601.192 391.17 598.395 392.329 596.332 394.392C594.269 396.455 593.11 399.253 593.11 402.17C593.11 405.087 594.269 407.885 596.332 409.948C598.395 412.011 601.192 413.17 604.11 413.17C607.063 413.154 609.89 411.971 611.973 409.878C614.056 407.785 615.227 404.953 615.23 402C615.23 395.11 609.82 391.17 604.11 391.17Z" fill="black"/>
<path d="M648.17 354.2C649.248 354.164 650.321 354.344 651.328 354.728C652.335 355.113 653.255 355.695 654.034 356.441C654.813 357.186 655.435 358.079 655.864 359.068C656.292 360.057 656.519 361.122 656.53 362.2C656.517 363.281 656.29 364.348 655.862 365.34C655.434 366.332 654.813 367.23 654.035 367.98C653.258 368.731 652.339 369.32 651.332 369.713C650.325 370.106 649.251 370.295 648.17 370.27C645.967 370.327 643.831 369.51 642.228 367.999C640.624 366.487 639.684 364.403 639.61 362.2C639.61 357.64 643.55 354.2 648.17 354.2ZM655 425.1H641.39V379.18H655V425.1Z" fill="black"/>
<path d="M695.08 379.18V390H685.44V425.1H671.87V390H663.51V379.18H671.87V361.57H685.44V379.18H695.08Z" fill="black"/>
<path d="M736.78 419.89C733.83 424.32 726.94 425.99 723.4 425.99C717.181 425.81 711.277 423.213 706.942 418.751C702.607 414.288 700.182 408.312 700.182 402.09C700.182 395.868 702.607 389.892 706.942 385.429C711.277 380.967 717.181 378.37 723.4 378.19C726.4 378.19 733.24 379.19 736.78 384.29V379.18H750.35V425.1H736.78V419.89ZM725.67 413C731.27 413 736.78 409 736.78 402.08C736.78 395.16 731.27 391.16 725.67 391.16C720.07 391.16 714.16 395.49 714.16 402.08C714.16 408.67 720 413 725.67 413Z" fill="black"/>
<path d="M776.61 354.2V425.1H762.94V354.2H776.61Z" fill="black"/>
<path d="M865 425.1H847.71L832.56 401.7H829.32V425.1H814.86V357.34H842.59C857.94 357.34 865.12 368.46 865.12 379.57C865.12 389.21 859.8 398.65 848.2 401.11L865 425.1ZM829.32 370V389.08H841.51C847.12 389.08 850.07 383.97 850.07 379.54C850.07 375.31 847.31 370 841.91 370H829.32Z" fill="black"/>
<path d="M916 416.75C911.38 423.63 902.82 426.09 895 426.09C881.82 426.09 871 416.45 871 401.99C871 387.53 881.82 378.19 895 378.19C908.18 378.19 918.51 387.93 918.51 402.39C918.51 403.57 918.41 405.44 918.31 406.62H884.69C885.37 411.93 891.18 414.29 895.99 414.29C899.73 414.29 903.76 412.91 905.99 409.96L916 416.75ZM904.79 398.06C904.1 392.45 898.98 390.19 895.15 390.19C891.32 390.19 886.1 392.26 884.92 398.06H904.79Z" fill="black"/>
<path d="M955 379.18V390H945.36V425.1H931.79V390H923.43V379.18H931.79V361.57H945.36V379.18H955Z" fill="black"/>
<path d="M996.7 419.89C993.7 424.32 986.86 425.99 983.32 425.99C977.101 425.81 971.197 423.213 966.862 418.751C962.527 414.288 960.102 408.312 960.102 402.09C960.102 395.868 962.527 389.892 966.862 385.429C971.197 380.967 977.101 378.37 983.32 378.19C986.27 378.19 993.16 379.19 996.7 384.29V379.18H1010.27V425.1H996.7V419.89ZM985.59 413C991.19 413 996.7 409 996.7 402.08C996.7 395.16 991.19 391.16 985.59 391.16C979.99 391.16 974.08 395.49 974.08 402.08C974.08 408.67 979.88 413 985.59 413Z" fill="black"/>
<path d="M1029.64 354.2C1030.72 354.164 1031.79 354.344 1032.8 354.728C1033.8 355.113 1034.72 355.695 1035.5 356.441C1036.28 357.186 1036.9 358.079 1037.33 359.068C1037.76 360.057 1037.99 361.122 1038 362.2C1037.99 363.281 1037.76 364.348 1037.33 365.34C1036.9 366.332 1036.28 367.23 1035.5 367.98C1034.73 368.731 1033.81 369.32 1032.8 369.713C1031.79 370.106 1030.72 370.295 1029.64 370.27C1027.44 370.327 1025.3 369.51 1023.7 367.998C1022.1 366.486 1021.16 364.402 1021.09 362.2C1021.09 357.64 1025 354.2 1029.64 354.2ZM1036.43 425.1H1022.86V379.18H1036.43V425.1Z" fill="black"/>
<path d="M1062.69 354.2V425.1H1049V354.2H1062.69Z" fill="black"/>
<path d="M1111.76 405.24C1111.95 409.57 1115.4 413.4 1121.89 413.4C1127.69 413.4 1131.72 410.65 1131.82 406.22C1131.92 403.17 1130.54 400.52 1123.66 398.55L1115.49 396.29C1100.55 391.67 1097.99 382.91 1097.99 376.82C1097.99 364.72 1108.31 356.56 1121.3 356.56C1134.29 356.56 1144.21 364.33 1144.21 377.31H1129.85C1129.85 372.78 1126.85 369.64 1121.1 369.64C1116.1 369.64 1112.35 372.39 1112.35 376.42C1112.35 378.19 1113.04 381.42 1119.62 383.31L1127.69 385.86C1144.11 390.59 1146.47 399.86 1146.28 406.32C1146.08 419.79 1133.88 426.19 1121.89 426.19C1107.13 426.19 1097.3 417.43 1097.3 405.24H1111.76Z" fill="black"/>
<path d="M1153.75 402C1153.75 387.55 1164.57 378.2 1177.55 378.2C1190.53 378.2 1201.45 387.55 1201.45 402C1201.45 416.45 1190.53 425.9 1177.55 425.9C1164.57 425.9 1153.75 416.45 1153.75 402ZM1187.97 402C1187.94 399.955 1187.31 397.965 1186.15 396.279C1184.99 394.592 1183.37 393.285 1181.47 392.521C1179.57 391.758 1177.49 391.571 1175.49 391.985C1173.49 392.399 1171.65 393.395 1170.21 394.849C1168.77 396.302 1167.8 398.148 1167.4 400.155C1167.01 402.162 1167.22 404.24 1168 406.128C1168.79 408.017 1170.11 409.632 1171.81 410.771C1173.51 411.91 1175.51 412.522 1177.55 412.53C1178.94 412.568 1180.32 412.32 1181.61 411.804C1182.9 411.287 1184.07 410.511 1185.05 409.525C1186.03 408.538 1186.8 407.361 1187.3 406.067C1187.81 404.773 1188.05 403.389 1188 402H1187.97Z" fill="black"/>
<path d="M1225 354.2V425.1H1211.33V354.2H1225Z" fill="black"/>
<path d="M1267.14 379.18H1280.81V425.1H1267.14V418.81C1265.97 420.958 1264.25 422.76 1262.16 424.038C1260.07 425.315 1257.69 426.023 1255.24 426.09C1244.91 426.09 1237.04 419.7 1237.04 406.62V379.18H1250.71V403.67C1250.71 410.94 1255.71 412.81 1258.88 412.81C1263.11 412.81 1267.14 410.45 1267.14 403.47V379.18Z" fill="black"/>
<path d="M1320.93 379.18V390H1311.29V425.1H1297.72V390H1289.36V379.18H1297.72V361.57H1311.29V379.18H1320.93Z" fill="black"/>
<path d="M1336.07 354.2C1337.15 354.163 1338.22 354.341 1339.23 354.725C1340.24 355.11 1341.16 355.692 1341.94 356.437C1342.72 357.183 1343.34 358.077 1343.77 359.067C1344.19 360.056 1344.42 361.122 1344.43 362.2C1344.42 363.281 1344.19 364.349 1343.76 365.342C1343.34 366.335 1342.72 367.232 1341.94 367.983C1341.16 368.734 1340.24 369.323 1339.23 369.715C1338.23 370.108 1337.15 370.296 1336.07 370.27C1333.87 370.327 1331.73 369.51 1330.13 367.998C1328.53 366.486 1327.59 364.402 1327.52 362.2C1327.52 357.64 1331.45 354.2 1336.07 354.2ZM1342.86 425.1H1329.29V379.18H1342.86V425.1Z" fill="black"/>
<path d="M1352.69 402C1352.69 387.55 1363.51 378.2 1376.49 378.2C1389.47 378.2 1400.39 387.55 1400.39 402C1400.39 416.45 1389.47 425.9 1376.49 425.9C1363.51 425.9 1352.69 416.45 1352.69 402ZM1386.92 402C1386.89 399.956 1386.26 397.966 1385.1 396.28C1383.94 394.594 1382.32 393.287 1380.42 392.522C1378.52 391.758 1376.44 391.571 1374.44 391.984C1372.44 392.398 1370.6 393.393 1369.17 394.845C1367.73 396.298 1366.75 398.143 1366.36 400.149C1365.96 402.155 1366.17 404.233 1366.95 406.122C1367.73 408.01 1369.06 409.626 1370.75 410.766C1372.45 411.906 1374.45 412.52 1376.49 412.53C1377.88 412.563 1379.26 412.313 1380.54 411.795C1381.83 411.276 1383 410.5 1383.97 409.514C1384.95 408.528 1385.72 407.353 1386.22 406.061C1386.73 404.769 1386.97 403.387 1386.92 402Z" fill="black"/>
<path d="M1423.89 425.1H1410.22V379.18H1423.89V385.86C1425.24 383.529 1427.17 381.593 1429.5 380.246C1431.83 378.9 1434.48 378.191 1437.17 378.19C1447.5 378.19 1453.99 384.59 1453.99 397.67V425.1H1440.32V400.62C1440.32 394.52 1436.97 391.47 1432.32 391.47C1427.5 391.47 1423.86 393.83 1423.86 400.81L1423.89 425.1Z" fill="black"/>
<path d="M1478 406.22C1464.23 402.48 1464.14 395.5 1464.23 391.22C1464.33 384.44 1472.49 378.14 1482.13 378.14C1491.28 378.14 1500.92 382.14 1501.01 393.39H1488.13C1488.03 389.95 1485.13 389.39 1482.92 389.39C1479.92 389.39 1478 390.77 1478.1 392.84C1478.2 394.21 1479.38 395.59 1482.1 396.28L1489.87 398.34C1500.98 401.34 1502.36 408.77 1502.36 411.72C1502.36 421.46 1492.13 426.08 1482.5 426.08C1473.15 426.08 1463.42 420.47 1463.32 410.24H1476.1C1476.2 412.9 1479.15 415.55 1482.89 415.55C1485.89 415.46 1488.5 414.08 1488.5 411.72C1488.5 409.72 1487.32 408.67 1483.97 407.79L1478 406.22Z" fill="black"/>
</svg>
