<svg width="256" height="50" xmlns="http://www.w3.org/2000/svg"><defs><linearGradient x1="50%" y1="100%" x2="49.828%" y2="0%" id="a"><stop stop-color="#0078BD" offset="0%"/><stop stop-color="#0078BD" offset="34.124%"/><stop stop-color="#0078BD" stop-opacity="0" offset="100%"/></linearGradient></defs><g fill="none" fill-rule="evenodd"><path d="M0 0h256v50H0z"/><g fill="#1D1D1B"><path d="M216.984 9.379c1.434 1.758 3.196 3.664 5.102 4.984l1.664-1.289.516.645c-1.211.957-3.262 1.976-3.282 3.695v19.469c1.391 1.758 2.473 3.992 1.813 6.41-2.274 5.352-8.723 3.906-12.89 6.305 0-4.782-4.97-4.938-6.25-2.04l-.782-.234c1.41-6.554 11.18-7.004 11.8-.219 3.153.2 4.137-3.847 2.274-6.085-.781-.926-1.531-2.875-1.531-3.977a57.875 57.875 0 0 0-4.008 4.77l-4.574-4.067-1.336 1.434-.625-.54c.605-.73 2.32-2.343 2.344-2.98V17.031c3.304-2.082 6.914-4.71 9.765-7.652Zm-43.195 0c2.48 2.637 5.356 5.355 4.457 9.309-.476 2.12-3.195 5.296-4.398 6.601 3.836 2.082 5.882 7.129 4.214 11.195-1.421 3.47-5.273 8.48-7.878 11.235-.586-1.172-1.758-2.711-3.301-2.637-1.828.164-2.52 2.254-2.89 2.453l-.634-.531c.586-2.344 2.301-4.73 4.649-5.758a4.645 4.645 0 0 1 4.887 1.195c4.144-5.078.87-9.648-3.493-13.343 2.102-2.735 4.723-5.035 4.578-7.84-.132-2.602-1.25-4.332-3.125-6.09l-1.25 1.34-.609-.555a55.664 55.664 0 0 0 4.793-6.574ZM137.711 1.62c1.398.805 2.496 2.125 3.379 3.442 1.344-1.352 3.637-2.766 6 .074l-.504.515c-1.563-1.113-2.629-.586-3.274.594-.585 1.246-.488 3.156-.246 4.535l4.121 23.305c.13.8.566 1.519 1.215 2.004a7 7 0 0 0 1.465-1.457l.613.562c-1.316 1.477-4.187 4.965-5.5 6.598-1.32-1.32-2.785-2.64-3.152-4.324l-1.484-8.203h-7.063l-.781 3.714c2.117.192 3.723 1.258 5.191 2.81l1.172-1.524.606.43-4.84 6.82c-.477-1.758-1.348-3.707-3.684-3.934-1.918-.184-3.125 1.04-2.988 2.98.137 1.942 2.242 2.961 3.969 3.051 1.726.09 3.168-.812 4.129-1.668l.578.465a5.785 5.785 0 0 1-4.758 2.063 5.883 5.883 0 0 1-5.512-5.86c0-2.91 2.114-5.02 4.88-5.578l1.112-5.02 4.18-20.14a6.367 6.367 0 0 0-3.515-3.906 3.473 3.473 0 0 0-2.711 0c-1.739.945-1.77 3.097-.418 4.375 1.132 1.066 3.015.87 4.375.465l.218.586a5.238 5.238 0 0 1-4.984-.149 3.613 3.613 0 0 1-1.54-3.297 5.89 5.89 0 0 1 2.544-4.383c1.976-1.484 5.226-1.171 7.207.055Zm16.07 7.758a9.203 9.203 0 0 1 3.688 5.531 34.203 34.203 0 0 0 4.812-5.531c.953 1.613 1.953 3.684 3.278 5.078l1.882-1.562.45.515c-1.032 1.012-2.196 1.598-2.196 3.004v18.242c.052.54.337 1.032.782 1.344l1.699-1.781.574.55c-1.844 2.282-3.86 4.598-5.402 7.055-1.563-1.437-3.2-3.453-3.2-4.969V16.543A7.363 7.363 0 0 0 159 14.941c-.586.512-1.363.977-1.508 1.707v18.79c0 .671.93 1.203 1.48 1.519A46.172 46.172 0 0 0 155 41.836c-1.281-1.648-2.734-3.441-4.469-4.734.39-.344 1.356-1.004 1.356-1.63v-19.09a2.398 2.398 0 0 0-1.051-1.823l-1.45 1.617-.609-.547a51.36 51.36 0 0 0 5.004-6.25Zm79.934 0c1.285 3.402 2.953 6.64 4.55 9.91l-7.163 7.336v7.754l2.855 2.383c.871-.836 1.563-1.746 2.387-2.703l.687.48c-2.035 2.469-4.199 4.75-6.18 7.316a54.074 54.074 0 0 0-5.46-4.351l-1.41 1.52-.641-.56c.617-.714 2.144-2.218 2.164-2.968v-18.41c1.242-1.121 6.348-5.781 8.203-7.711l.008.004Zm-34.418 0a41.723 41.723 0 0 0 3.906 4.789l1.484-1.664.625.574c-.902 1.02-2.906 2.82-2.906 3.777v17.813c.062.653.404 1.247.938 1.629l1.644-1.715.637.527c-1.98 2.2-4.055 4.38-5.668 6.727-1.394-1.172-3.164-3.223-3.164-4.715v-20.71a1.77 1.77 0 0 0-1.016-1.563l-.722.78-.606-.534a68.785 68.785 0 0 0 4.848-5.715Zm-9.285 0c1.285 3.402 2.953 6.64 4.55 9.91l-7.164 7.336v7.754l2.86 2.383c.867-.836 1.562-1.746 2.383-2.703l.672.464c-2.04 2.47-4.2 4.75-6.18 7.317a54.516 54.516 0 0 0-5.469-4.328l-1.41 1.52-.645-.544c.621-.715 2.207-2.234 2.207-2.98V17.09c1.262-1.117 6.325-5.785 8.196-7.711Zm60.07 0c.285 2.762 2.531 6.543 4.59 2.754l.543.191c-.86 2.45-2.442 5.446-4.367 6.168-1.172.45-2.614-.527-3.86-2.949-.564.375-.935.98-1.015 1.652v17.121l2.343 2.274 2.204-2.477.601.59c-1.59 1.742-4.34 5.016-5.809 7.098a42.516 42.516 0 0 0-5.234-4.367l-1.383 1.48-.617-.535c.602-.734 2.285-2.27 2.285-3.059V16.672c-.039-1.227-.336-1.774-.644-2.043l-.828.887-.61-.543a56.316 56.316 0 0 0 4.61-5.594c1.863 1.36 3.125 3.312 3.082 5.66 1.093-1.828 2.492-4.008 4.109-5.66Zm-37.316 5.137v20.82c.468.39.863.73 1.476 1.246.363-.512.848-1.023 1.172-1.457V16.633a10.52 10.52 0 0 0-2.648-2.117Zm-25.368 2.058v8.637l2.922-2.883a41.664 41.664 0 0 0-2.922-5.754Zm43.704 0v8.637l2.921-2.883a41.664 41.664 0 0 0-2.921-5.754Zm-93.993-5.535-2.77 13.184h5.114l-2.344-13.184ZM199.727.74a42.04 42.04 0 0 1 3.457 3.812c-.914 1.457-2.375 2.734-3.664 3.812l-3.516-3.785 3.723-3.84ZM56.422 9.379c1.43 1.758 3.187 3.664 5.078 4.984l1.664-1.27.52.626c-1.215.957-3.266 1.976-3.282 3.695v19.484c1.395 1.758 2.477 3.993 1.817 6.41-2.274 5.352-8.723 3.907-12.89 6.305 0-4.781-4.97-4.937-6.25-2.039l-.782-.234c1.41-6.555 11.183-7.004 11.805-.219 3.148.2 4.132-3.848 2.273-6.086-.781-.926-1.535-2.875-1.535-3.976a58.629 58.629 0 0 0-4.004 4.77l-4.563-4.09-1.351 1.433-.621-.54c.605-.73 2.32-2.343 2.344-2.98v-18.62c3.312-2.083 6.925-4.712 9.777-7.653ZM26.032.004c3.363 1.234 2.995 6.508.663 8.508-1.468 1.531-4.086 2.215-6.136 2.039v26.863c3.386 0 4.66-4.328 4.957-6.406l.66.367c-.121 4.352-3.082 8.566-7.035 10.035-4.477 1.672-9.457.293-12.828-2.785-5.22-5.418-6.391-13.914-4.047-21.023 1.976-4.915 6.816-8.594 12.168-8.594l.074.66c-4.547 2.055-6.453 6.89-7.031 11.508-.512 4.61.515 9.375 3.46 12.89.431-.121.78-.44.938-.859V13.285c1.688-1.246 3.57-2.37 5.328-3.687C13.54 7.426 7.672 5.645 3.738 8.207c-2.203 1.441-2.87 4.531-.953 6.453l-.367.512C.312 13.859.211 11.066.52 8.875c.5-3.516 3.949-6.71 7.332-7.55 6.367-1.563 11.144 2.64 16.937 3.515 1.824.305 2.563-1.61 2.05-3.078-.183-.524-.816-.895-1.171-1.114l.363-.644ZM37.27 9.379c1.761 1.832 3.574 3.125 5.468 4.527.39-.226.875-.566 1.239-.824l.53.594c-1.027 1.027-3.003 1.613-2.859 3.37v18.415c.176.391.493.702.887.871.516-.363.863-.95 1.371-1.484l.535.39c-1.644 2.059-3.41 4.399-4.875 6.598a12.262 12.262 0 0 1-3.382-4.785 23.266 23.266 0 0 0-4.504 4.785 34.133 34.133 0 0 1-4.336-4.106l-1.39 1.465-.587-.52c.715-.87 2.414-2.405 2.422-3.433V16.32c2.832-1.812 6.535-3.906 9.48-6.941Zm50.253 0c2.243 3.027 5.758 4.125 8.102.289l.715.492-6.918 10.867c.953.735 2.637 1.356 3.812 1.715v13.2c-3.191 1.593-5.707 3.148-8.109 5.913-1.25-1.539-3.008-2.64-5.078-2.566-1.762-.148-2.809 1.32-3.832 2.566l-.715-.445c2.273-3.605 4.578-7.32 6.922-10.91a33.387 33.387 0 0 0-2.805-2.227l.051-11.597c2.414-1.317 5.848-3.906 7.855-7.297Zm-14.128 0c1.285 3.402 2.953 6.64 4.546 9.91l-7.164 7.336v7.754l2.86 2.383c.87-.836 1.562-1.746 2.386-2.703l.668.464c-2.035 2.47-4.199 4.75-6.18 7.317a54.074 54.074 0 0 0-5.468-4.328l-1.41 1.52-.645-.56c.621-.714 2.192-2.218 2.192-2.964V17.09c1.261-1.117 6.343-5.785 8.215-7.711Zm-55.653.45v18.913c0 3.961-4.05 4.942-5.86 6.38 1.981 1.757 4.915 2.515 7.7 2.382v-27.05a15.234 15.234 0 0 1-1.84-.626ZM86.328 25.91l-5.66 8.89c2.55-.53 4.816-.34 6.937 2.052v-9.727c0-.441-.82-.984-1.277-1.215ZM33.406 14.29V35.28l1.426 1.5c.34-.312.902-.824 1.344-1.265V16.574a26.773 26.773 0 0 0-2.735-2.281l-.035-.004Zm18.793.226v20.82c.469.39.864.73 1.473 1.246.367-.512.851-1.023 1.172-1.457V16.633a10.57 10.57 0 0 0-2.645-2.117Zm32.957.722v9.516c.01.31.202.583.489.7l5.468-8.626c-2.62.781-3.96.27-5.86-1.496l-.097-.094Zm-14.363 1.34v8.633l2.922-2.883a40.816 40.816 0 0 0-2.938-5.754l.016.004Z"/></g><g fill-rule="nonzero"><path d="M115.715 37.172s3.543 1.219 4.156 1.906l-.504.742c-.39-.523-3.465-2.343-4.066-2.343" fill="#1D1D1B"/><path d="m119.371 39.973-.074-.098c-.39-.504-3.402-2.313-3.996-2.313v-.18c.61 0 3.422 1.669 4.054 2.294l.391-.59c-.71-.668-4.039-1.816-4.074-1.828l.058-.168c.145.05 3.575 1.23 4.196 1.926l.047.054-.602.903Z" fill="#1D1D1B"/><path d="M115.715 36.996s3.543 1.395 4.156 2.082l-.504.563c-.39-.524-3.465-2.344-4.066-2.344" fill="#C88E6E"/><path d="m119.363 39.781-.066-.086c-.39-.504-3.402-2.312-3.996-2.312v-.176c.613 0 3.453 1.684 4.066 2.3l.39-.429c-.726-.68-4.034-1.988-4.07-2l.067-.164c.144.055 3.574 1.41 4.191 2.102l.055.062-.637.703Z" fill="#1D1D1B"/><path d="M119.883 39.813a.621.621 0 0 0 .078-.782c-.145-.164-.297 0-.516.18a.559.559 0 0 0-.086.723c.141.164.305.058.524-.133v.011ZM115.746 37.504h.27l-.102-.035.164.097c.026.07.087.12.16.133.227 0 .348.172.543.227l.07.031a.148.148 0 0 0 .188-.055.14.14 0 0 0 .023-.109.168.168 0 0 0-.066-.094l-.058-.039a.781.781 0 0 0-.336-.187 1.09 1.09 0 0 1-.282-.114c-.113-.047-.254-.03-.39-.09a.15.15 0 1 0-.047.297c.27.067.531.16.781.282l.14.101.145-.261-.183-.09h.03a2.379 2.379 0 0 0-.53-.23l-.164-.134A.16.16 0 0 0 116 37.2h-.27a.148.148 0 1 0 0 .293l.016.012Z" fill="#1D1D1B"/><path d="m116.855 38.055-.05-.035-.055-.028a.781.781 0 0 1-.219-.11.574.574 0 0 0-.293-.109.234.234 0 0 1-.16-.078h-.043l-.16-.047a.2.2 0 0 1-.11-.058h-.019a.223.223 0 1 1 0-.442h.27a.25.25 0 0 1 .144.051l.098.078a.344.344 0 0 1 .09.028l.047.023c.07.036.145.063.222.082a.84.84 0 0 1 .367.207l.094.051c.027.032.047.07.059.11a.23.23 0 0 1-.032.167.227.227 0 0 1-.238.094l-.012.016Zm.133-.235-.039.067a.05.05 0 0 0 .028-.024.078.078 0 0 0 0-.043h.011Zm-.828-.254c.196.05.386.122.567.215l.082.059.066-.121-.098-.047a2.047 2.047 0 0 0-.39-.172l-.13-.05-.046-.036h-.055a.781.781 0 0 1-.21-.055h-.051a.074.074 0 0 0-.028.043v.032h.078v-.036l.102.04.098.062v.023l.015.043Zm-.418-.28a.062.062 0 0 0-.05.023.059.059 0 0 0-.02.05.059.059 0 0 0 .027.055.043.043 0 0 1 0-.031.184.184 0 0 1 .043-.098Z" fill="#1D1D1B"/><g><path d="M108.125 37.113s-3.71 1.653-4.129 2.008l.477.64c.297-.238 3.515-2.343 4.066-2.343" fill="#FFF"/><path d="m104.445 39.906-.578-.781.063-.055c.422-.36 4-1.953 4.148-2.023l.074.164c-1.215.539-3.515 1.602-4.039 1.953l.367.496c.54-.39 3.47-2.312 4.051-2.312v.18c-.527 0-3.695 2.07-4.011 2.343l-.075.035Z" fill="#1D1D1B"/><path d="M108.125 36.996s-3.742 1.727-4.16 2.082l.508.563c.297-.239 3.515-2.344 4.066-2.344" fill="#C88E6E"/><path d="m104.453 39.762-.625-.696.07-.058c.418-.36 4.024-2.024 4.176-2.094l.074.16c-1.218.563-3.539 1.664-4.062 2.016l.39.43c.524-.368 3.473-2.313 4.055-2.313v.176c-.527 0-3.695 2.074-4.011 2.344l-.067.035Z" fill="#1D1D1B"/><path d="M104.027 39.777c.368.215.555.082.676-.101.121-.184-.129-.446-.238-.492-.266-.121-.535-.246-.653-.063a.512.512 0 0 0 .215.656ZM108.016 37.113l-.141.047-.086.102.102-.04h-.157l-.066.044c-.055.03-.309.199-.293.261.016.063.316.028.39 0h.079c.105-.05.215-.097.32-.152a.156.156 0 0 0 .078-.086.164.164 0 0 0 0-.113.148.148 0 0 0-.199-.07l-.137.066-.191.078.101.277.067-.039a.164.164 0 0 0 .125-.074l-.031-.047c.043 0 .082-.133.136 0a.152.152 0 0 0 .082-.082.148.148 0 0 0-.191-.195l.012.023Z" fill="#1D1D1B"/><path d="M107.504 37.656a.297.297 0 0 1-.152-.031.102.102 0 0 1-.051-.074c-.028-.121.25-.293.32-.332h.02l.062-.04a.223.223 0 0 1 .086-.027l.047-.054.156-.051a.238.238 0 0 1 .106 0 .227.227 0 0 1 .215.125.21.21 0 0 1 0 .168.23.23 0 0 1-.114.129l-.16.078a.21.21 0 0 1-.133.062h-.094l-.05.028c-.091.01-.183.01-.274 0l.016.02Zm-.027-.148c.08 0 .162-.008.242-.024l-.04-.105-.085.035a.688.688 0 0 0-.117.094Zm.39-.067h.043l-.05-.074.1-.023a.145.145 0 0 1 .122-.055h.043a.148.148 0 0 0 0-.059.094.094 0 0 0-.04-.039h-.026l-.16.079v.027l-.098.043.035.097h.031v.004Z" fill="#1D1D1B"/></g><g><path d="M122.309 19.375c-.067-.027-.227-.781 0-1.04a.879.879 0 0 0 .23-.694c-.023-.145-.105-.313-.27-.286-.28.047-.046-.328-.113-.558-.023-.094-.148-.262-.3-.219-.325.098.027-.441-.126-.672a.437.437 0 0 0-.367-.168c-.175.035-.05-.187-.164-.36a.594.594 0 0 0-.62-.183.523.523 0 0 0-.25.532c.042.199.429.39.218.468a.316.316 0 0 0-.184.242c-.027.297.563.56.367.657-.093.043-.125.097-.12.152.038.535.683.57.433.668-.133.055-.121.258 0 .39.19.173.435.271.691.278.18 0 .551.781.559.781l.016.012Z" fill="#BDB57A"/><path d="M122.305 19.453a.055.055 0 0 1-.047-.023.152.152 0 0 1-.047-.075l-.027-.046c-.286-.54-.391-.633-.43-.637a1.137 1.137 0 0 1-.75-.3.39.39 0 0 1-.121-.36.195.195 0 0 1 .101-.145h-.023a.746.746 0 0 1-.426-.617.223.223 0 0 1 .153-.223.918.918 0 0 0-.118-.129c-.132-.125-.3-.285-.28-.472a.39.39 0 0 1 .226-.305h.023l-.102-.105a.629.629 0 0 1-.183-.266.605.605 0 0 1 .293-.617c.26-.08.542.005.715.215.046.08.07.172.07.265a.168.168 0 0 0 0 .063c.17-.014.337.06.441.195a.648.648 0 0 1 .024.469.617.617 0 0 0-.024.187h.047a.254.254 0 0 1 .2.024.422.422 0 0 1 .195.246.781.781 0 0 1 0 .328.465.465 0 0 0 0 .18h.05c.172-.028.313.105.356.343a.941.941 0 0 1-.242.782c-.176.183-.086.75-.027.898v.027l.046.024-.043.11h-.054l.004-.036Zm-.551-.93c.105 0 .223.133.367.391a.867.867 0 0 1 .145-.61.82.82 0 0 0 .203-.628c0-.043-.051-.246-.184-.223a.207.207 0 0 1-.183-.043c-.07-.07-.047-.183-.028-.305a.758.758 0 0 0 0-.265.281.281 0 0 0-.12-.156.11.11 0 0 0-.087 0 .188.188 0 0 1-.191 0c-.074-.067-.051-.188-.024-.329a.613.613 0 0 0 0-.355.39.39 0 0 0-.293-.133.16.16 0 0 1-.132-.023c-.055-.04-.055-.11-.059-.176a.39.39 0 0 0-.047-.191.523.523 0 0 0-.527-.16.457.457 0 0 0-.211.449c.034.074.083.14.144.195.082.082.157.156.141.242a.18.18 0 0 1-.106.113.246.246 0 0 0-.14.18c0 .117.125.25.234.356.11.105.184.175.168.261a.133.133 0 0 1-.078.102c-.055.023-.082.055-.078.082a.61.61 0 0 0 .355.48c.079.047.141.086.133.157-.008.07-.074.093-.101.105a.07.07 0 0 0-.04 0 .281.281 0 0 0 .083.227c.176.156.401.246.636.254l.02.003Z" fill="#1D1D1B"/><path d="m122.418 19.68-.367-3.043c-.18 0-.242.043-.274.097-.277.524.301.938 0 .883-.156-.027-.265.172-.226.39.042.275.18.526.39.708.172.098.364.945.391.933l.07.036.016-.004Z" fill="#1D1D1B"/><path d="m122.508 19.813-.188-.098c-.039 0-.043-.031-.093-.207a2.277 2.277 0 0 0-.293-.73 1.21 1.21 0 0 1-.45-.747.445.445 0 0 1 .098-.39.238.238 0 0 1 .188-.075l-.02-.039a.832.832 0 0 1-.043-.804c.05-.098.164-.125.328-.137h.07l.403 3.227Zm-.75-2.122a.078.078 0 0 0-.063.028.305.305 0 0 0-.058.27c.043.26.182.496.39.66.094.054.18.238.274.535l-.297-2.47c-.121 0-.133.044-.14.056a.687.687 0 0 0 .046.671c.047.09.078.157.035.215a.14.14 0 0 1-.152.035h-.035Z" fill="#1D1D1B"/><path d="m122.086 18.918.156-.09a29.328 29.328 0 0 0-1.328-2.973c-.074-.144-.11-.043-.062.047.527.954.941 1.966 1.234 3.016Z" fill="#1D1D1B"/><path d="M123.293 31.863s.875.473.934.68c.107.317.344.573.652.703.11.027.219 0 .324-.168.184-.297.39.188.754.219.106 0 .188 0 .223-.203.07-.39.39.129.75.136.113 0 .129-.093.187-.3.059-.207.254.11.504.117.25.008.73-.152.715-.477-.016-.324-.207-.625-.418-.652-.29-.035-.629-.059-.652-.281-.024-.223-.125-.32-.246-.34-.426-.063-.758.39-.747.047 0-.676-1.023.34-.968-.153.043-.39-.86-.039-1.035.36-.086.195-.993.293-.977.312Z" fill="#9A9038"/><path d="M125.984 33.371h-.035a.84.84 0 0 1-.426-.207c-.074-.059-.152-.113-.195-.11-.043.005-.047.036-.062.063a.355.355 0 0 1-.391.203 1.219 1.219 0 0 1-.734-.758c-.036-.12-.567-.433-.743-.535-.175-.101-.18-.105-.187-.132v-.024c.02-.031.047-.035.187-.058.61-.11.782-.192.782-.243a1.172 1.172 0 0 1 1.015-.558c.109.023.18.128.16.238v.059c.101-.028.2-.06.297-.098.207-.09.418-.184.559-.09a.3.3 0 0 1 .11.277.191.191 0 0 0 0 .067l.124-.063a.95.95 0 0 1 .555-.129c.184.032.285.16.309.391 0 .145.28.18.515.207h.074c.262.035.461.39.48.723a.434.434 0 0 1-.124.316.984.984 0 0 1-.664.238.652.652 0 0 1-.332-.132.781.781 0 0 0-.098-.055v.059c-.047.175-.078.3-.246.296a.914.914 0 0 1-.441-.18c-.063-.038-.172-.109-.2-.097-.027.012-.023 0-.03.078-.024.172-.106.254-.259.254Zm-.644-.465a.496.496 0 0 1 .277.14c.097.09.216.15.344.177.066 0 .117 0 .144-.145a.23.23 0 0 1 .122-.187c.097-.043.21.027.34.109.105.082.23.136.363.156.035 0 .05 0 .097-.187l.02-.063a.148.148 0 0 1 .09-.113c.074-.031.148 0 .23.07a.563.563 0 0 0 .258.11c.203.01.402-.06.555-.196a.285.285 0 0 0 .082-.203c0-.265-.192-.562-.352-.582h-.07c-.293-.035-.621-.078-.649-.34-.027-.261-.105-.261-.183-.273a.781.781 0 0 0-.465.113c-.113.055-.203.098-.277.051a.207.207 0 0 1-.067-.191c0-.055 0-.13-.043-.153a.965.965 0 0 0-.418.106c-.144.066-.347.152-.445.078a.195.195 0 0 1-.063-.192c0-.054 0-.07-.046-.078a1.023 1.023 0 0 0-.848.477c-.063.144-.371.23-.848.316.465.278.782.477.805.625.098.292.315.529.598.653.102.008.199-.046.246-.137a.238.238 0 0 1 .164-.129l.039-.012Z" fill="#1D1D1B"/><path d="m123.438 32.035.253-.219s2.317-.203 4.028.579c.148.07.054.113-.035.074-1.399-.633-3.672-.469-4.246-.434Z" fill="#1D1D1B"/><path d="M123.75 27.898c0 .024.652-.28.86-.214.32.092.666.042.949-.137a.285.285 0 0 0 .043-.367c-.145-.32.39-.22.605-.496.066-.082.094-.164-.043-.301-.273-.274.336-.258.54-.54.066-.093.081-.202-.06-.39-.14-.187.141-.277.286-.48.144-.203 0-.567-.274-.73a.64.64 0 0 0-.738 0c-.191.218-.145.515-.34.39a.32.32 0 0 0-.422 0c-.293.316-.094.855-.39.644-.547-.39-.297 1.035-.672.711-.297-.254-.39.637-.29 1.059a6.25 6.25 0 0 1-.062.808l.008.043Z" fill="#9A9038"/><path d="m123.723 27.977-.04-.032v-.25c.036-.188.051-.379.047-.57-.093-.344-.054-1.031.165-1.172a.191.191 0 0 1 .242.035c.035.028.05.028.05.028.035-.098.063-.197.086-.297.043-.223.086-.453.243-.516a.293.293 0 0 1 .289.07.117.117 0 0 0 .062.032.934.934 0 0 1 .207-.668c.13-.137.293-.145.512-.028h.035a.434.434 0 0 0 .055-.113.86.86 0 0 1 .16-.293.7.7 0 0 1 .832 0c.183.105.315.28.367.485a.441.441 0 0 1-.07.355c-.055.067-.115.13-.18.187-.14.133-.148.16-.11.204.145.171.165.32.06.46a.887.887 0 0 1-.391.262c-.07.032-.188.082-.196.114.01.027.026.05.047.07.145.14.157.265.047.39a.855.855 0 0 1-.39.235c-.09.027-.184.058-.204.098a.16.16 0 0 0 0 .085.352.352 0 0 1-.062.454c-.3.198-.674.254-1.02.152-.23.013-.458.07-.668.168a.566.566 0 0 1-.18.055h.005Zm.285-1.915c-.16.31-.196.669-.102 1.004.015.211 0 .423-.043.63v.097h.032c.24-.124.51-.183.78-.172.297.085.614.04.876-.121.054-.05.097-.121.023-.281a.242.242 0 0 1 0-.207c.043-.102.164-.14.29-.18a.715.715 0 0 0 .34-.187c.042-.051.073-.09-.04-.204a.227.227 0 0 1-.086-.203c.02-.105.14-.156.281-.218a.781.781 0 0 0 .34-.211c.04-.055.07-.13-.054-.282-.125-.152 0-.297.125-.39.057-.05.11-.104.156-.164a.32.32 0 0 0 .047-.239.64.64 0 0 0-.301-.39.566.566 0 0 0-.64 0 .844.844 0 0 0-.137.246c-.036.094-.067.172-.141.2a.191.191 0 0 1-.16 0c-.2-.114-.274-.06-.328 0a.781.781 0 0 0-.168.448c-.02.125-.035.223-.118.258a.21.21 0 0 1-.195-.055c-.047-.03-.11-.066-.148-.05a1.02 1.02 0 0 0-.149.39c-.027.14-.07.39-.187.39a.184.184 0 0 1-.192-.054c-.078-.05-.093-.055-.101-.055Z" fill="#1D1D1B"/><path d="m124.219 27.102.129.12a29.605 29.605 0 0 0 2.144-2.495c.102-.13 0-.114-.055-.036a14.062 14.062 0 0 1-2.218 2.41Z" fill="#1D1D1B"/><path d="M122.363 23.441s.559-.312.75-.27c.297.052.601-.026.836-.214.067-.074.094-.172 0-.332-.156-.273.32-.23.496-.5.055-.082.07-.156-.066-.266-.266-.218.277-.261.433-.53.051-.09.055-.188-.085-.329-.141-.14.097-.262.21-.457.114-.195-.05-.504-.312-.629a.57.57 0 0 0-.66.063c-.153.214-.082.476-.27.39a.305.305 0 0 0-.39.051c-.235.309 0 .781-.282.613-.527-.304-.171.953-.539.7-.285-.2-.3.605-.156.972a5.7 5.7 0 0 1 0 .73l.035.008Z" fill="#9A9038"/><path d="m122.344 23.52-.043-.028v-.23a2.758 2.758 0 0 0 0-.508c-.117-.309-.149-.922.043-1.07.067-.051.16-.051.226 0 .032.023.043.023.043.023a.902.902 0 0 0 .043-.27c.02-.207.035-.417.172-.492a.285.285 0 0 1 .274.035h.039a.55.55 0 0 0 0-.113.836.836 0 0 1 .14-.496c.106-.14.25-.164.461-.074h.031a.781.781 0 0 0 .032-.102c.019-.1.059-.196.117-.28a.637.637 0 0 1 .754-.087.71.71 0 0 1 .39.39.39.39 0 0 1-.03.333.918.918 0 0 1-.141.183c-.118.133-.114.153-.082.184.148.14.18.277.097.414a.879.879 0 0 1-.332.277c-.058.032-.156.082-.16.11l.043.05c.144.118.168.231.082.364a.738.738 0 0 1-.348.25c-.074.035-.156.07-.164.105a.062.062 0 0 0 .02.07.324.324 0 0 1 0 .419 1.117 1.117 0 0 1-.906.234 1.629 1.629 0 0 0-.582.21c-.094.052-.126.071-.157.067l-.062.032Zm.078-1.743c-.11.29-.11.61 0 .899.035.188.043.38.023.57v.078a1.41 1.41 0 0 1 .68-.226.98.98 0 0 0 .781-.192c.043-.047.07-.11 0-.242a.234.234 0 0 1-.035-.191c.031-.098.137-.145.246-.192a.656.656 0 0 0 .285-.195c.035-.05.055-.082-.05-.168a.238.238 0 0 1-.098-.18c0-.101.113-.16.234-.23a.66.66 0 0 0 .278-.219c.03-.05.05-.113-.07-.234-.122-.121-.02-.285.074-.39a.957.957 0 0 0 .12-.161.258.258 0 0 0 0-.215.566.566 0 0 0-.296-.312.5.5 0 0 0-.57.043.625.625 0 0 0-.094.23c-.024.086-.047.16-.114.195a.176.176 0 0 1-.152 0c-.184-.078-.242-.027-.285.028a.781.781 0 0 0-.11.39c0 .117 0 .207-.082.246a.18.18 0 0 1-.187-.027c-.059-.031-.105-.043-.129-.031a1.082 1.082 0 0 0-.094.37c0 .142-.027.345-.132.392a.176.176 0 0 1-.184-.032.102.102 0 0 0-.059 0l.02-.004Z" fill="#1D1D1B"/><path d="m122.68 23.203-.184-.121a28.125 28.125 0 0 1 1.848-2.594c.101-.125.094 0 .031.059a12.11 12.11 0 0 0-1.695 2.656ZM121.406 28.035l-.113-.254s1.07-.445 1.441-.226a.832.832 0 0 0 .852-.032l.156.23c-.35.238-.805.255-1.172.044-.16-.098-.863.098-1.164.238Z" fill="#1D1D1B"/><path d="M119.313 28.996c0 .024.652-.281.859-.215.322.094.668.043.95-.14.081-.075.124-.18.042-.364-.14-.32.39-.222.606-.496.066-.086.093-.164-.043-.3-.27-.274.335-.262.539-.54.07-.093.086-.207-.059-.39-.144-.184 0-.39.066-.637.067-.246.09-.488-.132-.652a.434.434 0 0 0-.61.031c-.195.215-.09.621-.39.445-.215-.125-.336-.074-.422 0-.29.313-.09.852-.39.645-.548-.39-.298 1.031-.673.71-.293-.253-.39.637-.289 1.055a6.25 6.25 0 0 1-.062.813l.007.035Z" fill="#9A9038"/><path d="m119.281 29.074-.035-.031a2.07 2.07 0 0 1 .02-.25c.035-.188.05-.38.043-.57-.094-.34-.051-1.028.168-1.172a.187.187 0 0 1 .242.035c.031.027.047.027.047.027a.871.871 0 0 0 .09-.297c.039-.222.082-.453.238-.515a.297.297 0 0 1 .293.066l.058.035c0-.047 0-.093.02-.14a.937.937 0 0 1 .203-.528.39.39 0 0 1 .512-.027c.07.04.09.031.093.031a.863.863 0 0 0 .059-.148.738.738 0 0 1 .148-.317.496.496 0 0 1 .707-.039.582.582 0 0 1 .16.735 1.45 1.45 0 0 1-.074.18c-.074.167-.109.261 0 .39a.34.34 0 0 1 .059.461.887.887 0 0 1-.39.262c-.07.031-.188.082-.192.11-.004.026 0 .03.047.07.14.144.152.265.047.39a.844.844 0 0 1-.41.23c-.09.032-.184.063-.2.102a.11.11 0 0 0 0 .086.355.355 0 0 1-.058.453c-.304.195-.676.25-1.024.152-.232.013-.46.07-.672.168a.457.457 0 0 1-.175.051h-.024Zm.285-1.914c-.169.315-.21.683-.113 1.027.015.211 0 .423-.043.63v.093h.031c.24-.128.51-.188.782-.172.296.086.614.04.875-.125.054-.047.097-.117.027-.281a.23.23 0 0 1 0-.203c.043-.102.164-.14.29-.184a.707.707 0 0 0 .339-.183c.043-.055.074-.094-.035-.203a.227.227 0 0 1-.09-.204c.023-.105.144-.16.285-.218a.89.89 0 0 0 .336-.211c.04-.059.074-.13-.055-.281a.441.441 0 0 1 0-.543c.024-.051.047-.106.067-.16.093-.297.062-.446-.11-.575a.355.355 0 0 0-.507 0 .695.695 0 0 0-.114.258c-.031.11-.058.21-.148.246a.25.25 0 0 1-.223-.039c-.187-.11-.265-.062-.328 0a.816.816 0 0 0-.207.418c-.02.121-.031.223-.113.254a.21.21 0 0 1-.2-.05c-.042-.032-.105-.067-.148-.052a.992.992 0 0 0-.148.391c-.032.145-.07.39-.188.39a.203.203 0 0 1-.191-.058.074.074 0 0 0-.07 0v.035ZM123.36 27.691s.46.086.535.27a.98.98 0 0 0 .668.45c.153.062.33 0 .41-.145.101-.215.355.125.62.136.106 0 .34 0 .391-.16.067-.281.391.156.782.121a.39.39 0 0 0 .312-.254c.043-.191.184-.07.41-.105a.403.403 0 1 0 .024-.805c-.219-.043-.508.215-.508-.039a.422.422 0 0 0-.2-.308c-.288-.16-.855.39-.855 0 0-.118-.027-.2-.086-.22-.558-.202-.883.493-.87.196 0-.156-.196-.258-.391-.183-.271.12-.49.331-.622.597-.07.184-.597.438-.582.453l-.039-.004Z" fill="#1D1D1B"/><path d="M124.684 28.52a.473.473 0 0 1-.149 0 1.04 1.04 0 0 1-.707-.512c-.043-.102-.324-.176-.418-.2-.094-.023-.097-.027-.113-.054v-.055h.02c0-.023.046-.043.128-.094.166-.091.317-.208.446-.347.122-.301.35-.547.64-.692a.422.422 0 0 1 .39.04.27.27 0 0 1 .106.175h.02a.809.809 0 0 1 .808-.21c.086.03.133.128.133.288a.074.074 0 0 0 0 .059 1.2 1.2 0 0 0 .25-.063.691.691 0 0 1 .555-.058.5.5 0 0 1 .238.39.066.066 0 0 0 0 .04.508.508 0 0 0 .133-.032.652.652 0 0 1 .313-.039c.23.03.4.232.39.465a.492.492 0 0 1-.414.48 1.098 1.098 0 0 1-.226 0c-.114 0-.114 0-.125.047a.45.45 0 0 1-.391.309.926.926 0 0 1-.516-.14.445.445 0 0 0-.172-.07.066.066 0 0 0 0 .038c-.058.235-.359.219-.457.215a.82.82 0 0 1-.351-.133c-.063-.035-.145-.082-.176-.074-.031.008 0 0-.02.027a.36.36 0 0 1-.335.2Zm-1.172-.832c.16.046.39.12.433.265a.898.898 0 0 0 .618.39c.09.024.257.04.324-.1a.18.18 0 0 1 .113-.114c.09-.031.184.023.293.086a.695.695 0 0 0 .285.113c.117 0 .277 0 .305-.101a.184.184 0 0 1 .097-.141c.086-.04.18 0 .301.074a.836.836 0 0 0 .43.13.324.324 0 0 0 .246-.196c.043-.188.176-.176.285-.164a.754.754 0 0 0 .188 0 .348.348 0 0 0 .289-.34.305.305 0 0 0-.266-.317.492.492 0 0 0-.238.036c-.102.03-.2.062-.27 0a.172.172 0 0 1-.062-.157.348.348 0 0 0-.16-.242c-.102-.058-.278 0-.43.067-.152.066-.297.109-.39.043a.2.2 0 0 1-.075-.18c0-.106-.023-.149-.035-.152a.668.668 0 0 0-.664.187c-.078.066-.137.113-.203.082a.14.14 0 0 1-.055-.14.11.11 0 0 0-.05-.094.266.266 0 0 0-.255 0c-.25.112-.453.308-.574.554a1.238 1.238 0 0 1-.472.391l-.008.02Z" fill="#1D1D1B"/><path d="M119.531 23.617s.422-.293.578-.273a.816.816 0 0 0 .649-.23c.05-.067.066-.145 0-.266-.145-.203.238-.207.36-.434.034-.07.042-.129-.075-.207-.227-.156.203-.23.309-.457.03-.074.027-.152-.094-.254-.121-.101.058-.215.133-.39.074-.176-.079-.391-.293-.477a.46.46 0 0 0-.524.098c-.105.18-.031.39-.183.335a.234.234 0 0 0-.297.07c-.16.263.054.614-.18.509-.441-.203-.066.78-.39.593-.247-.136-.196.508-.055.782.034.192.056.386.066.582l-.004.02Z" fill="#9A9038"/><path d="M119.496 23.695h-.039a1.45 1.45 0 0 1-.027-.187c0-.132-.015-.262-.043-.39-.106-.212-.196-.727-.043-.872a.16.16 0 0 1 .199 0h.027a1.762 1.762 0 0 0 0-.203c0-.168 0-.344.11-.414a.23.23 0 0 1 .234 0v-.074a.68.68 0 0 1 .074-.41.293.293 0 0 1 .39-.102v-.07a.742.742 0 0 1 .079-.239.527.527 0 0 1 .61-.129c.15.05.272.159.34.301a.344.344 0 0 1 0 .278.836.836 0 0 1-.098.16c-.082.11-.075.117-.055.133.12.067.169.214.113.34a.68.68 0 0 1-.254.25.48.48 0 0 0-.11.09l.032.023c.13.09.16.183.094.304a.602.602 0 0 1-.262.23c-.047.028-.113.063-.117.087-.004.023 0 0 0 .039a.273.273 0 0 1 0 .351.91.91 0 0 1-.719.262 1.277 1.277 0 0 0-.433.211c-.075.043-.102.063-.125.063l.023-.032Zm-.043-1.39c-.058.233-.032.48.074.695.04.15.06.305.059.46v.036c.151-.12.332-.199.523-.226a.781.781 0 0 0 .582-.2c.028-.035.047-.082-.023-.18a.195.195 0 0 1-.043-.171c0-.086.102-.133.188-.18a.523.523 0 0 0 .207-.172c.02-.043.03-.058-.047-.11a.188.188 0 0 1-.102-.148c0-.09.082-.148.18-.21a.586.586 0 0 0 .199-.192c0-.031.04-.078-.07-.164-.11-.086-.04-.242.027-.332a1 1 0 0 0 .086-.137.184.184 0 0 0 0-.156.445.445 0 0 0-.254-.223c-.164-.058-.39-.027-.434.07a.453.453 0 0 0-.054.184.191.191 0 0 1-.082.176.156.156 0 0 1-.133 0c-.156-.047-.188 0-.211.04a.559.559 0 0 0-.05.327c0 .09 0 .172-.055.215a.184.184 0 0 1-.168 0c-.051-.023-.079-.023-.09 0-.026.094-.04.191-.043.29 0 .097 0 .28-.082.331a.156.156 0 0 1-.164 0l-.02-.023Z" fill="#1D1D1B"/><path d="m121.094 23.137-.223-.164c.175-.26.323-.538.442-.828a1.52 1.52 0 0 1 .562-.832c.2-.102.258-.665.293-1 .035-.336.047-.43.113-.504l.215.175a2.164 2.164 0 0 0-.05.356c-.048.469-.11 1.05-.446 1.219-.195.101-.313.39-.453.695a4.46 4.46 0 0 1-.453.883Z" fill="#1D1D1B"/><path d="M119.957 23.89s.484.09.59.255a.96.96 0 0 0 .734.324c.164 0 .336-.035.39-.211.056-.176.391.062.638.027.105 0 .336-.05.343-.223 0-.289.391.086.782 0a.39.39 0 0 0 .265-.3c0-.196.168-.102.39-.176.391-.14.052-.781-.116-.781s-.422.125-.465-.125a.336.336 0 0 0-.227-.242c-.312-.11-.816.445-.867.21-.023-.113-.074-.171-.137-.171-.136 0-.257.609-.855.39a.781.781 0 0 0-.492.055.883.883 0 0 0-.356.633c-.039.195-.61.351-.594.363l-.023-.027Z" fill="#1D1D1B"/><path d="M121.324 24.55h-.047c-.3 0-.585-.131-.78-.359-.063-.093-.337-.16-.454-.191-.117-.031-.11-.027-.129-.047h-.023v-.082c0-.035.046-.047.12-.074.298-.113.458-.207.47-.277a.965.965 0 0 1 .39-.684.836.836 0 0 1 .559-.055c.242.108.526 0 .636-.242.063-.086.114-.152.192-.152.047 0 .164.023.207.23.075-.026.147-.06.215-.101a.812.812 0 0 1 .601-.164.418.418 0 0 1 .278.296c.02.11.05.114.222.086h.168c.149 0 .324.258.367.48a.36.36 0 0 1-.226.45.89.89 0 0 1-.223.04c-.113 0-.113 0-.113.07a.469.469 0 0 1-.32.39.914.914 0 0 1-.532-.055.477.477 0 0 0-.18-.035v.04c0 .238-.312.28-.41.292a.855.855 0 0 1-.367-.07c-.066-.023-.16-.059-.187-.043-.028.016 0 0 0 .031a.39.39 0 0 1-.434.227Zm-1.14-.66a.781.781 0 0 1 .425.227.93.93 0 0 0 .68.293c.094 0 .262 0 .3-.16a.195.195 0 0 1 .09-.125.39.39 0 0 1 .31.035.71.71 0 0 0 .296.063c.117 0 .278-.047.281-.153a.2.2 0 0 1 .075-.156c.078-.05.18-.02.308 0 .14.06.295.078.446.05a.32.32 0 0 0 .21-.234c0-.19.141-.203.25-.21a.586.586 0 0 0 .184-.032.203.203 0 0 0 .137-.25.559.559 0 0 0-.223-.39h-.148c-.145.023-.348.054-.39-.207a.266.266 0 0 0-.18-.184c-.126-.043-.32.063-.481.152-.16.09-.266.149-.356.11a.164.164 0 0 1-.078-.106c0-.078-.043-.113-.062-.113a.734.734 0 0 0-.07.094.629.629 0 0 1-.81.289.691.691 0 0 0-.433.047.828.828 0 0 0-.32.586c-.031.175-.23.28-.441.375Z" fill="#1D1D1B"/><path d="M120.043 24.176s.484.054.602.215c.201.198.479.3.761.28a.332.332 0 0 0 .367-.233c.047-.235.372.039.633 0 .106 0 .332-.07.332-.243 0-.293.39.063.782-.062a.39.39 0 0 0 .246-.32c0-.196.164-.114.39-.2a.457.457 0 0 0-.183-.867c-.223 0-.418.285-.477.035a.336.336 0 0 0-.242-.226c-.317-.09-.781.492-.852.261-.03-.109-.082-.156-.144-.164-.59-.062-.746.688-.805.391-.027-.156-.25-.207-.433-.086-.231.155-.397.39-.465.66-.028.195-.496.551-.477.563l-.035-.004Z" fill="#BDB57A"/><path d="M121.406 24.746a1.047 1.047 0 0 1-.816-.312c-.063-.09-.344-.141-.461-.164-.117-.024-.11 0-.129-.04h-.02v-.05c0-.028.04-.051.11-.114.07-.062.351-.32.367-.43a1.2 1.2 0 0 1 .5-.714.41.41 0 0 1 .39-.05c.068.024.12.076.145.144v-.024a.805.805 0 0 1 .735-.39c.07 0 .164.054.207.218a.844.844 0 0 0 .21-.113c.18-.113.391-.254.59-.2a.414.414 0 0 1 .297.282c0 .04 0 .047.02.047a.543.543 0 0 0 .11-.047.574.574 0 0 1 .273-.094.48.48 0 0 1 .48.39.531.531 0 0 1-.285.61.848.848 0 0 1-.219.051c-.11 0-.11 0-.11.078a.46.46 0 0 1-.292.39.96.96 0 0 1-.535-.023.559.559 0 0 0-.18-.027.082.082 0 0 0 0 .043c0 .238-.293.297-.39.316a.855.855 0 0 1-.391-.046.39.39 0 0 0-.192-.036.043.043 0 0 0 0 .032.39.39 0 0 1-.414.273Zm-1.21-.613c.19.012.37.088.511.215.185.178.439.27.695.25.094 0 .262-.024.293-.176a.164.164 0 0 1 .082-.129.39.39 0 0 1 .309 0 .61.61 0 0 0 .3.043c.118 0 .274-.063.274-.168a.191.191 0 0 1 .063-.16c.074-.059.18-.031.308 0 .144.053.3.062.45.027a.309.309 0 0 0 .195-.25c0-.191.133-.21.238-.226a.598.598 0 0 0 .184-.043.39.39 0 0 0 .191-.438.328.328 0 0 0-.344-.285.488.488 0 0 0-.207.074c-.086.047-.164.086-.242.051a.188.188 0 0 1-.101-.145.277.277 0 0 0-.192-.175c-.129-.035-.316.086-.469.183-.152.098-.257.164-.351.13a.137.137 0 0 1-.082-.102.105.105 0 0 0-.082-.11.66.66 0 0 0-.602.336c-.062.082-.11.14-.18.125-.07-.015-.082-.09-.085-.125a.105.105 0 0 0-.07-.074.285.285 0 0 0-.25.035 1.066 1.066 0 0 0-.434.613c-.024.164-.215.348-.391.524h-.012Z" fill="#1D1D1B"/><path d="M119.023 29.82c-.218-.539.047-.945.54-.78a.621.621 0 0 1 .781-.45.523.523 0 0 1 .164.808c.305.391.168.672-.238.782a.684.684 0 0 1-.36 1.172c-.062.527-.578.554-1.238.78-.2.083-.389.19-.563.317 0 0 .274-.27.235-.488-.047-.29.047-.566 0-.809a2.379 2.379 0 0 1 .035-.879.7.7 0 0 1 .644-.425v-.028Z" fill="#9A9038"/><path d="m118.156 32.484-.097-.113c.07-.066.242-.273.218-.418a1.7 1.7 0 0 1 0-.445c.02-.12.02-.243 0-.363a2.344 2.344 0 0 1 .047-.934v-.027a.754.754 0 0 1 .586-.43.68.68 0 0 1 .094-.68.48.48 0 0 1 .5-.11.672.672 0 0 1 .86-.448c.145.05.257.168.3.316a.707.707 0 0 1-.07.555.55.55 0 0 1 .129.508.508.508 0 0 1-.328.308.781.781 0 0 1 .097.715.68.68 0 0 1-.523.473c-.078.43-.457.535-.93.668l-.352.101c-.187.09-.365.199-.53.324Zm.844-2.586a.598.598 0 0 0-.54.36v.031a2.54 2.54 0 0 0-.026.824c.02.13.02.261 0 .39-.016.13-.016.262 0 .392a.414.414 0 0 1-.036.238c.084-.052.173-.094.266-.125l.356-.106c.472-.129.78-.218.832-.597v-.032h.07a.52.52 0 0 0 .453-.39.621.621 0 0 0-.137-.649l-.097-.09.129-.035a.441.441 0 0 0 .335-.246.457.457 0 0 0-.136-.414l-.035-.043.03-.047a.566.566 0 0 0 .083-.472.336.336 0 0 0-.211-.223.531.531 0 0 0-.434.05.5.5 0 0 0-.25.349v.085l-.082-.027a.39.39 0 0 0-.422.047.594.594 0 0 0-.023.621l.04.106h-.157l-.008.003Z" fill="#1D1D1B"/><path d="M119.531 28.75s.985-.102 1.07-.277c.14-.25.367-.441.637-.535a.535.535 0 0 1 .223 0l-.27.699-.636.058-1.024.059v-.004Z" fill="#1D1D1B"/><path d="m119.531 28.824-.054-.058v-.043c0-.047.027-.047.21-.075.668-.09.836-.164.864-.207.15-.268.393-.473.683-.574a.496.496 0 0 1 .262 0h.082l-.316.82-.684.063-1.047.074Zm1.86-.828h-.102c-.25.087-.46.262-.59.492a.254.254 0 0 1-.14.114h.023l.59-.055.219-.55Z" fill="#1D1D1B"/><path d="M119.563 28.695s.949.29.996.48a.867.867 0 0 0 .457.622c.152.058.359-.074.472-.219.114-.144.293.352.547.426.106.027.332-.172.43-.317.18-.273.2.391.637.391.093 0 .27-.308.324-.457.054-.148.3.3.597.149a.594.594 0 0 0 .09-1.012c-.222-.192-.625.246-.59 0a.781.781 0 0 0-.062-.457c-.266-.2-.86.476-.836.238 0-.113.031-.36-.027-.39-.489-.215-.985.492-.934.199a.324.324 0 0 0-.332-.364 1.195 1.195 0 0 0-.668.493c-.098.171-1.102.191-1.086.207l-.016.011Z" fill="#BDB57A"/><path d="M123.086 30.168a.613.613 0 0 1-.492-.367.832.832 0 0 0-.063-.098l-.02.024c-.081.12-.347.39-.511.347a.68.68 0 0 1-.328-.308.703.703 0 0 0-.129-.157.547.547 0 0 1-.559.243.965.965 0 0 1-.484-.672c0-.051-.172-.157-.809-.39-.144-.052-.175-.063-.187-.095v-.023h.027c.02-.027.051-.031.203-.043.672-.05.848-.11.875-.152.165-.261.422-.45.72-.532a.328.328 0 0 1 .292.094c.081.081.129.19.133.305l.05-.032a.875.875 0 0 1 .852-.183c.078.031.098.14.074.39l.125-.078c.204-.132.485-.316.676-.175.102.078.11.39.094.52l.078-.032c.133-.059.336-.149.488 0 .186.149.284.38.262.617a.684.684 0 0 1-.367.516.453.453 0 0 1-.5-.121l-.07-.051c-.079.062-.266.453-.43.453Zm-.555-.621c.086 0 .133.082.192.176.058.093.175.289.367.297.106-.115.192-.247.254-.391a.129.129 0 0 1 .082-.086c.077.005.15.037.207.09.074.058.226.164.344.105a.527.527 0 0 0 .285-.39.55.55 0 0 0-.211-.489c-.074-.066-.196-.023-.332.036-.137.058-.18.078-.242.03a.145.145 0 0 1-.043-.14.828.828 0 0 0-.04-.39c-.101-.079-.343.078-.5.183-.156.106-.238.156-.312.113a.121.121 0 0 1-.047-.12.863.863 0 0 0 0-.317.781.781 0 0 0-.68.187c-.109.075-.18.122-.242.079a.121.121 0 0 1-.039-.141.3.3 0 0 0-.086-.227.176.176 0 0 0-.16-.05c-.257.067-.48.229-.625.453-.07.12-.351.175-.816.215.441.16.699.28.734.418.038.239.181.448.39.57.106.043.282-.067.391-.195.03-.044.08-.07.133-.07.094 0 .164.1.246.218.082.117.156.227.25.25.094.023.242-.129.344-.285a.191.191 0 0 1 .148-.13h.008Z" fill="#1D1D1B"/><path d="M122.328 20.148c0 .024.617-.355.828-.312.33.051.668-.041.926-.254.074-.082.102-.191 0-.367-.18-.3.352-.266.543-.567.055-.09.074-.171-.078-.293-.3-.238.305-.296.473-.597.054-.102.058-.211-.102-.36-.16-.148.105-.293.227-.511.12-.219-.067-.563-.36-.696a.645.645 0 0 0-.734.082c-.164.239-.082.528-.29.446-.206-.082-.343-.035-.417.066-.254.344 0 .856-.301.684-.594-.328-.176 1.058-.586.781-.324-.219-.324.68-.16 1.082.028.27.038.541.031.813v.003Z" fill="#9A9038"/><path d="m122.309 20.23-.04-.027v-.25c.02-.19.02-.383-.003-.574-.13-.328-.172-1.016.027-1.172a.184.184 0 0 1 .246 0c.035.023.05.027.05.023a.828.828 0 0 0 .052-.308c0-.227.03-.457.18-.54a.3.3 0 0 1 .296.036l.063.027v-.144a.969.969 0 0 1 .144-.547c.11-.152.27-.18.504-.09a.39.39 0 0 0 .043-.117.809.809 0 0 1 .125-.313.703.703 0 0 1 .824-.109c.194.083.346.24.422.438a.438.438 0 0 1-.031.363 1.133 1.133 0 0 1-.152.207c-.125.148-.13.176-.086.215.16.152.199.3.113.449a.957.957 0 0 1-.363.308c-.067.04-.18.102-.18.133 0 .032 0 .028.055.063.156.125.183.246.093.39a.82.82 0 0 1-.39.278c-.086.043-.172.082-.188.125-.015.043 0 .058.024.082a.352.352 0 0 1 0 .457c-.276.233-.64.333-.996.273-.229.041-.447.125-.645.246-.105.055-.137.075-.168.075l-.02.003Zm.058-1.953a1.402 1.402 0 0 0 0 1.008c.04.209.05.422.031.633v.098h.032a1.54 1.54 0 0 1 .742-.258c.304.047.614-.035.855-.227.047-.054.082-.129 0-.281a.234.234 0 0 1-.039-.203c.032-.106.145-.16.266-.215a.738.738 0 0 0 .316-.227c.035-.054.063-.097-.062-.195a.23.23 0 0 1-.11-.191c0-.11.122-.176.254-.25a.781.781 0 0 0 .309-.25c.035-.059.059-.137-.086-.27s-.027-.3.074-.422a1.21 1.21 0 0 0 .137-.18.285.285 0 0 0 0-.245.652.652 0 0 0-.344-.348.563.563 0 0 0-.64.058.8.8 0 0 0-.106.262c-.023.094-.043.176-.117.215a.215.215 0 0 1-.156 0c-.215-.086-.285-.027-.328.04a.781.781 0 0 0-.118.46c0 .129 0 .227-.082.27a.21.21 0 0 1-.203-.028c-.047-.027-.113-.054-.152-.031-.064.13-.098.273-.102.418 0 .16-.023.39-.133.43a.195.195 0 0 1-.199-.032.11.11 0 0 0-.058-.023l.02-.016ZM120.918 19.172c-.074.16.062.39.36.523.296.133.597.117.671-.043.074-.16-.105-.39-.39-.543-.286-.152-.551-.097-.63.063h-.011Z" fill="#1D1D1B"/><path d="M121.656 19.86a1.004 1.004 0 0 1-.41-.098.734.734 0 0 1-.39-.39.293.293 0 0 1 0-.243c.097-.207.39-.25.726-.098.336.153.531.442.438.64a.39.39 0 0 1-.364.188Zm-.453-.758a.215.215 0 0 0-.215.101.148.148 0 0 0 0 .129.563.563 0 0 0 .32.293c.278.129.524.102.575 0 .05-.102-.09-.313-.367-.441a.73.73 0 0 0-.313-.082Z" fill="#1D1D1B"/><path d="M121.52 19.465c-.082.18-.102.336.043.39a.363.363 0 0 0 .305-.656c-.13-.062-.263.07-.348.25v.016Z" fill="#FFF"/><path d="M121.684 19.984a.363.363 0 0 1-.157-.035c-.113-.054-.222-.191-.074-.504a.516.516 0 0 1 .266-.293.207.207 0 0 1 .18 0 .39.39 0 0 1 .171.559.465.465 0 0 1-.386.273Zm.117-.699h-.031a.39.39 0 0 0-.18.215c-.113.25-.028.293 0 .309a.2.2 0 0 0 .164 0c.079-.03.143-.09.176-.168a.266.266 0 0 0 .027-.203.27.27 0 0 0-.125-.16l-.031.007ZM116.664 35.45l-.125-.204s.39-.242.652-.363.934.125 1.059.176l-.09.218a1.766 1.766 0 0 0-.87-.18 10.78 10.78 0 0 0-.626.352Z" fill="#1D1D1B"/><path d="M118.04 35.07c-.02 0 .78.742.78.957.014.335.17.648.43.86.098.054.21.062.36-.075.261-.234.328.297.66.422.101.04.187.04.273-.132.176-.344.352.238.68.343.109.035.218 0 .332-.168.113-.168.308.043.547.118.238.074.539-.172.613-.485a.637.637 0 0 0-.227-.703c-.265-.117-.535.023-.496-.2.04-.222-.031-.343-.144-.39-.391-.18-.836.176-.727-.164.203-.644-1.074.04-.887-.418.149-.36-.816-.277-1.093.055-.137.164-1.118-.04-1.11 0l.008-.02Z" fill="#BDB57A"/><path d="M121.316 37.535a.34.34 0 0 1-.109 0 .89.89 0 0 1-.39-.297.691.691 0 0 0-.169-.152.18.18 0 0 0-.05.07c-.09.176-.203.227-.368.168a.824.824 0 0 1-.347-.316c-.055-.078-.113-.156-.156-.16a.137.137 0 0 0-.079.039.355.355 0 0 1-.449.082 1.23 1.23 0 0 1-.449-.942c0-.125-.477-.601-.633-.78-.156-.18-.156-.157-.156-.184V35h.008c.023-.023.05 0 .207 0 .676.098.855.07.89.027.307-.28.74-.377 1.137-.254a.21.21 0 0 1 .082.278.129.129 0 0 0 0 .054c.103.02.21.02.313 0 .222-.027.457-.058.562.07a.3.3 0 0 1 .028.298.191.191 0 0 0 0 .066l.14-.027a.922.922 0 0 1 .563.035c.171.078.23.23.187.473a.066.066 0 0 0 0 .039c.04.007.081.007.121 0 .114.003.226.024.332.062.247.176.354.49.266.781a.781.781 0 0 1-.344.5.473.473 0 0 1-.363.043 1.77 1.77 0 0 1-.23-.11c-.172-.097-.196-.093-.231-.042a.39.39 0 0 1-.313.242Zm-.644-.617c.098 0 .18.094.273.203a.844.844 0 0 0 .309.254c.062 0 .14.027.246-.14.105-.169.29-.083.43 0 .063.038.132.07.203.093.08.027.17.017.242-.027a.652.652 0 0 0 .273-.39.578.578 0 0 0-.18-.618.852.852 0 0 0-.28-.05c-.098 0-.18 0-.231-.071a.195.195 0 0 1-.027-.16c.039-.223-.032-.278-.106-.313a.781.781 0 0 0-.476 0c-.121 0-.22.035-.278-.031a.23.23 0 0 1 0-.203.184.184 0 0 0 0-.156c-.054-.067-.273-.036-.43 0-.156.035-.39.046-.449-.047a.191.191 0 0 1 0-.203.063.063 0 0 0-.023-.09 1.027 1.027 0 0 0-.945.222c-.102.121-.446.106-.97.032.423.425.669.703.669.859.017.303.158.586.39.781.067.035.145.055.274-.066a.273.273 0 0 1 .191-.078c.11 0 .184.113.262.218a.719.719 0 0 0 .285.266c.063.024.11.043.18-.098.07-.14.101-.136.164-.144l.004-.043ZM123.25 34.324c.207-.043.32-.324.246-.703-.074-.379-.308-.648-.512-.61-.203.04-.308.391-.23.782.078.39.293.594.496.55v-.019Z" fill="#1D1D1B"/><path d="M123.2 34.402a.418.418 0 0 1-.302-.144 1 1 0 0 1-.218-.469c-.086-.426.043-.781.289-.848.246-.066.511.243.597.664a.871.871 0 0 1-.074.633.352.352 0 0 1-.226.16h-.067v.004Zm-.177-1.32H123c-.14.027-.246.313-.176.672a.86.86 0 0 0 .184.39c.054.071.142.107.23.094a.2.2 0 0 0 .13-.093.727.727 0 0 0 .054-.52c-.063-.328-.258-.543-.399-.543Z" fill="#1D1D1B"/><path d="M123.105 33.55c.23-.046.391-.136.356-.323a.39.39 0 0 0-.188-.243.492.492 0 0 0-.57.118.39.39 0 0 0-.074.296c.031.168.246.2.476.153Z" fill="#FFF"/><path d="M122.93 33.656a.473.473 0 0 1-.274-.058.277.277 0 0 1-.113-.168.465.465 0 0 1 .414-.551.527.527 0 0 1 .39.074.39.39 0 0 1 .176.266c.028.14-.023.328-.414.39-.058.021-.118.037-.18.047Zm.14-.633h-.09a.312.312 0 0 0-.218.122.32.32 0 0 0-.063.238c.006.03.025.057.051.074a.52.52 0 0 0 .344.023c.328-.07.304-.19.297-.238a.285.285 0 0 0-.114-.172.39.39 0 0 0-.207-.058v.011ZM117.914 37.148c.207-.043.32-.324.246-.703-.074-.379-.308-.648-.512-.61-.203.04-.308.392-.23.782.078.39.293.59.496.551v-.02Z" fill="#1D1D1B"/><path d="M117.863 37.227a.39.39 0 0 1-.203-.067.855.855 0 0 1-.316-.55 1.145 1.145 0 0 1 0-.54.39.39 0 0 1 .277-.304c.246-.051.512.242.598.664a.86.86 0 0 1-.074.629.352.352 0 0 1-.227.16l-.055.008Zm-.175-1.32h-.024c-.07 0-.133.085-.168.202a.953.953 0 0 0 0 .47c.023.178.114.342.254.456a.2.2 0 0 0 .16.035c.054-.015.1-.05.13-.097a.715.715 0 0 0 .054-.516c-.078-.336-.266-.55-.406-.55Z" fill="#1D1D1B"/><path d="M117.77 36.39c.23-.046.39-.14.355-.324a.43.43 0 0 0-.832.168c.031.172.246.203.477.157Z" fill="#FFF"/><path d="M117.578 36.469a.477.477 0 0 1-.262-.067.27.27 0 0 1-.113-.168.469.469 0 0 1 .082-.351.45.45 0 0 1 .309-.184.531.531 0 0 1 .39.07.43.43 0 0 1 .176.266c.028.145-.023.332-.414.414a1.23 1.23 0 0 1-.168 0v.02Zm.14-.633h-.09a.312.312 0 0 0-.214.125.309.309 0 0 0-.066.238c.006.03.024.058.05.074.11.04.23.04.34 0 .332-.066.309-.191.301-.238a.27.27 0 0 0-.113-.168.348.348 0 0 0-.192-.031h-.015Z" fill="#1D1D1B"/><path d="m123.148 33.93.2-.328-.332.105-.223-.043c.074.34.328.613.469.602l-.114-.336Z" fill="#FFF"/><path d="M123.254 34.293c-.164 0-.414-.277-.492-.625v-.027a.035.035 0 0 1 .027 0l.215.043.328-.102a.023.023 0 0 1 .031 0 .043.043 0 0 1 0 .031l-.195.317.11.32-.024.043Zm-.422-.594c.045.226.188.42.39.531l-.097-.292.156-.258-.258.078-.191-.059ZM117.89 36.758l-.09-.305.282-.058a.688.688 0 0 1-.223.68l.032-.317Z" fill="#FFF"/><path d="M117.867 37.113a.04.04 0 0 1-.027-.035l.031-.308-.086-.301v-.024l.278-.054h.023a.84.84 0 0 1-.18.675c-.015.047-.015.047-.039.047Zm-.023-.633.078.278-.024.258a.781.781 0 0 0 .16-.59l-.214.054ZM121.543 19.344l.102-.133c-.25-.16-.59-.117-.641-.02l.539.153Z" fill="#FFF"/><path d="m121.543 19.367-.527-.164a.172.172 0 0 1 .12-.078.738.738 0 0 1 .552.09l-.098.137-.047.015Zm-.496-.187.488.14.074-.105a.676.676 0 0 0-.492-.07.121.121 0 0 0-.07.035Z" fill="#FFF"/><path d="M122.781 25.676c-.195.07-.27.367-.136.73.132.364.39.598.593.528.203-.07.246-.422.117-.782-.128-.359-.39-.543-.574-.472v-.004Z" fill="#1D1D1B"/><path d="M123.164 27.016c-.219 0-.46-.235-.59-.59a.953.953 0 0 1-.058-.512.39.39 0 0 1 .238-.312.39.39 0 0 1 .39.085.957.957 0 0 1 .29.43c.063.172.085.357.066.54a.39.39 0 0 1-.23.343.328.328 0 0 1-.106 0v.016Zm-.297-1.286a.168.168 0 0 0-.062 0 .258.258 0 0 0-.145.2.86.86 0 0 0 .05.433c.13.348.368.535.5.485a.254.254 0 0 0 .15-.223.945.945 0 0 0-.06-.465.844.844 0 0 0-.253-.375.293.293 0 0 0-.195-.062l.015.007Z" fill="#1D1D1B"/><path d="M123.047 26.418c-.219.082-.363.195-.3.39a.39.39 0 0 0 .218.215.39.39 0 0 0 .308 0 .39.39 0 0 0 .27-.496c-.055-.16-.273-.16-.496-.082v-.027Z" fill="#FFF"/><path d="M123.09 27.102a.508.508 0 0 1-.215-.047.422.422 0 0 1-.21-.239c-.052-.14-.028-.332.347-.468a.648.648 0 0 1 .453-.024.277.277 0 0 1 .137.153.46.46 0 0 1-.313.585.504.504 0 0 1-.2.04Zm-.043-.614c-.317.114-.274.235-.258.278.02.069.07.125.137.152a.39.39 0 0 0 .297 0 .309.309 0 0 0 .191-.148.309.309 0 0 0 .031-.243.09.09 0 0 0-.058-.066.484.484 0 0 0-.34.027Z" fill="#1D1D1B"/><path d="m122.969 26.336.363-.098c-.144-.355-.39-.527-.535-.488l.172.586Z" fill="#FFF"/><path d="M122.969 26.367a.043.043 0 0 1-.028-.023l-.171-.586a.023.023 0 0 1 0-.024c.156-.043.418.137.57.508a.023.023 0 0 1 0 .024l-.363.097-.008.004Zm-.133-.582.152.527.305-.082c-.133-.3-.336-.445-.453-.445h-.004Z" fill="#FFF"/><path d="M117.672 35.965a.078.078 0 0 1-.074-.074 1.36 1.36 0 0 0-.254-.782.074.074 0 0 1 0-.101.066.066 0 0 1 .054-.024c.02 0 .039.008.051.024.18.247.28.545.285.851a.078.078 0 0 1-.074.078l.012.028Zm5.344-2.785a.074.074 0 0 1-.075-.067 1.137 1.137 0 0 0-.32-.488.075.075 0 1 1 .106-.105c.171.155.297.355.363.578a.07.07 0 0 1 0 .054.082.082 0 0 1-.05.028h-.024Zm.074-5.364h-.043a.07.07 0 0 1-.024-.054.07.07 0 0 1 .024-.051c.133-.237.175-.515.117-.781a.074.074 0 0 1 0-.051.07.07 0 0 1 0-.047.078.078 0 0 1 .106.023c.095.324.047.672-.133.957a.066.066 0 0 1-.04 0l-.007.004Z" fill="#1D1D1B"/><path d="M120.574 34.355c-.15 0-.3-.026-.441-.078a3.969 3.969 0 0 0-.985-.066h-.066a5.324 5.324 0 0 1-1.004-.309l.106-.257c.29.12.591.215.898.285h.059c.363-.023.727.006 1.082.086.371.117.777.043 1.082-.2.098-.058.2-.11.304-.156.301-.12.606-.703.832-1.125l.047-.09c.158-.313.442-.543.782-.633l.054.274-.027-.137.058.145a.96.96 0 0 0-.601.492l-.047.086c-.258.488-.578 1.098-.977 1.254-.09.043-.18.09-.265.14-.264.18-.575.28-.895.29h.004ZM122.266 20.09a.074.074 0 0 1-.075-.059c-.027-.148-.226-.273-.3-.308a.074.074 0 0 1-.04-.098.07.07 0 0 1 .044-.04.078.078 0 0 1 .058 0s.34.161.39.415a.074.074 0 0 1-.058.086l-.02.004Z" fill="#1D1D1B"/><path d="M123.078 32.094s.902-.301 1.063-.192a.98.98 0 0 0 .8.13c.153-.055.325-.173.266-.348-.102-.301.352-.106.594-.22.097-.042.265-.21.187-.366-.16-.34-.855-.188-.855-.188l-2.055 1.172v.012Z" fill="#1D1D1B"/><path d="M123.074 32.148h-.027l-.031-.03v-.083l2.105-1.207c.031 0 .754-.16.938.23a.258.258 0 0 1 0 .215.473.473 0 0 1-.235.25.805.805 0 0 1-.36.047.559.559 0 0 0-.202 0v.063c.062.18-.063.351-.313.441a1.047 1.047 0 0 1-.867-.136c-.039-.028-.219-.024-.844.16a.93.93 0 0 1-.144.023l-.02.027Zm.95-.363a.258.258 0 0 1 .16.04.902.902 0 0 0 .734.116c.043 0 .27-.101.219-.25a.223.223 0 0 1 0-.199c.062-.086.187-.082.328-.082a.68.68 0 0 0 .293-.031.336.336 0 0 0 .156-.164.125.125 0 0 0 0-.106c-.11-.23-.574-.187-.762-.148l-1.562.89c.141-.04.287-.062.433-.066Z" fill="#1D1D1B"/><path d="M123.047 32.066s.906-.39 1.066-.289c.23.153.515.199.782.125.152-.05.39-.203.265-.343-.277-.344.352-.11.594-.22a.348.348 0 0 0 .11-.39c-.16-.34.523-.07.78-.215.126-.062.051-.308 0-.457-.05-.148.282-.117.45-.27-.098.09.57-.933-.461-.757-.223.04-.363.547-.504.332-.078-.121-.219-.262-.297-.258-.328.024-.496.813-.633.613-.066-.093-.156-.214-.215-.203-.578.137-.484.946-.636.692a.281.281 0 0 0-.461 0c-.16.237-.226.525-.184.808.04.192-.71.864-.687.868l.03-.036Z" fill="#BDB57A"/><path d="M123.047 32.14a.023.023 0 0 1-.024 0h-.027v-.027c0-.031 0-.054.129-.164.477-.476.57-.637.563-.687a1.25 1.25 0 0 1 .199-.871.36.36 0 0 1 .304-.137c.098.003.19.047.254.121v-.04a.836.836 0 0 1 .578-.644c.102-.023.188.082.282.22a1.04 1.04 0 0 0 .113-.177c.11-.195.25-.441.465-.457.133 0 .308.207.363.293a.73.73 0 0 0 .113-.133c.082-.105.172-.23.301-.25a.633.633 0 0 1 .598.114c.156.199.023.523-.043.68l-.02.05-.062-.02.05.06-.042.038a.82.82 0 0 1-.254.09.527.527 0 0 0-.133.043c.078.207.152.477-.024.567a.977.977 0 0 1-.496.046.875.875 0 0 0-.285 0v.06a.39.39 0 0 1 0 .32.305.305 0 0 1-.152.187.941.941 0 0 1-.39.035.918.918 0 0 0-.208 0c.012.026.028.05.047.07.044.05.058.12.04.184-.04.14-.231.242-.34.277a1.047 1.047 0 0 1-.868-.133c-.043-.027-.226 0-.855.243a.625.625 0 0 1-.168.043h-.008Zm1.086-1.785a.207.207 0 0 0-.164.079 1.11 1.11 0 0 0-.172.75c.027.136-.149.359-.477.695.438-.168.715-.242.828-.164a.86.86 0 0 0 .735.117.422.422 0 0 0 .246-.18.05.05 0 0 0 0-.047c-.055-.066-.11-.156-.07-.234.039-.078.183-.086.355-.078.11.023.225.023.336 0a.21.21 0 0 0 .078-.105.273.273 0 0 0 0-.208.191.191 0 0 1 0-.203c.067-.097.223-.09.418-.078.14.021.283.01.418-.031 0 0 .074-.055-.039-.367a.168.168 0 0 1 0-.137c.04-.074.133-.094.23-.117a.625.625 0 0 0 .207-.074l.024-.059c.05-.117.164-.39.062-.527-.101-.137-.222-.102-.453-.063-.07 0-.148.113-.21.196-.063.082-.15.187-.239.19a.172.172 0 0 1-.133-.085.586.586 0 0 0-.23-.227c-.133 0-.254.227-.344.391-.09.164-.148.258-.242.262a.125.125 0 0 1-.113-.063.629.629 0 0 0-.149-.172.688.688 0 0 0-.45.547c-.034.11-.058.184-.128.192a.148.148 0 0 1-.125-.086.219.219 0 0 0-.16-.086l-.04-.028ZM123.398 16.82a.223.223 0 0 0 .09.047c.168.047.184.278.157.39-.079.255-.524.47-.227.59.168.071.144.278.082.43a.992.992 0 0 1-.621.52c-.152.035-.477 1.101-.563 1.34l.223-1.633.86-1.676v-.008Z" fill="#1D1D1B"/><path d="m122.387 20.152-.145-.035.23-1.656.907-1.773.074.082c.016.011.035.02.055.023a.27.27 0 0 1 .172.14.5.5 0 0 1 .035.337.871.871 0 0 1-.203.3c-.043.051-.125.14-.121.168.004.028 0 0 .054.035.176.07.223.278.125.524a1.047 1.047 0 0 1-.675.562 5.574 5.574 0 0 0-.446 1.125l-.062.168Zm.226-1.632-.117.863c.168-.469.27-.645.363-.668a.887.887 0 0 0 .579-.473c0-.047.101-.273-.043-.332a.227.227 0 0 1-.141-.14c-.024-.102.058-.192.156-.297a.781.781 0 0 0 .168-.246.316.316 0 0 0-.023-.223.121.121 0 0 0-.078-.067h-.04l-.824 1.583Z" fill="#1D1D1B"/><path d="M122.332 19.781s.293-.945.484-.992a1 1 0 0 0 .625-.52c.059-.152.082-.359-.086-.43-.293-.12.153-.335.227-.589.031-.105 0-.336-.152-.39-.364-.106.285-.391.281-.712a.504.504 0 0 0-.246-.39c-.184-.07 0-.215 0-.442a.46.46 0 0 0-.875-.152c-.074.211.097.57-.153.535a.367.367 0 0 0-.32.117c-.199.262.195.86-.043.832-.113 0-.176 0-.207.075-.281.523.301.941 0 .886-.156-.03-.27.168-.226.391.075.276.249.515.488.672.168.098.18 1.101.2 1.09l.003.02Z" fill="#BDB57A"/><path d="M122.34 19.867h-.043v-.023c-.027 0-.027-.051-.04-.203-.042-.672-.105-.848-.148-.875a1.25 1.25 0 0 1-.539-.735.473.473 0 0 1 .098-.39.254.254 0 0 1 .207-.059v-.035a.852.852 0 0 1-.047-.809.266.266 0 0 1 .281-.113 1.195 1.195 0 0 0-.039-.2.742.742 0 0 1 0-.605.45.45 0 0 1 .39-.144.082.082 0 0 0 .044 0c.02 0 0-.121 0-.184a.89.89 0 0 1 .02-.305.484.484 0 0 1 .523-.34c.25.033.443.237.46.489a.781.781 0 0 1-.05.25c-.035.101-.035.105 0 .121a.57.57 0 0 1 .293.441.723.723 0 0 1-.258.446.59.59 0 0 0-.137.172h.055a.293.293 0 0 1 .168.136.469.469 0 0 1 .035.34.781.781 0 0 1-.203.301c-.043.05-.125.14-.117.168a.148.148 0 0 0 .05.035c.177.07.227.277.126.524-.13.278-.376.484-.672.562-.05 0-.156.168-.39.809-.052.14-.06.172-.09.183l.023.043Zm-.5-2.16a.082.082 0 0 0-.067.031.309.309 0 0 0-.054.266c.068.256.228.478.449.625.121.066.172.351.21.812.161-.433.286-.691.423-.726a.887.887 0 0 0 .558-.473c.02-.047.102-.273-.043-.332a.21.21 0 0 1-.14-.14c-.024-.102.058-.192.152-.297a.719.719 0 0 0 .172-.246.363.363 0 0 0-.023-.223.133.133 0 0 0-.079-.067.191.191 0 0 1-.16-.128c-.023-.09.063-.2.168-.309.106-.11.219-.234.219-.34a.45.45 0 0 0-.2-.308c-.179-.067-.132-.211-.097-.305a.727.727 0 0 0 .043-.203.39.39 0 0 0-.336-.344.336.336 0 0 0-.39.215.652.652 0 0 0 0 .246.488.488 0 0 1-.055.297.191.191 0 0 1-.168.043.29.29 0 0 0-.246.086c-.086.11-.035.316 0 .48.035.164.066.27 0 .34a.137.137 0 0 1-.125.043c-.07 0-.117 0-.133.035a.68.68 0 0 0 .047.672c.047.094.078.16.035.215a.148.148 0 0 1-.152.035h-.008Z" fill="#1D1D1B"/><path d="M123.36 27.691s.46.172.535.352a.98.98 0 0 0 .668.45c.153.062.33 0 .41-.145.101-.215.355.125.62.14.106 0 .34 0 .391-.164.067-.281.391.156.782.121a.39.39 0 0 0 .312-.254c.043-.191.184-.07.41-.105a.46.46 0 0 0 .024-.887c-.219-.043-.473.18-.473-.074a.34.34 0 0 0-.184-.281c-.285-.16-.878.3-.886.058 0-.113-.047-.172-.106-.191-.558-.203-.883.492-.87.2 0-.161-.196-.263-.391-.188-.261.097-.477.288-.606.535-.074.183-.613.418-.598.433h-.039Z" fill="#BDB57A"/><path d="M124.684 28.578h-.149a1.04 1.04 0 0 1-.707-.492c-.043-.106-.305-.223-.414-.27-.11-.046-.102-.046-.117-.07v-.05c0-.024.047-.044.129-.09.082-.047.418-.227.46-.333.128-.286.364-.51.657-.62a.434.434 0 0 1 .39.042.25.25 0 0 1 .106.172h.02a.809.809 0 0 1 .808-.21.254.254 0 0 1 .153.257.7.7 0 0 0 .23-.062.824.824 0 0 1 .637-.07.39.39 0 0 1 .218.343.113.113 0 0 0 0 .05.605.605 0 0 0 .122-.023.594.594 0 0 1 .285-.023c.24.042.41.26.39.504a.523.523 0 0 1-.414.527 1.098 1.098 0 0 1-.226 0c-.114 0-.11 0-.125.05a.453.453 0 0 1-.39.31.918.918 0 0 1-.517-.145.445.445 0 0 0-.171-.07.066.066 0 0 0 0 .039c-.059.234-.36.218-.457.218a.781.781 0 0 1-.352-.136c-.063-.035-.145-.082-.176-.074-.031.007 0 0-.02.027a.36.36 0 0 1-.37.2Zm-1.172-.894a.875.875 0 0 1 .453.328.91.91 0 0 0 .617.39c.09 0 .258.04.324-.105a.18.18 0 0 1 .114-.106c.09-.027.183.024.293.09a.824.824 0 0 0 .285.114c.117 0 .277 0 .304-.106a.176.176 0 0 1 .098-.137c.086-.039.18 0 .3.07a.781.781 0 0 0 .43.13.324.324 0 0 0 .247-.196c.043-.187.175-.176.285-.164a.754.754 0 0 0 .187 0 .39.39 0 0 0 .29-.39.332.332 0 0 0-.266-.356.535.535 0 0 0-.223.024.309.309 0 0 1-.25 0 .2.2 0 0 1-.063-.165.27.27 0 0 0-.144-.214c-.117-.067-.328 0-.5.066s-.285.102-.367.047a.129.129 0 0 1-.059-.117c0-.07-.023-.114-.055-.125a.66.66 0 0 0-.664.187c-.078.063-.136.11-.203.078a.14.14 0 0 1-.054-.14.11.11 0 0 0-.051-.094.29.29 0 0 0-.254 0c-.241.09-.441.265-.563.492a1.191 1.191 0 0 1-.523.39l.012.009Z" fill="#1D1D1B"/><path d="M119.98 33.945s.473-.316.645-.293a.926.926 0 0 0 .727-.25c.054-.07.07-.16-.02-.293-.16-.23.266-.23.39-.48.044-.074.051-.14-.077-.23-.25-.172.226-.25.347-.5.04-.083.035-.172-.101-.286-.137-.113.07-.238.152-.418.082-.18-.078-.445-.32-.535a.508.508 0 0 0-.582.102c-.118.199-.04.43-.207.39a.3.3 0 0 0-.332.075c-.184.289.054.683-.204.562-.492-.23-.082.856-.425.656-.27-.156-.223.559-.07.875.037.213.06.429.066.645l.011-.02Z" fill="#9A9038"/><path d="m119.965 34.047-.043-.024a1.281 1.281 0 0 1-.024-.207c-.003-.15-.019-.3-.046-.449-.114-.234-.207-.781-.04-.96a.172.172 0 0 1 .215 0h.032a1.172 1.172 0 0 0 0-.235c0-.188 0-.39.12-.453a.246.246 0 0 1 .255 0h.023a.348.348 0 0 0 0-.09.758.758 0 0 1 .086-.453.32.32 0 0 1 .414-.106h.023v-.086a.781.781 0 0 1 .086-.261.586.586 0 0 1 .672-.133.617.617 0 0 1 .367.332.39.39 0 0 1 0 .305 1.04 1.04 0 0 1-.113.175c-.097.125-.086.137-.062.157.134.08.187.248.12.39a.809.809 0 0 1-.28.27.477.477 0 0 0-.13.105l.04.035c.14.094.172.196.101.325a.676.676 0 0 1-.293.25c-.058.03-.129.074-.136.101-.008.028 0 .028 0 .05a.3.3 0 0 1 0 .392c-.21.2-.494.3-.782.277-.178.043-.346.12-.496.226-.078.051-.11.07-.136.07l.027-.003Zm-.047-1.563c-.07.26-.044.538.07.782.045.165.066.336.063.507v.051c.17-.122.367-.2.574-.226a.863.863 0 0 0 .656-.22c.031-.038.055-.093-.023-.206a.242.242 0 0 1-.043-.172c.023-.094.113-.14.207-.195a.531.531 0 0 0 .234-.192c.028-.047.04-.07-.05-.133a.219.219 0 0 1-.106-.16c0-.093.09-.156.195-.222a.688.688 0 0 0 .227-.211c0-.04.047-.094-.078-.196-.125-.101-.04-.257.035-.359a.75.75 0 0 0 .098-.148.215.215 0 0 0 0-.184.508.508 0 0 0-.286-.254.45.45 0 0 0-.488.074.672.672 0 0 0-.07.211.25.25 0 0 1-.086.188.176.176 0 0 1-.14 0c-.18-.059-.22 0-.247.043a.664.664 0 0 0-.062.367c0 .101 0 .187-.059.234a.176.176 0 0 1-.176 0c-.054-.023-.093-.031-.113 0-.033.106-.05.217-.05.328 0 .118 0 .309-.095.364a.168.168 0 0 1-.171 0l-.016-.07ZM120.543 24.047l-.027-.219a19.293 19.293 0 0 1 3.199-.586c.164 0 .101.07 0 .078-1.087.095-2.156.34-3.176.727h.004ZM120.207 28.91l.023-.246c1.215.076 2.42.266 3.598.566.156.043.074.098 0 .075-1.18-.25-2.38-.38-3.586-.39l-.035-.005ZM118.215 35.219l.043-.07a15.05 15.05 0 0 1 3.785 1.515c.137.082.043.113-.043.066a23.977 23.977 0 0 0-3.785-1.511ZM122.266 19.441l.152.036c.315-1.244.528-2.511.637-3.79 0-.164-.07-.093-.078 0a17.102 17.102 0 0 1-.711 3.731v.023ZM122.398 19.95l.118.093s1.07-1.594 1.953-3.219c.078-.144-.031-.113-.078-.027a20.902 20.902 0 0 1-2.008 3.152h.015ZM123.48 27.797v-.195c1.27-.16 2.553-.17 3.825-.028.16.024.078.094 0 .078a12.715 12.715 0 0 0-3.79.145h-.035Z" fill="#1D1D1B"/><path d="m120.043 34.074-.168-.097a7.75 7.75 0 0 1 1.61-2.946c.105-.125.12 0 .054.055-1.012 1.133-1.332 2.535-1.496 2.988ZM123.36 32.035v-.156c.999-.93 2.158-1.67 3.421-2.188.156-.05.114.047 0 .079-1.426.492-3.015 1.875-3.422 2.265ZM120.09 28.227l.035.253a26 26 0 0 0 1.754-2.734c.078-.144-.027-.117-.074-.027a12.008 12.008 0 0 1-1.715 2.52v-.012Z" fill="#1D1D1B"/></g><g><path d="M105.93 35.809s-1.903.39-3.98-2.29c1.78.239 3 .825 3.98 2.29Z" fill="#5A9D8E"/><path d="M105.648 35.902c-.625 0-2.132-.246-3.757-2.343l-.11-.141.18.023c1.953.258 3.102.93 4.031 2.317l.059.094h-.106a1.523 1.523 0 0 1-.297.05Zm-3.515-2.28c1.687 2.085 3.246 2.151 3.672 2.124-.868-1.234-1.953-1.863-3.68-2.125h.008Z" fill="#1D1D1B"/><path fill="#1D1D1B" d="m104.863 35.52.215-.16-2.234-1.364z"/><path d="M102.219 32.293s-2.453.277-4.297-2.531c1.484.195 3.703.71 4.297 2.531Z" fill="#5A9D8E"/><path d="M102.05 32.375c-.597 0-2.624-.188-4.171-2.574l-.086-.137.16.023c2.457.333 3.875 1.172 4.336 2.586l.027.086h-.09a.844.844 0 0 1-.175.016Zm-3.952-2.52c1.562 2.301 3.562 2.383 4.02 2.372-.462-1.262-1.778-2.04-4.02-2.372Z" fill="#1D1D1B"/><path fill="#1D1D1B" d="m99.836 30.97-.852-.576 2.81 1.661-.236-.012z"/><path d="M100.055 27.645a7.45 7.45 0 0 1-5.016-2.793c1.383.12 5 .18 5.016 2.793Z" fill="#5A9D8E"/><path d="M100.129 27.738h-.078a7.605 7.605 0 0 1-5.078-2.82l-.106-.133h.168l.34.027c1.535.114 4.73.348 4.746 2.84l.008.086Zm-4.926-2.781A7.441 7.441 0 0 0 100 27.562c-.082-2.277-3.02-2.492-4.61-2.609l-.187.004Z" fill="#1D1D1B"/><path d="M100.465 27.555s-1.414 1.207-4.297-.653c1.562-.39 2.8-1.07 4.297.653Z" fill="#1D1D1B"/><path d="M99.105 28.02c-.714 0-1.707-.235-2.984-1.055l-.144-.094.168-.043c.214-.05.421-.11.625-.168 1.3-.363 2.425-.676 3.753.844l.047.058-.054.047c-.413.287-.91.424-1.41.391v.02Zm-2.757-1.09c2.39 1.48 3.715.804 4.007.613-1.242-1.383-2.261-1.098-3.546-.738l-.461.125Z" fill="#1D1D1B"/><path d="M100.465 27.672s-1.414 1.09-4.297-.781c1.309-.325 2.8-.953 4.297.78Z" fill="#9DBDB4"/><path d="M99.219 28.07c-.723 0-1.754-.238-3.125-1.105l-.14-.094.163-.043.332-.09c1.239-.34 2.637-.726 4.047.887l.05.059-.062.046c-.376.242-.818.36-1.265.34Zm-2.883-1.14c2.379 1.472 3.703.902 4.008.726-1.324-1.465-2.66-1.097-3.836-.781l-.172.055Z" fill="#1D1D1B"/><path fill="#1D1D1B" d="m100.094 27.344-2.696-.246 2.555.011zM98.953 26.95l.09-.138-2.543-1.445zM103.125 23.05a.512.512 0 1 1-.828-.6.512.512 0 0 1 .828.6Z"/><path d="m102.516 24.059-.079-.125c.399-.39.526-.98.325-1.5l.133-.067c.23.488.105 1.38-.38 1.692ZM107.387 36.309a6.223 6.223 0 0 1-1.864-.391l.18-.215-.09.106.086-.106a6.566 6.566 0 0 0 1.735.32l.09.262a.39.39 0 0 1-.137.024ZM101.283 32.97l.465-.885.885.464-.464.886zM105.824 34.047c-.275 0-.548-.056-.8-.164-2.184-1.125-2.883-3.684-2.91-3.793a3.203 3.203 0 0 0-1.7-2.309l.102-.261a3.465 3.465 0 0 1 1.87 2.515s.696 2.531 2.766 3.598c.28.12.587.16.887.113l.152.23a.668.668 0 0 1-.367.07Z" fill="#1D1D1B"/><path d="M104.645 29.152s-2.02-.39-2.696-4.687c1.102.828 2.762 2.293 2.696 4.687Z" fill="#5A9D8E"/><path d="M104.719 29.242h-.086c-.086 0-2.082-.433-2.758-4.754l-.027-.183.144.11c1.203.905 2.793 2.382 2.735 4.753l-.008.074Zm-2.668-4.61c.601 3.54 2.14 4.298 2.523 4.423.035-2.157-1.386-3.543-2.523-4.422ZM107.246 34.77s-.812 1.414-4.687 2.421c1.484-1.886.863-2.363 4.687-2.421Z" fill="#1D1D1B"/><path d="m102.344 37.3.14-.171c.293-.39.5-.684.684-.957.734-1.102.957-1.434 4.07-1.496h.133l-.066.113c-.032.059-.871 1.453-4.746 2.461l-.215.05Zm4.75-2.472c-2.895.067-3.094.367-3.805 1.426a10.56 10.56 0 0 1-.555.781c3.008-.805 4.079-1.875 4.364-2.207h-.004Z" fill="#1D1D1B"/><path d="M107.246 34.867s-.902 1.446-4.789 2.453c.879-1.058 1.227-2.847 4.79-2.453Z" fill="#9DBDB4"/><path d="m102.266 37.453.148-.18c.158-.196.304-.402.438-.617.68-1.027 1.449-2.191 4.418-1.863h.117l-.063.098c-.039.058-.96 1.48-4.836 2.488l-.222.074Zm4.05-2.566c-2.117 0-2.761.976-3.34 1.851-.105.16-.203.313-.312.453 3.059-.828 4.176-1.93 4.457-2.265a8.887 8.887 0 0 0-.82-.04h.015ZM100.313 27.613s-2.758-.832-4.094-4.297c1.304.391 4.082 1.688 4.094 4.297Z" fill="#1D1D1B"/><path d="m100.39 27.715-.097-.031c-.027 0-2.813-.88-4.145-4.348l-.054-.14.144.042a7.746 7.746 0 0 1 2.559 1.336 3.844 3.844 0 0 1 1.594 3.04v.1Zm-4.046-4.297a7.145 7.145 0 0 0 3.906 4.082c-.047-.668-.43-2.96-3.906-4.074v-.008Z" fill="#1D1D1B"/><path d="M100.477 27.613a8.594 8.594 0 0 1-4.274-4.297c1.305.391 4.258 1.688 4.274 4.297Z" fill="#9DBDB4"/><path d="m100.55 27.738-.1-.039a8.781 8.781 0 0 1-4.298-4.344l-.062-.148.152.047c.719.219 4.297 1.453 4.328 4.375l-.02.11Zm-4.214-4.297a8.684 8.684 0 0 0 4.055 4.055c-.086-2.566-3.125-3.758-4.063-4.066l.008.011ZM101.875 32.293s-2.07 1.07-4.762-.59c1.93-.719 3.563-1.105 4.75.606l.012-.016Z" fill="#1D1D1B"/><path d="M100.172 32.7a5.79 5.79 0 0 1-3.098-.95l-.129-.082.14-.05c1.84-.684 3.599-1.173 4.837.636l.05.066-.077.04a4.016 4.016 0 0 1-1.723.34Zm-2.906-.997c2.27 1.348 4.078.727 4.468.563-1.129-1.575-2.687-1.211-4.468-.563Z" fill="#1D1D1B"/><path d="M101.953 32.293s-2.137 1.07-4.828-.59a4.363 4.363 0 0 1 4.828.606v-.016Z" fill="#9DBDB4"/><path d="M100.203 32.7a5.883 5.883 0 0 1-3.125-.95l-.117-.074.121-.059a4.434 4.434 0 0 1 4.914.621l.078.075-.097.046a4.297 4.297 0 0 1-1.774.34Zm-2.937-.997c2.242 1.336 4.086.754 4.535.578a4.273 4.273 0 0 0-4.535-.578Z" fill="#1D1D1B"/><path d="M103.258 30.703s-1.563-1.02-1.84-4.219c1.707.95 2.254 3.059 1.84 4.22Z" fill="#9DBDB4"/><path d="m103.297 30.816-.082-.054c-.063-.04-1.563-1.07-1.871-4.27v-.14l.125.07a3.969 3.969 0 0 1 1.742 2.066 3.39 3.39 0 0 1 .133 2.239l-.047.09Zm-1.793-4.191c.281 2.598 1.406 3.695 1.715 3.953.316-1.078-.172-3-1.715-3.953Z" fill="#1D1D1B"/><path d="M102.102 29.875s-1.286.43-4.098-.953c1.898-.742 3.86-.152 4.098.953Z" fill="#9DBDB4"/><path d="M101.516 30.016c-.641 0-1.801-.168-3.547-1.028l-.149-.074.157-.062a4.223 4.223 0 0 1 3.367.03c.409.186.714.544.832.977v.067h-.063a2.07 2.07 0 0 1-.597.09ZM98.19 28.93c2.297 1.097 3.516.949 3.82.89a1.418 1.418 0 0 0-.738-.808 4.05 4.05 0 0 0-3.082-.082ZM100.676 26.313a.512.512 0 1 0-.002-1.024.512.512 0 0 0 .002 1.024Z" fill="#1D1D1B"/><path d="M100.555 25.805c.132 0 .238-.075.238-.172 0-.098-.09-.18-.238-.18-.149 0-.239.074-.239.168 0 .094.11.172.239.172v.012ZM102.563 22.719c.105 0 .19-.063.19-.137 0-.074-.085-.137-.19-.137-.106 0-.188.063-.188.137 0 .074.086.137.188.137Z" fill="#FFF"/><path d="M101.172 33.938a.512.512 0 1 0 0-1.024.512.512 0 0 0 0 1.023Z" fill="#1D1D1B"/><path d="M101.059 33.43c.132 0 .238-.078.238-.172 0-.094-.106-.168-.238-.168-.133 0-.239.074-.239.168 0 .094.106.172.239.172Z" fill="#FFF"/><path d="M103.332 25.188c-1.016-.625-2.11-2.286-1.36-4.012l.255.11c-.68 1.562.324 3.089 1.253 3.667l-.148.235Z" fill="#1D1D1B"/><path d="M101.832 19.898s-1.637-.945-.355-5.125c.628 1.247 1.464 3 .355 5.125Z" fill="#5A9D8E"/><path d="m101.875 20.004-.066-.04c-.07-.038-1.676-1.026-.391-5.214l.05-.172.087.16c.566 1.11 1.52 2.965.355 5.196l-.035.07Zm-.39-5.031c-1.005 3.437.038 4.582.316 4.816 1.02-2.027.242-3.734-.317-4.816Z" fill="#1D1D1B"/><path d="M101.875 20.223s-1.902-.594-1.664-4.961c1.305 1.457 2.227 2.629 1.664 4.96Z" fill="#1D1D1B"/><path d="m101.914 20.316-.074-.023c-.078-.027-1.953-.66-1.715-5.035v-.176l.121.133c1.379 1.531 2.238 2.71 1.68 5.023l-.012.078Zm-1.648-4.867c-.153 3.61 1.207 4.504 1.543 4.688.488-2.137-.286-3.278-1.543-4.688Z" fill="#1D1D1B"/><path d="M101.742 20.223s-1.87-.743-1.633-5.11c.907 1.04 2.2 2.778 1.633 5.11Z" fill="#9DBDB4"/><path d="m101.797 20.316-.082-.03c-.078-.032-1.918-.813-1.68-5.18v-.18l.117.136c.977 1.118 2.207 2.872 1.653 5.172l-.008.082Zm-1.621-5.023c-.149 3.582 1.172 4.605 1.515 4.805.465-2.067-.597-3.711-1.515-4.801v-.004Z" fill="#1D1D1B"/><path d="M101.973 21.656s-.918-1.91 1.367-4.656c.25 1.125.144 3.398-1.367 4.656Z" fill="#9DBDB4"/><path d="m101.953 21.773-.043-.085c-.035-.079-.906-1.985 1.383-4.735l.098-.117.03.148c.266 1.215.114 3.473-1.394 4.73l-.074.06Zm1.356-4.605c-1.817 2.277-1.426 3.96-1.297 4.379 1.324-1.172 1.504-3.195 1.297-4.379Z" fill="#1D1D1B"/><path d="M101.813 23.012a5.895 5.895 0 0 1-4.055-3.23c2.55.175 3.558 1.241 4.055 3.23Z" fill="#5A9D8E"/><path d="M101.91 23.11h-.11a6.008 6.008 0 0 1-4.109-3.274l-.054-.113h.125c2.418.168 3.574 1.09 4.12 3.289l.028.097Zm-4.027-3.239a5.86 5.86 0 0 0 3.828 3.05c-.531-2.007-1.621-2.874-3.828-3.058v.008Z" fill="#1D1D1B"/><path d="M101.875 32.293a6.32 6.32 0 0 0 1.512-.11" fill="#FFF"/><path d="M102.164 32.426h-.289v-.278c.492.022.985-.013 1.469-.105l.078.27a5.238 5.238 0 0 1-1.258.113Zm2.594-.649c-.824-.082-1.563-1.09-1.602-1.132l.223-.168s.707.953 1.406 1.023l-.027.277ZM100.965 27.797l-.11-.102c.329-.351.243-1.172-.058-1.535l.113-.094c.348.426.445 1.34.055 1.73ZM101.676 20.13l.101-.087-1.336-3.758zM101.898 21.437l1.215-3.535-1.066 3.578zM101.808 22.801l-3.355-2.567 3.207 2.731z" fill="#1D1D1B"/><path d="M101.813 22.836s-1.81 1.043-4.465-.598c2.109-.918 3-.781 4.465.598Z" fill="#1D1D1B"/><path d="M100.273 23.23a5.648 5.648 0 0 1-2.964-.925l-.118-.075.13-.058c2.105-.918 3.038-.781 4.542.61l.075.066-.086.05a3.437 3.437 0 0 1-1.579.332Zm-2.761-.96c2.191 1.296 3.781.738 4.172.566-1.371-1.27-2.246-1.387-4.172-.566Z" fill="#1D1D1B"/><path d="M101.813 23.012s-1.954.925-4.61-.715c1.723-.914 2.992-.836 4.61.715Z" fill="#9DBDB4"/><path d="M101.781 22.945c-.02 0-1.953.887-4.539-.71v.128c1.778-.945 3.004-.754 4.524.703l.015-.12Zm.082 0c-1.562-1.511-2.847-1.707-4.687-.722l-.114.058.11.07c2.66 1.641 4.66.727 4.687.715l.098-.043-.094-.078ZM101.808 19.641l.15-.016-.415-4.035z" fill="#1D1D1B"/><path fill="#1D1D1B" d="m101.515 22.734.145.231-3.578-.578zM100.367 27.484l.082-.199-2.754-2.652zM103.515 27.027l.06.535-1.087-2.175M103.14 30.637l.22-.043-1.349-2.953zM101.773 32.156v.137l-3.422-.434zM102.047 29.68l-.016.136-2.437-.75zM106.48 34.97l.117.194-3.164 1.426z"/></g><g><path d="m117.145 18.215.585-.59s-2.03-.66-5.812-.66c-3.781 0-5.582.566-5.582.566l.586.59" fill="#1D1D1B"/><path d="M117.14 18.277a.063.063 0 0 1-.042-.02.066.066 0 0 1 0-.046.063.063 0 0 1 0-.043l.507-.512a21.957 21.957 0 0 0-5.687-.625 22.457 22.457 0 0 0-5.469.535l.508.508a.066.066 0 0 1 0 .094.07.07 0 0 1-.094 0l-.586-.586a.07.07 0 0 1-.02-.062.07.07 0 0 1 .048-.047s1.855-.57 5.601-.57 5.813.66 5.832.663c.023.006.04.025.043.047a.059.059 0 0 1 0 .063l-.594.582a.05.05 0 0 1-.05.02h.004Z" fill="#1D1D1B"/><path d="M112.031 16.965c3.778 0 5.676.605 5.676.605l.273-1.367.438-1.246 2.238-2.594-2.031-.457-1.125 1.496-1.21-.285 1.026-1.523-2.785-.367-.8 1.582-1.7-.047-1.629-.024-.652-1.562-2.8.39.948 1.563-1.296.156-.97-1.383-2.054.426 2.156 2.578.438 1.262.297 1.363s1.8-.566 5.582-.566h-.02Z" fill="#1D1D1B"/><path d="M117.707 17.672h-.035s-1.926-.598-5.64-.598c-3.716 0-5.536.567-5.552.567a.11.11 0 0 1-.085 0 .102.102 0 0 1-.047-.067l-.297-1.367-.39-1.234-2.145-2.551a.117.117 0 0 1 0-.102c.01-.034.039-.06.074-.066l2.055-.426a.102.102 0 0 1 .109.04l.933 1.335 1.075-.129-.867-1.437a.11.11 0 0 1 0-.098.094.094 0 0 1 .078-.059l2.8-.39a.102.102 0 0 1 .11.062l.59 1.485h1.562l1.649.047.78-1.524a.098.098 0 0 1 .106-.055l2.79.364a.102.102 0 0 1 .081.062.11.11 0 0 1 0 .098l-.945 1.402 1 .239 1.074-1.446a.094.094 0 0 1 .106-.039l2.027.477a.11.11 0 0 1 .078.07.105.105 0 0 1-.02.102l-2.226 2.574-.426 1.23-.273 1.352a.113.113 0 0 1-.05.07.125.125 0 0 1-.075 0l-.004.012Zm-5.676-.813c1.882-.044 3.76.15 5.594.575l.254-1.254.441-1.274v-.035l2.125-2.46-1.797-.391-1.07 1.445a.094.094 0 0 1-.105.039l-1.211-.285a.105.105 0 0 1-.075-.067.098.098 0 0 1 0-.093l.934-1.387-2.55-.34-.782 1.516a.094.094 0 0 1-.094.058l-1.664-.047-1.625-.023a.105.105 0 0 1-.097-.063l-.621-1.492-2.567.356.871 1.437a.117.117 0 0 1 0 .102.102.102 0 0 1-.082.054l-1.297.16a.105.105 0 0 1-.097-.046l-.93-1.328-1.816.39 2.046 2.442v.035l.434 1.265.277 1.266c.446-.129 2.262-.555 5.504-.555Z" fill="#1D1D1B"/><path d="M111.918 16.965c3.777 0 5.578.566 5.578.566l.297-1.363.418-1.262 2.156-2.562-1.855-.43-1.114 1.496-1.351-.265.95-1.563-2.567-.336-.801 1.563-1.711-.047-1.715.047-.8-1.563-2.567.336.95 1.563-1.352.265-1.114-1.496-1.855.43 2.156 2.562.418 1.27.297 1.363s1.8-.566 5.582-.566v-.008Z" fill="#DAD8CC"/><path d="M106.336 17.605h-.04a.078.078 0 0 1-.034-.05l-.297-1.364-.39-1.246-2.15-2.554a.074.074 0 0 1 0-.07.078.078 0 0 1 .055-.051l1.856-.43a.07.07 0 0 1 .074.027l1.074 1.477 1.204-.239-.899-1.484a.074.074 0 0 1 0-.07.082.082 0 0 1 .059-.043l2.57-.336a.074.074 0 0 1 .074.043l.781 1.539 1.665-.047 1.667.047.782-1.54a.082.082 0 0 1 .078-.042l2.566.336c.025.004.047.02.059.043a.074.074 0 0 1 0 .07l-.899 1.484 1.204.239 1.085-1.465a.07.07 0 0 1 .075-.027l1.855.43a.078.078 0 0 1 .055.05.074.074 0 0 1 0 .07l-2.164 2.536-.414 1.253-.309 1.356a.066.066 0 0 1-.094.05c-.02 0-1.84-.566-5.558-.566-3.719 0-5.547.551-5.567.551l-.023.023Zm-2.734-5.226 2.078 2.469a.035.035 0 0 1 0 .027l.418 1.266.28 1.297c.392-.106 2.208-.551 5.528-.551 3.32 0 5.137.445 5.524.55l.28-1.289.419-1.273a.035.035 0 0 1 0-.027l2.105-2.473-1.691-.39-1.086 1.46a.07.07 0 0 1-.074.028l-1.348-.266a.074.074 0 0 1-.055-.043.074.074 0 0 1 0-.07l.891-1.477-2.402-.312-.781 1.535a.066.066 0 0 1-.07.039l-1.712-.047-1.707.047a.078.078 0 0 1-.07-.04l-.781-1.534-2.403.312.89 1.477a.074.074 0 0 1 0 .07.094.094 0 0 1-.05.043l-1.351.266a.07.07 0 0 1-.075-.028l-1.086-1.46-1.671.394Z" fill="#1D1D1B"/><path d="M115.914 17.25a.063.063 0 0 1-.043 0 .055.055 0 0 1 0-.043l.137-1.387a.063.063 0 0 1 .066-.054.066.066 0 0 1 .055.066l-.152 1.36a.047.047 0 0 1 0 .038.055.055 0 0 1-.043 0l-.02.02Zm-8 0a.066.066 0 0 1-.039 0 .055.055 0 0 1-.02-.04l-.12-1.374a.062.062 0 0 1 .054-.066.055.055 0 0 1 .043 0 .062.062 0 0 1 .02.043l.14 1.386a.055.055 0 0 1 0 .043.063.063 0 0 1-.043 0l-.035.008Zm6.121-.195a.047.047 0 0 1-.039 0 .059.059 0 0 1 0-.043l.078-1.387c0-.015.007-.03.02-.04a.059.059 0 0 1 .043 0c.016.002.031.009.043.02a.055.055 0 0 1 0 .043l-.078 1.387a.055.055 0 0 1 0 .047.05.05 0 0 1-.047 0l-.02-.027Zm-4.242 0a.059.059 0 0 1-.059-.055l-.078-1.387a.055.055 0 0 1 0-.043.063.063 0 0 1 .106.035l.078 1.387a.059.059 0 0 1 0 .043.047.047 0 0 1-.04 0l-.007.02Zm2.125-.051a.059.059 0 0 1-.059-.059v-1.422a.059.059 0 0 1 .118 0v1.434a.059.059 0 0 1-.059.059v-.012Zm5.191-.887a.059.059 0 0 1-.043-.07l.317-1.29a.059.059 0 0 1 .07-.042c.032.01.05.042.043.074l-.312 1.29a.063.063 0 0 1-.075.038Zm-10.425 0a.055.055 0 0 1-.055-.047l-.317-1.285a.062.062 0 0 1 .043-.074.059.059 0 0 1 .07.043l.317 1.289a.059.059 0 0 1-.043.07l-.015.004Zm8.539-.39a.059.059 0 0 1-.04-.024.055.055 0 0 1 0-.043l.196-1.238a.06.06 0 1 1 .117.02l-.195 1.245a.055.055 0 0 1-.055.032l-.023.008Zm-6.641 0a.062.062 0 0 1-.066-.04l-.196-1.23a.062.062 0 0 1 .047-.07.066.066 0 0 1 .07.05l.196 1.239a.055.055 0 0 1 0 .043.059.059 0 0 1-.04.023l-.011-.015Zm4.488-.137a.059.059 0 0 1-.058-.059v-1.386a.059.059 0 0 1 .117 0v1.378c0 .03-.022.055-.05.059l-.009.008Zm-2.343 0a.066.066 0 0 1-.063-.059v-1.386a.066.066 0 0 1 .063-.06c.032 0 .058.027.058.06v1.378a.059.059 0 0 1-.035.059l-.023.008ZM109.766 14.387l-.727-1.825-.598.083.75 1.87a.531.531 0 0 0-.203.419.617.617 0 0 0 1.23 0 .57.57 0 0 0-.452-.543v-.004ZM114.063 14.387l.714-1.825.598.083-.738 1.87c.128.101.203.255.203.419a.617.617 0 0 1-1.23 0 .57.57 0 0 1 .453-.543v-.004Z" fill="#1D1D1B"/><path d="M106.086 16.316a.105.105 0 0 1-.031-.203c.02 0 2.105-.726 5.86-.726 3.753 0 5.858.718 5.858.726a.102.102 0 0 1 .063.133.105.105 0 0 1-.133.063c-.02 0-2.078-.715-5.793-.715-3.715 0-5.777.71-5.797.715l-.027.007Zm-.434-1.3a.105.105 0 0 1-.03-.204 25.262 25.262 0 0 1 12.589 0 .105.105 0 0 1 .07.075.105.105 0 0 1-.133.12 25.129 25.129 0 0 0-12.464 0l-.032.009Z" fill="#1D1D1B"/></g><g><path d="M112.05 40.605c9.938-7.789 8.653-15.601 8.395-21.382a.496.496 0 0 0-.39-.516 24.168 24.168 0 0 0-16.016 0 .496.496 0 0 0-.39.516c-.239 5.78-1.544 13.593 8.39 21.382h.012Z" fill="#1D1D1B"/><path d="m112.05 40.758-.07-.059c-9.203-7.203-8.82-14.347-8.507-20.086.027-.476.05-.941.07-1.398a.605.605 0 0 1 .457-.621h.063a24.313 24.313 0 0 1 15.98 0h.062c.278.07.468.324.457.61.02.456.043.921.07 1.398.31 5.738.696 12.89-8.507 20.085l-.074.07Zm0-23.297c-2.693.024-5.365.48-7.913 1.352l-.063.023a.39.39 0 0 0-.293.39c-.02.454-.047.922-.07 1.399-.309 5.672-.688 12.723 8.34 19.832 9.043-7.11 8.652-14.16 8.344-19.828-.024-.48-.051-.95-.07-1.402a.39.39 0 0 0-.294-.391l-.062-.023a25.172 25.172 0 0 0-7.918-1.352Z" fill="#1D1D1B"/><path d="M111.918 40.527c9.934-7.777 8.629-15.554 8.394-21.324a.504.504 0 0 0-.39-.515 24.176 24.176 0 0 0-16.035 0 .504.504 0 0 0-.39.515c-.24 5.781-1.563 13.559 8.394 21.336l.027-.012Z" fill="#FFF"/><path d="m111.918 40.629-.047-.035c-9.183-7.2-8.8-14.301-8.492-20.004.027-.48.05-.945.07-1.402a.574.574 0 0 1 .426-.583h.07a24.219 24.219 0 0 1 15.946 0h.066c.27.068.45.321.426.598.02.457.043.922.07 1.402.309 5.704.692 12.805-8.492 19.997l-.043.027Zm0-23.238c-2.697.02-5.373.473-7.926 1.343h-.086a.43.43 0 0 0-.324.45c0 .453-.043.921-.07 1.402-.305 5.66-.688 12.707 8.39 19.836 9.09-7.117 8.723-14.164 8.41-19.824-.027-.48-.05-.95-.07-1.403a.43.43 0 0 0-.32-.441h-.067a25.215 25.215 0 0 0-7.925-1.363h-.012Z" fill="#1D1D1B"/><path d="M104.445 19.379v.344l-.039.738c-.148 2.734-.312 5.793.61 9.012 1.039 3.629 3.304 6.847 6.914 9.836 3.613-2.989 5.86-6.207 6.918-9.836.922-3.22.754-6.297.609-9.016l-.05-1.035a23.125 23.125 0 0 0-14.946-.043h-.016Z" fill="#1D1D1B"/><path d="m111.914 39.406-.047-.039c-3.629-3-5.898-6.25-6.941-9.875-.926-3.23-.758-6.316-.61-9.035l.036-.738.02-.39h.05a24.648 24.648 0 0 1 7.492-1.227c2.55.038 5.079.465 7.5 1.265h.05l.052 1.09c.148 2.734.312 5.809-.61 9.04-1.047 3.644-3.316 6.874-6.941 9.874l-.05.035Zm-7.46-18.945c-.145 2.707-.313 5.781.605 8.984 1.03 3.602 3.27 6.793 6.843 9.766 3.575-2.969 5.817-6.16 6.848-9.766.914-3.203.75-6.277.602-8.984l-.047-.984a24.84 24.84 0 0 0-7.403-1.243c-2.512.02-5.006.426-7.394 1.203v.29c-.028.445-.035.648-.055.734Z" fill="#1D1D1B"/><path d="M104.504 19.41v.344l-.035.734c-.149 2.735-.317 5.797.605 9.012 1.04 3.633 3.305 6.852 6.918 9.84 3.613-2.988 5.86-6.207 6.918-9.84.918-3.215.754-6.293.606-9.012l-.063-1.078a23.508 23.508 0 0 0-14.941 0h-.008Z" fill="#FFF"/><path d="m111.977 39.457-.051-.039c-3.625-3-5.895-6.25-6.942-9.875-.921-3.23-.754-6.316-.609-9.04l.04-.733.019-.391h.046a23.488 23.488 0 0 1 14.989 0h.062l.055 1.129c.148 2.734.316 5.808-.61 9.039-1.042 3.644-3.312 6.875-6.94 9.875l-.06.035Zm-7.461-18.945c-.149 2.71-.313 5.781.605 8.984 1.031 3.598 3.27 6.793 6.844 9.766 3.574-2.969 5.812-6.16 6.844-9.766.918-3.207.75-6.277.605-8.984l-.05-1.024a23.332 23.332 0 0 0-14.798 0v.29a9.376 9.376 0 0 1-.05.714v.02Z" fill="#1D1D1B"/><path d="M104.977 20.516c-.145 2.68-.309 5.714.593 8.855.98 3.438 3.102 6.504 6.465 9.375 3.367-2.855 5.469-5.922 6.469-9.375.902-3.125.738-6.18.59-8.86l-.031-.753a22.93 22.93 0 0 0-14.043 0l-.04.738-.003.02Z" fill="#1D1D1B"/><path d="m112.031 38.828-.047-.039c-3.379-2.867-5.504-5.941-6.492-9.375-.883-3.18-.734-6.219-.59-8.902l.043-.813h.047a23.008 23.008 0 0 1 14.086 0h.063l.043.805c.144 2.687.308 5.73-.594 8.887-.988 3.453-3.125 6.527-6.492 9.375l-.067.062Zm-6.953-19.012-.035.704c-.145 2.671-.309 5.703.586 8.832.976 3.41 3.07 6.445 6.394 9.28 3.329-2.835 5.422-5.859 6.399-9.28.894-3.125.73-6.16.586-8.836l-.035-.7a22.746 22.746 0 0 0-13.895 0Z" fill="#1D1D1B"/><path d="M105.176 20.676c-.145 2.629-.305 5.605.578 8.683.965 3.371 3.039 6.375 6.34 9.176 3.3-2.8 5.379-5.805 6.344-9.176.878-3.078.718-6.058.578-8.687l-.04-.738a22.508 22.508 0 0 0-13.765 0l-.035.722v.02Z" fill="#FFF"/><path d="M112.11 38.574c-3.305-2.804-5.383-5.812-6.352-9.191-.883-3.082-.723-6.063-.578-8.692l.039-.78a22.5 22.5 0 0 1 13.781 0h.023l.036.757c.144 2.629.304 5.61-.579 8.695-.968 3.38-3.046 6.387-6.351 9.192l-.02.02Zm-6.872-18.617-.035.723c-.14 2.62-.3 5.597.578 8.672.961 3.359 3.028 6.351 6.313 9.144 3.285-2.793 5.351-5.785 6.312-9.144.883-3.075.723-6.051.578-8.676l-.035-.719a22.395 22.395 0 0 0-13.71 0Z" fill="#1D1D1B"/><path fill="url(#a)" d="M2.086 2.746v.02l-.035.722-.238 1.742.14 2.43.192 2.227.222 1.258.262 1.027.289 1.187.645 1.274.742 1.492.617.848 1.801 2.23 2.246 2.145 1.48-1.356 1.293-1.39.645-.817.465-.617.515-.766.422-.703z" transform="translate(103.125 17.188)"/><path d="M112.031 38.77h-.02c-3.37-2.864-5.491-5.926-6.476-9.375-.902-3.149-.738-6.188-.594-8.872l.043-.78a22.875 22.875 0 0 1 14.063 0h.02l.038.78c.145 2.684.31 5.727-.593 8.875-.985 3.446-3.106 6.508-6.477 9.375l-.004-.003ZM105.04 19.78l-.039.735c-.148 2.68-.313 5.71.59 8.847.98 3.43 3.086 6.48 6.437 9.328 3.352-2.847 5.47-5.898 6.442-9.328.898-3.125.734-6.172.59-8.851l-.04-.73a22.918 22.918 0 0 0-13.984 0h.004Z" fill="#1D1D1B"/><path d="M111.96 38.781c-3.48-2.949-5.546-5.886-6.507-9.238-.906-3.172-.742-6.223-.598-8.918l.047-.883.121-.035a23.047 23.047 0 0 1 14.149 0l-.106.348a22.762 22.762 0 0 0-13.816-.04l-.031.63c-.145 2.668-.309 5.687.586 8.8.949 3.325 2.922 6.117 6.39 9.059l-.234.277Z" fill="#1D1D1B"/></g></g></g></svg>
