<?xml version="1.0" encoding="UTF-8" standalone="no"?>
<!-- Created with Inkscape (http://www.inkscape.org/) -->
<svg
   xmlns:svg="http://www.w3.org/2000/svg"
   xmlns="http://www.w3.org/2000/svg"
   version="1.0"
   width="592"
   height="129"
   viewBox="0 -0.064 592 129"
   id="svg2"
   xml:space="preserve">
	<defs
   id="defs4">
	</defs>
	<g
   id="g6">
		<path
   d="M 110.081,55.446 C 109.503,55.716 108.999,55.354 108.393,55.419 L 106.846,55.753 L 106.705,55.716 C 105.932,56.321 104.889,56.054 104.014,56.394 C 103.744,56.695 103.369,56.427 103.104,56.695 C 102.53,56.832 101.956,56.832 101.385,57.066 C 100.276,56.765 99.237,57.269 98.155,57.4 L 97.112,57.974 C 96.503,58.013 95.924,58.181 95.385,58.281 C 94.819,58.078 94.252,58.314 93.705,58.482 C 92.494,58.816 91.756,57.607 90.642,57.707 C 90.435,57.471 90.072,57.57 89.837,57.471 C 89.728,57.471 89.591,57.641 89.564,57.471 C 89.255,57.471 88.962,57.471 88.658,57.373 C 88.385,57.205 88.181,56.865 87.853,56.935 C 87.572,56.968 87.646,56.558 87.376,56.695 C 87.032,56.466 86.563,56.558 86.22,56.394 L 84.509,56.498 L 84.446,56.443 C 84.419,56.404 84.098,56.427 84.098,56.427 C 83.602,56.466 83.094,56.63 82.586,56.531 C 81.781,56.695 81.078,57.066 80.231,57.205 C 79.626,57.471 79.149,57.975 78.485,58.111 C 77.938,57.974 77.333,58.215 76.794,58.314 C 76.255,58.482 75.649,58.548 75.079,58.548 C 74.743,58.548 74.501,58.782 74.204,58.782 C 73.36,59.292 72.212,58.891 71.579,59.696 C 71.102,59.899 70.727,60.2 70.263,60.434 C 69.962,60.702 69.525,60.358 69.251,60.659 C 68.849,60.659 68.579,60.817 68.173,60.751 C 67.782,60.823 67.669,60.942 67.431,60.872 C 67.15,60.778 67.142,60.987 66.79,60.911 C 66.29,60.565 65.681,60.839 65.306,61.14 C 65.009,61.107 65.177,61.48 64.908,61.513 C 64.17,61.851 63.9,62.661 63.494,63.333 C 63.025,63.601 63.353,64.202 63.119,64.575 L 63.189,65.757 C 62.58,66.736 63.931,67.173 63.759,68.179 C 63.962,68.382 63.861,68.759 64.064,68.884 L 64.4,69.693 C 64.568,70.099 64.431,70.568 64.709,70.978 C 64.869,71.412 65.35,71.716 65.451,72.187 L 66.697,72.56 L 67.162,73.162 C 67.771,73.271 68.373,73.435 69.014,73.473 C 69.119,73.539 69.19,73.676 69.346,73.637 C 69.854,73.807 70.369,73.977 70.869,74.102 C 71.103,74.211 71.338,74.342 71.58,74.278 C 72.518,74.616 73.533,74.749 74.475,75.089 L 74.577,75.224 C 75.018,75.355 75.35,75.591 75.788,75.695 C 76.097,76.029 76.597,75.996 76.897,76.297 C 77.272,76.297 77.502,76.641 77.874,76.674 C 78.487,76.674 78.753,77.309 79.362,77.309 C 79.8,77.516 80.163,77.78 80.671,77.889 C 80.874,78.19 81.276,78.086 81.55,78.36 C 82.058,78.594 82.331,78.999 82.863,79.202 C 83.035,79.47 83.301,79.673 83.633,79.77 C 83.801,80.004 84.176,80.141 84.278,80.475 L 84.309,80.411 L 84.512,80.548 C 84.856,80.743 85.219,80.816 85.489,81.017 C 86.298,81.214 87.106,81.488 87.919,81.652 L 87.985,81.761 C 88.321,81.794 88.719,81.761 88.926,82.025 C 90.918,82.802 92.996,83.714 95.258,84.048 C 96.469,84.316 97.883,84.419 99.067,84.857 C 100.106,85.228 101.083,85.666 102.161,86.005 C 102.677,86.075 103.145,86.333 103.681,86.411 C 103.845,86.743 104.353,86.54 104.693,86.606 C 104.756,86.606 104.826,86.71 104.787,86.813 C 105.498,87.141 106.307,87.35 107.017,87.723 C 107.216,87.618 107.318,87.957 107.521,87.787 C 107.72,87.918 107.998,88.158 108.365,88.06 C 108.365,88.087 108.459,88.158 108.537,88.087 C 108.693,88.394 109.162,88.36 109.435,88.53 L 110.857,88.934 C 111.31,89.071 111.755,89.186 112.216,89.284 L 112.216,54.884 C 111.464,54.972 110.722,54.972 110.081,55.446 M 42.19,32.79 C 42.866,32.823 43.163,32.899 43.87,32.796 C 44.179,33.064 44.581,33.239 44.987,33.343 C 45.053,33.435 44.987,33.419 45.217,33.353 C 45.416,33.49 45.643,33.501 45.877,33.605 C 46.182,33.775 46.205,34.173 46.494,34.398 C 46.693,34.535 46.658,34.556 46.869,34.787 C 47.142,34.836 47.041,35.088 47.041,35.088 C 47.057,35.131 47.221,35.936 46.916,36.209 C 46.447,36.883 46.353,37.133 45.947,37.811 C 45.58,38.178 45.369,38.749 45.205,39.284 C 45.268,39.315 45.268,39.421 45.268,39.491 C 44.901,39.622 44.998,40.093 44.694,40.296 C 44.659,40.765 44.495,41.171 44.526,41.679 C 44.221,41.913 44.393,42.281 44.151,42.515 C 43.924,43.226 43.924,44.201 44.323,44.747 C 44.561,45.212 44.526,45.714 44.858,46.19 C 44.999,46.628 45.432,46.858 45.706,47.196 C 45.737,47.569 46.476,48.208 46.476,48.208 L 47.14,48.515 L 47.238,48.411 C 47.41,48.542 47.824,48.684 47.926,48.952 C 48.391,49.22 49.055,49.395 49.387,49.806 C 49.66,50.04 49.66,50.478 49.739,50.851 C 50.204,51.019 50.083,51.464 50.395,51.83 C 50.524,52.437 49.012,53.498 48.512,53.869 C 47.864,54.203 47.36,54.674 46.754,55.117 L 46.586,55.555 C 45.809,55.719 45.309,56.43 44.668,56.801 C 44.363,57.172 43.855,57.135 43.488,57.403 C 43.285,57.337 43.121,57.102 42.847,57.173 C 42.245,57.376 42.277,58.017 41.839,58.382 C 41.8,58.618 41.566,58.722 41.37,58.859 C 41.19,58.82 41.026,58.963 40.921,59.088 C 40.558,59.061 40.187,59.061 39.948,59.324 C 39.651,59.904 39.073,60.035 38.534,60.269 C 38.397,60.505 38.096,60.269 37.932,60.412 C 37.627,60.506 37.291,60.642 36.979,60.707 C 36.682,60.877 36.311,60.916 36.002,61.014 C 35.705,61.184 35.471,61.655 35.064,61.616 C 34.97,61.923 34.556,61.895 34.423,62.163 C 34.056,62.327 33.579,62.436 33.243,62.698 C 32.938,62.798 32.634,63.032 32.337,63.032 C 32.001,63.268 31.665,63.503 31.259,63.536 C 31.056,63.776 30.954,64.116 30.587,64.147 C 30.009,64.182 29.704,64.721 29.235,64.854 C 28.829,65.055 28.43,65.258 28.196,65.663 C 27.891,65.729 27.821,65.997 27.626,66.134 C 26.774,67.14 25.845,67.616 24.899,68.556 C 24.633,68.726 24.458,68.999 24.227,69.197 C 24.02,69.234 24.051,69.47 23.891,69.535 C 23.516,69.738 23.25,70.051 22.914,70.215 C 22.844,70.516 22.473,70.516 22.406,70.783 C 22.035,71.023 21.765,71.357 21.562,71.722 L 21.496,71.624 C 21.43,71.821 21.246,71.946 21.156,71.894 C 20.957,71.931 20.758,72.089 20.656,72.265 C 20.418,72.396 20.015,72.566 20.078,72.898 C 19.844,73.207 19.539,73.544 19.172,73.544 C 18.906,73.845 18.531,74.052 18.328,74.386 C 17.555,74.62 17.055,75.07 16.484,75.577 C 16.351,75.95 15.871,76.087 15.574,76.288 C 15.304,76.288 15.039,76.354 14.867,76.589 C 14.594,76.589 14.344,76.689 14.168,76.956 C 13.563,77.087 13.07,77.661 12.469,77.524 C 11.727,77.727 11.016,77.323 10.547,76.788 C 10.477,76.415 10.375,76.239 10.106,75.933 C 9.868,75.228 9.938,74.456 10.071,73.745 C 9.868,73.307 10.305,72.897 10.106,72.499 C 10.172,72.128 10.106,71.755 10.071,71.384 C 9.868,71.22 10.071,70.816 9.899,70.573 C 9.704,70.278 9.868,69.843 9.868,69.534 C 9.665,69.096 10.04,68.522 9.634,68.157 C 9.228,67.981 9.259,67.55 8.958,67.315 C 8.993,67.042 8.688,67.008 8.728,66.772 C 8.556,66.374 8.283,65.997 8.283,65.559 C 8.119,64.952 8.283,64.311 7.916,63.815 C 7.955,63.606 7.752,63.436 7.853,63.268 C 7.615,62.295 7.275,61.276 7.111,60.27 C 6.939,59.905 6.771,59.532 6.705,59.088 C 6.338,58.619 6.127,57.979 6.103,57.338 C 5.63,56.869 5.392,56.229 5.123,55.588 C 4.955,55.287 5.021,54.916 4.822,54.649 C 4.752,54.014 4.619,53.501 4.213,53.003 C 4.244,52.763 3.971,52.763 3.971,52.532 C 3.604,51.915 3.436,51.214 3.174,50.575 C 2.697,49.897 2.432,49.126 2.088,48.382 C 1.377,47.677 1.822,46.566 1.518,45.757 C 1.213,45.013 1.518,44.275 1.448,43.499 C 1.448,42.655 1.417,41.743 1.284,40.868 C 1.112,40.534 1.249,39.993 0.807,39.796 C 0.744,39.353 0.369,38.982 0.307,38.55 C 0.104,38.374 0.205,38.04 0.065,37.806 C -0.13,37.269 0.167,36.8 0.237,36.257 C 0.37,36.023 0.104,35.722 0.37,35.482 C 0.472,35.345 0.573,35.082 0.745,34.98 C 1.112,34.13 1.479,33.3 2.026,32.621 C 2.12,32.42 2.292,32.217 2.323,31.949 C 3.237,30.67 4.753,32.01 5.768,31.135 C 5.995,31.069 6.206,31.069 6.37,30.84 C 7.983,30.633 9.667,32.026 11.218,32.43 C 12.097,32.731 12.87,33.442 13.882,33.311 C 14.214,33.207 14.589,33.235 14.855,33.032 C 15.8,32.94 16.636,33.098 17.621,33.098 C 18.09,33.137 18.559,32.797 19.035,32.994 L 19.137,32.933 C 20.551,32.994 21.903,33.468 23.246,33.064 C 23.512,33.031 23.816,33.136 24.051,32.966 C 25.403,32.993 26.614,32.325 27.957,32.325 C 28.199,32.391 28.496,32.391 28.77,32.358 C 29.442,32.659 30.184,33.096 30.856,33.135 C 31.426,33.03 32.067,32.631 32.676,32.932 C 33.114,33.03 33.551,32.905 33.996,32.828 C 34.496,32.764 34.863,33.096 35.371,33.029 L 35.473,33.134 C 36.184,33.198 36.848,32.904 37.555,32.864 C 38.473,32.827 39.309,32.657 40.215,32.454 C 40.964,32.483 41.448,32.587 42.19,32.79"
   style="fill:#007839"
   id="path8" />
		<path
   d="M 33.034,110.489 C 33.268,110.085 33.167,109.719 33.3,109.276 C 33.405,108.975 33.605,108.708 33.675,108.368 C 33.941,108.067 33.941,107.597 34.245,107.296 C 34.28,107.198 34.218,106.958 34.417,106.989 C 34.487,106.423 34.823,106.083 35.058,105.573 C 35.089,105.475 35.019,105.339 35.156,105.339 C 35.289,104.7 35.73,104.234 35.996,103.726 L 36.098,103.763 C 36.266,103.452 36.368,103.118 36.645,102.911 C 36.84,102.44 37.247,102.14 37.247,101.63 C 37.388,101.435 37.583,101.271 37.548,101.028 C 37.286,100.29 37.954,99.821 38.056,99.11 L 38.056,98.973 C 38.326,98.606 38.427,98.168 38.661,97.797 C 38.794,97.627 38.794,97.359 38.958,97.256 C 39.231,96.713 39.575,96.276 39.806,95.707 C 39.939,95.676 39.911,95.537 39.974,95.473 C 40.177,95.303 40.349,95.03 40.412,94.762 C 41.017,94.155 41.088,93.215 41.725,92.639 C 41.959,91.973 42.498,91.53 42.905,90.928 C 43.108,90.725 43.249,90.387 43.44,90.217 C 43.581,89.844 43.85,89.543 44.116,89.205 C 44.389,88.199 45.432,87.422 45.87,86.443 C 46.104,86.443 46.011,86.103 46.21,86.043 C 46.546,85.398 47.116,84.895 47.343,84.18 C 47.554,83.864 47.835,83.791 48.003,83.387 C 48.066,83.348 48.218,83.336 48.233,83.178 C 48.436,83.014 48.514,82.977 48.682,82.774 C 48.936,82.715 48.873,82.604 49.069,82.544 L 49.217,82.458 C 49.244,82.435 49.272,82.413 49.303,82.392 C 49.303,82.392 49.303,82.392 49.311,82.392 C 49.311,82.392 50.081,82.037 50.213,81.693 C 50.787,81.293 50.889,80.621 51.225,80.117 C 51.366,79.674 51.733,79.408 51.936,79.002 C 52.131,78.598 52.389,78.066 52.506,77.756 C 52.436,77.467 52.42,77.401 52.35,77.164 C 52.834,76.344 52.569,75.24 52.264,74.359 C 52.162,73.685 51.756,72.98 51.084,72.642 C 50.615,72.406 50.6,71.941 50.162,71.706 C 50.123,71.651 50.213,71.591 50.146,71.569 C 50.083,71.514 50.009,71.503 49.927,71.469 C 49.904,71.448 49.876,71.426 49.857,71.393 C 49.806,71.393 49.763,71.377 49.724,71.356 C 49.712,71.344 49.704,71.333 49.693,71.323 C 49.673,71.323 49.654,71.317 49.638,71.305 C 49.466,71.18 49.505,70.907 49.31,70.782 C 49.169,70.212 48.626,69.874 48.392,69.3 C 48.216,68.571 47.63,67.851 46.88,67.523 C 46.614,67.386 46.325,67.287 46.021,67.271 C 45.505,67.212 45.005,66.822 44.474,66.806 C 44.427,66.794 44.388,66.79 44.357,66.779 L 44.334,66.736 C 43.725,66.566 43.389,66.67 42.779,66.566 C 42.474,66.697 42.107,66.566 41.771,66.63 C 41.638,66.767 41.373,66.566 41.298,66.767 L 41.263,66.736 C 40.923,66.904 40.626,66.84 40.286,66.937 C 39.95,67.074 39.614,67.003 39.348,67.271 C 38.168,67.441 37.02,67.912 36.004,68.382 C 35.566,68.382 35.172,68.622 34.77,68.79 C 34.665,68.856 34.665,69.06 34.497,68.923 C 33.313,69.601 31.974,69.935 30.923,70.874 C 30.556,70.94 30.286,71.147 29.943,71.214 C 29.443,71.548 28.935,71.913 28.435,72.259 C 28.201,72.323 28.126,72.626 27.927,72.663 C 27.763,73.095 27.325,73.329 26.95,73.571 C 26.747,74.036 26.208,73.872 25.907,74.176 C 25.161,74.449 24.626,75.086 23.817,75.254 C 22.098,76.5 20.145,77.371 18.497,78.754 C 18.325,78.824 18.427,79.061 18.224,79.022 C 17.661,79.723 17.048,80.483 16.357,81.106 C 15.646,81.659 14.904,82.184 14.318,82.598 C 13.99,82.797 13.576,83.026 13.17,83.026 C 12.865,83.114 12.654,83.376 12.42,83.579 C 11.861,83.747 11.936,84.075 11.475,84.339 C 11.1,84.907 10.545,85.443 10.162,85.915 C 10.209,86.122 10.42,86.351 10.267,86.63 C 10.302,87.341 10.451,87.538 10.513,88.243 C 10.38,88.376 10.318,88.61 10.38,88.786 C 10.653,88.95 10.341,89.425 10.677,89.589 C 10.779,90.3 11.2,90.704 11.232,91.443 C 11.509,91.951 11.474,92.552 11.88,92.959 C 12.888,94.375 13.138,96.01 14.255,97.328 C 14.552,97.693 14.521,98.131 14.521,98.607 L 14.724,99.853 C 15.263,101.009 15.888,101.976 16.412,103.052 C 16.545,103.468 16.67,103.896 16.818,104.322 C 17.013,105.4 17.146,106.412 17.552,107.418 C 17.384,107.592 17.454,107.889 17.521,108.096 C 17.455,108.528 17.72,108.971 17.72,109.409 C 17.755,109.542 17.958,109.612 17.849,109.776 C 17.384,111.635 18.193,113.28 19.31,114.692 C 19.677,115.473 19.31,116.376 19.474,117.153 C 19.31,118.001 19.74,118.553 19.912,119.362 C 20.365,119.815 21.17,119.499 21.693,119.887 C 21.802,119.924 21.881,120.002 21.943,120.084 L 22.033,120.084 L 21.998,120.084 C 22.029,120.105 22.053,120.133 22.076,120.16 C 22.404,120.291 23.088,120.515 23.373,120.248 C 23.795,120.215 24.146,120.346 24.607,120.193 C 25.162,120.816 26.037,120.443 26.771,120.521 C 26.771,120.521 27.701,120.06 27.724,120.06 C 27.787,119.722 28.302,119.677 28.497,119.449 C 28.466,119.045 29.001,119.109 29.075,118.738 C 29.263,118.431 29.341,118.638 29.434,118.486 C 29.598,118.213 29.707,118.234 29.942,118 C 29.93,117.826 29.997,117.693 30.071,117.572 C 30.294,117.408 30.544,117.261 30.575,117.058 C 30.778,116.724 30.848,116.32 31.114,116.019 C 31.079,115.648 31.348,115.412 31.489,115.074 C 31.591,114.974 31.52,114.767 31.692,114.67 C 31.786,114.369 32.059,114.1 31.989,113.756 C 32.028,113.729 32.059,113.729 32.091,113.729 L 32.364,113.024 C 32.532,112.383 32.77,111.739 32.895,111.202 C 33.136,111.032 33.034,110.698 33.034,110.489"
   style="fill:#007839"
   id="path10" />
		<path
   d="M 112.183,27.446 L 112.183,0.19 C 111.671,0.143 111.292,-0.031 110.777,0.004 C 109.929,0.108 109.629,0.24 108.949,0.551 C 108.347,0.512 108.347,0.887 107.808,0.719 C 107.507,0.588 106.995,0.944 106.73,0.78 C 106.128,0.743 105.554,0.844 104.98,1.083 C 104.738,1.183 104.542,1.317 104.371,1.382 C 104.137,1.446 103.832,1.486 103.633,1.62 C 103.028,1.825 103.195,2.563 102.59,2.667 C 101.613,3.04 100.738,3.542 99.895,4.21 C 99.153,4.481 98.606,5.263 98.075,5.69 C 96.962,6.708 95.512,6.938 94.403,7.919 C 93.833,8.114 93.333,8.524 92.887,8.864 C 92.621,8.927 92.449,9.165 92.215,9.266 C 92.008,9.537 91.703,9.633 91.539,9.903 C 90.965,10.176 90.363,10.378 89.855,10.743 C 89.148,11.286 88.339,11.52 87.628,11.927 C 86.894,12.499 85.98,12.907 85.105,13.107 C 84.703,13.238 84.332,13.576 83.925,13.615 C 83.292,13.879 82.683,14.318 82.175,14.787 C 81.605,15.498 80.862,16.269 80.253,16.947 C 79.714,17.15 79.245,17.517 78.769,17.855 C 78.503,17.955 78.265,18.162 78.035,18.259 C 77.625,18.73 76.988,18.833 76.59,19.267 C 76.285,19.24 76.113,19.605 75.809,19.572 C 75.34,19.705 74.965,19.906 74.567,20.115 C 73.958,20.584 73.153,20.683 72.442,20.787 C 72.004,20.787 71.567,21.094 71.161,20.924 C 70.723,21.264 70.118,20.951 69.684,21.322 C 69.371,21.531 69.036,21.695 68.739,21.826 C 68.098,22.166 67.63,22.537 67.051,22.871 C 65.77,23.209 64.528,23.685 63.145,23.758 C 62.481,23.801 62.489,23.619 61.965,23.713 C 61.735,23.582 61.301,23.637 61.137,23.74 L 61.133,23.746 C 60.426,23.68 60.426,24.26 59.82,24.435 C 58.808,24.63 58.027,25.615 57.082,26.091 C 56.48,26.665 55.547,26.568 54.91,27.07 C 54.094,27.306 52.941,27.881 52.785,27.881 C 52.402,27.733 51.879,28.279 51.472,28.279 C 51.269,28.416 50.956,28.81 50.749,28.908 C 50.581,28.771 50.448,29.008 50.284,28.947 C 49.975,29.142 49.511,29.127 49.307,29.467 C 48.799,29.865 48.409,29.615 48.51,30.254 C 48.233,30.455 48.369,30.822 48.307,31.02 C 48.846,31.522 48.807,32.26 49.416,32.633 C 49.416,32.906 49.713,32.867 49.854,32.998 C 50.424,33.031 50.69,33.541 51.233,33.572 C 51.471,33.845 51.944,33.781 52.143,34.146 C 52.346,34.416 52.62,34.771 52.885,34.935 C 53.494,34.841 53.791,35.099 54.26,35.339 C 54.401,35.47 54.635,35.372 54.776,35.573 C 55.073,35.54 55.37,35.782 55.698,35.677 C 55.936,36.122 56.479,36.099 56.647,36.575 C 56.948,36.575 57.026,36.934 57.26,37.098 C 57.526,37.067 57.573,37.301 57.776,37.471 C 58.292,37.973 58.745,38.188 58.846,38.793 C 58.948,39.094 59.127,39.203 59.159,39.537 C 59.022,39.767 59.608,39.975 59.542,40.144 C 59.608,40.511 59.952,40.849 59.89,41.222 C 59.995,41.517 59.847,41.855 60.019,42.161 C 60.394,42.647 59.816,42.905 60.027,43.272 C 60.054,43.446 59.863,43.288 59.949,43.573 C 60.324,44.12 60,44.721 60.238,45.29 L 59.945,46.394 C 59.582,46.722 59.683,47.046 59.277,47.347 C 59.058,47.839 58.191,48.189 58.261,48.663 C 58.355,49.167 58.073,49.501 58.347,49.839 C 58.913,49.976 58.605,50.583 59.042,50.851 C 59.753,51.152 61.644,52.099 62.48,52.132 C 62.718,51.929 62.925,52.236 63.191,52.163 C 63.394,52.573 63.761,52.202 64.097,52.268 L 64.171,52.163 C 64.64,52.132 65.144,51.999 65.651,52.065 C 66.229,52.235 66.893,52.065 67.331,51.928 L 67.737,51.862 C 68.374,51.628 68.956,51.327 69.456,50.956 C 69.726,50.983 69.831,50.747 70.026,50.616 C 70.464,50.479 70.901,50.212 71.374,50.145 C 71.714,49.938 72.05,49.643 72.456,49.67 C 72.753,49.467 73.163,49.537 73.499,49.373 C 74.913,48.564 75.854,47.213 77.542,47.045 C 78.823,46.373 80.065,46.137 81.347,45.459 C 81.417,45.523 81.613,45.459 81.652,45.563 C 82.355,45.256 83.097,44.858 83.902,44.819 C 85.285,44.315 86.332,43.339 87.742,42.905 C 88.285,42.801 88.691,42.428 89.129,42.124 C 89.832,41.495 90.918,41.581 91.684,41.058 L 91.926,41.013 C 92.961,40.575 94.11,40.077 94.887,39.093 C 95.387,38.831 95.864,38.558 96.367,38.224 C 96.808,37.546 97.652,37.279 98.32,36.808 L 98.996,36.027 C 99.297,35.961 99.504,35.666 99.738,35.496 C 100.308,35.223 100.785,34.785 101.351,34.381 C 101.82,34.32 102.16,33.779 102.531,33.57 C 102.801,33.369 103.176,33.369 103.34,33.068 C 103.508,32.63 104.047,32.8 104.317,32.461 C 104.856,32.363 105.161,31.859 105.637,31.684 L 107.145,30.914 C 108.059,30 109.372,30.398 110.083,29.256 C 110.903,28.649 111.165,28.02 112.099,27.567 M 34.909,119.794 L 35.487,119.995 C 36.495,120.138 37.776,119.403 38.706,119.272 C 39.034,119.508 39.581,119.585 39.936,119.551 C 40.612,119.682 41.135,119.311 41.791,119.557 C 42.377,119.524 43.041,119.36 43.541,119.694 C 44.08,119.639 44.725,120.274 45.291,120.286 C 47.729,120.214 49.768,118.835 52.088,119.809 C 54.24,119.819 56.033,121.372 58.19,121.389 C 58.225,121.526 58.542,121.389 58.506,121.553 C 59.654,121.641 60.916,121.635 61.994,122.17 C 64.154,122.477 66.228,123.516 68.385,123.941 C 69.166,124.193 69.971,123.984 70.76,123.89 C 72.143,123.535 73.479,124.439 74.877,124.269 L 75.205,124.4 C 76.889,124.554 78.643,124.509 80.471,124.039 C 81.33,124.039 82.131,124.674 83.041,124.58 C 84.1,123.996 85.4,124.992 86.615,124.838 L 88.056,125.527 C 88.501,125.658 88.986,125.675 89.415,125.619 C 90.36,125.668 91.298,126.664 92.337,126.533 C 92.993,126.773 94.732,127.199 95.353,127.195 C 95.861,127.117 96.341,127.386 96.783,127.097 C 97.326,126.632 97.9,127.243 98.502,126.982 C 99.272,127.234 100.041,127.562 100.775,127.675 L 103.314,127.726 C 105.162,127.156 106.58,129.152 108.337,128.128 C 109.849,127.899 111.353,127.429 112.2,127.526 L 112.204,111.122 C 112.149,111.106 111.946,110.952 111.946,110.952 C 111.841,110.915 111.696,110.893 111.587,110.87 C 111.017,110.663 110.814,110.548 110.243,110.515 C 110.009,110.38 109.704,110.314 109.43,110.281 C 108.844,109.968 108.25,109.892 107.68,109.621 C 107.625,109.582 107.563,109.558 107.504,109.516 C 107.238,109.418 107.195,109.078 106.899,109.012 C 106.895,109.012 106.883,109.002 106.883,109.002 C 106.582,108.738 106.188,108.598 105.961,108.334 C 105.918,108.328 105.891,108.324 105.867,108.313 C 105.836,108.297 105.812,108.282 105.797,108.258 C 105.621,108.237 105.461,108.192 105.313,108.115 C 105.024,107.972 104.782,107.771 104.54,107.595 C 104.517,107.601 104.497,107.595 104.477,107.595 C 104.45,107.568 104.418,107.54 104.383,107.519 C 104.328,107.525 104.266,107.519 104.203,107.498 C 104.156,107.471 104.101,107.426 104.07,107.394 C 104.031,107.388 104.004,107.371 103.965,107.367 C 103.945,107.349 103.922,107.328 103.906,107.316 C 103.859,107.306 103.812,107.295 103.773,107.279 C 103.585,107.175 103.437,107.027 103.234,106.957 C 103.171,106.914 103.093,106.879 103.019,106.863 C 102.773,106.668 102.492,106.513 102.203,106.371 C 101.758,106.152 101.273,105.982 100.832,105.775 C 100.812,105.638 100.695,105.578 100.57,105.535 C 100.504,105.49 100.414,105.457 100.32,105.426 C 100.289,105.283 100.195,105.229 100.074,105.196 C 99.961,105.098 99.781,105.098 99.609,105.071 C 99.562,104.874 99.375,104.889 99.281,104.7 C 99.242,104.692 99.195,104.671 99.148,104.655 C 99.144,104.643 99.132,104.637 99.132,104.628 C 98.898,104.567 98.667,104.442 98.46,104.364 C 96.999,103.239 95.468,102.231 94.163,100.833 C 93.561,100.226 93.054,99.442 92.479,98.841 C 92.041,98.267 91.37,97.999 90.959,97.458 C 90.584,97.288 90.225,97.054 90.053,96.653 C 90.002,96.649 89.959,96.632 89.912,96.61 C 89.912,96.598 89.904,96.589 89.896,96.571 C 89.873,96.567 89.849,96.561 89.826,96.555 C 89.662,96.44 89.529,96.25 89.334,96.2 C 89.287,96.161 89.236,96.139 89.186,96.124 C 89.116,95.987 89.061,95.833 88.905,95.829 C 88.866,95.784 88.819,95.751 88.757,95.747 C 88.718,95.686 88.648,95.642 88.577,95.642 C 88.55,95.615 88.522,95.595 88.487,95.583 C 88.319,95.44 88.186,95.216 87.967,95.149 C 87.912,95.112 87.858,95.085 87.795,95.073 C 87.486,94.882 87.272,94.571 86.928,94.434 C 86.865,94.407 86.795,94.379 86.729,94.352 C 86.366,94.039 85.889,93.842 85.475,93.547 C 85.463,93.547 85.452,93.547 85.444,93.547 C 85.401,93.526 85.358,93.504 85.315,93.477 C 85.127,93.504 84.936,93.461 84.756,93.383 C 84.576,93.285 84.412,93.164 84.256,93.043 C 84.221,93.033 84.186,93.016 84.143,93.006 C 84.131,92.988 84.116,92.985 84.096,92.969 C 82.893,92.496 81.811,92.262 80.631,91.731 C 80.565,91.694 80.49,91.667 80.42,91.657 C 80.404,91.645 80.397,91.639 80.385,91.634 L 80.42,91.595 C 80.385,91.531 80.357,91.464 80.322,91.431 C 80.267,91.415 80.217,91.388 80.17,91.367 C 80.162,91.367 80.162,91.355 80.158,91.355 C 80.146,91.349 80.131,91.339 80.115,91.334 C 79.752,91.131 79.494,90.771 79.17,90.492 C 79.139,90.486 79.107,90.474 79.076,90.471 C 79.053,90.448 79.045,90.432 79.021,90.416 C 78.982,90.41 78.951,90.398 78.916,90.389 C 78.736,90.264 78.627,90.037 78.432,89.918 C 78.147,89.787 78.077,89.486 77.811,89.426 C 77.791,89.405 77.76,89.387 77.733,89.377 C 77.178,88.742 76.936,88.02 76.28,87.49 C 76.178,87.457 76.241,87.254 76.077,87.254 C 76.112,87.057 75.983,86.92 75.804,86.844 C 75.882,86.61 75.468,86.647 75.507,86.379 C 75.382,86.227 75.249,86.051 75.054,85.998 C 75.027,85.975 74.999,85.953 74.964,85.941 C 74.21,85.17 73.671,84.382 72.812,83.82 C 72.484,83.629 72.156,83.306 71.789,83.152 C 71.656,83.082 71.519,83.027 71.371,83 C 71.363,83 71.355,82.994 71.344,82.994 C 71.266,82.933 71.211,82.857 71.227,82.742 C 71.149,82.687 71.133,82.775 71.118,82.851 C 71.079,82.798 71.063,82.736 71.071,82.665 C 70.969,82.599 70.969,82.763 70.938,82.835 C 70.852,82.829 70.774,82.798 70.704,82.763 C 70.415,82.605 70.196,82.349 69.895,82.234 C 69.852,82.213 69.821,82.189 69.782,82.179 C 69.766,82.167 69.759,82.167 69.751,82.161 C 69.72,82.151 69.688,82.134 69.657,82.13 C 69.618,82.069 69.548,82.079 69.493,82.097 L 69.352,82.052 C 69.352,82.042 69.344,82.036 69.344,82.021 L 68.758,81.83 C 68.68,81.748 68.578,81.687 68.469,81.648 C 68.281,81.539 68.047,81.502 67.844,81.414 C 67.656,81.271 67.446,81.158 67.227,81.064 C 67,80.943 66.77,80.861 66.555,80.773 C 66.055,80.773 65.633,80.484 65.196,80.337 C 65.04,80.216 64.891,80.04 64.708,79.985 C 64.603,79.919 63.767,80.083 63.642,80.116 C 62.74,80.401 62.783,80.489 62.048,81.067 C 61.939,81.172 61.732,81.057 61.732,81.249 C 61.459,81.495 61.459,81.462 60.931,81.544 C 60.853,81.593 60.771,81.702 60.701,81.687 C 60.603,81.621 60.506,81.921 60.4,81.894 C 60.291,81.824 60.17,81.955 60.025,82.021 C 59.619,82.255 59.451,82.699 59.013,82.873 C 58.814,82.963 58.638,83.273 58.439,83.41 C 58.037,84.181 57.22,84.65 56.681,85.291 C 56.423,85.834 55.677,86.035 55.544,86.707 C 55.376,86.67 55.337,86.871 55.212,86.91 C 55.142,87.111 54.939,87.139 54.872,87.381 C 54.294,87.819 53.72,88.287 53.321,88.861 C 52.712,89.672 52.106,90.416 51.567,91.318 C 51.501,91.388 51.54,91.591 51.368,91.623 C 50.22,93.381 49.18,95.26 47.829,96.978 L 47.19,97.89 C 47.088,97.99 47.127,98.191 46.956,98.224 C 46.854,98.558 46.62,98.798 46.417,99.033 C 46.315,99.471 45.979,99.81 45.776,100.15 C 45.643,100.646 45.378,101.025 45.167,101.457 C 44.694,102.703 43.96,103.717 43.421,104.93 C 43.183,105.471 42.878,105.975 42.737,106.576 C 42.471,107.117 42.549,107.855 42.174,108.33 C 41.635,109.004 41.229,109.643 40.756,110.35 C 40.69,110.59 40.354,110.655 40.385,110.918 C 39.748,111.492 39.307,112.197 38.834,112.875 C 38.908,113.209 38.533,113.379 38.533,113.652 C 38.232,113.92 37.994,114.324 37.627,114.631 C 37.658,114.828 37.424,114.899 37.385,115.069 C 36.846,116.551 35.838,117.792 35.1,119.204"
   style="fill:#007839"
   id="path12" />
		<path
   d="M 279.065,94.106 C 276.713,94.106 274.307,95.954 271.784,100.372 L 271.675,100.372 L 271.675,94.608 L 266.691,94.608 L 266.691,119.754 L 271.675,119.754 L 271.675,106.596 C 271.675,102.282 274.363,98.864 277.777,98.864 C 278.828,98.864 280.504,99.667 281.925,100.876 L 284.562,96.567 C 282.683,94.909 280.921,94.106 279.065,94.106"
   id="path14" />
		<path
   d="M 574.976,97.868 L 575.085,97.868 C 576.987,95.462 579.788,94.061 582.589,94.061 C 587.351,94.061 591.159,97.309 591.159,104.198 L 591.159,119.712 L 586.175,119.712 L 586.175,104.142 C 586.175,100.447 584.273,98.038 581.245,98.038 C 579.057,98.038 577.327,99.048 574.975,101.677 L 574.975,119.712 L 569.987,119.712 L 569.987,94.565 L 574.975,94.565 M 564.276,112.429 C 561.362,114.335 558.51,115.454 555.487,115.454 C 550.667,115.454 547.811,112.878 547.03,107.895 L 564.729,107.895 C 564.729,98.598 560.471,94.061 553.807,94.061 C 546.862,94.061 542.041,99.213 542.041,106.829 C 542.041,113.774 546.408,120.214 554.252,120.214 C 558.51,120.214 561.252,119.263 564.275,117.247 M 547.14,104.589 C 547.812,100.614 550.109,98.374 553.917,98.374 C 557.448,98.374 559.628,100.78 559.8,104.589 L 547.14,104.589 z M 532.245,119.712 L 537.229,119.712 L 537.229,81.517 L 532.245,81.517 L 532.245,119.712 z M 520.542,119.712 L 525.526,119.712 L 525.526,81.517 L 520.542,81.517 L 520.542,119.712 z M 516.565,115.231 C 515.44,116.071 514.436,116.575 513.932,116.575 C 513.315,116.575 512.979,116.237 512.979,115.286 L 512.979,102.35 C 512.979,96.637 508.948,94.061 503.854,94.061 C 500.213,94.061 497.463,95.18 495.51,97.477 L 495.51,102.911 C 497.916,100.054 500.713,98.765 503.459,98.765 C 506.486,98.765 507.994,100.054 507.994,103.189 L 507.994,104.537 L 503.568,106.103 C 499.541,107.56 495.002,109.072 495.002,114.054 C 495.002,117.302 497.463,120.214 501.162,120.214 C 503.459,120.214 505.756,119.374 507.939,117.638 C 508.384,119.431 509.564,120.214 511.752,120.214 C 513.315,120.214 514.268,119.765 516.565,118.253 M 507.995,114.614 C 506.651,115.901 505.194,116.686 503.628,116.686 C 501.558,116.686 500.042,115.231 500.042,113.159 C 500.042,110.188 503.737,108.735 507.995,107.278 L 507.995,114.614 L 507.995,114.614 z M 489.515,117.077 C 484.417,119.319 480.277,120.214 474.956,120.214 C 463.249,120.214 454.624,112.038 454.624,100.837 C 454.624,89.581 463.472,81.013 475.12,81.013 C 479.604,81.013 482.737,81.742 488.733,84.263 L 488.733,89.806 C 484.253,87.341 479.604,86.054 475.01,86.054 C 466.721,86.054 460.283,92.38 460.283,100.669 C 460.283,109.183 466.666,115.175 475.736,115.175 C 478.709,115.175 481.392,114.501 484.029,113.661 L 484.029,105.823 L 476.689,105.823 L 476.689,100.891 L 489.513,100.891 M 449.026,116.853 C 449.026,118.703 447.514,120.214 445.667,120.214 C 443.815,120.214 442.308,118.702 442.308,116.853 C 442.308,115.007 443.816,113.496 445.667,113.496 C 447.515,113.495 449.026,115.007 449.026,116.853 M 429.987,94.565 L 437.94,94.565 L 437.94,99.047 L 429.987,99.047 L 429.987,111.926 C 429.987,114.895 432.112,115.735 433.569,115.735 C 435.362,115.735 437.214,115.118 439.229,113.887 L 439.229,118.533 C 437.491,119.484 434.807,120.213 433.182,120.213 C 427.744,120.213 425.002,116.852 425.002,112.317 L 425.002,99.047 L 420.635,99.047 L 420.635,98.484 L 429.987,89.355 M 417.331,89.917 C 414.085,86.839 410.948,85.94 408.37,85.94 C 404.843,85.94 402.323,87.79 402.323,90.477 C 402.323,97.813 418.843,97.702 418.843,109.852 C 418.843,115.846 414.308,120.213 408.144,120.213 C 404.003,120.213 400.644,119.094 397.449,116.686 L 397.449,109.741 C 400.25,113.325 403.777,115.286 407.535,115.286 C 411.789,115.286 413.746,112.598 413.746,110.472 C 413.746,102.576 397.223,101.677 397.223,91.204 C 397.223,84.989 401.817,81.013 408.817,81.013 C 411.735,81.013 414.645,81.908 417.333,83.701 M 370.12,94.565 L 378.073,94.565 L 378.073,99.047 L 370.12,99.047 L 370.12,111.926 C 370.12,114.895 372.253,115.735 373.706,115.735 C 375.495,115.735 377.347,115.118 379.362,113.887 L 379.362,118.533 C 377.624,119.484 374.94,120.213 373.315,120.213 C 367.877,120.213 365.135,116.852 365.135,112.317 L 365.135,99.047 L 360.768,99.047 L 360.768,98.484 L 370.12,89.355 M 360.151,115.231 C 359.034,116.071 358.026,116.575 357.522,116.575 C 356.905,116.575 356.573,116.237 356.573,115.286 L 356.573,102.35 C 356.573,96.637 352.538,94.061 347.44,94.061 C 343.799,94.061 341.057,95.18 339.096,97.477 L 339.096,102.911 C 341.502,100.054 344.303,98.765 347.049,98.765 C 350.072,98.765 351.588,100.054 351.588,103.189 L 351.588,104.537 L 347.162,106.103 C 343.127,107.56 338.592,109.072 338.592,114.054 C 338.592,117.302 341.057,120.214 344.752,120.214 C 347.049,120.214 349.346,119.374 351.525,117.638 C 351.978,119.431 353.15,120.214 355.338,120.214 C 356.904,120.214 357.854,119.765 360.151,118.253 M 353.206,84.54 C 351.753,84.54 350.577,85.661 350.577,87.116 C 350.577,88.575 351.753,89.751 353.206,89.751 C 354.667,89.751 355.784,88.575 355.784,87.116 C 355.784,85.661 354.667,84.54 353.206,84.54 z M 342.796,84.54 C 341.339,84.54 340.159,85.661 340.159,87.116 C 340.159,88.575 341.339,89.751 342.796,89.751 C 344.253,89.751 345.37,88.575 345.37,87.116 C 345.37,85.661 344.253,84.54 342.796,84.54 z M 351.589,114.614 C 350.245,115.901 348.784,116.686 347.222,116.686 C 345.148,116.686 343.632,115.231 343.632,113.159 C 343.632,110.188 347.331,108.735 351.589,107.278 L 351.589,114.614 z M 326.44,94.565 L 334.393,94.565 L 334.393,99.047 L 326.44,99.047 L 326.44,111.926 C 326.44,114.895 328.573,115.735 330.026,115.735 C 331.815,115.735 333.667,115.118 335.682,113.887 L 335.682,118.533 C 333.948,119.484 331.256,120.213 329.631,120.213 C 324.201,120.213 321.455,116.852 321.455,112.317 L 321.455,99.047 L 317.088,99.047 L 317.088,98.484 L 326.44,89.355 M 310.425,89.917 C 308.8,89.917 307.456,88.575 307.456,86.95 C 307.456,85.325 308.8,83.981 310.425,83.981 C 312.05,83.981 313.394,85.325 313.394,86.95 C 313.394,88.575 312.05,89.917 310.425,89.917 M 312.886,119.712 L 307.906,119.712 L 307.906,94.565 L 312.886,94.565 L 312.886,119.712 z M 301.128,101.062 C 298.331,99.214 295.698,98.429 293.851,98.429 C 291.831,98.429 290.542,99.38 290.542,100.726 C 290.542,101.847 292.226,103.189 296.651,105.765 C 300.792,108.511 302.303,110.247 302.303,112.822 C 302.303,117.248 298.776,120.215 294.018,120.215 C 290.932,120.215 288.526,119.6 285.28,117.92 L 285.28,112.541 C 288.526,114.783 291.495,115.848 293.51,115.848 C 295.526,115.737 297.205,114.784 297.205,112.991 C 297.205,109.518 285.447,107.673 285.447,100.893 C 285.447,96.639 288.697,94.063 293.736,94.063 C 296.088,94.063 298.498,94.733 301.127,96.135 M 260.081,112.429 C 257.167,114.335 254.311,115.454 251.284,115.454 C 246.471,115.454 243.612,112.878 242.831,107.895 L 260.526,107.895 C 260.526,98.598 256.272,94.061 249.604,94.061 C 242.663,94.061 237.846,99.213 237.846,106.829 C 237.846,113.774 242.213,120.214 250.057,120.214 C 254.311,120.214 257.057,119.263 260.08,117.247 M 242.94,104.589 C 243.612,100.614 245.909,98.374 249.717,98.374 C 253.244,98.374 255.432,100.78 255.596,104.589 L 242.94,104.589 z M 212.589,94.565 L 218.023,94.565 L 224.8,110.022 L 231.409,94.565 L 236.729,94.565 L 225.635,120.213 L 223.955,120.213 M 206.597,89.917 C 204.972,89.917 203.628,88.575 203.628,86.95 C 203.628,85.325 204.972,83.981 206.597,83.981 C 208.222,83.981 209.566,85.325 209.566,86.95 C 209.566,88.575 208.222,89.917 206.597,89.917 M 209.065,119.712 L 204.077,119.712 L 204.077,94.565 L 209.065,94.565 L 209.065,119.712 z M 181.397,97.868 L 181.51,97.868 C 183.412,95.462 186.213,94.061 189.01,94.061 C 193.772,94.061 197.58,97.309 197.58,104.198 L 197.58,119.712 L 192.596,119.712 L 192.596,104.142 C 192.596,100.447 190.69,98.038 187.666,98.038 C 185.486,98.038 183.748,99.048 181.396,101.677 L 181.396,119.712 L 176.412,119.712 L 176.412,94.565 L 181.396,94.565 M 170.476,104.7 C 170.476,114.054 164.878,120.214 153.511,120.214 C 145.441,120.214 137.605,115.677 137.605,105.263 L 137.605,81.517 L 143.089,81.517 L 143.089,104.087 C 143.089,108.4 143.652,110.189 145.386,111.927 C 147.574,114.111 150.316,115.175 153.62,115.175 C 157.819,115.175 160.847,113.829 162.581,112.095 C 164.542,110.134 164.987,107.335 164.987,103.751 L 164.987,81.517 L 170.475,81.517"
   id="path16" />
	</g>
</svg>