<svg width="420" height="261" viewBox="0 0 420 261" fill="none" xmlns="http://www.w3.org/2000/svg">
<path d="M0 16.6596C0 7.45874 7.45875 0 16.6596 0H403.162C412.363 0 419.821 7.45875 419.821 16.6596V244.34C419.821 253.541 412.363 261 403.162 261H16.6596C7.45876 261 0 253.541 0 244.34V16.6596Z" fill="white"/>
<path d="M366.022 26.5344H345.097V60.7557H366.022V26.5344Z" fill="#FF5F00"/>
<path d="M347.252 43.6533C347.249 40.3581 347.995 37.1054 349.434 34.1416C350.872 31.1777 352.964 28.5802 355.553 26.5456C352.347 24.0225 348.496 22.4536 344.442 22.0181C340.387 21.5826 336.291 22.2981 332.624 24.0828C328.956 25.8676 325.863 28.6496 323.7 32.1108C321.536 35.5721 320.389 39.573 320.389 43.6563C320.389 47.7396 321.536 51.7405 323.7 55.2018C325.863 58.6631 328.956 61.445 332.624 63.2298C336.291 65.0145 340.387 65.7301 344.442 65.2945C348.496 64.859 352.347 63.2901 355.553 60.767C352.964 58.7318 350.87 56.1334 349.432 53.1683C347.994 50.2033 347.248 46.9495 347.252 43.6533Z" fill="#EB001B"/>
<path d="M388.643 57.1354V56.4343H388.945V56.2892H388.227V56.4343H388.51V57.1354H388.643ZM390.038 57.1354V56.2892H389.821L389.567 56.8937L389.313 56.2892H389.096V57.1354H389.253V56.4947L389.488 57.0448H389.651L389.887 56.4947V57.1354H390.038Z" fill="#F79E1B"/>
<path d="M390.719 43.6483C390.719 47.7318 389.571 51.733 387.407 55.1944C385.243 58.6558 382.15 61.4377 378.482 63.2222C374.814 65.0067 370.718 65.7218 366.663 65.2856C362.608 64.8495 358.758 63.2798 355.552 60.7559C358.139 58.7196 360.231 56.1213 361.67 53.1573C363.108 50.1932 363.856 46.9408 363.856 43.6452C363.856 40.3497 363.108 37.0972 361.67 34.1332C360.231 31.1691 358.139 28.5709 355.552 26.5346C358.758 24.0107 362.608 22.441 366.663 22.0049C370.718 21.5687 374.814 22.2838 378.482 24.0683C382.15 25.8528 385.243 28.6347 387.407 32.0961C389.571 35.5575 390.719 39.5586 390.719 43.6422V43.6483Z" fill="#F79E1B"/>
<path d="M44.4253 92.1833C44.4253 86.0494 49.3978 81.0769 55.5317 81.0769H96.6253C102.759 81.0769 107.732 86.0494 107.732 92.1833V133.277C107.732 139.411 102.759 144.383 96.6253 144.383H55.5317C49.3978 144.383 44.4253 139.411 44.4253 133.277V92.1833Z" fill="#CFD0D0"/>
<path d="M385.836 236.4V228.459L378.117 236.4H373.23L382.393 227.042L372.841 215.464H377.506L384.975 224.71L385.836 223.822V215.464H389.723V236.4H385.836Z" fill="black"/>
<path d="M358.344 229.042V215.464H361.676V216.741C362.213 216.205 362.833 215.788 363.536 215.492C364.24 215.214 365.008 215.075 365.841 215.075C366.822 215.075 367.738 215.26 368.59 215.631C369.423 216.001 370.154 216.51 370.783 217.158C371.394 217.806 371.875 218.565 372.227 219.435C372.579 220.305 372.754 221.239 372.754 222.239C372.754 223.239 372.579 224.173 372.227 225.043C371.875 225.913 371.394 226.672 370.783 227.32C370.154 227.968 369.423 228.477 368.59 228.847C367.738 229.217 366.822 229.403 365.841 229.403C365.008 229.403 364.24 229.255 363.536 228.958C362.833 228.681 362.213 228.273 361.676 227.737V229.042H358.344ZM365.424 218.463C364.906 218.463 364.425 218.555 363.98 218.74C363.536 218.944 363.157 219.212 362.842 219.546C362.527 219.879 362.277 220.277 362.092 220.74C361.907 221.202 361.815 221.702 361.815 222.239C361.815 222.776 361.907 223.276 362.092 223.738C362.277 224.201 362.527 224.599 362.842 224.932C363.157 225.265 363.536 225.525 363.98 225.71C364.425 225.913 364.906 226.015 365.424 226.015C365.943 226.015 366.424 225.913 366.868 225.71C367.312 225.525 367.692 225.265 368.006 224.932C368.321 224.599 368.571 224.201 368.756 223.738C368.941 223.276 369.034 222.776 369.034 222.239C369.034 221.702 368.941 221.202 368.756 220.74C368.571 220.277 368.321 219.879 368.006 219.546C367.692 219.212 367.312 218.944 366.868 218.74C366.424 218.555 365.943 218.463 365.424 218.463Z" fill="black"/>
<path d="M350.538 215.075C351.168 215.075 351.769 215.177 352.343 215.381C352.899 215.566 353.398 215.825 353.843 216.158C354.287 216.51 354.657 216.917 354.953 217.38C355.249 217.843 355.444 218.352 355.536 218.907L352.038 219.407C351.964 219.055 351.788 218.768 351.51 218.546C351.214 218.342 350.89 218.241 350.538 218.241C350.168 218.241 349.872 218.342 349.65 218.546C349.428 218.768 349.317 219.046 349.317 219.379C349.317 219.916 349.678 220.305 350.4 220.545L351.927 221.073C353.167 221.499 354.046 222.082 354.565 222.822C355.083 223.581 355.342 224.395 355.342 225.265C355.342 225.839 355.222 226.376 354.981 226.876C354.74 227.376 354.416 227.811 354.009 228.181C353.583 228.57 353.084 228.866 352.51 229.069C351.917 229.292 351.288 229.403 350.622 229.403C349.567 229.403 348.641 229.143 347.845 228.625C347.031 228.107 346.466 227.431 346.151 226.598L349.483 225.349C349.557 225.608 349.705 225.821 349.928 225.987C350.131 226.154 350.363 226.237 350.622 226.237C350.936 226.237 351.196 226.154 351.399 225.987C351.584 225.821 351.677 225.608 351.677 225.349C351.677 224.923 351.353 224.599 350.705 224.377L349.233 223.877C348.549 223.655 347.984 223.368 347.54 223.016C347.077 222.683 346.707 222.322 346.429 221.934C346.151 221.545 345.957 221.138 345.846 220.712C345.716 220.286 345.652 219.87 345.652 219.462C345.652 218.852 345.781 218.278 346.04 217.741C346.281 217.223 346.623 216.76 347.068 216.353C347.493 215.964 348.002 215.658 348.595 215.436C349.187 215.196 349.835 215.075 350.538 215.075Z" fill="black"/>
<path d="M335.355 229.43C334.374 229.43 333.467 229.245 332.634 228.875C331.783 228.505 331.052 227.996 330.441 227.348C329.811 226.7 329.321 225.941 328.969 225.071C328.617 224.201 328.442 223.266 328.442 222.267C328.442 221.267 328.617 220.332 328.969 219.462C329.321 218.592 329.811 217.833 330.441 217.186C331.052 216.538 331.783 216.029 332.634 215.658C333.467 215.288 334.374 215.103 335.355 215.103C336.114 215.103 336.818 215.223 337.465 215.464C338.113 215.723 338.706 216.075 339.242 216.519V208.412H342.852V229.042H339.52V227.764C338.983 228.301 338.363 228.708 337.66 228.986C336.956 229.282 336.188 229.43 335.355 229.43ZM335.772 218.491C335.253 218.491 334.772 218.583 334.328 218.768C333.884 218.972 333.504 219.24 333.189 219.573C332.875 219.907 332.625 220.305 332.44 220.767C332.255 221.23 332.162 221.73 332.162 222.267C332.162 222.804 332.255 223.303 332.44 223.766C332.625 224.229 332.875 224.627 333.189 224.96C333.504 225.293 333.884 225.552 334.328 225.737C334.772 225.941 335.253 226.043 335.772 226.043C336.29 226.043 336.771 225.941 337.216 225.737C337.66 225.552 338.039 225.293 338.354 224.96C338.669 224.627 338.919 224.229 339.104 223.766C339.289 223.303 339.381 222.804 339.381 222.267C339.381 221.73 339.289 221.23 339.104 220.767C338.919 220.305 338.669 219.907 338.354 219.573C338.039 219.24 337.66 218.972 337.216 218.768C336.771 218.583 336.29 218.491 335.772 218.491Z" fill="black"/>
<path d="M312.14 229.042V215.464H315.472V216.741C316.008 216.205 316.628 215.788 317.332 215.492C318.035 215.214 318.803 215.075 319.636 215.075C320.618 215.075 321.534 215.26 322.385 215.631C323.218 216.001 323.949 216.51 324.579 217.158C325.19 217.806 325.671 218.565 326.023 219.435C326.374 220.305 326.55 221.239 326.55 222.239C326.55 223.239 326.374 224.173 326.023 225.043C325.671 225.913 325.19 226.672 324.579 227.32C323.949 227.968 323.218 228.477 322.385 228.847C321.534 229.217 320.618 229.403 319.636 229.403C318.803 229.403 318.035 229.255 317.332 228.958C316.628 228.681 316.008 228.273 315.472 227.737V229.042H312.14ZM319.22 218.463C318.702 218.463 318.22 218.555 317.776 218.74C317.332 218.944 316.952 219.212 316.638 219.546C316.323 219.879 316.073 220.277 315.888 220.74C315.703 221.202 315.61 221.702 315.61 222.239C315.61 222.776 315.703 223.276 315.888 223.738C316.073 224.201 316.323 224.599 316.638 224.932C316.952 225.265 317.332 225.525 317.776 225.71C318.22 225.913 318.702 226.015 319.22 226.015C319.738 226.015 320.22 225.913 320.664 225.71C321.108 225.525 321.488 225.265 321.802 224.932C322.117 224.599 322.367 224.201 322.552 223.738C322.737 223.276 322.83 222.776 322.83 222.239C322.83 221.702 322.737 221.202 322.552 220.74C322.367 220.277 322.117 219.879 321.802 219.546C321.488 219.212 321.108 218.944 320.664 218.74C320.22 218.555 319.738 218.463 319.22 218.463Z" fill="black"/>
<path d="M301.169 229.208C300.965 229.208 300.771 229.199 300.586 229.18C300.401 229.162 300.216 229.134 300.03 229.097V225.737C300.401 225.793 300.789 225.821 301.197 225.821C302.307 225.821 303.186 225.478 303.834 224.793C304.149 224.479 304.39 224.09 304.556 223.627C304.723 223.165 304.806 222.544 304.806 221.767V215.464H308.416V229.042H305.056V227.265C304.982 227.357 304.917 227.44 304.862 227.515C304.788 227.589 304.704 227.672 304.612 227.764C303.686 228.69 302.539 229.171 301.169 229.208Z" fill="black"/>
<path d="M285.183 217.796C286.182 216.908 287.228 216.232 288.32 215.769C289.394 215.307 290.514 215.075 291.68 215.075C292.643 215.075 293.55 215.233 294.401 215.547C295.234 215.862 295.965 216.297 296.595 216.852C297.205 217.408 297.687 218.056 298.038 218.796C298.39 219.555 298.566 220.369 298.566 221.239C298.566 222.591 298.177 223.757 297.4 224.738C296.622 225.719 295.465 226.635 293.929 227.487C294.17 227.764 294.42 228.042 294.679 228.32C294.919 228.616 295.142 228.931 295.345 229.264C295.53 229.615 295.688 229.986 295.817 230.374C295.928 230.782 295.984 231.226 295.984 231.707C295.984 232.392 295.845 233.04 295.567 233.651C295.29 234.28 294.91 234.826 294.429 235.289C293.948 235.752 293.383 236.113 292.735 236.372C292.069 236.65 291.356 236.788 290.597 236.788C289.82 236.788 289.098 236.659 288.431 236.4C287.765 236.14 287.182 235.78 286.682 235.317C286.182 234.872 285.794 234.336 285.516 233.706C285.238 233.095 285.099 232.438 285.099 231.735C285.099 230.661 285.414 229.717 286.044 228.903C286.654 228.088 287.552 227.32 288.737 226.598L285.183 222.655C284.887 223.044 284.59 223.461 284.294 223.905C283.98 224.349 283.665 224.83 283.35 225.349L280.296 223.6C281.092 222.304 281.943 221.128 282.85 220.073L278.713 215.464H283.073L285.183 217.796ZM290.597 233.595C291.134 233.595 291.578 233.41 291.93 233.04C292.282 232.688 292.457 232.244 292.457 231.707C292.457 231.337 292.374 230.985 292.208 230.652C292.041 230.337 291.726 229.921 291.264 229.403L290.958 229.069L290.708 229.236C289.968 229.68 289.431 230.097 289.098 230.485C288.765 230.893 288.598 231.309 288.598 231.735C288.598 232.272 288.783 232.716 289.153 233.068C289.524 233.419 290.005 233.595 290.597 233.595ZM291.68 218.407C290.977 218.407 290.292 218.555 289.625 218.852C288.959 219.166 288.237 219.657 287.46 220.323L291.624 224.932C292.254 224.599 292.781 224.275 293.207 223.96C293.614 223.664 293.948 223.368 294.207 223.072C294.447 222.794 294.623 222.498 294.734 222.183C294.827 221.887 294.873 221.573 294.873 221.239C294.873 220.425 294.577 219.749 293.985 219.212C293.392 218.676 292.624 218.407 291.68 218.407Z" fill="black"/>
<path d="M255.657 225.932C255.657 224.47 255.926 223.1 256.463 221.822C256.999 220.545 257.74 219.435 258.684 218.491C259.628 217.547 260.757 216.806 262.071 216.269C263.367 215.732 264.903 215.464 266.68 215.464H272.206V236.4H266.68C264.903 236.4 263.367 236.131 262.071 235.594C260.757 235.058 259.628 234.317 258.684 233.373C257.74 232.429 256.999 231.318 256.463 230.041C255.926 228.764 255.657 227.394 255.657 225.932ZM268.457 218.935H267.069C265.792 218.935 264.709 219.111 263.821 219.462C262.914 219.833 262.145 220.332 261.516 220.962C260.887 221.591 260.396 222.322 260.044 223.155C259.693 224.007 259.517 224.932 259.517 225.932C259.517 226.931 259.693 227.848 260.044 228.681C260.396 229.532 260.887 230.273 261.516 230.902C262.145 231.531 262.914 232.022 263.821 232.374C264.709 232.744 265.792 232.929 267.069 232.929H268.457V218.935Z" fill="black"/>
<path d="M246.888 215.075C247.832 215.075 248.693 215.233 249.471 215.547C250.229 215.881 250.887 216.316 251.442 216.852C251.923 217.334 252.303 217.898 252.58 218.546C252.84 219.212 252.969 220.036 252.969 221.017V229.042H249.36V221.212C249.36 220.638 249.313 220.203 249.221 219.907C249.11 219.629 248.952 219.388 248.749 219.185C248.267 218.703 247.647 218.463 246.888 218.463C246.518 218.463 246.176 218.528 245.861 218.657C245.528 218.787 245.25 218.963 245.028 219.185C244.824 219.388 244.676 219.629 244.584 219.907C244.473 220.203 244.417 220.638 244.417 221.212V229.042H240.808V221.017C240.808 220.036 240.946 219.212 241.224 218.546C241.483 217.898 241.853 217.334 242.335 216.852C242.89 216.316 243.556 215.881 244.334 215.547C245.093 215.233 245.944 215.075 246.888 215.075Z" fill="black"/>
<path d="M386.114 179.535C386.743 179.535 387.345 179.637 387.918 179.84C388.474 180.025 388.973 180.285 389.418 180.618C389.862 180.97 390.232 181.377 390.528 181.84C390.825 182.302 391.019 182.811 391.111 183.367L387.613 183.866C387.539 183.515 387.363 183.228 387.085 183.006C386.789 182.802 386.465 182.7 386.114 182.7C385.743 182.7 385.447 182.802 385.225 183.006C385.003 183.228 384.892 183.505 384.892 183.839C384.892 184.375 385.253 184.764 385.975 185.005L387.502 185.532C388.742 185.958 389.621 186.541 390.14 187.282C390.658 188.041 390.917 188.855 390.917 189.725C390.917 190.299 390.797 190.836 390.556 191.335C390.315 191.835 389.992 192.27 389.584 192.64C389.159 193.029 388.659 193.325 388.085 193.529C387.493 193.751 386.863 193.862 386.197 193.862C385.142 193.862 384.216 193.603 383.42 193.085C382.606 192.566 382.041 191.891 381.727 191.058L385.058 189.808C385.133 190.067 385.281 190.28 385.503 190.447C385.706 190.614 385.938 190.697 386.197 190.697C386.512 190.697 386.771 190.614 386.974 190.447C387.159 190.28 387.252 190.067 387.252 189.808C387.252 189.383 386.928 189.059 386.28 188.837L384.809 188.337C384.124 188.115 383.559 187.828 383.115 187.476C382.652 187.143 382.282 186.782 382.004 186.393C381.727 186.004 381.532 185.597 381.421 185.171C381.292 184.746 381.227 184.329 381.227 183.922C381.227 183.311 381.356 182.737 381.615 182.2C381.856 181.682 382.199 181.219 382.643 180.812C383.069 180.423 383.578 180.118 384.17 179.896C384.762 179.655 385.41 179.535 386.114 179.535Z" fill="black"/>
<path d="M379.784 190.28V193.501H377.202V198.499H373.593V193.501H370.594V190.28H373.593V179.924H377.202V190.28H379.784Z" fill="black"/>
<path d="M355.787 186.699C355.787 186.495 355.796 186.301 355.815 186.115C355.833 185.93 355.861 185.745 355.898 185.56H365.755C365.607 184.783 365.209 184.135 364.561 183.617C363.913 183.117 363.117 182.867 362.173 182.867C361.488 182.867 360.877 183.024 360.34 183.339C359.785 183.672 359.35 184.116 359.035 184.672L356.12 182.978C356.731 181.941 357.573 181.108 358.647 180.479C359.702 179.85 360.905 179.535 362.256 179.535C363.293 179.535 364.246 179.72 365.116 180.09C365.986 180.46 366.736 180.96 367.365 181.59C367.995 182.237 368.494 182.996 368.865 183.866C369.216 184.736 369.392 185.68 369.392 186.699C369.392 187.717 369.226 188.661 368.892 189.531C368.541 190.419 368.069 191.178 367.476 191.807C366.865 192.455 366.144 192.955 365.311 193.307C364.478 193.677 363.571 193.862 362.59 193.862C361.608 193.862 360.701 193.677 359.868 193.307C359.035 192.955 358.323 192.455 357.73 191.807C357.12 191.178 356.648 190.419 356.314 189.531C355.963 188.661 355.787 187.717 355.787 186.699ZM362.59 190.863C363.46 190.863 364.181 190.614 364.755 190.114C365.329 189.614 365.672 188.975 365.783 188.198H359.396C359.507 188.975 359.85 189.614 360.424 190.114C360.998 190.614 361.72 190.863 362.59 190.863Z" fill="black"/>
<path d="M349.384 201.526V179.924H352.993V201.526H349.384Z" fill="black"/>
<path d="M342.062 201.526V179.924H345.672V201.526H342.062Z" fill="black"/>
<path d="M325.662 186.699C325.662 186.495 325.671 186.301 325.69 186.115C325.708 185.93 325.736 185.745 325.773 185.56H335.63C335.482 184.783 335.084 184.135 334.436 183.617C333.788 183.117 332.992 182.867 332.048 182.867C331.363 182.867 330.752 183.024 330.215 183.339C329.66 183.672 329.225 184.116 328.91 184.672L325.995 182.978C326.606 181.941 327.448 181.108 328.522 180.479C329.577 179.85 330.78 179.535 332.131 179.535C333.168 179.535 334.121 179.72 334.991 180.09C335.861 180.46 336.611 180.96 337.24 181.59C337.87 182.237 338.369 182.996 338.74 183.866C339.091 184.736 339.267 185.68 339.267 186.699C339.267 187.717 339.101 188.661 338.767 189.531C338.416 190.419 337.944 191.178 337.351 191.807C336.74 192.455 336.019 192.955 335.186 193.307C334.353 193.677 333.446 193.862 332.465 193.862C331.483 193.862 330.576 193.677 329.743 193.307C328.91 192.955 328.198 192.455 327.605 191.807C326.995 191.178 326.523 190.419 326.189 189.531C325.838 188.661 325.662 187.717 325.662 186.699ZM332.465 190.863C333.335 190.863 334.056 190.614 334.63 190.114C335.204 189.614 335.547 188.975 335.658 188.198H329.271C329.383 188.975 329.725 189.614 330.299 190.114C330.873 190.614 331.595 190.863 332.465 190.863Z" fill="black"/>
<path d="M319.508 193.501V192.418C319.064 192.863 318.537 193.214 317.926 193.473C317.296 193.733 316.63 193.862 315.927 193.862C315.168 193.862 314.464 193.723 313.816 193.446C313.169 193.168 312.604 192.779 312.123 192.279C311.604 191.78 311.206 191.169 310.929 190.447C310.633 189.725 310.485 188.827 310.485 187.754V179.924H314.094V187.448C314.094 188.096 314.159 188.596 314.288 188.948C314.418 189.299 314.603 189.595 314.844 189.836C315.307 190.336 315.917 190.586 316.676 190.586C317.435 190.586 318.046 190.336 318.509 189.836C318.75 189.577 318.935 189.272 319.064 188.92C319.194 188.587 319.259 188.096 319.259 187.448V179.924H322.868V193.501H319.508Z" fill="black"/>
<path d="M287.411 201.526V179.924H290.743V181.201C291.279 180.664 291.899 180.248 292.603 179.951C293.306 179.674 294.074 179.535 294.907 179.535C295.888 179.535 296.805 179.72 297.656 180.09C298.489 180.46 299.22 180.97 299.85 181.617C300.461 182.265 300.942 183.024 301.294 183.894C301.645 184.764 301.821 185.699 301.821 186.699C301.821 187.698 301.645 188.633 301.294 189.503C300.942 190.373 300.461 191.132 299.85 191.78C299.22 192.428 298.489 192.937 297.656 193.307C296.805 193.677 295.888 193.862 294.907 193.862C294.148 193.862 293.445 193.733 292.797 193.473C292.149 193.233 291.557 192.89 291.02 192.446V201.526H287.411ZM294.491 182.922C293.973 182.922 293.491 183.015 293.047 183.2C292.603 183.404 292.223 183.672 291.909 184.005C291.594 184.338 291.344 184.736 291.159 185.199C290.974 185.662 290.881 186.162 290.881 186.699C290.881 187.235 290.974 187.735 291.159 188.198C291.344 188.661 291.594 189.059 291.909 189.392C292.223 189.725 292.603 189.984 293.047 190.169C293.491 190.373 293.973 190.475 294.491 190.475C295.009 190.475 295.49 190.373 295.935 190.169C296.379 189.984 296.758 189.725 297.073 189.392C297.388 189.059 297.638 188.661 297.823 188.198C298.008 187.735 298.1 187.235 298.1 186.699C298.1 186.162 298.008 185.662 297.823 185.199C297.638 184.736 297.388 184.338 297.073 184.005C296.758 183.672 296.379 183.404 295.935 183.2C295.49 183.015 295.009 182.922 294.491 182.922Z" fill="black"/>
<path d="M281.854 195.445C282.483 195.445 283.02 195.667 283.465 196.111C283.89 196.555 284.103 197.083 284.103 197.694C284.103 198.305 283.89 198.832 283.465 199.277C283.02 199.721 282.483 199.943 281.854 199.943C281.243 199.943 280.725 199.721 280.299 199.277C279.855 198.832 279.633 198.305 279.633 197.694C279.633 197.083 279.855 196.555 280.299 196.111C280.725 195.667 281.243 195.445 281.854 195.445ZM280.077 193.501V179.924H283.687V193.501H280.077Z" fill="black"/>
<path d="M263.677 186.699C263.677 186.495 263.686 186.301 263.704 186.115C263.723 185.93 263.751 185.745 263.788 185.56H273.645C273.496 184.783 273.098 184.135 272.451 183.617C271.803 183.117 271.007 182.867 270.063 182.867C269.378 182.867 268.767 183.024 268.23 183.339C267.675 183.672 267.24 184.116 266.925 184.672L264.01 182.978C264.621 181.941 265.463 181.108 266.536 180.479C267.592 179.85 268.795 179.535 270.146 179.535C271.183 179.535 272.136 179.72 273.006 180.09C273.876 180.46 274.626 180.96 275.255 181.59C275.884 182.237 276.384 182.996 276.754 183.866C277.106 184.736 277.282 185.68 277.282 186.699C277.282 187.717 277.115 188.661 276.782 189.531C276.43 190.419 275.958 191.178 275.366 191.807C274.755 192.455 274.033 192.955 273.2 193.307C272.367 193.677 271.46 193.862 270.479 193.862C269.498 193.862 268.591 193.677 267.758 193.307C266.925 192.955 266.213 192.455 265.62 191.807C265.009 191.178 264.537 190.419 264.204 189.531C263.852 188.661 263.677 187.717 263.677 186.699ZM270.479 190.863C271.349 190.863 272.071 190.614 272.645 190.114C273.219 189.614 273.561 188.975 273.672 188.198H267.286C267.397 188.975 267.74 189.614 268.313 190.114C268.887 190.614 269.609 190.863 270.479 190.863Z" fill="black"/>
<path d="M243.562 200.859V197.388H250.643V192.752H243.701V189.281H250.643V179.924H254.391V200.859H243.562Z" fill="black"/>
<path d="M238.741 195.445C239.37 195.445 239.907 195.667 240.351 196.111C240.777 196.555 240.99 197.083 240.99 197.694C240.99 198.305 240.777 198.832 240.351 199.277C239.907 199.721 239.37 199.943 238.741 199.943C238.13 199.943 237.612 199.721 237.186 199.277C236.742 198.832 236.52 198.305 236.52 197.694C236.52 197.083 236.742 196.555 237.186 196.111C237.612 195.667 238.13 195.445 238.741 195.445ZM236.964 193.501V179.924H240.574V193.501H236.964Z" fill="black"/>
<path d="M229.893 193.501V192.418C229.449 192.863 228.921 193.214 228.31 193.473C227.681 193.733 227.014 193.862 226.311 193.862C225.552 193.862 224.849 193.723 224.201 193.446C223.553 193.168 222.988 192.779 222.507 192.279C221.989 191.78 221.591 191.169 221.313 190.447C221.017 189.725 220.869 188.827 220.869 187.754V179.924H224.478V187.448C224.478 188.096 224.543 188.596 224.673 188.948C224.802 189.299 224.987 189.595 225.228 189.836C225.691 190.336 226.302 190.586 227.061 190.586C227.82 190.586 228.43 190.336 228.893 189.836C229.134 189.577 229.319 189.272 229.448 188.92C229.578 188.587 229.643 188.096 229.643 187.448V179.924H233.252V193.501H229.893Z" fill="black"/>
<path d="M203.814 193.501V179.924H207.146V181.201C207.683 180.664 208.303 180.248 209.007 179.951C209.71 179.674 210.478 179.535 211.311 179.535C212.292 179.535 213.209 179.72 214.06 180.09C214.893 180.46 215.624 180.97 216.254 181.617C216.864 182.265 217.346 183.024 217.697 183.894C218.049 184.764 218.225 185.699 218.225 186.699C218.225 187.698 218.049 188.633 217.697 189.503C217.346 190.373 216.864 191.132 216.254 191.78C215.624 192.428 214.893 192.937 214.06 193.307C213.209 193.677 212.292 193.862 211.311 193.862C210.478 193.862 209.71 193.714 209.007 193.418C208.303 193.14 207.683 192.733 207.146 192.196V193.501H203.814ZM210.895 182.922C210.376 182.922 209.895 183.015 209.451 183.2C209.007 183.404 208.627 183.672 208.313 184.005C207.998 184.338 207.748 184.736 207.563 185.199C207.378 185.662 207.285 186.162 207.285 186.699C207.285 187.235 207.378 187.735 207.563 188.198C207.748 188.661 207.998 189.059 208.313 189.392C208.627 189.725 209.007 189.984 209.451 190.169C209.895 190.373 210.376 190.475 210.895 190.475C211.413 190.475 211.894 190.373 212.339 190.169C212.783 189.984 213.162 189.725 213.477 189.392C213.792 189.059 214.042 188.661 214.227 188.198C214.412 187.735 214.504 187.235 214.504 186.699C214.504 186.162 214.412 185.662 214.227 185.199C214.042 184.736 213.792 184.338 213.477 184.005C213.162 183.672 212.783 183.404 212.339 183.2C211.894 183.015 211.413 182.922 210.895 182.922Z" fill="black"/>
<path d="M196.731 193.501V192.418C196.287 192.863 195.759 193.214 195.148 193.473C194.519 193.733 193.852 193.862 193.149 193.862C192.39 193.862 191.687 193.723 191.039 193.446C190.391 193.168 189.826 192.779 189.345 192.279C188.827 191.78 188.429 191.169 188.151 190.447C187.855 189.725 187.707 188.827 187.707 187.754V179.924H191.317V187.448C191.317 188.096 191.381 188.596 191.511 188.948C191.64 189.299 191.826 189.595 192.066 189.836C192.529 190.336 193.14 190.586 193.899 190.586C194.658 190.586 195.269 190.336 195.731 189.836C195.972 189.577 196.157 189.272 196.287 188.92C196.416 188.587 196.481 188.096 196.481 187.448V179.924H200.091V193.501H196.731Z" fill="black"/>
<path d="M184.758 190.447V193.501H171.985L179.454 182.978H172.43V179.924H185.702L178.205 190.447H184.758Z" fill="black"/>
<path d="M164.338 186.56H164.282L160.395 194.445L156.508 186.56H156.452L153.12 193.501H149.372L156.396 178.98L160.423 187.282H160.478L164.504 178.98L171.529 193.501H167.669L164.338 186.56Z" fill="black"/>
<path d="M135.313 186.699C135.313 186.495 135.322 186.301 135.341 186.115C135.359 185.93 135.387 185.745 135.424 185.56H145.281C145.133 184.783 144.735 184.135 144.087 183.617C143.439 183.117 142.643 182.867 141.699 182.867C141.014 182.867 140.404 183.024 139.867 183.339C139.312 183.672 138.877 184.116 138.562 184.672L135.646 182.978C136.257 181.941 137.1 181.108 138.173 180.479C139.228 179.85 140.431 179.535 141.783 179.535C142.819 179.535 143.773 179.72 144.643 180.09C145.513 180.46 146.262 180.96 146.892 181.59C147.521 182.237 148.021 182.996 148.391 183.866C148.743 184.736 148.919 185.68 148.919 186.699C148.919 187.717 148.752 188.661 148.419 189.531C148.067 190.419 147.595 191.178 147.003 191.807C146.392 192.455 145.67 192.955 144.837 193.307C144.004 193.677 143.097 193.862 142.116 193.862C141.135 193.862 140.228 193.677 139.395 193.307C138.562 192.955 137.849 192.455 137.257 191.807C136.646 191.178 136.174 190.419 135.841 189.531C135.489 188.661 135.313 187.717 135.313 186.699ZM142.116 190.863C142.986 190.863 143.708 190.614 144.282 190.114C144.855 189.614 145.198 188.975 145.309 188.198H138.923C139.034 188.975 139.376 189.614 139.95 190.114C140.524 190.614 141.246 190.863 142.116 190.863Z" fill="black"/>
<path d="M128.91 201.526V179.924H132.519V201.526H128.91Z" fill="black"/>
<path d="M126.42 190.28V193.501H123.838V198.499H120.228V193.501H117.23V190.28H120.228V179.924H123.838V190.28H126.42Z" fill="black"/>
<path d="M376.701 157.961V144.383H380.033V145.66C380.57 145.124 381.19 144.707 381.893 144.411C382.597 144.133 383.365 143.995 384.198 143.995C385.179 143.995 386.095 144.18 386.947 144.55C387.78 144.92 388.511 145.429 389.14 146.077C389.751 146.725 390.232 147.484 390.584 148.354C390.936 149.224 391.111 150.159 391.111 151.158C391.111 152.158 390.936 153.092 390.584 153.962C390.232 154.832 389.751 155.591 389.14 156.239C388.511 156.887 387.78 157.396 386.947 157.766C386.095 158.137 385.179 158.322 384.198 158.322C383.365 158.322 382.597 158.174 381.893 157.877C381.19 157.6 380.57 157.193 380.033 156.656V157.961H376.701ZM383.781 147.382C383.263 147.382 382.782 147.475 382.337 147.66C381.893 147.863 381.514 148.132 381.199 148.465C380.884 148.798 380.634 149.196 380.449 149.659C380.264 150.122 380.172 150.621 380.172 151.158C380.172 151.695 380.264 152.195 380.449 152.657C380.634 153.12 380.884 153.518 381.199 153.851C381.514 154.185 381.893 154.444 382.337 154.629C382.782 154.832 383.263 154.934 383.781 154.934C384.3 154.934 384.781 154.832 385.225 154.629C385.669 154.444 386.049 154.185 386.363 153.851C386.678 153.518 386.928 153.12 387.113 152.657C387.298 152.195 387.391 151.695 387.391 151.158C387.391 150.621 387.298 150.122 387.113 149.659C386.928 149.196 386.678 148.798 386.363 148.465C386.049 148.132 385.669 147.863 385.225 147.66C384.781 147.475 384.3 147.382 383.781 147.382Z" fill="black"/>
<path d="M367.063 143.995C368.007 143.995 368.868 144.152 369.645 144.467C370.404 144.8 371.061 145.235 371.616 145.772C372.098 146.253 372.477 146.817 372.755 147.465C373.014 148.132 373.144 148.955 373.144 149.936V157.961H369.534V150.131C369.534 149.557 369.488 149.122 369.395 148.826C369.284 148.548 369.127 148.307 368.923 148.104C368.442 147.623 367.822 147.382 367.063 147.382C366.693 147.382 366.35 147.447 366.036 147.576C365.702 147.706 365.425 147.882 365.203 148.104C364.999 148.307 364.851 148.548 364.758 148.826C364.647 149.122 364.592 149.557 364.592 150.131V157.961H360.982V149.936C360.982 148.955 361.121 148.132 361.399 147.465C361.658 146.817 362.028 146.253 362.509 145.772C363.065 145.235 363.731 144.8 364.508 144.467C365.267 144.152 366.119 143.995 367.063 143.995Z" fill="black"/>
<path d="M352.442 157.961H348.971V154.74H352.442V144.383H356.052V154.74H358.662V157.961H356.052V160.737C356.052 161.737 355.922 162.561 355.663 163.209C355.404 163.875 355.043 164.44 354.58 164.902C354.117 165.365 353.581 165.726 352.97 165.985C352.359 166.244 351.692 166.374 350.971 166.374C350.619 166.374 350.295 166.346 349.999 166.291C349.684 166.235 349.342 166.133 348.971 165.985V162.681C349.416 162.885 349.888 162.986 350.387 162.986C350.961 162.986 351.443 162.792 351.831 162.403C352.035 162.218 352.192 161.978 352.303 161.681C352.396 161.385 352.442 160.95 352.442 160.376V157.961Z" fill="black"/>
<path d="M327.785 165.985V144.383H331.117V145.66C331.654 145.124 332.274 144.707 332.977 144.411C333.681 144.133 334.449 143.995 335.282 143.995C336.263 143.995 337.179 144.18 338.031 144.55C338.864 144.92 339.595 145.429 340.224 146.077C340.835 146.725 341.316 147.484 341.668 148.354C342.02 149.224 342.196 150.159 342.196 151.158C342.196 152.158 342.02 153.092 341.668 153.962C341.316 154.832 340.835 155.591 340.224 156.239C339.595 156.887 338.864 157.396 338.031 157.766C337.179 158.137 336.263 158.322 335.282 158.322C334.523 158.322 333.82 158.192 333.172 157.933C332.524 157.692 331.931 157.35 331.395 156.906V165.985H327.785ZM334.865 147.382C334.347 147.382 333.866 147.475 333.422 147.66C332.977 147.863 332.598 148.132 332.283 148.465C331.969 148.798 331.719 149.196 331.534 149.659C331.348 150.122 331.256 150.621 331.256 151.158C331.256 151.695 331.348 152.195 331.534 152.657C331.719 153.12 331.969 153.518 332.283 153.851C332.598 154.185 332.977 154.444 333.422 154.629C333.866 154.832 334.347 154.934 334.865 154.934C335.384 154.934 335.865 154.832 336.309 154.629C336.754 154.444 337.133 154.185 337.448 153.851C337.762 153.518 338.012 153.12 338.197 152.657C338.382 152.195 338.475 151.695 338.475 151.158C338.475 150.621 338.382 150.122 338.197 149.659C338.012 149.196 337.762 148.798 337.448 148.465C337.133 148.132 336.754 147.863 336.309 147.66C335.865 147.475 335.384 147.382 334.865 147.382Z" fill="black"/>
<path d="M311.372 151.158C311.372 150.955 311.381 150.76 311.4 150.575C311.418 150.39 311.446 150.205 311.483 150.02H321.34C321.192 149.242 320.794 148.594 320.146 148.076C319.498 147.576 318.702 147.326 317.758 147.326C317.073 147.326 316.463 147.484 315.926 147.798C315.37 148.132 314.935 148.576 314.621 149.131L311.705 147.437C312.316 146.401 313.158 145.568 314.232 144.939C315.287 144.309 316.49 143.995 317.842 143.995C318.878 143.995 319.832 144.18 320.702 144.55C321.572 144.92 322.321 145.42 322.951 146.049C323.58 146.697 324.08 147.456 324.45 148.326C324.802 149.196 324.977 150.14 324.977 151.158C324.977 152.176 324.811 153.12 324.478 153.99C324.126 154.879 323.654 155.638 323.062 156.267C322.451 156.915 321.729 157.415 320.896 157.766C320.063 158.137 319.156 158.322 318.175 158.322C317.194 158.322 316.287 158.137 315.454 157.766C314.621 157.415 313.908 156.915 313.316 156.267C312.705 155.638 312.233 154.879 311.9 153.99C311.548 153.12 311.372 152.176 311.372 151.158ZM318.175 155.323C319.045 155.323 319.767 155.073 320.341 154.573C320.914 154.074 321.257 153.435 321.368 152.657H314.982C315.093 153.435 315.435 154.074 316.009 154.573C316.583 155.073 317.305 155.323 318.175 155.323Z" fill="black"/>
<path d="M305.219 157.961V156.878C304.775 157.322 304.247 157.674 303.636 157.933C303.007 158.192 302.34 158.322 301.637 158.322C300.878 158.322 300.175 158.183 299.527 157.905C298.879 157.628 298.314 157.239 297.833 156.739C297.315 156.239 296.917 155.628 296.639 154.907C296.343 154.185 296.195 153.287 296.195 152.213V144.383H299.804V151.908C299.804 152.556 299.869 153.055 299.999 153.407C300.128 153.759 300.313 154.055 300.554 154.296C301.017 154.795 301.628 155.045 302.387 155.045C303.146 155.045 303.756 154.795 304.219 154.296C304.46 154.037 304.645 153.731 304.774 153.379C304.904 153.046 304.969 152.556 304.969 151.908V144.383H308.578V157.961H305.219Z" fill="black"/>
<path d="M282.256 165.319V157.378L274.537 165.319H269.65L278.813 155.962L269.261 144.383H273.926L281.395 153.629L282.256 152.741V144.383H286.143V165.319H282.256Z" fill="black"/>
<path d="M261.871 143.995C262.908 143.995 263.88 144.18 264.787 144.55C265.675 144.92 266.453 145.429 267.119 146.077C267.767 146.725 268.276 147.484 268.646 148.354C269.016 149.224 269.202 150.159 269.202 151.158C269.202 152.158 269.016 153.092 268.646 153.962C268.276 154.832 267.767 155.591 267.119 156.239C266.453 156.887 265.675 157.396 264.787 157.766C263.88 158.137 262.908 158.322 261.871 158.322C260.835 158.322 259.872 158.137 258.984 157.766C258.077 157.396 257.299 156.887 256.651 156.239C255.985 155.591 255.467 154.832 255.096 153.962C254.726 153.092 254.541 152.158 254.541 151.158C254.541 150.159 254.726 149.224 255.096 148.354C255.467 147.484 255.985 146.725 256.651 146.077C257.299 145.429 258.077 144.92 258.984 144.55C259.872 144.18 260.835 143.995 261.871 143.995ZM261.871 147.382C261.372 147.382 260.9 147.475 260.455 147.66C260.011 147.863 259.632 148.132 259.317 148.465C258.984 148.798 258.725 149.196 258.539 149.659C258.354 150.122 258.262 150.621 258.262 151.158C258.262 151.695 258.354 152.195 258.539 152.657C258.725 153.12 258.984 153.518 259.317 153.851C259.632 154.185 260.011 154.444 260.455 154.629C260.9 154.832 261.372 154.934 261.871 154.934C262.39 154.934 262.871 154.832 263.315 154.629C263.741 154.444 264.12 154.185 264.454 153.851C264.768 153.518 265.018 153.12 265.203 152.657C265.388 152.195 265.481 151.695 265.481 151.158C265.481 150.621 265.388 150.122 265.203 149.659C265.018 149.196 264.768 148.798 264.454 148.465C264.12 148.132 263.741 147.863 263.315 147.66C262.871 147.475 262.39 147.382 261.871 147.382Z" fill="black"/>
<path d="M244.248 158.35C243.267 158.35 242.36 158.164 241.527 157.794C240.676 157.424 239.944 156.915 239.334 156.267C238.704 155.619 238.214 154.86 237.862 153.99C237.51 153.12 237.334 152.185 237.334 151.186C237.334 150.186 237.51 149.252 237.862 148.382C238.214 147.512 238.704 146.753 239.334 146.105C239.944 145.457 240.676 144.948 241.527 144.578C242.36 144.207 243.267 144.022 244.248 144.022C245.007 144.022 245.711 144.143 246.358 144.383C247.006 144.642 247.599 144.994 248.135 145.438V137.331H251.745V157.961H248.413V156.684C247.876 157.22 247.256 157.628 246.553 157.905C245.849 158.201 245.081 158.35 244.248 158.35ZM244.665 147.41C244.146 147.41 243.665 147.502 243.221 147.687C242.777 147.891 242.397 148.159 242.082 148.493C241.768 148.826 241.518 149.224 241.333 149.687C241.148 150.149 241.055 150.649 241.055 151.186C241.055 151.723 241.148 152.222 241.333 152.685C241.518 153.148 241.768 153.546 242.082 153.879C242.397 154.212 242.777 154.472 243.221 154.657C243.665 154.86 244.146 154.962 244.665 154.962C245.183 154.962 245.664 154.86 246.109 154.657C246.553 154.472 246.932 154.212 247.247 153.879C247.562 153.546 247.811 153.148 247.997 152.685C248.182 152.222 248.274 151.723 248.274 151.186C248.274 150.649 248.182 150.149 247.997 149.687C247.811 149.224 247.562 148.826 247.247 148.493C246.932 148.159 246.553 147.891 246.109 147.687C245.664 147.502 245.183 147.41 244.665 147.41Z" fill="black"/>
<path d="M229.773 157.961H226.302V154.74H229.773V144.383H233.383V154.74H235.993V157.961H233.383V160.737C233.383 161.737 233.253 162.561 232.994 163.209C232.735 163.875 232.374 164.44 231.911 164.902C231.448 165.365 230.911 165.726 230.301 165.985C229.69 166.244 229.023 166.374 228.301 166.374C227.95 166.374 227.626 166.346 227.33 166.291C227.015 166.235 226.672 166.133 226.302 165.985V162.681C226.747 162.885 227.219 162.986 227.718 162.986C228.292 162.986 228.773 162.792 229.162 162.403C229.366 162.218 229.523 161.978 229.634 161.681C229.727 161.385 229.773 160.95 229.773 160.376V157.961Z" fill="black"/>
<path d="M223.536 143.995C224.184 143.995 224.73 144.217 225.174 144.661C225.618 145.105 225.84 145.651 225.84 146.299C225.84 146.947 225.618 147.493 225.174 147.937C224.73 148.382 224.184 148.604 223.536 148.604C222.888 148.604 222.342 148.382 221.898 147.937C221.453 147.493 221.231 146.947 221.231 146.299C221.231 145.651 221.453 145.105 221.898 144.661C222.342 144.217 222.888 143.995 223.536 143.995Z" fill="black"/>
</svg>
