<?xml version="1.0" encoding="UTF-8" standalone="no"?>

<svg width="479" height="424" viewBox="0 0 479 424" fill="none" xmlns="http://www.w3.org/2000/svg">
    <path
        d="M2.5 362C1.39543 362 0.5 362.896 0.5 364C0.5 365.105 1.39543 366 2.5 366V362ZM477.914 365.415C478.695 364.634 478.695 363.367 477.914 362.586L465.186 349.858C464.405 349.077 463.139 349.077 462.358 349.858C461.577 350.639 461.577 351.906 462.358 352.687L473.672 364L462.358 375.314C461.577 376.095 461.577 377.362 462.358 378.143C463.139 378.924 464.405 378.924 465.186 378.143L477.914 365.415ZM2.5 366H476.5V362H2.5V366Z"
        fill="#F8935A" />
    <path
        d="M128.086 255.568C128.867 256.349 130.133 256.349 130.914 255.568L143.642 242.84C144.423 242.059 144.423 240.793 143.642 240.012C142.861 239.231 141.595 239.231 140.814 240.012L129.5 251.325L118.186 240.012C117.405 239.231 116.139 239.231 115.358 240.012C114.577 240.793 114.577 242.059 115.358 242.84L128.086 255.568ZM239.347 366C261.468 366 283.092 359.441 301.485 347.151L299.263 343.825C281.528 355.675 260.677 362 239.347 362V366ZM301.485 347.151C319.878 334.861 334.214 317.393 342.679 296.956L338.984 295.425C330.821 315.131 316.998 331.975 299.263 343.825L301.485 347.151ZM342.679 296.956C351.145 276.518 353.36 254.03 349.044 232.334L345.121 233.114C349.282 254.034 347.147 275.718 338.984 295.425L342.679 296.956ZM349.044 232.334C344.729 210.637 334.076 190.708 318.434 175.066L315.606 177.895C330.688 192.977 340.96 212.194 345.121 233.114L349.044 232.334ZM318.434 175.066C302.792 159.424 282.863 148.772 261.167 144.456L260.386 148.379C281.307 152.541 300.523 162.812 315.606 177.895L318.434 175.066ZM261.167 144.456C239.471 140.141 216.982 142.356 196.545 150.821L198.076 154.516C217.782 146.354 239.466 144.218 260.386 148.379L261.167 144.456ZM196.545 150.821C176.107 159.286 158.639 173.622 146.35 192.015L149.675 194.237C161.526 176.502 178.369 162.679 198.076 154.516L196.545 150.821ZM146.35 192.015C134.06 210.408 127.5 232.033 127.5 254.154H131.5C131.5 232.824 137.825 211.973 149.675 194.237L146.35 192.015Z"
        fill="#F8935A" />
    <path
        d="M280.512 103.627C281.293 104.408 282.559 104.408 283.34 103.627L296.068 90.8995C296.849 90.1184 296.849 88.8521 296.068 88.0711C295.287 87.29 294.021 87.29 293.24 88.0711L281.926 99.3848L270.612 88.0711C269.831 87.29 268.565 87.29 267.784 88.0711C267.003 88.8521 267.003 90.1184 267.784 90.8995L280.512 103.627ZM283.926 102.213C283.926 93.4687 281.333 84.9205 276.475 77.6497L273.149 79.872C277.568 86.485 279.926 94.2598 279.926 102.213L283.926 102.213ZM276.475 77.6497C271.617 70.3789 264.712 64.712 256.633 61.3656L255.102 65.0612C262.45 68.1048 268.73 73.259 273.149 79.872L276.475 77.6497ZM256.633 61.3656C248.554 58.0192 239.664 57.1437 231.088 58.8497L231.868 62.7728C239.668 61.2212 247.754 62.0175 255.102 65.0612L256.633 61.3656ZM231.088 58.8497C222.511 60.5556 214.633 64.7665 208.45 70.9498L211.278 73.7783C216.902 68.1544 224.067 64.3244 231.868 62.7728L231.088 58.8497ZM208.45 70.9498C202.266 77.1331 198.056 85.0111 196.35 93.5876L200.273 94.368C201.824 86.5674 205.654 79.4022 211.278 73.7783L208.45 70.9498ZM196.35 93.5876C194.644 102.164 195.519 111.054 198.866 119.133L202.561 117.602C199.517 110.254 198.721 102.169 200.273 94.368L196.35 93.5876ZM198.866 119.133C202.212 127.212 207.879 134.117 215.15 138.975L217.372 135.649C210.759 131.23 205.605 124.95 202.561 117.602L198.866 119.133ZM215.15 138.975C222.42 143.833 230.969 146.426 239.713 146.426L239.713 142.426C231.76 142.426 223.985 140.068 217.372 135.649L215.15 138.975Z"
        fill="#F8935A" />
    <path
        d="M141.682 25C148.773 25 152.977 20.6136 152.977 13.3409C152.977 6.09091 148.773 1.72727 141.841 1.72727H133.795V25H141.682ZM138.011 21.3523V5.375H141.602C146.33 5.375 148.795 8.01136 148.795 13.3409C148.795 18.6932 146.33 21.3523 141.477 21.3523H138.011ZM161.824 25.3523C164.562 25.3523 166.199 24.0682 166.949 22.6023H167.085V25H171.04V13.3182C171.04 8.70454 167.278 7.31818 163.949 7.31818C160.278 7.31818 157.46 8.95454 156.551 12.1364L160.392 12.6818C160.801 11.4886 161.96 10.4659 163.972 10.4659C165.881 10.4659 166.926 11.4432 166.926 13.1591V13.2273C166.926 14.4091 165.688 14.4659 162.608 14.7955C159.222 15.1591 155.983 16.1705 155.983 20.1023C155.983 23.5341 158.494 25.3523 161.824 25.3523ZM162.892 22.3295C161.176 22.3295 159.949 21.5455 159.949 20.0341C159.949 18.4545 161.324 17.7955 163.165 17.5341C164.244 17.3864 166.403 17.1136 166.938 16.6818V18.7386C166.938 20.6818 165.369 22.3295 162.892 22.3295ZM175.176 25H179.29V7.54545H175.176V25ZM177.244 5.06818C178.551 5.06818 179.619 4.06818 179.619 2.84091C179.619 1.60227 178.551 0.602272 177.244 0.602272C175.926 0.602272 174.858 1.60227 174.858 2.84091C174.858 4.06818 175.926 5.06818 177.244 5.06818ZM187.634 1.72727H183.52V25H187.634V1.72727ZM194.42 31.5114C197.625 31.5114 199.477 29.8523 200.466 27.1136L207.477 7.56818L203.08 7.54545L199.045 20.7273H198.864L194.841 7.54545H190.477L196.807 25.3636L196.455 26.3068C195.67 28.2386 194.489 28.3864 192.693 27.875L191.739 31.0682C192.295 31.3068 193.295 31.5114 194.42 31.5114ZM231.099 8.125H235.156C235.077 4.19318 231.724 1.40909 226.77 1.40909C221.884 1.40909 218.213 4.15909 218.224 8.27273C218.224 11.6136 220.599 13.5341 224.429 14.5227L227.077 15.2045C229.588 15.8409 231.247 16.625 231.259 18.4318C231.247 20.4205 229.361 21.75 226.611 21.75C223.974 21.75 221.929 20.5682 221.759 18.125H217.611C217.781 22.75 221.224 25.3523 226.645 25.3523C232.224 25.3523 235.463 22.5682 235.474 18.4659C235.463 14.4318 232.134 12.5909 228.634 11.7614L226.452 11.2159C224.543 10.7614 222.474 9.95455 222.497 8.01136C222.509 6.26136 224.077 4.97727 226.713 4.97727C229.224 4.97727 230.884 6.14773 231.099 8.125ZM247.767 7.54545H244.324V3.36364H240.21V7.54545H237.733V10.7273H240.21V20.4318C240.188 23.7159 242.574 25.3295 245.665 25.2386C246.835 25.2045 247.642 24.9773 248.085 24.8295L247.392 21.6136C247.165 21.6705 246.699 21.7727 246.188 21.7727C245.153 21.7727 244.324 21.4091 244.324 19.75V10.7273H247.767V7.54545ZM256.23 25.3523C258.969 25.3523 260.605 24.0682 261.355 22.6023H261.491V25H265.446V13.3182C265.446 8.70454 261.685 7.31818 258.355 7.31818C254.685 7.31818 251.866 8.95454 250.957 12.1364L254.798 12.6818C255.207 11.4886 256.366 10.4659 258.378 10.4659C260.287 10.4659 261.332 11.4432 261.332 13.1591V13.2273C261.332 14.4091 260.094 14.4659 257.014 14.7955C253.628 15.1591 250.389 16.1705 250.389 20.1023C250.389 23.5341 252.901 25.3523 256.23 25.3523ZM257.298 22.3295C255.582 22.3295 254.355 21.5455 254.355 20.0341C254.355 18.4545 255.73 17.7955 257.571 17.5341C258.651 17.3864 260.81 17.1136 261.344 16.6818V18.7386C261.344 20.6818 259.776 22.3295 257.298 22.3295ZM273.696 14.7727C273.696 12.25 275.219 10.7955 277.389 10.7955C279.514 10.7955 280.787 12.1932 280.787 14.5227V25H284.901V13.8864C284.912 9.70455 282.526 7.31818 278.923 7.31818C276.31 7.31818 274.514 8.56818 273.719 10.5114H273.514V7.54545H269.582V25H273.696V14.7727ZM295.56 25.3068C298.56 25.3068 299.912 23.5227 300.56 22.25H300.81V25H304.855V1.72727H300.73V10.4318H300.56C299.935 9.17045 298.651 7.31818 295.571 7.31818C291.537 7.31818 288.366 10.4773 288.366 16.2955C288.366 22.0455 291.446 25.3068 295.56 25.3068ZM296.707 21.9318C293.991 21.9318 292.56 19.5455 292.56 16.2727C292.56 13.0227 293.969 10.6932 296.707 10.6932C299.355 10.6932 300.81 12.8864 300.81 16.2727C300.81 19.6591 299.332 21.9318 296.707 21.9318ZM320.364 17.6591C320.364 20.3182 318.466 21.6364 316.648 21.6364C314.67 21.6364 313.352 20.2386 313.352 18.0227V7.54545H309.239V18.6591C309.239 22.8523 311.625 25.2273 315.057 25.2273C317.67 25.2273 319.511 23.8523 320.307 21.8977H320.489V25H324.477V7.54545H320.364V17.6591ZM328.707 31.5455H332.821V22.25H332.991C333.639 23.5227 334.991 25.3068 337.991 25.3068C342.105 25.3068 345.185 22.0455 345.185 16.2955C345.185 10.4773 342.014 7.31818 337.98 7.31818C334.901 7.31818 333.616 9.17045 332.991 10.4318H332.753V7.54545H328.707V31.5455ZM332.741 16.2727C332.741 12.8864 334.196 10.6932 336.844 10.6932C339.582 10.6932 340.991 13.0227 340.991 16.2727C340.991 19.5455 339.56 21.9318 336.844 21.9318C334.219 21.9318 332.741 19.6591 332.741 16.2727Z"
        fill="#252525" />
    <path
        d="M207.943 229.125H212C211.92 225.193 208.568 222.409 203.614 222.409C198.727 222.409 195.057 225.159 195.068 229.273C195.068 232.614 197.443 234.534 201.273 235.523L203.92 236.205C206.432 236.841 208.091 237.625 208.102 239.432C208.091 241.42 206.205 242.75 203.455 242.75C200.818 242.75 198.773 241.568 198.602 239.125H194.455C194.625 243.75 198.068 246.352 203.489 246.352C209.068 246.352 212.307 243.568 212.318 239.466C212.307 235.432 208.977 233.591 205.477 232.761L203.295 232.216C201.386 231.761 199.318 230.955 199.341 229.011C199.352 227.261 200.92 225.977 203.557 225.977C206.068 225.977 207.727 227.148 207.943 229.125ZM215.895 252.545H220.009V243.25H220.179C220.827 244.523 222.179 246.307 225.179 246.307C229.293 246.307 232.372 243.045 232.372 237.295C232.372 231.477 229.202 228.318 225.168 228.318C222.088 228.318 220.804 230.17 220.179 231.432H219.94V228.545H215.895V252.545ZM219.929 237.273C219.929 233.886 221.384 231.693 224.031 231.693C226.77 231.693 228.179 234.023 228.179 237.273C228.179 240.545 226.747 242.932 224.031 242.932C221.406 242.932 219.929 240.659 219.929 237.273ZM235.895 246H240.009V235.739C240.009 233.523 241.679 231.955 243.94 231.955C244.634 231.955 245.497 232.08 245.849 232.193V228.409C245.474 228.341 244.827 228.295 244.372 228.295C242.372 228.295 240.702 229.432 240.065 231.455H239.884V228.545H235.895V246ZM248.582 246H252.696V228.545H248.582V246ZM250.651 226.068C251.957 226.068 253.026 225.068 253.026 223.841C253.026 222.602 251.957 221.602 250.651 221.602C249.332 221.602 248.264 222.602 248.264 223.841C248.264 225.068 249.332 226.068 250.651 226.068ZM261.04 235.773C261.04 233.25 262.562 231.795 264.733 231.795C266.858 231.795 268.131 233.193 268.131 235.523V246H272.244V234.886C272.256 230.705 269.869 228.318 266.267 228.318C263.653 228.318 261.858 229.568 261.062 231.511H260.858V228.545H256.926V246H261.04V235.773ZM285.142 228.545H281.699V224.364H277.585V228.545H275.108V231.727H277.585V241.432C277.562 244.716 279.949 246.33 283.04 246.239C284.21 246.205 285.017 245.977 285.46 245.83L284.767 242.614C284.54 242.67 284.074 242.773 283.562 242.773C282.528 242.773 281.699 242.409 281.699 240.75V231.727H285.142V228.545Z"
        fill="#252525" />
    <path
        d="M164.568 286H180.523V282.477H170.386V282.318L174.398 278.239C178.92 273.898 180.17 271.784 180.17 269.159C180.17 265.261 177 262.409 172.318 262.409C167.705 262.409 164.432 265.273 164.432 269.693H168.443C168.443 267.318 169.943 265.83 172.261 265.83C174.477 265.83 176.125 267.182 176.125 269.375C176.125 271.318 174.943 272.705 172.648 275.034L164.568 282.955V286ZM197.506 286H201.665L206.335 269.67H206.517L211.176 286H215.335L221.903 262.727H217.369L213.176 279.841H212.972L208.483 262.727H204.358L199.881 279.83H199.665L195.472 262.727H190.938L197.506 286ZM230.477 286.341C235.591 286.341 238.841 282.739 238.841 277.341C238.841 271.932 235.591 268.318 230.477 268.318C225.364 268.318 222.114 271.932 222.114 277.341C222.114 282.739 225.364 286.341 230.477 286.341ZM230.5 283.045C227.67 283.045 226.284 280.523 226.284 277.33C226.284 274.136 227.67 271.58 230.5 271.58C233.284 271.58 234.67 274.136 234.67 277.33C234.67 280.523 233.284 283.045 230.5 283.045ZM249.946 286.341C254.332 286.341 257.128 283.739 257.423 280.034H253.491C253.139 281.909 251.787 282.989 249.98 282.989C247.412 282.989 245.753 280.841 245.753 277.273C245.753 273.75 247.446 271.636 249.98 271.636C251.957 271.636 253.173 272.909 253.491 274.591H257.423C257.139 270.807 254.185 268.318 249.923 268.318C244.81 268.318 241.582 272.011 241.582 277.341C241.582 282.625 244.73 286.341 249.946 286.341ZM264.915 275.773C264.915 273.25 266.483 271.795 268.688 271.795C270.847 271.795 272.119 273.17 272.119 275.523V286H276.233V274.886C276.233 270.67 273.847 268.318 270.222 268.318C267.54 268.318 265.835 269.534 265.028 271.511H264.824V262.727H260.801V286H264.915V275.773ZM288.153 286.341C292.222 286.341 295.017 284.352 295.744 281.318L291.903 280.886C291.347 282.364 289.983 283.136 288.21 283.136C285.551 283.136 283.79 281.386 283.756 278.398H295.915V277.136C295.915 271.011 292.233 268.318 287.938 268.318C282.938 268.318 279.676 271.989 279.676 277.375C279.676 282.852 282.892 286.341 288.153 286.341ZM283.767 275.625C283.892 273.398 285.54 271.523 287.994 271.523C290.358 271.523 291.949 273.25 291.972 275.625H283.767ZM303.509 275.773C303.509 273.25 305.031 271.795 307.202 271.795C309.327 271.795 310.599 273.193 310.599 275.523V286H314.713V274.886C314.724 270.705 312.338 268.318 308.736 268.318C306.122 268.318 304.327 269.568 303.531 271.511H303.327V268.545H299.395V286H303.509V275.773Z"
        fill="#252525" />
    <path
        d="M184.011 399.728H179.795V423H184.011V399.728ZM197.111 405.546H193.668V401.364H189.554V405.546H187.077V408.728H189.554V418.432C189.531 421.716 191.918 423.33 195.009 423.239C196.179 423.205 196.986 422.978 197.429 422.83L196.736 419.614C196.509 419.671 196.043 419.773 195.531 419.773C194.497 419.773 193.668 419.41 193.668 417.75V408.728H197.111V405.546ZM208.091 423.341C212.159 423.341 214.955 421.353 215.682 418.319L211.841 417.887C211.284 419.364 209.92 420.137 208.148 420.137C205.489 420.137 203.727 418.387 203.693 415.398H215.852V414.137C215.852 408.012 212.17 405.319 207.875 405.319C202.875 405.319 199.614 408.989 199.614 414.375C199.614 419.853 202.83 423.341 208.091 423.341ZM203.705 412.625C203.83 410.398 205.477 408.523 207.932 408.523C210.295 408.523 211.886 410.25 211.909 412.625H203.705ZM219.332 423H223.446V412.739C223.446 410.523 225.116 408.955 227.378 408.955C228.071 408.955 228.935 409.08 229.287 409.194V405.41C228.912 405.341 228.264 405.296 227.81 405.296C225.81 405.296 224.139 406.432 223.503 408.455H223.321V405.546H219.332V423ZM236.699 423.353C239.438 423.353 241.074 422.069 241.824 420.603H241.96V423H245.915V411.319C245.915 406.705 242.153 405.319 238.824 405.319C235.153 405.319 232.335 406.955 231.426 410.137L235.267 410.682C235.676 409.489 236.835 408.466 238.847 408.466C240.756 408.466 241.801 409.444 241.801 411.16V411.228C241.801 412.41 240.562 412.466 237.483 412.796C234.097 413.16 230.858 414.171 230.858 418.103C230.858 421.535 233.369 423.353 236.699 423.353ZM237.767 420.33C236.051 420.33 234.824 419.546 234.824 418.035C234.824 416.455 236.199 415.796 238.04 415.535C239.119 415.387 241.278 415.114 241.812 414.682V416.739C241.812 418.682 240.244 420.33 237.767 420.33ZM258.767 405.546H255.324V401.364H251.21V405.546H248.733V408.728H251.21V418.432C251.188 421.716 253.574 423.33 256.665 423.239C257.835 423.205 258.642 422.978 259.085 422.83L258.392 419.614C258.165 419.671 257.699 419.773 257.188 419.773C256.153 419.773 255.324 419.41 255.324 417.75V408.728H258.767V405.546ZM262.207 423H266.321V405.546H262.207V423ZM264.276 403.069C265.582 403.069 266.651 402.069 266.651 400.841C266.651 399.603 265.582 398.603 264.276 398.603C262.957 398.603 261.889 399.603 261.889 400.841C261.889 402.069 262.957 403.069 264.276 403.069ZM278.165 423.341C283.278 423.341 286.528 419.739 286.528 414.341C286.528 408.932 283.278 405.319 278.165 405.319C273.051 405.319 269.801 408.932 269.801 414.341C269.801 419.739 273.051 423.341 278.165 423.341ZM278.188 420.046C275.358 420.046 273.972 417.523 273.972 414.33C273.972 411.137 275.358 408.58 278.188 408.58C280.972 408.58 282.358 411.137 282.358 414.33C282.358 417.523 280.972 420.046 278.188 420.046ZM294.134 412.773C294.134 410.25 295.656 408.796 297.827 408.796C299.952 408.796 301.224 410.194 301.224 412.523V423H305.338V411.887C305.349 407.705 302.963 405.319 299.361 405.319C296.747 405.319 294.952 406.569 294.156 408.512H293.952V405.546H290.02V423H294.134V412.773Z"
        fill="#252525" />
</svg>