<?xml version="1.0" encoding="UTF-8" standalone="no"?>
<!-- Created with Keyshape -->
<svg xmlns="http://www.w3.org/2000/svg" shape-rendering="geometricPrecision" text-rendering="geometricPrecision" viewBox="0 0 1200 900" style="white-space: pre;">
    <style>
@keyframes pfeil_t { 0% { transform: translate(600px,454.05px) rotate(0deg) translate(-371.196066px,-371.19525px); } 100% { transform: translate(600px,454.05px) rotate(360deg) translate(-371.196066px,-371.19525px); } }
@keyframes a0_t { 0% { transform: translate(253px,289px) scale(1,1) translate(-149px,-38.5px); } 86.6571% { transform: translate(253px,289px) scale(1,1) translate(-149px,-38.5px); animation-timing-function: cubic-bezier(0.645,0.045,0.355,1); } 88.3142% { transform: translate(253px,289px) scale(1.2,1.2) translate(-149px,-38.5px); animation-timing-function: cubic-bezier(0.645,0.045,0.355,1); } 98.3142% { transform: translate(253px,289px) scale(1,1) translate(-149px,-38.5px); } 100% { transform: translate(253px,289px) scale(1,1) translate(-149px,-38.5px); } }
@keyframes a1_t { 0% { transform: translate(261px,619px) scale(1,1) translate(-142px,-38.5px); } 73.3142% { transform: translate(261px,619px) scale(1,1) translate(-142px,-38.5px); animation-timing-function: cubic-bezier(0.645,0.045,0.355,1); } 75% { transform: translate(261px,619px) scale(1.2,1.2) translate(-142px,-38.5px); animation-timing-function: cubic-bezier(0.645,0.045,0.355,1); } 85% { transform: translate(261px,619px) scale(1,1) translate(-142px,-38.5px); } 100% { transform: translate(261px,619px) scale(1,1) translate(-142px,-38.5px); } }
@keyframes a2_t { 0% { transform: translate(601.5px,825px) scale(1,1) translate(-174.5px,-38.5px); } 50% { transform: translate(601.5px,825px) scale(1,1) translate(-174.5px,-38.5px); animation-timing-function: cubic-bezier(0.645,0.045,0.355,1); } 53.3142% { transform: translate(601.5px,825px) scale(1.2,1.2) translate(-174.5px,-38.5px); animation-timing-function: cubic-bezier(0.645,0.045,0.355,1); } 68.3142% { transform: translate(601.5px,825px) scale(1,1) translate(-174.5px,-38.5px); } 100% { transform: translate(601.5px,825px) scale(1,1) translate(-174.5px,-38.5px); } }
@keyframes a3_t { 0% { transform: translate(947px,619px) scale(1,1) translate(-149px,-38.5px); } 38.3142% { transform: translate(947px,619px) scale(1,1) translate(-149px,-38.5px); animation-timing-function: cubic-bezier(0.645,0.045,0.355,1); } 40% { transform: translate(947px,619px) scale(1.2,1.2) translate(-149px,-38.5px); animation-timing-function: cubic-bezier(0.645,0.045,0.355,1); } 50% { transform: translate(947px,619px) scale(1,1) translate(-149px,-38.5px); } 100% { transform: translate(947px,619px) scale(1,1) translate(-149px,-38.5px); } }
@keyframes a4_t { 0% { transform: translate(939.5px,289px) scale(1,1) translate(-141.5px,-38.5px); } 23.3142% { transform: translate(939.5px,289px) scale(1,1) translate(-141.5px,-38.5px); animation-timing-function: cubic-bezier(0.645,0.045,0.355,1); } 25% { transform: translate(939.5px,289px) scale(1.2,1.2) translate(-141.5px,-38.5px); animation-timing-function: cubic-bezier(0.645,0.045,0.355,1); } 35% { transform: translate(939.5px,289px) scale(1,1) translate(-141.5px,-38.5px); } 100% { transform: translate(939.5px,289px) scale(1,1) translate(-141.5px,-38.5px); } }
@keyframes a5_t { 0% { transform: translate(601.5px,75px) scale(1,1) translate(-174.5px,-38.5px); animation-timing-function: cubic-bezier(0.645,0.045,0.355,1); } 3.3142% { transform: translate(601.5px,75px) scale(1.2,1.2) translate(-174.5px,-38.5px); animation-timing-function: cubic-bezier(0.645,0.045,0.355,1); } 18.3142% { transform: translate(601.5px,75px) scale(1,1) translate(-174.5px,-38.5px); } 100% { transform: translate(601.5px,75px) scale(1,1) translate(-174.5px,-38.5px); } }
    </style>
    <defs>
        <filter id="filter5_d_1805_7989" x="693.947" y="214.805" width="365.001" height="158.667" filterUnits="userSpaceOnUse" color-interpolation-filters="sRGB">
            <feFlood flood-opacity="0" result="BackgroundImageFix"/>
            <feColorMatrix in="SourceAlpha" type="matrix" values="0 0 0 0 0 0 0 0 0 0 0 0 0 0 0 0 0 0 127 0" result="hardAlpha"/>
            <feOffset dy="10.2222"/>
            <feGaussianBlur stdDeviation="20.4445"/>
            <feColorMatrix type="matrix" values="0 0 0 0 0 0 0 0 0 0 0 0 0 0 0 0 0 0 0.2 0"/>
            <feBlend mode="normal" in2="BackgroundImageFix" result="effect1_dropShadow_1805_7989"/>
            <feBlend mode="normal" in="SourceGraphic" in2="effect1_dropShadow_1805_7989" result="shape"/>
        </filter>
        <filter id="filter4_d_1805_7989" x="693.947" y="544.472" width="380.001" height="158.667" filterUnits="userSpaceOnUse" color-interpolation-filters="sRGB">
            <feFlood flood-opacity="0" result="BackgroundImageFix"/>
            <feColorMatrix in="SourceAlpha" type="matrix" values="0 0 0 0 0 0 0 0 0 0 0 0 0 0 0 0 0 0 127 0" result="hardAlpha"/>
            <feOffset dy="10.2222"/>
            <feGaussianBlur stdDeviation="20.4445"/>
            <feColorMatrix type="matrix" values="0 0 0 0 0 0 0 0 0 0 0 0 0 0 0 0 0 0 0.2 0"/>
            <feBlend mode="normal" in2="BackgroundImageFix" result="effect1_dropShadow_1805_7989"/>
            <feBlend mode="normal" in="SourceGraphic" in2="effect1_dropShadow_1805_7989" result="shape"/>
        </filter>
        <filter id="filter3_d_1805_7989" x="323.39" y="0.137952" width="430.335" height="158.667" filterUnits="userSpaceOnUse" color-interpolation-filters="sRGB">
            <feFlood flood-opacity="0" result="BackgroundImageFix"/>
            <feColorMatrix in="SourceAlpha" type="matrix" values="0 0 0 0 0 0 0 0 0 0 0 0 0 0 0 0 0 0 127 0" result="hardAlpha"/>
            <feOffset dy="10.2222"/>
            <feGaussianBlur stdDeviation="20.4445"/>
            <feColorMatrix type="matrix" values="0 0 0 0 0 0 0 0 0 0 0 0 0 0 0 0 0 0 0.2 0"/>
            <feBlend mode="normal" in2="BackgroundImageFix" result="effect1_dropShadow_1805_7989"/>
            <feBlend mode="normal" in="SourceGraphic" in2="effect1_dropShadow_1805_7989" result="shape"/>
        </filter>
        <filter id="filter2_d_1805_7989" x="323.39" y="750.195" width="430.335" height="158.667" filterUnits="userSpaceOnUse" color-interpolation-filters="sRGB">
            <feFlood flood-opacity="0" result="BackgroundImageFix"/>
            <feColorMatrix in="SourceAlpha" type="matrix" values="0 0 0 0 0 0 0 0 0 0 0 0 0 0 0 0 0 0 127 0" result="hardAlpha"/>
            <feOffset dy="10.2222"/>
            <feGaussianBlur stdDeviation="20.4445"/>
            <feColorMatrix type="matrix" values="0 0 0 0 0 0 0 0 0 0 0 0 0 0 0 0 0 0 0.2 0"/>
            <feBlend mode="normal" in2="BackgroundImageFix" result="effect1_dropShadow_1805_7989"/>
            <feBlend mode="normal" in="SourceGraphic" in2="effect1_dropShadow_1805_7989" result="shape"/>
        </filter>
        <filter id="filter1_d_1805_7989" x="15.445" y="544.472" width="365.001" height="158.667" filterUnits="userSpaceOnUse" color-interpolation-filters="sRGB">
            <feFlood flood-opacity="0" result="BackgroundImageFix"/>
            <feColorMatrix in="SourceAlpha" type="matrix" values="0 0 0 0 0 0 0 0 0 0 0 0 0 0 0 0 0 0 127 0" result="hardAlpha"/>
            <feOffset dy="10.2222"/>
            <feGaussianBlur stdDeviation="20.4445"/>
            <feColorMatrix type="matrix" values="0 0 0 0 0 0 0 0 0 0 0 0 0 0 0 0 0 0 0.2 0"/>
            <feBlend mode="normal" in2="BackgroundImageFix" result="effect1_dropShadow_1805_7989"/>
            <feBlend mode="normal" in="SourceGraphic" in2="effect1_dropShadow_1805_7989" result="shape"/>
        </filter>
        <filter id="filter0_d_1805_7989" x="0.111019" y="214.805" width="380.001" height="158.667" filterUnits="userSpaceOnUse" color-interpolation-filters="sRGB">
            <feFlood flood-opacity="0" result="BackgroundImageFix"/>
            <feColorMatrix in="SourceAlpha" type="matrix" values="0 0 0 0 0 0 0 0 0 0 0 0 0 0 0 0 0 0 127 0" result="hardAlpha"/>
            <feOffset dy="10.2222"/>
            <feGaussianBlur stdDeviation="20.4445"/>
            <feColorMatrix type="matrix" values="0 0 0 0 0 0 0 0 0 0 0 0 0 0 0 0 0 0 0.2 0"/>
            <feBlend mode="normal" in2="BackgroundImageFix" result="effect1_dropShadow_1805_7989"/>
            <feBlend mode="normal" in="SourceGraphic" in2="effect1_dropShadow_1805_7989" result="shape"/>
        </filter>
        <filter id="filter0_d_1817_8056" x="0.390316" y="0.137952" width="430.335" height="158.667" filterUnits="userSpaceOnUse" color-interpolation-filters="sRGB">
            <feFlood flood-opacity="0" result="BackgroundImageFix"/>
            <feColorMatrix in="SourceAlpha" type="matrix" values="0 0 0 0 0 0 0 0 0 0 0 0 0 0 0 0 0 0 127 0" result="hardAlpha"/>
            <feOffset dy="10.2222"/>
            <feGaussianBlur stdDeviation="20.4445"/>
            <feColorMatrix type="matrix" values="0 0 0 0 0 0 0 0 0 0 0 0 0 0 0 0 0 0 0.2 0"/>
            <feBlend mode="normal" in2="BackgroundImageFix" result="effect1_dropShadow_1817_8056"/>
            <feBlend mode="normal" in="SourceGraphic" in2="effect1_dropShadow_1817_8056" result="shape"/>
        </filter>
        <filter id="Filter-0" x="-17%" y="-64%" width="150%" height="302%" color-interpolation-filters="sRGB">
            <feGaussianBlur in="SourceAlpha" stdDeviation="16"/>
            <feOffset dx="0" dy="8" result="offsetblur"/>
            <feFlood flood-color="#000000" flood-opacity="0.2"/>
            <feComposite in2="offsetblur" operator="in"/>
            <feMerge>
                <feMergeNode/>
                <feMergeNode in="SourceGraphic"/>
            </feMerge>
        </filter>
        <filter id="Filter-1" x="-18%" y="-64%" width="152%" height="302%" color-interpolation-filters="sRGB">
            <feGaussianBlur in="SourceAlpha" stdDeviation="16"/>
            <feOffset dx="0" dy="8" result="offsetblur"/>
            <feFlood flood-color="#000000" flood-opacity="0.2"/>
            <feComposite in2="offsetblur" operator="in"/>
            <feMerge>
                <feMergeNode/>
                <feMergeNode in="SourceGraphic"/>
            </feMerge>
        </filter>
        <filter id="Filter-2" x="-15%" y="-64%" width="143%" height="302%" color-interpolation-filters="sRGB">
            <feGaussianBlur in="SourceAlpha" stdDeviation="16"/>
            <feOffset dx="0" dy="8" result="offsetblur"/>
            <feFlood flood-color="#000000" flood-opacity="0.2"/>
            <feComposite in2="offsetblur" operator="in"/>
            <feMerge>
                <feMergeNode/>
                <feMergeNode in="SourceGraphic"/>
            </feMerge>
        </filter>
        <filter id="Filter-3" x="-18%" y="-64%" width="152%" height="302%" color-interpolation-filters="sRGB">
            <feGaussianBlur in="SourceAlpha" stdDeviation="16"/>
            <feOffset dx="0" dy="8" result="offsetblur"/>
            <feFlood flood-color="#000000" flood-opacity="0.2"/>
            <feComposite in2="offsetblur" operator="in"/>
            <feMerge>
                <feMergeNode/>
                <feMergeNode in="SourceGraphic"/>
            </feMerge>
        </filter>
    </defs>
    <g id="pfeil" transform="translate(600,454.05) translate(-371.196,-371.195)" style="animation: 7s linear infinite both pfeil_t;">
        <path d="M382.195,11C469.845,11,554.668,42.0163,621.643,98.5567C688.618,155.097,733.425,233.514,748.13,319.922C762.834,406.329,746.488,495.153,701.985,570.664C657.482,646.176,587.694,703.503,504.978,732.496C422.262,761.488,331.955,760.275,250.047,729.071C168.14,697.867,99.9168,638.686,57.4583,562.006C14.9999,485.326,1.04541,396.095,18.0659,310.114C35.0863,224.133,81.9836,146.948,150.454,92.2269" stroke="#6986E8" stroke-width="20.4445" stroke-linecap="round" fill="none" transform="translate(371.196,371.195) translate(-382.195,-382.195)"/>
        <path d="M188.42,45.549C192.237,44.5984,195.653,48.1374,194.567,51.9191L174.718,121.055C173.632,124.836,168.86,126.025,166.128,123.193L116.179,71.4359C113.447,68.6048,114.804,63.8776,118.622,62.927L188.42,45.549Z" fill="#6986E8" transform="translate(143.757,74.0753) translate(-154.757,-85.0753)"/>
    </g>
    <g id="mccvalueloop" transform="translate(596.145,463.728) translate(-88.2985,-94.1365)">
        <path d="M458.804,360.455L472.736,360.455L484.554,389.273L485.099,389.273L496.918,360.455L510.849,360.455L510.849,407L499.895,407L499.895,378.409L499.509,378.409L488.327,406.705L481.327,406.705L470.145,378.25L469.759,378.25L469.759,407L458.804,407L458.804,360.455Z" fill="#FF6600" transform="translate(39.951,23.909) translate(-484.827,-383.727)"/>
        <path d="M560.116,377.318L548.753,377.318C548.601,376.152,548.291,375.098,547.821,374.159C547.351,373.22,546.73,372.417,545.957,371.75C545.185,371.083,544.268,370.576,543.207,370.227C542.162,369.864,541.003,369.682,539.73,369.682C537.473,369.682,535.526,370.235,533.889,371.341C532.268,372.447,531.018,374.045,530.139,376.136C529.276,378.227,528.844,380.758,528.844,383.727C528.844,386.818,529.283,389.409,530.162,391.5C531.056,393.576,532.306,395.144,533.912,396.205C535.533,397.25,537.45,397.773,539.662,397.773C540.904,397.773,542.033,397.614,543.048,397.295C544.079,396.977,544.98,396.515,545.753,395.909C546.541,395.288,547.185,394.538,547.685,393.659C548.2,392.765,548.556,391.758,548.753,390.636L560.116,390.705C559.92,392.765,559.321,394.795,558.321,396.795C557.336,398.795,555.98,400.621,554.253,402.273C552.526,403.909,550.42,405.212,547.935,406.182C545.465,407.152,542.632,407.636,539.435,407.636C535.223,407.636,531.45,406.712,528.116,404.864C524.798,403,522.177,400.288,520.253,396.727C518.329,393.167,517.366,388.833,517.366,383.727C517.366,378.606,518.344,374.265,520.298,370.705C522.253,367.144,524.897,364.439,528.23,362.591C531.563,360.742,535.298,359.818,539.435,359.818C542.253,359.818,544.859,360.212,547.253,361C549.647,361.773,551.753,362.909,553.571,364.409C555.389,365.894,556.866,367.72,558.003,369.886C559.139,372.053,559.844,374.53,560.116,377.318ZM608.804,377.318L597.44,377.318C597.289,376.152,596.978,375.098,596.509,374.159C596.039,373.22,595.418,372.417,594.645,371.75C593.872,371.083,592.955,370.576,591.895,370.227C590.849,369.864,589.69,369.682,588.418,369.682C586.16,369.682,584.213,370.235,582.577,371.341C580.955,372.447,579.705,374.045,578.827,376.136C577.963,378.227,577.531,380.758,577.531,383.727C577.531,386.818,577.971,389.409,578.849,391.5C579.743,393.576,580.993,395.144,582.599,396.205C584.221,397.25,586.137,397.773,588.349,397.773C589.592,397.773,590.721,397.614,591.736,397.295C592.766,396.977,593.668,396.515,594.44,395.909C595.228,395.288,595.872,394.538,596.372,393.659C596.887,392.765,597.243,391.758,597.44,390.636L608.804,390.705C608.607,392.765,608.009,394.795,607.009,396.795C606.024,398.795,604.668,400.621,602.94,402.273C601.213,403.909,599.107,405.212,596.622,406.182C594.152,407.152,591.319,407.636,588.122,407.636C583.91,407.636,580.137,406.712,576.804,404.864C573.486,403,570.865,400.288,568.94,396.727C567.016,393.167,566.054,388.833,566.054,383.727C566.054,378.606,567.031,374.265,568.986,370.705C570.94,367.144,573.584,364.439,576.918,362.591C580.251,360.742,583.986,359.818,588.122,359.818C590.94,359.818,593.546,360.212,595.94,361C598.334,361.773,600.44,362.909,602.259,364.409C604.077,365.894,605.554,367.72,606.69,369.886C607.827,372.053,608.531,374.53,608.804,377.318ZM457.466,424.455L467.875,458.545L468.261,458.545L478.67,424.455L491.261,424.455L475.557,471L460.58,471L444.875,424.455L457.466,424.455ZM502.051,471.591C499.824,471.591,497.847,471.22,496.119,470.477C494.407,469.72,493.051,468.583,492.051,467.068C491.066,465.538,490.574,463.621,490.574,461.318C490.574,459.379,490.915,457.742,491.597,456.409C492.278,455.076,493.218,453.992,494.415,453.159C495.612,452.326,496.991,451.697,498.551,451.273C500.112,450.833,501.778,450.538,503.551,450.386C505.536,450.205,507.134,450.015,508.347,449.818C509.559,449.606,510.438,449.311,510.983,448.932C511.544,448.538,511.824,447.985,511.824,447.273L511.824,447.159C511.824,445.992,511.422,445.091,510.619,444.455C509.816,443.818,508.733,443.5,507.369,443.5C505.9,443.5,504.718,443.818,503.824,444.455C502.93,445.091,502.362,445.97,502.119,447.091L491.869,446.727C492.172,444.606,492.953,442.712,494.21,441.045C495.483,439.364,497.225,438.045,499.438,437.091C501.665,436.121,504.339,435.636,507.46,435.636C509.688,435.636,511.741,435.902,513.619,436.432C515.498,436.947,517.134,437.705,518.528,438.705C519.922,439.689,520.998,440.902,521.756,442.341C522.528,443.78,522.915,445.424,522.915,447.273L522.915,471L512.46,471L512.46,466.136L512.188,466.136C511.566,467.318,510.771,468.318,509.801,469.136C508.847,469.955,507.718,470.568,506.415,470.977C505.127,471.386,503.672,471.591,502.051,471.591ZM505.483,464.318C506.68,464.318,507.756,464.076,508.71,463.591C509.68,463.106,510.453,462.439,511.028,461.591C511.604,460.727,511.892,459.727,511.892,458.591L511.892,455.273C511.574,455.439,511.188,455.591,510.733,455.727C510.294,455.864,509.809,455.992,509.278,456.114C508.748,456.235,508.203,456.341,507.642,456.432C507.081,456.523,506.544,456.606,506.028,456.682C504.983,456.848,504.089,457.106,503.347,457.455C502.619,457.803,502.059,458.258,501.665,458.818C501.286,459.364,501.097,460.015,501.097,460.773C501.097,461.924,501.506,462.803,502.324,463.409C503.157,464.015,504.21,464.318,505.483,464.318ZM540.824,424.455L540.824,471L529.71,471L529.71,424.455L540.824,424.455ZM570.42,455.932L570.42,436.091L581.511,436.091L581.511,471L570.92,471L570.92,464.5L570.557,464.5C569.784,466.636,568.466,468.333,566.602,469.591C564.754,470.833,562.519,471.455,559.898,471.455C557.519,471.455,555.428,470.909,553.625,469.818C551.822,468.727,550.42,467.205,549.42,465.25C548.42,463.28,547.913,460.977,547.898,458.341L547.898,436.091L559.011,436.091L559.011,456.159C559.027,458.053,559.527,459.545,560.511,460.636C561.496,461.727,562.837,462.273,564.534,462.273C565.64,462.273,566.633,462.03,567.511,461.545C568.405,461.045,569.11,460.326,569.625,459.386C570.155,458.432,570.42,457.28,570.42,455.932ZM604.903,471.659C601.252,471.659,598.1,470.939,595.449,469.5C592.813,468.045,590.782,465.977,589.358,463.295C587.949,460.598,587.244,457.394,587.244,453.682C587.244,450.076,587.956,446.924,589.381,444.227C590.805,441.515,592.812,439.409,595.403,437.909C597.994,436.394,601.047,435.636,604.562,435.636C607.047,435.636,609.32,436.023,611.381,436.795C613.441,437.568,615.222,438.712,616.722,440.227C618.222,441.742,619.388,443.614,620.222,445.841C621.055,448.053,621.472,450.591,621.472,453.455L621.472,456.227L591.131,456.227L591.131,449.773L611.131,449.773C611.116,448.591,610.835,447.538,610.29,446.614C609.744,445.689,608.994,444.97,608.04,444.455C607.1,443.924,606.017,443.659,604.79,443.659C603.547,443.659,602.434,443.939,601.449,444.5C600.464,445.045,599.684,445.795,599.108,446.75C598.532,447.689,598.229,448.758,598.199,449.955L598.199,456.523C598.199,457.947,598.479,459.197,599.04,460.273C599.6,461.333,600.396,462.159,601.426,462.75C602.456,463.341,603.684,463.636,605.108,463.636C606.093,463.636,606.987,463.5,607.79,463.227C608.593,462.955,609.282,462.553,609.858,462.023C610.434,461.492,610.866,460.841,611.153,460.068L621.358,460.364C620.934,462.652,620.002,464.644,618.562,466.341C617.138,468.023,615.267,469.333,612.949,470.273C610.631,471.197,607.949,471.659,604.903,471.659ZM458.71,535L458.71,488.455L469.96,488.455L469.96,525.864L489.324,525.864L489.324,535L458.71,535ZM511.443,535.659C507.777,535.659,504.625,534.909,501.989,533.409C499.367,531.894,497.345,529.788,495.92,527.091C494.511,524.379,493.807,521.235,493.807,517.659C493.807,514.068,494.511,510.924,495.92,508.227C497.345,505.515,499.367,503.409,501.989,501.909C504.625,500.394,507.777,499.636,511.443,499.636C515.11,499.636,518.254,500.394,520.875,501.909C523.511,503.409,525.534,505.515,526.943,508.227C528.367,510.924,529.08,514.068,529.08,517.659C529.08,521.235,528.367,524.379,526.943,527.091C525.534,529.788,523.511,531.894,520.875,533.409C518.254,534.909,515.11,535.659,511.443,535.659ZM511.511,527.273C512.845,527.273,513.973,526.864,514.898,526.045C515.822,525.227,516.527,524.091,517.011,522.636C517.511,521.182,517.761,519.5,517.761,517.591C517.761,515.652,517.511,513.955,517.011,512.5C516.527,511.045,515.822,509.909,514.898,509.091C513.973,508.273,512.845,507.864,511.511,507.864C510.133,507.864,508.966,508.273,508.011,509.091C507.072,509.909,506.352,511.045,505.852,512.5C505.367,513.955,505.125,515.652,505.125,517.591C505.125,519.5,505.367,521.182,505.852,522.636C506.352,524.091,507.072,525.227,508.011,526.045C508.966,526.864,510.133,527.273,511.511,527.273ZM551.068,535.659C547.402,535.659,544.25,534.909,541.614,533.409C538.992,531.894,536.97,529.788,535.545,527.091C534.136,524.379,533.432,521.235,533.432,517.659C533.432,514.068,534.136,510.924,535.545,508.227C536.97,505.515,538.992,503.409,541.614,501.909C544.25,500.394,547.402,499.636,551.068,499.636C554.735,499.636,557.879,500.394,560.5,501.909C563.136,503.409,565.159,505.515,566.568,508.227C567.992,510.924,568.705,514.068,568.705,517.659C568.705,521.235,567.992,524.379,566.568,527.091C565.159,529.788,563.136,531.894,560.5,533.409C557.879,534.909,554.735,535.659,551.068,535.659ZM551.136,527.273C552.47,527.273,553.598,526.864,554.523,526.045C555.447,525.227,556.152,524.091,556.636,522.636C557.136,521.182,557.386,519.5,557.386,517.591C557.386,515.652,557.136,513.955,556.636,512.5C556.152,511.045,555.447,509.909,554.523,509.091C553.598,508.273,552.47,507.864,551.136,507.864C549.758,507.864,548.591,508.273,547.636,509.091C546.697,509.909,545.977,511.045,545.477,512.5C544.992,513.955,544.75,515.652,544.75,517.591C544.75,519.5,544.992,521.182,545.477,522.636C545.977,524.091,546.697,525.227,547.636,526.045C548.591,526.864,549.758,527.273,551.136,527.273ZM574.398,548.091L574.398,500.091L585.398,500.091L585.398,506.068L585.739,506.068C586.193,505.008,586.837,503.985,587.67,503C588.519,502.015,589.595,501.212,590.898,500.591C592.216,499.955,593.792,499.636,595.625,499.636C598.049,499.636,600.314,500.273,602.42,501.545C604.542,502.818,606.254,504.78,607.557,507.432C608.86,510.083,609.511,513.462,609.511,517.568C609.511,521.523,608.883,524.833,607.625,527.5C606.383,530.167,604.701,532.167,602.58,533.5C600.473,534.833,598.133,535.5,595.557,535.5C593.799,535.5,592.277,535.212,590.989,534.636C589.701,534.061,588.617,533.303,587.739,532.364C586.875,531.424,586.208,530.417,585.739,529.341L585.511,529.341L585.511,548.091L574.398,548.091ZM585.284,517.545C585.284,519.424,585.534,521.061,586.034,522.455C586.549,523.848,587.284,524.932,588.239,525.705C589.208,526.462,590.367,526.841,591.716,526.841C593.08,526.841,594.239,526.462,595.193,525.705C596.148,524.932,596.867,523.848,597.352,522.455C597.852,521.061,598.102,519.424,598.102,517.545C598.102,515.667,597.852,514.038,597.352,512.659C596.867,511.28,596.148,510.212,595.193,509.455C594.254,508.697,593.095,508.318,591.716,508.318C590.352,508.318,589.193,508.689,588.239,509.432C587.284,510.174,586.549,511.235,586.034,512.614C585.534,513.992,585.284,515.636,585.284,517.545Z" fill="#252525" transform="translate(88.298,94.136) translate(-533.173,-453.954)"/>
    </g>
    <g filter="url(#Filter-0)" transform="translate(253,289) translate(-149,-38.5)" style="animation: 7s linear infinite both a0_t;">
        <rect width="298" height="77" rx="16" fill="white" transform="translate(149,38.5) translate(-149,-38.5)"/>
        <path d="M47.1485,235.583L38.2388,255.948L29.8064,235.583L17.5557,235.583L17.5557,271.54L26.6244,271.54L26.6244,250.857L35.375,271.699L40.3071,271.699L49.2168,250.857L49.2168,271.699L58.4446,271.699L58.4446,235.583L47.1485,235.583Z" fill="#FF6600" transform="translate(38.0001,38.641) translate(-38.0001,-253.641)"/>
        <path d="M101.294,249.307C101.116,248.688,100.866,248.142,100.544,247.668C100.222,247.185,99.8282,246.778,99.3623,246.448C98.9049,246.109,98.3798,245.851,97.7869,245.673C97.2024,245.495,96.5545,245.406,95.843,245.406C94.5132,245.406,93.3443,245.736,92.3363,246.397C91.3369,247.058,90.5576,248.019,89.9986,249.281C89.4396,250.535,89.16,252.068,89.16,253.88C89.16,255.693,89.4353,257.235,89.9859,258.505C90.5364,259.776,91.3157,260.746,92.3236,261.415C93.3316,262.075,94.5216,262.406,95.8938,262.406C97.1389,262.406,98.2019,262.185,99.0828,261.745C99.9722,261.296,100.65,260.665,101.116,259.852C101.59,259.039,101.827,258.077,101.827,256.968L102.945,257.133L96.2368,257.133L96.2368,252.991L107.125,252.991L107.125,256.269C107.125,258.556,106.642,260.521,105.677,262.164C104.711,263.799,103.381,265.061,101.687,265.95C99.9933,266.831,98.0537,267.272,95.8684,267.272C93.429,267.272,91.286,266.734,89.4396,265.658C87.5931,264.574,86.1531,263.037,85.1198,261.046C84.0949,259.047,83.5825,256.676,83.5825,253.931C83.5825,251.822,83.8874,249.942,84.4972,248.29C85.1156,246.63,85.9795,245.224,87.0891,244.072C88.1987,242.92,89.4904,242.043,90.9642,241.442C92.438,240.841,94.0346,240.54,95.754,240.54C97.2279,240.54,98.6,240.756,99.8705,241.188C101.141,241.611,102.268,242.213,103.25,242.992C104.241,243.771,105.05,244.699,105.677,245.775C106.304,246.842,106.706,248.019,106.884,249.307L101.294,249.307ZM120.05,267.297C118.042,267.297,116.314,266.891,114.866,266.077C113.426,265.256,112.316,264.095,111.537,262.596C110.758,261.089,110.368,259.306,110.368,257.247C110.368,255.24,110.758,253.478,111.537,251.962C112.316,250.446,113.413,249.264,114.828,248.417C116.251,247.57,117.919,247.147,119.834,247.147C121.121,247.147,122.32,247.354,123.429,247.769C124.547,248.176,125.521,248.79,126.351,249.612C127.19,250.433,127.842,251.466,128.308,252.712C128.774,253.948,129.007,255.397,129.007,257.057L129.007,258.543L112.528,258.543L112.528,255.189L123.912,255.189C123.912,254.41,123.743,253.72,123.404,253.118C123.065,252.517,122.595,252.047,121.993,251.708C121.401,251.361,120.71,251.187,119.923,251.187C119.101,251.187,118.372,251.378,117.737,251.759C117.11,252.131,116.619,252.635,116.263,253.271C115.908,253.897,115.726,254.596,115.717,255.367L115.717,258.556C115.717,259.522,115.895,260.356,116.251,261.059C116.615,261.762,117.127,262.304,117.788,262.685C118.449,263.066,119.232,263.257,120.139,263.257C120.74,263.257,121.29,263.172,121.79,263.003C122.29,262.833,122.718,262.579,123.073,262.24C123.429,261.902,123.7,261.487,123.887,260.995L128.892,261.326C128.638,262.528,128.117,263.579,127.33,264.477C126.55,265.366,125.542,266.061,124.306,266.56C123.078,267.052,121.659,267.297,120.05,267.297ZM137.951,255.634L137.951,266.916L132.539,266.916L132.539,247.401L137.697,247.401L137.697,250.844L137.926,250.844C138.358,249.709,139.082,248.811,140.098,248.15C141.115,247.481,142.347,247.147,143.796,247.147C145.151,247.147,146.332,247.443,147.34,248.036C148.348,248.629,149.132,249.476,149.691,250.577C150.25,251.67,150.529,252.974,150.529,254.49L150.529,266.916L145.117,266.916L145.117,255.456C145.125,254.262,144.82,253.33,144.202,252.661C143.584,251.983,142.733,251.644,141.648,251.644C140.92,251.644,140.276,251.801,139.717,252.114C139.167,252.428,138.735,252.885,138.421,253.487C138.116,254.08,137.96,254.795,137.951,255.634ZM163.689,267.297C161.681,267.297,159.953,266.891,158.505,266.077C157.065,265.256,155.956,264.095,155.176,262.596C154.397,261.089,154.007,259.306,154.007,257.247C154.007,255.24,154.397,253.478,155.176,251.962C155.956,250.446,157.052,249.264,158.467,248.417C159.89,247.57,161.559,247.147,163.473,247.147C164.76,247.147,165.959,247.354,167.068,247.769C168.186,248.176,169.16,248.79,169.991,249.612C170.829,250.433,171.481,251.466,171.947,252.712C172.413,253.948,172.646,255.397,172.646,257.057L172.646,258.543L156.167,258.543L156.167,255.189L167.551,255.189C167.551,254.41,167.382,253.72,167.043,253.118C166.704,252.517,166.234,252.047,165.633,251.708C165.04,251.361,164.349,251.187,163.562,251.187C162.74,251.187,162.012,251.378,161.376,251.759C160.75,252.131,160.258,252.635,159.903,253.271C159.547,253.897,159.365,254.596,159.356,255.367L159.356,258.556C159.356,259.522,159.534,260.356,159.89,261.059C160.254,261.762,160.767,262.304,161.427,262.685C162.088,263.066,162.871,263.257,163.778,263.257C164.379,263.257,164.93,263.172,165.429,263.003C165.929,262.833,166.357,262.579,166.713,262.24C167.068,261.902,167.339,261.487,167.526,260.995L172.532,261.326C172.278,262.528,171.757,263.579,170.969,264.477C170.19,265.366,169.182,266.061,167.945,266.56C166.717,267.052,165.298,267.297,163.689,267.297ZM176.178,266.916L176.178,247.401L181.425,247.401L181.425,250.806L181.629,250.806C181.984,249.595,182.581,248.68,183.42,248.061C184.259,247.435,185.224,247.121,186.317,247.121C186.588,247.121,186.88,247.138,187.193,247.172C187.507,247.206,187.782,247.253,188.019,247.312L188.019,252.114C187.765,252.038,187.414,251.97,186.965,251.911C186.516,251.852,186.105,251.822,185.732,251.822C184.936,251.822,184.225,251.996,183.598,252.343C182.98,252.682,182.488,253.156,182.124,253.766C181.768,254.376,181.59,255.079,181.59,255.875L181.59,266.916L176.178,266.916ZM190.818,266.916L190.818,247.401L196.23,247.401L196.23,266.916L190.818,266.916ZM193.536,244.885C192.732,244.885,192.042,244.618,191.466,244.085C190.898,243.543,190.614,242.895,190.614,242.141C190.614,241.395,190.898,240.756,191.466,240.222C192.042,239.68,192.732,239.409,193.536,239.409C194.341,239.409,195.027,239.68,195.595,240.222C196.171,240.756,196.459,241.395,196.459,242.141C196.459,242.895,196.171,243.543,195.595,244.085C195.027,244.618,194.341,244.885,193.536,244.885ZM209.459,267.297C207.452,267.297,205.724,266.891,204.276,266.077C202.836,265.256,201.726,264.095,200.947,262.596C200.168,261.089,199.778,259.306,199.778,257.247C199.778,255.24,200.168,253.478,200.947,251.962C201.726,250.446,202.823,249.264,204.237,248.417C205.66,247.57,207.329,247.147,209.243,247.147C210.531,247.147,211.729,247.354,212.839,247.769C213.957,248.176,214.931,248.79,215.761,249.612C216.6,250.433,217.252,251.466,217.718,252.712C218.184,253.948,218.416,255.397,218.416,257.057L218.416,258.543L201.938,258.543L201.938,255.189L213.322,255.189C213.322,254.41,213.152,253.72,212.813,253.118C212.475,252.517,212.005,252.047,211.403,251.708C210.81,251.361,210.12,251.187,209.332,251.187C208.511,251.187,207.782,251.378,207.147,251.759C206.52,252.131,206.029,252.635,205.673,253.271C205.317,253.897,205.135,254.596,205.127,255.367L205.127,258.556C205.127,259.522,205.305,260.356,205.66,261.059C206.025,261.762,206.537,262.304,207.198,262.685C207.858,263.066,208.642,263.257,209.548,263.257C210.15,263.257,210.7,263.172,211.2,263.003C211.7,262.833,212.127,262.579,212.483,262.24C212.839,261.902,213.11,261.487,213.296,260.995L218.302,261.326C218.048,262.528,217.527,263.579,216.739,264.477C215.96,265.366,214.952,266.061,213.716,266.56C212.487,267.052,211.069,267.297,209.459,267.297ZM221.948,266.916L221.948,247.401L227.196,247.401L227.196,250.806L227.399,250.806C227.755,249.595,228.352,248.68,229.19,248.061C230.029,247.435,230.995,247.121,232.087,247.121C232.358,247.121,232.651,247.138,232.964,247.172C233.277,247.206,233.553,247.253,233.79,247.312L233.79,252.114C233.536,252.038,233.184,251.97,232.735,251.911C232.286,251.852,231.875,251.822,231.503,251.822C230.707,251.822,229.995,251.996,229.368,252.343C228.75,252.682,228.259,253.156,227.895,253.766C227.539,254.376,227.361,255.079,227.361,255.875L227.361,266.916L221.948,266.916ZM244.573,267.297C242.566,267.297,240.838,266.891,239.39,266.077C237.95,265.256,236.84,264.095,236.061,262.596C235.282,261.089,234.892,259.306,234.892,257.247C234.892,255.24,235.282,253.478,236.061,251.962C236.84,250.446,237.937,249.264,239.351,248.417C240.774,247.57,242.443,247.147,244.357,247.147C245.645,247.147,246.843,247.354,247.953,247.769C249.071,248.176,250.045,248.79,250.875,249.612C251.714,250.433,252.366,251.466,252.832,252.712C253.298,253.948,253.53,255.397,253.53,257.057L253.53,258.543L237.052,258.543L237.052,255.189L248.436,255.189C248.436,254.41,248.266,253.72,247.927,253.118C247.589,252.517,247.119,252.047,246.517,251.708C245.924,251.361,245.234,251.187,244.446,251.187C243.625,251.187,242.896,251.378,242.261,251.759C241.634,252.131,241.143,252.635,240.787,253.271C240.431,253.897,240.249,254.596,240.241,255.367L240.241,258.556C240.241,259.522,240.419,260.356,240.774,261.059C241.139,261.762,241.651,262.304,242.312,262.685C242.972,263.066,243.756,263.257,244.662,263.257C245.264,263.257,245.814,263.172,246.314,263.003C246.814,262.833,247.241,262.579,247.597,262.24C247.953,261.902,248.224,261.487,248.41,260.995L253.416,261.326C253.162,262.528,252.641,263.579,251.853,264.477C251.074,265.366,250.066,266.061,248.83,266.56C247.601,267.052,246.183,267.297,244.573,267.297ZM262.475,255.634L262.475,266.916L257.063,266.916L257.063,247.401L262.221,247.401L262.221,250.844L262.45,250.844C262.881,249.709,263.606,248.811,264.622,248.15C265.639,247.481,266.871,247.147,268.319,247.147C269.675,247.147,270.856,247.443,271.864,248.036C272.872,248.629,273.656,249.476,274.215,250.577C274.774,251.67,275.053,252.974,275.053,254.49L275.053,266.916L269.641,266.916L269.641,255.456C269.649,254.262,269.344,253.33,268.726,252.661C268.108,251.983,267.256,251.644,266.172,251.644C265.444,251.644,264.8,251.801,264.241,252.114C263.69,252.428,263.258,252.885,262.945,253.487C262.64,254.08,262.483,254.795,262.475,255.634Z" fill="#252525" transform="translate(179.318,38.353) translate(-179.318,-253.353)"/>
    </g>
    <g filter="url(#Filter-1)" transform="translate(261,619) translate(-142,-38.5)" style="animation: 7s linear infinite both a1_t;">
        <rect width="284" height="77" rx="16" fill="white" transform="translate(142,38.5) translate(-142,-38.5)"/>
        <path d="M62.4825,565.25L53.5728,585.615L45.1404,565.25L32.8896,565.25L32.8896,601.207L41.9584,601.207L41.9584,580.524L50.709,601.366L55.6411,601.366L64.5508,580.524L64.5508,601.366L73.7786,601.366L73.7786,565.25L62.4825,565.25Z" fill="#FF6600" transform="translate(38.3341,38.308) translate(-53.3341,-583.308)"/>
        <path d="M103.859,596.583L97.9636,596.583L106.946,570.563L114.036,570.563L123.006,596.583L117.11,596.583L110.593,576.509L110.389,576.509L103.859,596.583ZM103.49,586.355L117.415,586.355L117.415,590.65L103.49,590.65L103.49,586.355ZM130.94,590.967L130.953,584.475L131.74,584.475L137.991,577.068L144.204,577.068L135.806,586.876L134.523,586.876L130.94,590.967ZM126.036,596.583L126.036,570.563L131.448,570.563L131.448,596.583L126.036,596.583ZM138.233,596.583L132.49,588.083L136.098,584.259L144.573,596.583L138.233,596.583ZM157.24,577.068L157.24,581.133L145.487,581.133L145.487,577.068L157.24,577.068ZM148.155,572.392L153.568,572.392L153.568,590.586C153.568,591.086,153.644,591.476,153.797,591.755C153.949,592.026,154.161,592.217,154.432,592.327C154.711,592.437,155.033,592.492,155.397,592.492C155.652,592.492,155.906,592.471,156.16,592.428C156.414,592.378,156.609,592.339,156.744,592.314L157.595,596.342C157.324,596.426,156.943,596.524,156.452,596.634C155.961,596.752,155.364,596.824,154.661,596.85C153.356,596.901,152.213,596.727,151.23,596.329C150.256,595.931,149.498,595.312,148.956,594.474C148.414,593.635,148.147,592.577,148.155,591.298L148.155,572.392ZM160.765,596.583L160.765,577.068L166.178,577.068L166.178,596.583L160.765,596.583ZM163.484,574.552C162.68,574.552,161.989,574.285,161.413,573.752C160.846,573.21,160.562,572.562,160.562,571.808C160.562,571.062,160.846,570.423,161.413,569.889C161.989,569.347,162.68,569.076,163.484,569.076C164.289,569.076,164.975,569.347,165.543,569.889C166.119,570.423,166.406,571.062,166.406,571.808C166.406,572.562,166.119,573.21,165.543,573.752C164.975,574.285,164.289,574.552,163.484,574.552ZM188.707,577.068L181.885,596.583L175.786,596.583L168.963,577.068L174.681,577.068L178.734,591.031L178.937,591.031L182.977,577.068L188.707,577.068ZM191.477,596.583L191.477,577.068L196.889,577.068L196.889,596.583L191.477,596.583ZM194.196,574.552C193.391,574.552,192.701,574.285,192.125,573.752C191.558,573.21,191.274,572.562,191.274,571.808C191.274,571.062,191.558,570.423,192.125,569.889C192.701,569.347,193.391,569.076,194.196,569.076C195.001,569.076,195.687,569.347,196.254,569.889C196.83,570.423,197.118,571.062,197.118,571.808C197.118,572.562,196.83,573.21,196.254,573.752C195.687,574.285,195.001,574.552,194.196,574.552ZM210.119,596.964C208.111,596.964,206.383,596.558,204.935,595.744C203.495,594.923,202.386,593.762,201.606,592.263C200.827,590.756,200.437,588.973,200.437,586.914C200.437,584.907,200.827,583.145,201.606,581.629C202.386,580.113,203.482,578.931,204.897,578.084C206.32,577.237,207.989,576.814,209.903,576.814C211.19,576.814,212.389,577.021,213.498,577.436C214.616,577.843,215.59,578.457,216.421,579.279C217.259,580.1,217.911,581.133,218.377,582.379C218.843,583.615,219.076,585.064,219.076,586.724L219.076,588.21L202.597,588.21L202.597,584.856L213.981,584.856C213.981,584.077,213.812,583.387,213.473,582.785C213.134,582.184,212.664,581.714,212.063,581.375C211.47,581.028,210.779,580.854,209.992,580.854C209.17,580.854,208.442,581.045,207.806,581.426C207.18,581.798,206.688,582.302,206.333,582.938C205.977,583.564,205.795,584.263,205.786,585.034L205.786,588.223C205.786,589.189,205.964,590.023,206.32,590.726C206.684,591.429,207.197,591.971,207.857,592.352C208.518,592.733,209.301,592.924,210.208,592.924C210.809,592.924,211.36,592.839,211.859,592.67C212.359,592.5,212.787,592.246,213.143,591.907C213.498,591.569,213.769,591.154,213.956,590.662L218.962,590.993C218.707,592.195,218.187,593.246,217.399,594.144C216.62,595.033,215.612,595.728,214.375,596.227C213.147,596.719,211.728,596.964,210.119,596.964ZM222.608,596.583L222.608,577.068L227.855,577.068L227.855,580.473L228.059,580.473C228.414,579.262,229.011,578.347,229.85,577.728C230.688,577.102,231.654,576.788,232.747,576.788C233.018,576.788,233.31,576.805,233.623,576.839C233.937,576.873,234.212,576.92,234.449,576.979L234.449,581.781C234.195,581.705,233.844,581.637,233.395,581.578C232.946,581.519,232.535,581.489,232.162,581.489C231.366,581.489,230.655,581.663,230.028,582.01C229.409,582.349,228.918,582.823,228.554,583.433C228.198,584.043,228.02,584.746,228.02,585.542L228.02,596.583L222.608,596.583ZM245.233,596.964C243.225,596.964,241.497,596.558,240.049,595.744C238.609,594.923,237.5,593.762,236.72,592.263C235.941,590.756,235.551,588.973,235.551,586.914C235.551,584.907,235.941,583.145,236.72,581.629C237.5,580.113,238.596,578.931,240.011,578.084C241.434,577.237,243.103,576.814,245.017,576.814C246.304,576.814,247.503,577.021,248.612,577.436C249.73,577.843,250.704,578.457,251.535,579.279C252.373,580.1,253.025,581.133,253.491,582.379C253.957,583.615,254.19,585.064,254.19,586.724L254.19,588.21L237.711,588.21L237.711,584.856L249.095,584.856C249.095,584.077,248.926,583.387,248.587,582.785C248.248,582.184,247.778,581.714,247.177,581.375C246.584,581.028,245.893,580.854,245.106,580.854C244.284,580.854,243.556,581.045,242.92,581.426C242.294,581.798,241.802,582.302,241.447,582.938C241.091,583.564,240.909,584.263,240.9,585.034L240.9,588.223C240.9,589.189,241.078,590.023,241.434,590.726C241.798,591.429,242.311,591.971,242.971,592.352C243.632,592.733,244.415,592.924,245.322,592.924C245.923,592.924,246.474,592.839,246.973,592.67C247.473,592.5,247.901,592.246,248.257,591.907C248.612,591.569,248.883,591.154,249.07,590.662L254.076,590.993C253.821,592.195,253.301,593.246,252.513,594.144C251.734,595.033,250.726,595.728,249.489,596.227C248.261,596.719,246.842,596.964,245.233,596.964ZM263.134,585.301L263.134,596.583L257.722,596.583L257.722,577.068L262.88,577.068L262.88,580.511L263.109,580.511C263.541,579.376,264.265,578.478,265.282,577.817C266.298,577.148,267.53,576.814,268.979,576.814C270.334,576.814,271.516,577.11,272.524,577.703C273.531,578.296,274.315,579.143,274.874,580.244C275.433,581.337,275.713,582.641,275.713,584.157L275.713,596.583L270.3,596.583L270.3,585.123C270.309,583.929,270.004,582.997,269.385,582.328C268.767,581.65,267.916,581.311,266.832,581.311C266.103,581.311,265.459,581.468,264.9,581.781C264.35,582.095,263.918,582.552,263.604,583.154C263.3,583.747,263.143,584.462,263.134,585.301Z" fill="#252525" transform="translate(171.838,38.02) translate(-186.838,-583.02)"/>
    </g>
    <g filter="url(#Filter-2)" transform="translate(601.5,825) translate(-174.5,-38.5)" style="animation: 7s linear infinite both a2_t;">
        <rect width="349" height="77" rx="16" fill="white" transform="translate(174.5,38.5) translate(-174.5,-38.5)"/>
        <path d="M370.427,770.973L361.517,791.338L353.085,770.973L340.834,770.973L340.834,806.929L349.903,806.929L349.903,786.246L358.653,807.089L363.585,807.089L372.495,786.246L372.495,807.089L381.723,807.089L381.723,770.973L370.427,770.973Z" fill="#FF6600" transform="translate(38.2785,38.031) translate(-361.279,-789.031)"/>
        <path d="M407.318,802.306L407.318,776.285L417.584,776.285C419.558,776.285,421.239,776.662,422.628,777.416C424.017,778.162,425.076,779.199,425.804,780.529C426.541,781.85,426.91,783.375,426.91,785.103C426.91,786.831,426.537,788.355,425.792,789.677C425.046,790.998,423.966,792.027,422.552,792.764C421.146,793.501,419.443,793.869,417.444,793.869L410.901,793.869L410.901,789.461L416.555,789.461C417.614,789.461,418.486,789.279,419.172,788.914C419.867,788.542,420.383,788.029,420.722,787.377C421.069,786.716,421.243,785.958,421.243,785.103C421.243,784.239,421.069,783.485,420.722,782.841C420.383,782.189,419.867,781.685,419.172,781.329C418.478,780.965,417.597,780.783,416.529,780.783L412.82,780.783L412.82,802.306L407.318,802.306ZM430.381,802.306L430.381,782.79L435.629,782.79L435.629,786.195L435.832,786.195C436.188,784.984,436.785,784.069,437.623,783.451C438.462,782.824,439.427,782.511,440.52,782.511C440.791,782.511,441.083,782.528,441.397,782.562C441.71,782.596,441.985,782.642,442.223,782.702L442.223,787.504C441.968,787.428,441.617,787.36,441.168,787.301C440.719,787.242,440.308,787.212,439.936,787.212C439.139,787.212,438.428,787.386,437.801,787.733C437.183,788.072,436.692,788.546,436.327,789.156C435.972,789.766,435.794,790.469,435.794,791.265L435.794,802.306L430.381,802.306ZM452.93,802.687C450.956,802.687,449.25,802.268,447.81,801.429C446.378,800.582,445.273,799.405,444.494,797.897C443.714,796.381,443.325,794.623,443.325,792.624C443.325,790.608,443.714,788.847,444.494,787.339C445.273,785.823,446.378,784.645,447.81,783.807C449.25,782.96,450.956,782.536,452.93,782.536C454.903,782.536,456.606,782.96,458.037,783.807C459.477,784.645,460.587,785.823,461.366,787.339C462.145,788.847,462.535,790.608,462.535,792.624C462.535,794.623,462.145,796.381,461.366,797.897C460.587,799.405,459.477,800.582,458.037,801.429C456.606,802.268,454.903,802.687,452.93,802.687ZM452.955,798.494C453.853,798.494,454.603,798.24,455.204,797.732C455.805,797.215,456.259,796.512,456.564,795.623C456.877,794.733,457.034,793.721,457.034,792.586C457.034,791.451,456.877,790.439,456.564,789.55C456.259,788.66,455.805,787.957,455.204,787.441C454.603,786.924,453.853,786.666,452.955,786.666C452.049,786.666,451.287,786.924,450.668,787.441C450.058,787.957,449.597,788.66,449.283,789.55C448.979,790.439,448.826,791.451,448.826,792.586C448.826,793.721,448.979,794.733,449.283,795.623C449.597,796.512,450.058,797.215,450.668,797.732C451.287,798.24,452.049,798.494,452.955,798.494ZM476.549,782.79L476.549,786.856L464.504,786.856L464.504,782.79L476.549,782.79ZM467.261,802.306L467.261,781.38C467.261,779.966,467.537,778.793,468.087,777.861C468.646,776.929,469.409,776.23,470.374,775.764C471.34,775.299,472.437,775.066,473.665,775.066C474.495,775.066,475.253,775.129,475.939,775.256C476.634,775.383,477.15,775.498,477.489,775.599L476.523,779.665C476.312,779.597,476.049,779.534,475.736,779.474C475.431,779.415,475.117,779.385,474.796,779.385C473.999,779.385,473.445,779.572,473.131,779.945C472.818,780.309,472.661,780.821,472.661,781.482L472.661,802.306L467.261,802.306ZM479.855,802.306L479.855,782.79L485.268,782.79L485.268,802.306L479.855,802.306ZM482.574,780.275C481.77,780.275,481.079,780.008,480.503,779.474C479.936,778.932,479.652,778.284,479.652,777.531C479.652,776.785,479.936,776.146,480.503,775.612C481.079,775.07,481.77,774.799,482.574,774.799C483.379,774.799,484.065,775.07,484.633,775.612C485.208,776.146,485.496,776.785,485.496,777.531C485.496,778.284,485.208,778.932,484.633,779.474C484.065,780.008,483.379,780.275,482.574,780.275ZM499.984,782.79L499.984,786.856L488.231,786.856L488.231,782.79L499.984,782.79ZM490.899,778.115L496.312,778.115L496.312,796.309C496.312,796.809,496.388,797.198,496.54,797.478C496.693,797.749,496.905,797.939,497.176,798.049C497.455,798.16,497.777,798.215,498.141,798.215C498.395,798.215,498.65,798.193,498.904,798.151C499.158,798.1,499.353,798.062,499.488,798.037L500.339,802.064C500.068,802.149,499.687,802.246,499.196,802.356C498.705,802.475,498.107,802.547,497.404,802.572C496.1,802.623,494.957,802.45,493.974,802.052C493,801.653,492.242,801.035,491.7,800.197C491.158,799.358,490.891,798.299,490.899,797.02L490.899,778.115ZM503.509,802.306L503.509,782.79L508.922,782.79L508.922,802.306L503.509,802.306ZM506.228,780.275C505.424,780.275,504.733,780.008,504.157,779.474C503.59,778.932,503.306,778.284,503.306,777.531C503.306,776.785,503.59,776.146,504.157,775.612C504.733,775.07,505.424,774.799,506.228,774.799C507.033,774.799,507.719,775.07,508.286,775.612C508.862,776.146,509.15,776.785,509.15,777.531C509.15,778.284,508.862,778.932,508.286,779.474C507.719,780.008,507.033,780.275,506.228,780.275ZM522.151,802.687C520.144,802.687,518.416,802.28,516.967,801.467C515.527,800.646,514.418,799.485,513.639,797.986C512.859,796.478,512.47,794.695,512.47,792.637C512.47,790.63,512.859,788.868,513.639,787.352C514.418,785.835,515.515,784.654,516.929,783.807C518.352,782.96,520.021,782.536,521.935,782.536C523.222,782.536,524.421,782.744,525.531,783.159C526.649,783.565,527.623,784.18,528.453,785.001C529.291,785.823,529.944,786.856,530.409,788.101C530.875,789.338,531.108,790.786,531.108,792.446L531.108,793.933L514.63,793.933L514.63,790.579L526.013,790.579C526.013,789.8,525.844,789.109,525.505,788.508C525.166,787.906,524.696,787.436,524.095,787.098C523.502,786.75,522.812,786.577,522.024,786.577C521.202,786.577,520.474,786.767,519.839,787.148C519.212,787.521,518.721,788.025,518.365,788.66C518.009,789.287,517.827,789.986,517.819,790.757L517.819,793.946C517.819,794.911,517.996,795.746,518.352,796.449C518.716,797.152,519.229,797.694,519.889,798.075C520.55,798.456,521.334,798.647,522.24,798.647C522.841,798.647,523.392,798.562,523.892,798.392C524.391,798.223,524.819,797.969,525.175,797.63C525.531,797.291,525.802,796.876,525.988,796.385L530.994,796.715C530.74,797.918,530.219,798.968,529.431,799.866C528.652,800.756,527.644,801.45,526.407,801.95C525.179,802.441,523.76,802.687,522.151,802.687ZM534.64,802.306L534.64,782.79L539.887,782.79L539.887,786.195L540.091,786.195C540.446,784.984,541.044,784.069,541.882,783.451C542.721,782.824,543.686,782.511,544.779,782.511C545.05,782.511,545.342,782.528,545.656,782.562C545.969,782.596,546.244,782.642,546.481,782.702L546.481,787.504C546.227,787.428,545.876,787.36,545.427,787.301C544.978,787.242,544.567,787.212,544.195,787.212C543.398,787.212,542.687,787.386,542.06,787.733C541.442,788.072,540.95,788.546,540.586,789.156C540.23,789.766,540.053,790.469,540.053,791.265L540.053,802.306L534.64,802.306ZM557.265,802.687C555.258,802.687,553.53,802.28,552.081,801.467C550.641,800.646,549.532,799.485,548.753,797.986C547.973,796.478,547.584,794.695,547.584,792.637C547.584,790.63,547.973,788.868,548.753,787.352C549.532,785.835,550.629,784.654,552.043,783.807C553.466,782.96,555.135,782.536,557.049,782.536C558.336,782.536,559.535,782.744,560.645,783.159C561.763,783.565,562.737,784.18,563.567,785.001C564.405,785.823,565.058,786.856,565.523,788.101C565.989,789.338,566.222,790.786,566.222,792.446L566.222,793.933L549.744,793.933L549.744,790.579L561.127,790.579C561.127,789.8,560.958,789.109,560.619,788.508C560.28,787.906,559.81,787.436,559.209,787.098C558.616,786.75,557.926,786.577,557.138,786.577C556.316,786.577,555.588,786.767,554.953,787.148C554.326,787.521,553.835,788.025,553.479,788.66C553.123,789.287,552.941,789.986,552.933,790.757L552.933,793.946C552.933,794.911,553.11,795.746,553.466,796.449C553.83,797.152,554.343,797.694,555.003,798.075C555.664,798.456,556.448,798.647,557.354,798.647C557.955,798.647,558.506,798.562,559.006,798.392C559.505,798.223,559.933,797.969,560.289,797.63C560.645,797.291,560.916,796.876,561.102,796.385L566.108,796.715C565.854,797.918,565.333,798.968,564.545,799.866C563.766,800.756,562.758,801.45,561.521,801.95C560.293,802.441,558.874,802.687,557.265,802.687ZM575.167,791.023L575.167,802.306L569.754,802.306L569.754,782.79L574.913,782.79L574.913,786.234L575.141,786.234C575.573,785.099,576.297,784.201,577.314,783.54C578.33,782.871,579.563,782.536,581.011,782.536C582.366,782.536,583.548,782.833,584.556,783.426C585.564,784.019,586.347,784.866,586.906,785.967C587.465,787.059,587.745,788.364,587.745,789.88L587.745,802.306L582.332,802.306L582.332,790.846C582.341,789.651,582.036,788.72,581.418,788.05C580.799,787.373,579.948,787.034,578.864,787.034C578.135,787.034,577.492,787.191,576.933,787.504C576.382,787.817,575.95,788.275,575.637,788.876C575.332,789.469,575.175,790.185,575.167,791.023Z" fill="#252525" transform="translate(174.531,37.743) translate(-497.531,-788.743)"/>
        <path d="M633.501,770.028C636.042,770.028,638.48,771.038,640.277,772.835C642.074,774.632,643.084,777.07,643.084,779.612C643.084,782.153,642.074,784.591,640.277,786.388C638.48,788.185,636.042,789.195,633.501,789.195C630.959,789.195,628.521,788.185,626.724,786.388C624.927,784.591,623.917,782.153,623.917,779.612C623.917,777.07,624.927,774.632,626.724,772.835C628.521,771.038,630.959,770.028,633.501,770.028L633.501,770.028ZM633.501,793.987C644.09,793.987,652.667,798.275,652.667,803.57L652.667,808.362L614.334,808.362L614.334,803.57C614.334,798.275,622.911,793.987,633.501,793.987Z" fill="#7DDDD1" transform="translate(310.5,38.195) translate(-633.5,-789.195)"/>
    </g>
    <g filter="url(#Filter-0)" transform="translate(947,619) translate(-149,-38.5)" style="animation: 7s linear infinite both a3_t;">
        <rect width="298" height="77" rx="16" fill="white" transform="translate(149,38.5) translate(-149,-38.5)"/>
        <path d="M733.796,578.974C733.619,578.355,733.369,577.809,733.047,577.335C732.725,576.852,732.331,576.445,731.865,576.115C731.408,575.776,730.883,575.518,730.29,575.34C729.705,575.162,729.057,575.073,728.346,575.073C727.016,575.073,725.847,575.403,724.839,576.064C723.84,576.725,723.061,577.686,722.502,578.948C721.942,580.202,721.663,581.735,721.663,583.547C721.663,585.36,721.938,586.902,722.489,588.172C723.039,589.443,723.819,590.413,724.827,591.082C725.835,591.742,727.025,592.073,728.397,592.073C729.642,592.073,730.705,591.852,731.586,591.412C732.475,590.963,733.153,590.332,733.619,589.519C734.093,588.706,734.33,587.744,734.33,586.635L735.448,586.8L728.74,586.8L728.74,582.658L739.628,582.658L739.628,585.936C739.628,588.223,739.145,590.188,738.18,591.831C737.214,593.466,735.884,594.728,734.19,595.617C732.496,596.498,730.557,596.939,728.371,596.939C725.932,596.939,723.789,596.401,721.942,595.325C720.096,594.241,718.656,592.704,717.623,590.713C716.598,588.714,716.085,586.343,716.085,583.598C716.085,581.489,716.39,579.609,717,577.957C717.618,576.297,718.482,574.891,719.592,573.739C720.702,572.587,721.993,571.71,723.467,571.109C724.941,570.508,726.538,570.207,728.257,570.207C729.731,570.207,731.103,570.423,732.373,570.855C733.644,571.278,734.771,571.88,735.753,572.659C736.744,573.438,737.553,574.366,738.18,575.442C738.807,576.509,739.209,577.686,739.387,578.974L733.796,578.974ZM752.553,596.964C750.545,596.964,748.817,596.558,747.369,595.744C745.929,594.923,744.819,593.762,744.04,592.263C743.261,590.756,742.871,588.973,742.871,586.914C742.871,584.907,743.261,583.145,744.04,581.629C744.819,580.113,745.916,578.931,747.331,578.084C748.754,577.237,750.422,576.814,752.337,576.814C753.624,576.814,754.823,577.021,755.932,577.436C757.05,577.843,758.024,578.457,758.854,579.279C759.693,580.1,760.345,581.133,760.811,582.379C761.277,583.615,761.51,585.064,761.51,586.724L761.51,588.21L745.031,588.21L745.031,584.856L756.415,584.856C756.415,584.077,756.245,583.387,755.907,582.785C755.568,582.184,755.098,581.714,754.496,581.375C753.903,581.028,753.213,580.854,752.425,580.854C751.604,580.854,750.875,581.045,750.24,581.426C749.613,581.798,749.122,582.302,748.766,582.938C748.411,583.564,748.228,584.263,748.22,585.034L748.22,588.223C748.22,589.189,748.398,590.023,748.754,590.726C749.118,591.429,749.63,591.971,750.291,592.352C750.952,592.733,751.735,592.924,752.641,592.924C753.243,592.924,753.793,592.839,754.293,592.67C754.793,592.5,755.221,592.246,755.576,591.907C755.932,591.569,756.203,591.154,756.389,590.662L761.395,590.993C761.141,592.195,760.62,593.246,759.833,594.144C759.053,595.033,758.045,595.728,756.809,596.227C755.581,596.719,754.162,596.964,752.553,596.964ZM770.454,585.301L770.454,596.583L765.042,596.583L765.042,577.068L770.2,577.068L770.2,580.511L770.429,580.511C770.861,579.376,771.585,578.478,772.601,577.817C773.618,577.148,774.85,576.814,776.299,576.814C777.654,576.814,778.835,577.11,779.843,577.703C780.851,578.296,781.635,579.143,782.194,580.244C782.753,581.337,783.032,582.641,783.032,584.157L783.032,596.583L777.62,596.583L777.62,585.123C777.628,583.929,777.323,582.997,776.705,582.328C776.087,581.65,775.236,581.311,774.151,581.311C773.423,581.311,772.779,581.468,772.22,581.781C771.67,582.095,771.238,582.552,770.924,583.154C770.619,583.747,770.463,584.462,770.454,585.301ZM796.192,596.964C794.184,596.964,792.456,596.558,791.008,595.744C789.568,594.923,788.458,593.762,787.679,592.263C786.9,590.756,786.51,588.973,786.51,586.914C786.51,584.907,786.9,583.145,787.679,581.629C788.458,580.113,789.555,578.931,790.97,578.084C792.393,577.237,794.061,576.814,795.976,576.814C797.263,576.814,798.462,577.021,799.571,577.436C800.689,577.843,801.663,578.457,802.493,579.279C803.332,580.1,803.984,581.133,804.45,582.379C804.916,583.615,805.149,585.064,805.149,586.724L805.149,588.21L788.67,588.21L788.67,584.856L800.054,584.856C800.054,584.077,799.885,583.387,799.546,582.785C799.207,582.184,798.737,581.714,798.136,581.375C797.543,581.028,796.852,580.854,796.065,580.854C795.243,580.854,794.515,581.045,793.879,581.426C793.253,581.798,792.761,582.302,792.406,582.938C792.05,583.564,791.868,584.263,791.859,585.034L791.859,588.223C791.859,589.189,792.037,590.023,792.393,590.726C792.757,591.429,793.27,591.971,793.93,592.352C794.591,592.733,795.374,592.924,796.281,592.924C796.882,592.924,797.433,592.839,797.932,592.67C798.432,592.5,798.86,592.246,799.216,591.907C799.571,591.569,799.842,591.154,800.029,590.662L805.035,590.993C804.78,592.195,804.26,593.246,803.472,594.144C802.693,595.033,801.685,595.728,800.448,596.227C799.22,596.719,797.801,596.964,796.192,596.964ZM808.681,596.583L808.681,577.068L813.928,577.068L813.928,580.473L814.131,580.473C814.487,579.262,815.084,578.347,815.923,577.728C816.761,577.102,817.727,576.788,818.82,576.788C819.091,576.788,819.383,576.805,819.696,576.839C820.01,576.873,820.285,576.92,820.522,576.979L820.522,581.781C820.268,581.705,819.917,581.637,819.468,581.578C819.019,581.519,818.608,581.489,818.235,581.489C817.439,581.489,816.728,581.663,816.101,582.01C815.482,582.349,814.991,582.823,814.627,583.433C814.271,584.043,814.093,584.746,814.093,585.542L814.093,596.583L808.681,596.583ZM823.32,596.583L823.32,577.068L828.733,577.068L828.733,596.583L823.32,596.583ZM826.039,574.552C825.235,574.552,824.544,574.285,823.968,573.752C823.401,573.21,823.117,572.562,823.117,571.808C823.117,571.062,823.401,570.423,823.968,569.889C824.544,569.347,825.235,569.076,826.039,569.076C826.844,569.076,827.53,569.347,828.098,569.889C828.674,570.423,828.962,571.062,828.962,571.808C828.962,572.562,828.674,573.21,828.098,573.752C827.53,574.285,826.844,574.552,826.039,574.552ZM841.962,596.964C839.955,596.964,838.227,596.558,836.778,595.744C835.339,594.923,834.229,593.762,833.45,592.263C832.67,590.756,832.281,588.973,832.281,586.914C832.281,584.907,832.67,583.145,833.45,581.629C834.229,580.113,835.326,578.931,836.74,578.084C838.163,577.237,839.832,576.814,841.746,576.814C843.034,576.814,844.232,577.021,845.342,577.436C846.46,577.843,847.434,578.457,848.264,579.279C849.103,580.1,849.755,581.133,850.221,582.379C850.686,583.615,850.919,585.064,850.919,586.724L850.919,588.21L834.441,588.21L834.441,584.856L845.825,584.856C845.825,584.077,845.655,583.387,845.316,582.785C844.978,582.184,844.507,581.714,843.906,581.375C843.313,581.028,842.623,580.854,841.835,580.854C841.014,580.854,840.285,581.045,839.65,581.426C839.023,581.798,838.532,582.302,838.176,582.938C837.82,583.564,837.638,584.263,837.63,585.034L837.63,588.223C837.63,589.189,837.808,590.023,838.163,590.726C838.528,591.429,839.04,591.971,839.701,592.352C840.361,592.733,841.145,592.924,842.051,592.924C842.653,592.924,843.203,592.839,843.703,592.67C844.203,592.5,844.63,592.246,844.986,591.907C845.342,591.569,845.613,591.154,845.799,590.662L850.805,590.993C850.551,592.195,850.03,593.246,849.242,594.144C848.463,595.033,847.455,595.728,846.218,596.227C844.99,596.719,843.572,596.964,841.962,596.964ZM854.451,596.583L854.451,577.068L859.699,577.068L859.699,580.473L859.902,580.473C860.258,579.262,860.855,578.347,861.693,577.728C862.532,577.102,863.498,576.788,864.59,576.788C864.861,576.788,865.153,576.805,865.467,576.839C865.78,576.873,866.056,576.92,866.293,576.979L866.293,581.781C866.039,581.705,865.687,581.637,865.238,581.578C864.789,581.519,864.378,581.489,864.006,581.489C863.21,581.489,862.498,581.663,861.871,582.01C861.253,582.349,860.762,582.823,860.397,583.433C860.042,584.043,859.864,584.746,859.864,585.542L859.864,596.583L854.451,596.583ZM877.076,596.964C875.069,596.964,873.341,596.558,871.892,595.744C870.453,594.923,869.343,593.762,868.564,592.263C867.784,590.756,867.395,588.973,867.395,586.914C867.395,584.907,867.784,583.145,868.564,581.629C869.343,580.113,870.44,578.931,871.854,578.084C873.277,577.237,874.946,576.814,876.86,576.814C878.148,576.814,879.346,577.021,880.456,577.436C881.574,577.843,882.548,578.457,883.378,579.279C884.217,580.1,884.869,581.133,885.335,582.379C885.8,583.615,886.033,585.064,886.033,586.724L886.033,588.21L869.555,588.21L869.555,584.856L880.939,584.856C880.939,584.077,880.769,583.387,880.43,582.785C880.092,582.184,879.621,581.714,879.02,581.375C878.427,581.028,877.737,580.854,876.949,580.854C876.128,580.854,875.399,581.045,874.764,581.426C874.137,581.798,873.646,582.302,873.29,582.938C872.934,583.564,872.752,584.263,872.744,585.034L872.744,588.223C872.744,589.189,872.922,590.023,873.277,590.726C873.642,591.429,874.154,591.971,874.815,592.352C875.475,592.733,876.259,592.924,877.165,592.924C877.767,592.924,878.317,592.839,878.817,592.67C879.317,592.5,879.744,592.246,880.1,591.907C880.456,591.569,880.727,591.154,880.913,590.662L885.919,590.993C885.665,592.195,885.144,593.246,884.356,594.144C883.577,595.033,882.569,595.728,881.332,596.227C880.104,596.719,878.686,596.964,877.076,596.964ZM894.978,585.301L894.978,596.583L889.565,596.583L889.565,577.068L894.724,577.068L894.724,580.511L894.952,580.511C895.384,579.376,896.109,578.478,897.125,577.817C898.141,577.148,899.374,576.814,900.822,576.814C902.177,576.814,903.359,577.11,904.367,577.703C905.375,578.296,906.158,579.143,906.717,580.244C907.276,581.337,907.556,582.641,907.556,584.157L907.556,596.583L902.144,596.583L902.144,585.123C902.152,583.929,901.847,582.997,901.229,582.328C900.61,581.65,899.759,581.311,898.675,581.311C897.947,581.311,897.303,581.468,896.744,581.781C896.193,582.095,895.761,582.552,895.448,583.154C895.143,583.747,894.986,584.462,894.978,585.301Z" fill="#252525" transform="translate(117.821,38.02) translate(-811.821,-583.02)"/>
        <path d="M953.723,564.306C956.265,564.306,958.703,565.315,960.5,567.113C962.297,568.91,963.307,571.347,963.307,573.889C963.307,576.431,962.297,578.868,960.5,580.665C958.703,582.463,956.265,583.472,953.723,583.472C951.182,583.472,948.744,582.463,946.947,580.665C945.15,578.868,944.14,576.431,944.14,573.889C944.14,571.347,945.15,568.91,946.947,567.113C948.744,565.315,951.182,564.306,953.723,564.306L953.723,564.306ZM953.723,588.264C964.313,588.264,972.89,592.553,972.89,597.847L972.89,602.639L934.557,602.639L934.557,597.847C934.557,592.553,943.134,588.264,953.723,588.264Z" fill="#7DDDD1" transform="translate(259.723,38.4725) translate(-953.723,-583.472)"/>
    </g>
    <g filter="url(#Filter-3)" transform="translate(939.5,289) translate(-141.5,-38.5)" style="animation: 7s linear infinite both a4_t;">
        <rect width="283" height="77" rx="16" fill="white" transform="translate(141.5,38.5) translate(-141.5,-38.5)"/>
        <path d="M721.028,266.916L715.132,266.916L724.115,240.896L731.205,240.896L740.174,266.916L734.279,266.916L727.761,246.842L727.558,246.842L721.028,266.916ZM720.659,256.688L734.584,256.688L734.584,260.983L720.659,260.983L720.659,256.688ZM748.109,261.3L748.122,254.808L748.909,254.808L755.16,247.401L761.373,247.401L752.975,257.209L751.692,257.209L748.109,261.3ZM743.205,266.916L743.205,240.896L748.617,240.896L748.617,266.916L743.205,266.916ZM755.402,266.916L749.659,258.416L753.267,254.592L761.742,266.916L755.402,266.916ZM774.409,247.401L774.409,251.466L762.656,251.466L762.656,247.401L774.409,247.401ZM765.324,242.725L770.737,242.725L770.737,260.919C770.737,261.419,770.813,261.809,770.966,262.088C771.118,262.359,771.33,262.55,771.601,262.66C771.88,262.77,772.202,262.825,772.566,262.825C772.82,262.825,773.075,262.804,773.329,262.761C773.583,262.711,773.778,262.672,773.913,262.647L774.764,266.675C774.493,266.759,774.112,266.857,773.621,266.967C773.13,267.085,772.533,267.157,771.829,267.183C770.525,267.234,769.382,267.06,768.399,266.662C767.425,266.264,766.667,265.645,766.125,264.807C765.583,263.968,765.316,262.91,765.324,261.631L765.324,242.725ZM777.934,266.916L777.934,247.401L783.347,247.401L783.347,266.916L777.934,266.916ZM780.653,244.885C779.849,244.885,779.158,244.618,778.582,244.085C778.015,243.543,777.731,242.895,777.731,242.141C777.731,241.395,778.015,240.756,778.582,240.222C779.158,239.68,779.849,239.409,780.653,239.409C781.458,239.409,782.144,239.68,782.711,240.222C783.287,240.756,783.575,241.395,783.575,242.141C783.575,242.895,783.287,243.543,782.711,244.085C782.144,244.618,781.458,244.885,780.653,244.885ZM805.876,247.401L799.054,266.916L792.955,266.916L786.132,247.401L791.85,247.401L795.903,261.364L796.106,261.364L800.146,247.401L805.876,247.401ZM808.646,266.916L808.646,247.401L814.058,247.401L814.058,266.916L808.646,266.916ZM811.365,244.885C810.56,244.885,809.87,244.618,809.294,244.085C808.726,243.543,808.443,242.895,808.443,242.141C808.443,241.395,808.726,240.756,809.294,240.222C809.87,239.68,810.56,239.409,811.365,239.409C812.17,239.409,812.856,239.68,813.423,240.222C813.999,240.756,814.287,241.395,814.287,242.141C814.287,242.895,813.999,243.543,813.423,244.085C812.856,244.618,812.17,244.885,811.365,244.885ZM827.288,267.297C825.28,267.297,823.552,266.891,822.104,266.077C820.664,265.256,819.554,264.095,818.775,262.596C817.996,261.089,817.606,259.306,817.606,257.247C817.606,255.24,817.996,253.478,818.775,251.962C819.554,250.446,820.651,249.264,822.066,248.417C823.489,247.57,825.157,247.147,827.072,247.147C828.359,247.147,829.558,247.354,830.667,247.769C831.785,248.176,832.759,248.79,833.589,249.612C834.428,250.433,835.08,251.466,835.546,252.712C836.012,253.948,836.245,255.397,836.245,257.057L836.245,258.543L819.766,258.543L819.766,255.189L831.15,255.189C831.15,254.41,830.981,253.72,830.642,253.118C830.303,252.517,829.833,252.047,829.232,251.708C828.639,251.361,827.948,251.187,827.161,251.187C826.339,251.187,825.611,251.378,824.975,251.759C824.349,252.131,823.857,252.635,823.502,253.271C823.146,253.897,822.964,254.596,822.955,255.367L822.955,258.556C822.955,259.522,823.133,260.356,823.489,261.059C823.853,261.762,824.366,262.304,825.026,262.685C825.687,263.066,826.47,263.257,827.377,263.257C827.978,263.257,828.529,263.172,829.028,263.003C829.528,262.833,829.956,262.579,830.312,262.24C830.667,261.902,830.938,261.487,831.125,260.995L836.131,261.326C835.876,262.528,835.356,263.579,834.568,264.477C833.789,265.366,832.781,266.061,831.544,266.56C830.316,267.052,828.897,267.297,827.288,267.297ZM839.777,266.916L839.777,247.401L845.024,247.401L845.024,250.806L845.227,250.806C845.583,249.595,846.18,248.68,847.019,248.061C847.857,247.435,848.823,247.121,849.916,247.121C850.187,247.121,850.479,247.138,850.792,247.172C851.106,247.206,851.381,247.253,851.618,247.312L851.618,252.114C851.364,252.038,851.013,251.97,850.564,251.911C850.115,251.852,849.704,251.822,849.331,251.822C848.535,251.822,847.824,251.996,847.197,252.343C846.578,252.682,846.087,253.156,845.723,253.766C845.367,254.376,845.189,255.079,845.189,255.875L845.189,266.916L839.777,266.916ZM862.402,267.297C860.394,267.297,858.666,266.891,857.218,266.077C855.778,265.256,854.668,264.095,853.889,262.596C853.11,261.089,852.72,259.306,852.72,257.247C852.72,255.24,853.11,253.478,853.889,251.962C854.668,250.446,855.765,249.264,857.18,248.417C858.603,247.57,860.271,247.147,862.186,247.147C863.473,247.147,864.672,247.354,865.781,247.769C866.899,248.176,867.873,248.79,868.703,249.612C869.542,250.433,870.194,251.466,870.66,252.712C871.126,253.948,871.359,255.397,871.359,257.057L871.359,258.543L854.88,258.543L854.88,255.189L866.264,255.189C866.264,254.41,866.095,253.72,865.756,253.118C865.417,252.517,864.947,252.047,864.346,251.708C863.753,251.361,863.062,251.187,862.275,251.187C861.453,251.187,860.725,251.378,860.089,251.759C859.463,252.131,858.971,252.635,858.616,253.271C858.26,253.897,858.078,254.596,858.069,255.367L858.069,258.556C858.069,259.522,858.247,260.356,858.603,261.059C858.967,261.762,859.48,262.304,860.14,262.685C860.801,263.066,861.584,263.257,862.491,263.257C863.092,263.257,863.643,263.172,864.142,263.003C864.642,262.833,865.07,262.579,865.426,262.24C865.781,261.902,866.052,261.487,866.239,260.995L871.245,261.326C870.99,262.528,870.47,263.579,869.682,264.477C868.903,265.366,867.895,266.061,866.658,266.56C865.43,267.052,864.011,267.297,862.402,267.297ZM880.303,255.634L880.303,266.916L874.891,266.916L874.891,247.401L880.049,247.401L880.049,250.844L880.278,250.844C880.71,249.709,881.434,248.811,882.451,248.15C883.467,247.481,884.699,247.147,886.148,247.147C887.503,247.147,888.685,247.443,889.692,248.036C890.7,248.629,891.484,249.476,892.043,250.577C892.602,251.67,892.882,252.974,892.882,254.49L892.882,266.916L887.469,266.916L887.469,255.456C887.478,254.262,887.173,253.33,886.554,252.661C885.936,251.983,885.085,251.644,884.001,251.644C883.272,251.644,882.628,251.801,882.069,252.114C881.519,252.428,881.087,252.885,880.773,253.487C880.469,254.08,880.312,254.795,880.303,255.634Z" fill="#252525" transform="translate(110.007,38.353) translate(-804.007,-253.353)"/>
        <path d="M938.723,234.639C941.265,234.639,943.703,235.648,945.5,237.446C947.297,239.243,948.307,241.68,948.307,244.222C948.307,246.764,947.297,249.201,945.5,250.998C943.703,252.796,941.265,253.805,938.723,253.805C936.182,253.805,933.744,252.796,931.947,250.998C930.15,249.201,929.14,246.764,929.14,244.222C929.14,241.68,930.15,239.243,931.947,237.446C933.744,235.648,936.182,234.639,938.723,234.639L938.723,234.639ZM938.723,258.597C949.313,258.597,957.89,262.886,957.89,268.18L957.89,272.972L919.557,272.972L919.557,268.18C919.557,262.886,928.134,258.597,938.723,258.597Z" fill="#7DDDD1" transform="translate(244.723,38.8055) translate(-938.723,-253.805)"/>
    </g>
    <g filter="url(#Filter-2)" transform="translate(601.5,75) translate(-174.5,-38.5)" style="animation: 7s linear infinite both a5_t;">
        <rect width="349" height="77" rx="16" fill="white" transform="translate(174.5,38.5) translate(-174.5,-38.5)"/>
        <path d="M370.427,20.916L361.517,41.2809L353.085,20.916L340.834,20.916L340.834,56.8728L349.903,56.8728L349.903,36.1897L358.653,57.032L363.585,57.032L372.495,36.1897L372.495,57.032L381.723,57.032L381.723,20.916L370.427,20.916Z" fill="#FF6600" transform="translate(38.2785,37.974) translate(-361.279,-38.974)"/>
        <path d="M407.318,52.249L407.318,26.2288L417.584,26.2288C419.558,26.2288,421.239,26.6057,422.628,27.3595C424.017,28.1049,425.076,29.1425,425.804,30.4723C426.541,31.7936,426.91,33.3183,426.91,35.0462C426.91,36.7741,426.537,38.2987,425.792,39.62C425.046,40.9414,423.966,41.9705,422.552,42.7074C421.146,43.4443,419.443,43.8128,417.444,43.8128L410.901,43.8128L410.901,39.4041L416.555,39.4041C417.614,39.4041,418.486,39.222,419.172,38.8577C419.867,38.4851,420.383,37.9726,420.722,37.3204C421.069,36.6597,421.243,35.9017,421.243,35.0462C421.243,34.1822,421.069,33.4284,420.722,32.7846C420.383,32.1324,419.867,31.6285,419.172,31.2727C418.478,30.9085,417.597,30.7264,416.529,30.7264L412.82,30.7264L412.82,52.249L407.318,52.249ZM430.381,52.249L430.381,32.7338L435.629,32.7338L435.629,36.1388L435.832,36.1388C436.188,34.9276,436.785,34.0128,437.623,33.3945C438.462,32.7677,439.427,32.4543,440.52,32.4543C440.791,32.4543,441.083,32.4713,441.397,32.5051C441.71,32.539,441.985,32.5856,442.223,32.6449L442.223,37.4475C441.968,37.3712,441.617,37.3035,441.168,37.2442C440.719,37.1849,440.308,37.1552,439.936,37.1552C439.139,37.1552,438.428,37.3289,437.801,37.6762C437.183,38.015,436.692,38.4893,436.327,39.0991C435.972,39.709,435.794,40.412,435.794,41.2082L435.794,52.249L430.381,52.249ZM452.93,52.6302C450.956,52.6302,449.25,52.2109,447.81,51.3724C446.378,50.5254,445.273,49.348,444.494,47.8403C443.714,46.3242,443.325,44.5666,443.325,42.5677C443.325,40.5518,443.714,38.79,444.494,37.2823C445.273,35.7661,446.378,34.5888,447.81,33.7502C449.25,32.9032,450.956,32.4797,452.93,32.4797C454.903,32.4797,456.606,32.9032,458.037,33.7502C459.477,34.5888,460.587,35.7661,461.366,37.2823C462.145,38.79,462.535,40.5518,462.535,42.5677C462.535,44.5666,462.145,46.3242,461.366,47.8403C460.587,49.348,459.477,50.5254,458.037,51.3724C456.606,52.2109,454.903,52.6302,452.93,52.6302ZM452.955,48.4375C453.853,48.4375,454.603,48.1834,455.204,47.6751C455.805,47.1585,456.259,46.4554,456.564,45.5661C456.877,44.6767,457.034,43.6645,457.034,42.5295C457.034,41.3945,456.877,40.3824,456.564,39.493C456.259,38.6036,455.805,37.9006,455.204,37.3839C454.603,36.8673,453.853,36.6089,452.955,36.6089C452.049,36.6089,451.287,36.8673,450.668,37.3839C450.058,37.9006,449.597,38.6036,449.283,39.493C448.979,40.3824,448.826,41.3945,448.826,42.5295C448.826,43.6645,448.979,44.6767,449.283,45.5661C449.597,46.4554,450.058,47.1585,450.668,47.6751C451.287,48.1834,452.049,48.4375,452.955,48.4375ZM476.549,32.7338L476.549,36.7995L464.504,36.7995L464.504,32.7338L476.549,32.7338ZM467.261,52.249L467.261,31.3235C467.261,29.909,467.537,28.7359,468.087,27.8042C468.646,26.8725,469.409,26.1737,470.374,25.7078C471.34,25.242,472.437,25.0091,473.665,25.0091C474.495,25.0091,475.253,25.0726,475.939,25.1996C476.634,25.3267,477.15,25.441,477.489,25.5427L476.523,29.6083C476.312,29.5406,476.049,29.4771,475.736,29.4178C475.431,29.3585,475.117,29.3288,474.796,29.3288C473.999,29.3288,473.445,29.5152,473.131,29.8879C472.818,30.2521,472.661,30.7645,472.661,31.4252L472.661,52.249L467.261,52.249ZM479.855,52.249L479.855,32.7338L485.268,32.7338L485.268,52.249L479.855,52.249ZM482.574,30.2182C481.77,30.2182,481.079,29.9514,480.503,29.4178C479.936,28.8757,479.652,28.2277,479.652,27.4739C479.652,26.7285,479.936,26.089,480.503,25.5554C481.079,25.0133,481.77,24.7423,482.574,24.7423C483.379,24.7423,484.065,25.0133,484.633,25.5554C485.208,26.089,485.496,26.7285,485.496,27.4739C485.496,28.2277,485.208,28.8757,484.633,29.4178C484.065,29.9514,483.379,30.2182,482.574,30.2182ZM499.984,32.7338L499.984,36.7995L488.231,36.7995L488.231,32.7338L499.984,32.7338ZM490.899,28.0583L496.312,28.0583L496.312,46.2522C496.312,46.7519,496.388,47.1415,496.54,47.421C496.693,47.6921,496.905,47.8827,497.176,47.9928C497.455,48.1029,497.777,48.1579,498.141,48.1579C498.395,48.1579,498.65,48.1368,498.904,48.0944C499.158,48.0436,499.353,48.0055,499.488,47.9801L500.339,52.0076C500.068,52.0923,499.687,52.1897,499.196,52.2998C498.705,52.4184,498.107,52.4904,497.404,52.5158C496.1,52.5667,494.957,52.393,493.974,51.9949C493,51.5968,492.242,50.9785,491.7,50.14C491.158,49.3014,490.891,48.2426,490.899,46.9637L490.899,28.0583ZM503.509,52.249L503.509,32.7338L508.922,32.7338L508.922,52.249L503.509,52.249ZM506.228,30.2182C505.424,30.2182,504.733,29.9514,504.157,29.4178C503.59,28.8757,503.306,28.2277,503.306,27.4739C503.306,26.7285,503.59,26.089,504.157,25.5554C504.733,25.0133,505.424,24.7423,506.228,24.7423C507.033,24.7423,507.719,25.0133,508.286,25.5554C508.862,26.089,509.15,26.7285,509.15,27.4739C509.15,28.2277,508.862,28.8757,508.286,29.4178C507.719,29.9514,507.033,30.2182,506.228,30.2182ZM522.151,52.6302C520.144,52.6302,518.416,52.2236,516.967,51.4105C515.527,50.5889,514.418,49.4285,513.639,47.9293C512.859,46.4216,512.47,44.6386,512.47,42.5804C512.47,40.5729,512.859,38.8112,513.639,37.295C514.418,35.7788,515.515,34.5973,516.929,33.7502C518.352,32.9032,520.021,32.4797,521.935,32.4797C523.222,32.4797,524.421,32.6872,525.531,33.1023C526.649,33.5088,527.623,34.1229,528.453,34.9445C529.291,35.7661,529.944,36.7995,530.409,38.0446C530.875,39.2812,531.108,40.7296,531.108,42.3898L531.108,43.8763L514.63,43.8763L514.63,40.5221L526.013,40.5221C526.013,39.7429,525.844,39.0525,525.505,38.4512C525.166,37.8498,524.696,37.3797,524.095,37.0409C523.502,36.6936,522.812,36.52,522.024,36.52C521.202,36.52,520.474,36.7106,519.839,37.0917C519.212,37.4644,518.721,37.9684,518.365,38.6036C518.009,39.2304,517.827,39.9292,517.819,40.7L517.819,43.889C517.819,44.8546,517.996,45.6889,518.352,46.3919C518.716,47.0949,519.229,47.637,519.889,48.0182C520.55,48.3993,521.334,48.5899,522.24,48.5899C522.841,48.5899,523.392,48.5052,523.892,48.3358C524.391,48.1664,524.819,47.9123,525.175,47.5735C525.531,47.2347,525.802,46.8197,525.988,46.3284L530.994,46.6587C530.74,47.8615,530.219,48.9118,529.431,49.8096C528.652,50.699,527.644,51.3935,526.407,51.8933C525.179,52.3845,523.76,52.6302,522.151,52.6302ZM534.64,52.249L534.64,32.7338L539.887,32.7338L539.887,36.1388L540.091,36.1388C540.446,34.9276,541.044,34.0128,541.882,33.3945C542.721,32.7677,543.686,32.4543,544.779,32.4543C545.05,32.4543,545.342,32.4713,545.656,32.5051C545.969,32.539,546.244,32.5856,546.481,32.6449L546.481,37.4475C546.227,37.3712,545.876,37.3035,545.427,37.2442C544.978,37.1849,544.567,37.1552,544.195,37.1552C543.398,37.1552,542.687,37.3289,542.06,37.6762C541.442,38.015,540.95,38.4893,540.586,39.0991C540.23,39.709,540.053,40.412,540.053,41.2082L540.053,52.249L534.64,52.249ZM557.265,52.6302C555.258,52.6302,553.53,52.2236,552.081,51.4105C550.641,50.5889,549.532,49.4285,548.753,47.9293C547.973,46.4216,547.584,44.6386,547.584,42.5804C547.584,40.5729,547.973,38.8112,548.753,37.295C549.532,35.7788,550.629,34.5973,552.043,33.7502C553.466,32.9032,555.135,32.4797,557.049,32.4797C558.336,32.4797,559.535,32.6872,560.645,33.1023C561.763,33.5088,562.737,34.1229,563.567,34.9445C564.405,35.7661,565.058,36.7995,565.523,38.0446C565.989,39.2812,566.222,40.7296,566.222,42.3898L566.222,43.8763L549.744,43.8763L549.744,40.5221L561.127,40.5221C561.127,39.7429,560.958,39.0525,560.619,38.4512C560.28,37.8498,559.81,37.3797,559.209,37.0409C558.616,36.6936,557.926,36.52,557.138,36.52C556.316,36.52,555.588,36.7106,554.953,37.0917C554.326,37.4644,553.835,37.9684,553.479,38.6036C553.123,39.2304,552.941,39.9292,552.933,40.7L552.933,43.889C552.933,44.8546,553.11,45.6889,553.466,46.3919C553.83,47.0949,554.343,47.637,555.003,48.0182C555.664,48.3993,556.448,48.5899,557.354,48.5899C557.955,48.5899,558.506,48.5052,559.006,48.3358C559.505,48.1664,559.933,47.9123,560.289,47.5735C560.645,47.2347,560.916,46.8197,561.102,46.3284L566.108,46.6587C565.854,47.8615,565.333,48.9118,564.545,49.8096C563.766,50.699,562.758,51.3935,561.521,51.8933C560.293,52.3845,558.874,52.6302,557.265,52.6302ZM575.167,40.9668L575.167,52.249L569.754,52.249L569.754,32.7338L574.913,32.7338L574.913,36.1769L575.141,36.1769C575.573,35.0419,576.297,34.1441,577.314,33.4834C578.33,32.8143,579.563,32.4797,581.011,32.4797C582.366,32.4797,583.548,32.7762,584.556,33.3691C585.564,33.962,586.347,34.809,586.906,35.9101C587.465,37.0028,587.745,38.3072,587.745,39.8233L587.745,52.249L582.332,52.249L582.332,40.7889C582.341,39.5946,582.036,38.6629,581.418,37.9938C580.799,37.3162,579.948,36.9774,578.864,36.9774C578.135,36.9774,577.492,37.1341,576.933,37.4475C576.382,37.7609,575.95,38.2182,575.637,38.8196C575.332,39.4125,575.175,40.1283,575.167,40.9668Z" fill="#252525" transform="translate(174.531,37.6863) translate(-497.531,-38.6863)"/>
        <path d="M633.501,19.9717C636.042,19.9717,638.48,20.9814,640.277,22.7786C642.074,24.5758,643.084,27.0134,643.084,29.555C643.084,32.0967,642.074,34.5343,640.277,36.3315C638.48,38.1287,636.042,39.1384,633.501,39.1384C630.959,39.1384,628.521,38.1287,626.724,36.3315C624.927,34.5343,623.917,32.0967,623.917,29.555C623.917,27.0134,624.927,24.5758,626.724,22.7786C628.521,20.9814,630.959,19.9717,633.501,19.9717L633.501,19.9717ZM633.501,43.9301C644.09,43.9301,652.667,48.2186,652.667,53.5134L652.667,58.3051L614.334,58.3051L614.334,53.5134C614.334,48.2186,622.911,43.9301,633.501,43.9301Z" fill="#7DDDD1" transform="translate(310.5,38.1384) translate(-633.5,-39.1384)"/>
    </g>
</svg>
