<svg id="Layer_1" data-name="Layer 1" xmlns="http://www.w3.org/2000/svg" viewBox="0 0 632.3 150"><defs><style>.cls-1{fill:#2d3232}</style></defs><path class="cls-1" d="m150.75 99.59-16.87-9.74a4.9 4.9 0 0 1-2.45-4.23V66.14a11.36 11.36 0 0 0-5.68-9.83l-16.87-9.74a4.92 4.92 0 0 1-2.44-4.24V22.85a11.39 11.39 0 0 0-5.68-9.85L78.21 0 55.66 13A11.39 11.39 0 0 0 50 22.85v19.48a4.92 4.92 0 0 1-2.44 4.24l-16.89 9.74A11.38 11.38 0 0 0 25 66.14v19.48a4.89 4.89 0 0 1-2.44 4.23L5.68 99.59A11.41 11.41 0 0 0 0 109.43v26l22.55 13a11.34 11.34 0 0 0 11.35 0l16.87-9.74a4.91 4.91 0 0 1 4.89 0l16.87 9.74a11.37 11.37 0 0 0 11.36 0l16.87-9.74a4.91 4.91 0 0 1 4.89 0l16.87 9.74a11.34 11.34 0 0 0 11.35 0l22.55-13v-26a11.4 11.4 0 0 0-5.67-9.84ZM100 22.85v19.48a11.39 11.39 0 0 0 5.68 9.83l16.87 9.74a4.91 4.91 0 0 1 2.45 4.24v19.48a11.38 11.38 0 0 0 5.67 9.83l16.87 9.74a4.9 4.9 0 0 1 2.45 4.24V128L81.44 88.44V9.33l16.09 9.29a4.89 4.89 0 0 1 2.47 4.23ZM8.91 105.19l16.87-9.74a11.39 11.39 0 0 0 5.68-9.83V66.14a4.9 4.9 0 0 1 2.44-4.24l16.87-9.74a11.39 11.39 0 0 0 5.68-9.83V22.85a4.91 4.91 0 0 1 2.44-4.23L75 9.33v79.11L6.47 128v-18.57a4.9 4.9 0 0 1 2.44-4.24Zm121.73 37.7a4.91 4.91 0 0 1-4.89 0l-16.87-9.74a11.34 11.34 0 0 0-11.35 0l-16.87 9.74a4.91 4.91 0 0 1-4.89 0l-16.87-9.74a11.36 11.36 0 0 0-11.36 0l-16.87 9.74a4.91 4.91 0 0 1-4.89 0L9.7 133.6 78.21 94l68.51 39.56ZM197.77 121.51h16.76V84.55h35.56V69.3h-35.56V47.83h38.1V32.59h-54.86v88.92zM421.67 60.85a24.44 24.44 0 0 0-12.83-3.36q-14.49 0-19.44 10.41h-1.27v-9.4h-15.75v63h16V89q0-8.76 4.07-13.65t11.43-4.9q6.6 0 10 3.56t3.43 10.67v36.84h16V83.91a29.68 29.68 0 0 0-3.05-13.72 22.77 22.77 0 0 0-8.59-9.34ZM468.55 38.94h-16V58.5h-15.76v13h15.76v35.82q0 6.48 3.81 10.36a13.6 13.6 0 0 0 10.16 3.87h17.78v-13h-12.19q-3.56 0-3.56-3.81V71.46h17.28v-13h-17.28ZM503.78 29.29a11.28 11.28 0 0 0-8.06 3.05c-4.32 3.78-4.32 12 0 15.75 4.07 4.07 12.06 4.07 16.13 0 4.32-3.79 4.32-12 0-15.75a11.29 11.29 0 0 0-8.07-3.05ZM495.78 58.5h16.01v63.01h-16.01zM274.34 67.4h1.27c2.42-6.74 7.75-9.15 15.75-9.15H298v13.47h-9.4c-8.13 0-14 4.31-14 13.21v36.58h-16v-63h15.75ZM615 58.5 598.38 104h-1.27l-16.64-45.5h-28.24v-11q0-3.81 3.55-3.81h10.93v-13H550.2q-6.36 0-10.17 3.87T536.22 45v13.5h-16v13h16v50.05h16V71.46h16l21.13 54.08-2.75 6.6c-.46 1.1-1.41 1.82-3.22 1.82h-14v13H588c6.54 0 11-3.24 12.9-8.15l31.4-80.31ZM332.52 123.29c19.39 0 33-13.53 33-33.28s-13.41-33.28-33-33.28-33 13.62-33 33.28 13.6 33.28 33 33.28ZM315.49 90c0-12.8 7.62-19.31 17-19.31s17 6.51 17 19.31-7.62 19.31-17 19.31-17-6.5-17-19.31Z"/></svg>
