<svg width="316" height="82" xmlns="http://www.w3.org/2000/svg"><path d="M0 37h316V-1H0Z" fill="#ced8e2"/><path d="M10.357 69.555h73.085V26.448L46.446 6.193 10.357 26.448Z" fill="#fff"/><path d="M17.388 62.289H76.41v-33.22L46.533 13.458 17.388 29.07v33.22" fill="#017aaf"/><path d="M117.853 26.497c-2.463 1.08-4.467 1.511-7.037 1.511-5.657 0-9.825-3.938-9.825-9.332 0-5.42 4.276-9.547 9.906-9.547 2.165 0 3.681.351 6.577 1.564v2.67c-2.167-1.188-4.412-1.807-6.632-1.807-4.006 0-7.118 3.048-7.118 7.04 0 4.1 3.085 6.985 7.47 6.985 1.435 0 2.733-.324 4.005-.728v-3.776h-3.545v-2.374h6.199Zm11.827 1.43h-.541l-7.985-18.555h2.653l5.548 12.92 5.52-12.92h2.626l-7.82 18.555m26.712-1.43c-2.462 1.08-4.466 1.511-7.037 1.511-5.657 0-9.826-3.938-9.826-9.332 0-5.42 4.277-9.547 9.908-9.547 2.165 0 3.68.351 6.577 1.564v2.67c-2.167-1.188-4.412-1.807-6.632-1.807-4.005 0-7.118 3.048-7.118 7.04 0 4.1 3.085 6.985 7.47 6.985 1.434 0 2.733-.324 4.005-.728v-3.776h-3.545v-2.374h6.198Z" fill="#fff"/><path d="m106.774 44.878-.444.61c-.674-.455-1.154-.634-1.794-.634-.96 0-1.72.444-2.056 1.39-.217.612-.325 1.307-.325 2.086 0 1.079.205 1.953.578 2.494.374.538 1.214.874 1.998.874.516 0 .962-.109 1.309-.324V48.87h-1.66l-.192-.816h2.779v3.836c-.59.384-1.48.624-2.321.624-1.035 0-1.913-.36-2.539-1.03-.697-.756-1.022-1.775-1.022-3.19 0-1.57.408-2.695 1.275-3.452.59-.527 1.299-.779 2.153-.779.877 0 1.636.275 2.26.816m2.827 1.244h3.912l-.133.804h-2.814v1.775h2.356v.802h-2.346v2.013h3.043v.84H109.6Zm6.328-.023h1.612c1.095 0 1.275.023 1.613.132.71.228 1.19.804 1.19 1.439 0 .382-.18.754-.504 1.018-.217.18-.36.24-.734.348.481.095.66.157.915.349.396.287.622.754.622 1.234 0 .682-.479 1.318-1.176 1.568-.41.145-.58.17-1.721.17h-1.817Zm.938.816v1.796h1.167c.699 0 .95-.107 1.155-.467a.87.87 0 0 0 .108-.42c0-.419-.276-.743-.721-.838-.24-.06-.36-.07-.745-.07h-.964Zm0 2.588v2.062h1.18c.444 0 .782-.05 1.01-.132.323-.132.553-.502.553-.887 0-.491-.323-.886-.794-.97a3.067 3.067 0 0 0-.746-.073Zm8.83-3.404 2.321 6.258h-1.084l-.637-1.738h-2.526l-.647 1.738h-.977l2.346-6.258Zm-1.816-1.798c.348 0 .624.277.624.612a.62.62 0 0 1-.612.634.628.628 0 0 1-.626-.634c0-.335.276-.612.614-.612Zm.155 5.526h2.035c-.038-.072-1.012-2.877-1.012-2.877Zm2.334-5.526c.337 0 .626.277.626.612a.628.628 0 0 1-.614.634.641.641 0 0 1-.639-.634.62.62 0 0 1 .627-.612Zm3.43 1.798h.96v3.753c0 .49.037.874.087 1.042.156.467.672.743 1.357.743.566 0 .964-.144 1.167-.431.205-.288.253-.515.253-1.104V46.1h.962v3.98c0 1.031-.106 1.391-.566 1.809-.444.407-1.01.576-1.84.576-1.273 0-1.887-.504-2.165-1.066-.168-.35-.215-.575-.215-1.319Zm7.41.037h1.419c.431 0 .854.023 1.13.048.516.06 1.012.264 1.443.622.662.564.95 1.283.95 2.432 0 2.087-1.37 2.999-2.248 3.082a8.1 8.1 0 0 1-.867.037h-1.827Zm.96.79v4.64h.772c.384 0 .54-.013.805-.073.77-.168 1.36-.755 1.36-2.193 0-.887-.17-1.428-.566-1.835-.434-.442-.89-.54-1.576-.54h-.795Zm6.484-.804h3.909l-.13.804h-2.817v1.775h2.358v.802h-2.346v2.013h3.043v.84h-4.017Zm5.533-.023h1.047l1.382 3.524c.267.671.46 1.426.46 1.426s.18-.73.431-1.366l1.444-3.584h1l-2.444 6.28h-.927Zm7.684.023h3.912l-.133.804h-2.815v1.775h2.358v.802h-2.349v2.013h3.045v.84h-4.018Zm6.305-.023h1.682c1.033 0 1.445.097 1.808.324.456.288.768.815.768 1.414 0 1.103-.699 1.75-1.902 1.763.17.095.24.155.338.275.195.24.59.719.94 1.174.373.492.997 1.308.997 1.308h-1.192c-.179-.362-.264-.504-.564-.936-.47-.707-.853-1.174-1.203-1.486-.241-.215-.421-.288-.712-.312v2.734h-.96Zm.96.791v2.061h.653c.685 0 1.033-.07 1.299-.275.215-.167.348-.442.348-.804 0-.42-.253-.73-.663-.874a3.265 3.265 0 0 0-.88-.108Zm10.131-.335-.433.695c-.556-.335-1.13-.515-1.72-.515-.808 0-1.337.346-1.337.898 0 .3.193.551.577.706.157.074.217.11.529.182l.856.227c.481.12.975.36 1.261.637.278.275.448.705.448 1.126 0 .647-.388 1.27-1.024 1.618-.432.238-.973.358-1.6.358a4.934 4.934 0 0 1-2.322-.575l.398-.754c.663.358 1.288.527 1.983.527.447 0 .746-.06 1.012-.24.315-.192.493-.456.493-.779 0-.492-.35-.814-1.215-1.031l-.925-.24c-.915-.227-1.504-.862-1.504-1.618 0-1.079.962-1.833 2.323-1.833.805 0 1.657.227 2.2.611m2.622-.468h.962v6.27h-.962Zm8.19.407-.493.648a2.248 2.248 0 0 0-1.263-.371c-.757 0-1.407.382-1.73 1.054-.18.372-.267.826-.267 1.487 0 .862.159 1.307.566 1.75.385.42.891.623 1.48.623.432 0 .865-.12 1.214-.324a1.88 1.88 0 0 0 .136-.07l.476.621c-.455.348-1.177.54-1.944.54-1.757 0-2.997-1.319-2.997-3.177 0-1.87 1.32-3.284 3.055-3.284.648 0 1.323.18 1.767.503m2.095-.395h.951v2.542h2.802V46.1h.963v6.258h-.963v-2.926h-2.802v2.926h-.951Zm7.517.023h3.914l-.135.804h-2.818v1.775h2.362v.802h-2.347v2.013h3.04v.84h-4.015v-6.234m6.301-.023h1.686c1.035 0 1.443.097 1.802.324.458.288.77.815.77 1.414 0 1.103-.695 1.75-1.9 1.763.168.095.242.155.34.275.189.24.585.719.935 1.174.374.492.998 1.308.998 1.308h-1.189a6.1 6.1 0 0 0-.566-.936c-.47-.707-.856-1.174-1.203-1.486-.24-.215-.42-.288-.71-.312v2.734h-.963Zm.962.791v2.061h.65c.688 0 1.034-.07 1.298-.275.22-.167.35-.442.35-.804 0-.42-.253-.73-.66-.874a3.283 3.283 0 0 0-.877-.108h-.76Zm5.923-.791h.96v3.753c0 .49.037.874.083 1.042.156.467.673.743 1.36.743.563 0 .965-.144 1.166-.431.206-.288.255-.515.255-1.104V46.1h.963v3.98c0 1.031-.11 1.391-.568 1.809-.444.407-1.01.576-1.84.576-1.272 0-1.886-.504-2.165-1.066-.168-.35-.214-.575-.214-1.319Zm7.371 0h1.107l2.045 3.404c.409.684.77 1.415.805 1.463 0 0-.097-.887-.108-1.714l-.035-3.153h.937v6.258h-.997l-2.022-3.321c-.386-.647-.878-1.63-.878-1.63.023.251.062.828.073 1.737l.058 3.214h-.985Zm12.124.587-.458.612c-.477-.3-.85-.492-1.526-.492-.828 0-1.431.324-1.683.899-.194.432-.288.959-.288 1.57 0 1.08.3 1.774.913 2.11.352.193.805.312 1.24.312.384 0 .77-.072 1.022-.204V49.79h-1.372l-.156-.802h2.454v2.961c-.552.335-1.24.503-2.012.503-.983 0-1.73-.312-2.284-.864-.578-.575-.852-1.341-.852-2.385 0-1.234.384-2.096 1.18-2.648.516-.36 1.091-.528 1.815-.528.77 0 1.372.192 2.007.659m12.594-1.808-.444.61c-.674-.455-1.154-.634-1.794-.634-.96 0-1.718.444-2.056 1.39-.219.612-.325 1.307-.325 2.086 0 1.079.203 1.953.577 2.494.373.538 1.217.874 1.997.874.518 0 .964-.109 1.31-.324V48.87h-1.659l-.19-.816h2.778v3.836c-.59.384-1.48.624-2.322.624-1.035 0-1.914-.36-2.539-1.03-.695-.756-1.022-1.775-1.022-3.19 0-1.57.408-2.695 1.273-3.452.591-.527 1.299-.779 2.155-.779.877 0 1.636.275 2.26.816m2.865 1.221h1.686c1.033 0 1.441.097 1.802.324.458.288.77.815.77 1.414 0 1.103-.696 1.75-1.902 1.763a.986.986 0 0 1 .34.275c.189.24.587.719.935 1.174.374.492 1 1.308 1 1.308h-1.189a6.326 6.326 0 0 0-.568-.936c-.469-.707-.854-1.174-1.2-1.486-.241-.215-.424-.288-.712-.312v2.734h-.962Zm.962.791v2.061h.65c.686 0 1.032-.07 1.298-.275.217-.167.348-.442.348-.804 0-.42-.251-.73-.66-.874a3.283 3.283 0 0 0-.877-.108Zm8.686-.791 2.32 6.258h-1.082l-.639-1.738h-2.524l-.651 1.738h-.973l2.344-6.258Zm-1.66 3.728h2.031c-.034-.072-1.01-2.877-1.01-2.877l-1.02 2.877Zm5.892-3.728h.965v3.753c0 .49.033.874.085 1.042.155.467.674.743 1.357.743.567 0 .962-.144 1.169-.431.203-.288.251-.515.251-1.104V46.1h.96v3.98c0 1.031-.104 1.391-.562 1.809-.446.407-1.012.576-1.841.576-1.276 0-1.89-.504-2.166-1.066-.168-.35-.217-.575-.217-1.319V46.1m7.495 0h1.611c1.095 0 1.274.023 1.614.132.707.228 1.187.804 1.187 1.439 0 .382-.177.754-.504 1.018-.218.18-.361.24-.733.348.481.095.66.157.913.349.398.287.626.754.626 1.234 0 .682-.48 1.318-1.18 1.568-.407.145-.576.17-1.72.17h-1.814Zm.937.816v1.796h1.168c.697 0 .95-.107 1.153-.467a.87.87 0 0 0 .112-.42c0-.419-.278-.743-.722-.838-.242-.06-.364-.07-.746-.07h-.965Zm0 2.588v2.062h1.182c.442 0 .78-.05 1.008-.132.324-.132.552-.502.552-.887 0-.491-.323-.886-.794-.97a3.059 3.059 0 0 0-.745-.073Zm6.087-3.404h.961v3.753c0 .49.037.874.085 1.042.157.467.672.743 1.358.743.565 0 .965-.144 1.168-.431.205-.288.253-.515.253-1.104V46.1h.962v3.98c0 1.031-.108 1.391-.566 1.809-.444.407-1.012.576-1.84.576-1.273 0-1.887-.504-2.167-1.066-.168-.35-.214-.575-.214-1.319Zm1.166-1.798c.35 0 .626.277.626.612a.619.619 0 0 1-.613.634.63.63 0 0 1-.625-.634c0-.335.276-.612.612-.612Zm2.49 0c.339 0 .625.277.625.612a.626.626 0 0 1-.612.634.64.64 0 0 1-.638-.634c0-.335.276-.612.624-.612Zm3.776 1.798h1.109l2.045 3.404c.41.684.771 1.415.805 1.463 0 0-.096-.887-.106-1.714l-.037-3.153h.939v6.258h-1l-2.02-3.321c-.385-.647-.877-1.63-.877-1.63.021.251.06.828.072 1.737l.059 3.214h-.99V46.1m7.559.037h1.42c.431 0 .852.023 1.128.048a2.746 2.746 0 0 1 1.445.622c.664.564.95 1.283.95 2.432 0 2.087-1.373 2.999-2.25 3.082a8.1 8.1 0 0 1-.867.037h-1.825v-6.221Zm.96.79v4.64h.772c.384 0 .54-.013.805-.073.77-.168 1.359-.755 1.359-2.193 0-.887-.17-1.428-.566-1.835-.434-.442-.888-.54-1.573-.54h-.798Zm6.543-.804h3.911l-.13.804h-2.817v1.775h2.358v.802h-2.347v2.013h3.042v.84h-4.017Zm6.329-.023h1.106l2.045 3.404c.408.684.771 1.415.805 1.463 0 0-.092-.887-.107-1.714l-.038-3.153h.94v6.258h-.999l-2.018-3.321c-.386-.647-.88-1.63-.88-1.63.024.251.059.828.073 1.737l.06 3.214h-.987ZM104.766 58.818l2.731 8.223h-1.12l-.781-2.53h-3.08l-.793 2.53h-1l2.757-8.223Zm-1.972 4.89h2.549s-.65-2.05-.865-2.757l-.398-1.27-.407 1.21c-.05.168-.88 2.817-.88 2.817Zm10.417-2.47-.435.697c-.552-.337-1.13-.517-1.72-.517-.806 0-1.335.35-1.335.9 0 .299.193.55.578.706.156.072.216.11.53.18l.852.227c.483.122.976.362 1.263.637.278.276.447.706.447 1.126 0 .649-.387 1.27-1.024 1.618-.433.24-.973.36-1.599.36a4.923 4.923 0 0 1-2.32-.575l.395-.754c.662.36 1.288.527 1.985.527.446 0 .747-.06 1.01-.24.313-.192.494-.457.494-.78 0-.49-.349-.815-1.215-1.03l-.927-.24c-.913-.227-1.504-.862-1.504-1.62 0-1.077.962-1.833 2.323-1.833.805 0 1.659.229 2.202.611m6.519 0-.434.697c-.553-.337-1.13-.517-1.72-.517-.806 0-1.335.35-1.335.9 0 .299.191.55.577.706.157.072.218.11.53.18l.853.227c.481.122.975.362 1.263.637.278.276.446.706.446 1.126 0 .649-.386 1.27-1.024 1.618-.432.24-.973.36-1.597.36a4.923 4.923 0 0 1-2.323-.575l.396-.754c.663.36 1.288.527 1.987.527.444 0 .744-.06 1.01-.24.311-.192.493-.457.493-.78 0-.49-.35-.815-1.217-1.03l-.925-.24c-.913-.227-1.505-.862-1.505-1.62 0-1.077.964-1.833 2.324-1.833.805 0 1.66.229 2.2.611m2.381-.467h.963v6.27h-.962v-6.27Zm7.95.407-.491.65a2.256 2.256 0 0 0-1.263-.373c-.757 0-1.408.383-1.732 1.054-.18.372-.266.827-.266 1.488 0 .862.158 1.305.565 1.749.387.42.891.624 1.48.624.434 0 .867-.12 1.216-.325.024-.012.072-.035.132-.072l.481.624c-.458.347-1.18.54-1.949.54-1.756 0-2.995-1.319-2.995-3.177 0-1.87 1.322-3.284 3.055-3.284.65 0 1.323.18 1.767.502m1.759-.394h.962v3.75c0 .493.035.877.085 1.044.156.467.672.742 1.359.742.564 0 .962-.142 1.167-.43.204-.287.253-.516.253-1.103v-4.003h.96v3.98c0 1.03-.106 1.389-.564 1.808-.445.41-1.012.577-1.841.577-1.274 0-1.888-.504-2.165-1.068-.168-.348-.216-.575-.216-1.317Zm7.168 0h1.684c1.035 0 1.443.097 1.806.322.456.288.77.816.77 1.416 0 1.103-.698 1.748-1.902 1.762.168.096.24.156.338.275.192.24.589.72.937 1.174.373.492 1 1.308 1 1.308h-1.191a6.1 6.1 0 0 0-.566-.936c-.47-.707-.854-1.175-1.203-1.486-.24-.215-.42-.287-.711-.312v2.734h-.962Zm.962.791v2.06h.65c.687 0 1.034-.07 1.3-.274.215-.168.348-.444.348-.804 0-.42-.253-.73-.662-.874a3.298 3.298 0 0 0-.879-.108Zm8.387-.791 2.32 6.257h-1.082l-.639-1.74h-2.524l-.65 1.74h-.974l2.344-6.257Zm-1.661 3.728h2.032c-.035-.072-1.008-2.877-1.008-2.877Zm5.604-3.728h1.109l2.045 3.403c.407.684.77 1.416.803 1.464 0 0-.094-.887-.106-1.716l-.037-3.151h.939v6.257h-1l-2.02-3.32c-.385-.648-.879-1.631-.879-1.631.025.252.062.827.073 1.738l.06 3.213h-.987Zm6.976.035h4.092v.756l-2.885 4.148a9.334 9.334 0 0 1-.425.537s.29-.022.627-.022h2.73l-.252.803h-4.235v-.708l2.936-4.146c.18-.252.457-.589.457-.589s-.398.025-.736.025h-2.562Zm8.759-.035 2.32 6.257h-1.084l-.637-1.74h-2.526l-.649 1.74h-.975l2.346-6.257Zm-1.661 3.728h2.034c-.343-.959-.679-1.914-1.012-2.876Zm10.008-3.693h1.419c.433 0 .854.025 1.132.047a2.74 2.74 0 0 1 1.444.624c.66.565.95 1.284.95 2.435 0 2.085-1.373 2.995-2.25 3.08-.288.028-.578.04-.867.036h-1.828V60.82Zm.963.791v4.64h.767c.386 0 .543-.012.805-.072.775-.168 1.362-.757 1.362-2.195 0-.887-.17-1.426-.564-1.833-.435-.444-.89-.54-1.578-.54Zm6.341-3.056h.865v2.877h-.865Zm3.547 2.253h3.91l-.135.803h-2.814v1.775h2.356v.802h-2.342v2.015h3.04v.84h-4.015Zm6.002.012h1.419c.432 0 .854.025 1.132.047a2.75 2.75 0 0 1 1.444.624c.66.565.948 1.284.948 2.435 0 2.085-1.371 2.995-2.25 3.08-.288.028-.578.04-.867.036h-1.826V60.82Zm.96.791v4.64h.774c.384 0 .54-.012.803-.072.77-.168 1.36-.757 1.36-2.195 0-.887-.17-1.426-.566-1.833-.431-.444-.891-.54-1.576-.54h-.794Zm6.21-.839h.962v6.27h-.962Zm3.488.036h3.754l-.134.791h-2.66v1.763h2.19v.791h-2.19v2.89h-.96Zm5.508-.036h.961v6.27h-.96v-6.27Zm3.2.048h4.09v.756l-2.888 4.148a8.37 8.37 0 0 1-.417.537s.286-.022.624-.022h2.728l-.253.803h-4.232v-.708l2.935-4.146c.18-.252.457-.589.457-.589s-.397.025-.733.025h-2.563l.251-.804m6.064-.048h.96v6.27h-.96Zm7.663.467-.435.697c-.552-.337-1.13-.517-1.721-.517-.805 0-1.332.35-1.332.9 0 .299.19.55.575.706.159.072.217.11.529.18l.854.227c.48.122.975.362 1.261.637.28.276.448.706.448 1.126 0 .649-.386 1.27-1.02 1.618-.436.24-.977.36-1.603.36a4.912 4.912 0 0 1-2.32-.575l.397-.754c.661.36 1.286.527 1.983.527.446 0 .746-.06 1.013-.24.31-.192.492-.457.492-.78 0-.49-.348-.815-1.213-1.03l-.93-.24c-.914-.227-1.503-.862-1.503-1.62 0-1.077.964-1.833 2.321-1.833.805 0 1.661.229 2.204.611m6.639-.419h1.419c.432 0 .854.025 1.129.047.52.06 1.013.265 1.447.624.661.565.948 1.284.948 2.435 0 2.085-1.371 2.995-2.25 3.08-.288.028-.578.04-.867.036h-1.826V60.82Zm.96.791v4.64h.774c.384 0 .54-.012.805-.072.77-.168 1.358-.757 1.358-2.195 0-.887-.17-1.426-.566-1.833-.431-.444-.89-.54-1.574-.54h-.796Zm8.844-.826 2.319 6.257h-1.083l-.638-1.74h-2.526l-.648 1.74h-.976l2.345-6.257Zm-1.661 3.728h2.034a282.834 282.834 0 0 1-1.014-2.877Zm5.606-3.728h.962v5.454h2.742l-.131.803h-3.573Zm14.868-1.222-.446.61c-.674-.457-1.155-.635-1.794-.635-.962 0-1.72.443-2.055 1.39-.218.613-.326 1.307-.326 2.085 0 1.08.207 1.955.579 2.494.373.54 1.213.876 1.995.876.52 0 .962-.11 1.313-.324v-2.505h-1.661l-.193-.816h2.777v3.835c-.587.385-1.475.624-2.317.624-1.035 0-1.914-.36-2.54-1.03-.697-.755-1.023-1.774-1.023-3.19 0-1.568.41-2.695 1.277-3.451.588-.527 1.297-.78 2.151-.78.88 0 1.637.276 2.263.817m2.501 1.222h1.682c1.035 0 1.446.097 1.808.322.455.288.77.816.77 1.416 0 1.103-.7 1.748-1.904 1.762a.97.97 0 0 1 .336.275c.197.24.591.72.942 1.174.373.492.997 1.308.997 1.308h-1.192c-.177-.361-.264-.504-.564-.936-.47-.707-.853-1.175-1.203-1.486-.24-.215-.421-.287-.711-.312v2.734h-.96v-6.257Zm.96.791v2.06h.653c.685 0 1.033-.07 1.297-.274.218-.168.352-.444.352-.804 0-.42-.255-.73-.665-.874a3.283 3.283 0 0 0-.877-.108Zm5.693-.804h.963v6.27h-.963Zm7.662.467-.432.697c-.556-.337-1.13-.517-1.721-.517-.809 0-1.338.35-1.338.9 0 .299.193.55.58.706.156.072.216.11.53.18l.852.227c.483.122.975.362 1.263.637.278.276.448.706.448 1.126 0 .649-.39 1.27-1.026 1.618-.432.24-.971.36-1.596.36-.82 0-1.638-.203-2.326-.575l.398-.754c.663.36 1.288.527 1.987.527.445 0 .744-.06 1.008-.24.315-.192.495-.457.495-.78 0-.49-.35-.815-1.217-1.03l-.925-.24c-.913-.227-1.504-.862-1.504-1.62 0-1.077.964-1.833 2.325-1.833.803 0 1.659.229 2.199.611m6.686-.06-.492.65a2.261 2.261 0 0 0-1.264-.373c-.757 0-1.407.383-1.73 1.054-.18.372-.267.827-.267 1.488 0 .862.159 1.305.566 1.749.385.42.891.624 1.482.624.43 0 .865-.12 1.213-.325.023-.012.073-.035.135-.072l.476.624c-.455.347-1.177.54-1.944.54-1.757 0-2.997-1.319-2.997-3.177 0-1.87 1.321-3.284 3.055-3.284.65 0 1.323.18 1.767.502m1.792-.394h.952v2.54h2.8v-2.54h.964v6.257h-.964v-2.926h-2.8v2.926h-.952Zm7.076 0h.962v3.75c0 .493.036.877.084 1.044.155.467.674.742 1.358.742.566 0 .962-.142 1.168-.43.203-.287.253-.516.253-1.103v-4.003h.96v3.98c0 1.03-.106 1.389-.564 1.808-.446.41-1.01.577-1.842.577-1.273 0-1.887-.504-2.163-1.068-.168-.348-.216-.575-.216-1.317Zm7.071 0h1.107l2.045 3.403c.409.684.77 1.416.805 1.464 0 0-.097-.887-.108-1.716l-.035-3.151h.937v6.257h-.998l-2.022-3.32c-.385-.648-.877-1.631-.877-1.631.023.252.062.827.073 1.738l.058 3.213h-.985ZM104.766 73.502l2.731 8.223h-1.12l-.781-2.53h-3.08l-.793 2.53h-1l2.757-8.223Zm-1.972 4.89h2.549s-.65-2.05-.865-2.757l-.398-1.271-.407 1.21c-.05.168-.88 2.818-.88 2.818Zm10.235-2.47-.434.696c-.553-.335-1.13-.514-1.719-.514-.807 0-1.336.347-1.336.899 0 .3.193.55.577.705.158.072.218.109.53.18l.853.229c.483.12.975.36 1.263.634.278.277.448.709.448 1.127 0 .648-.387 1.272-1.024 1.62-.434.24-.973.357-1.6.357a4.922 4.922 0 0 1-2.32-.574l.396-.755c.662.36 1.288.527 1.985.527.446 0 .746-.06 1.01-.24.313-.191.493-.456.493-.778 0-.492-.348-.815-1.215-1.032l-.925-.24c-.915-.227-1.504-.861-1.504-1.618 0-1.078.96-1.833 2.321-1.833.805 0 1.66.228 2.2.61m6.342 0-.433.696c-.554-.335-1.13-.514-1.721-.514-.807 0-1.336.347-1.336.899 0 .3.193.55.577.705.158.072.218.109.53.18l.855.229c.481.12.975.36 1.263.634.276.277.446.709.446 1.127 0 .648-.387 1.272-1.024 1.62-.434.24-.973.357-1.6.357a4.925 4.925 0 0 1-2.32-.574l.396-.755c.662.36 1.288.527 1.985.527.446 0 .746-.06 1.012-.24.311-.191.491-.456.491-.778 0-.492-.348-.815-1.215-1.032l-.925-.24c-.915-.227-1.504-.861-1.504-1.618 0-1.078.963-1.833 2.321-1.833.805 0 1.66.228 2.203.61m2.2-.467h.962v6.27h-.962Zm7.769.409-.493.647a2.247 2.247 0 0 0-1.263-.372c-.757 0-1.406.384-1.73 1.054-.182.372-.267.827-.267 1.486 0 .864.157 1.306.566 1.75.385.42.891.624 1.479.624.435 0 .866-.12 1.215-.324.025-.012.072-.035.134-.07l.48.622c-.457.349-1.178.54-1.95.54-1.754 0-2.995-1.32-2.995-3.177 0-1.87 1.324-3.284 3.057-3.284.648 0 1.322.18 1.767.504m1.577-.397h.96v3.753c0 .492.037.874.087 1.042.156.467.67.742 1.357.742.566 0 .964-.143 1.167-.43.205-.287.253-.515.253-1.104v-4.003h.962v3.98c0 1.032-.107 1.391-.566 1.81-.444.408-1.01.576-1.84.576-1.275 0-1.887-.505-2.166-1.067-.167-.347-.214-.575-.214-1.318v-3.98m6.989-.001h1.684c1.033 0 1.443.097 1.804.325.457.287.77.814.77 1.413 0 1.104-.697 1.75-1.902 1.763.17.097.24.155.338.275.193.24.589.72.937 1.176l1 1.306h-1.19a5.962 5.962 0 0 0-.567-.934c-.47-.709-.854-1.176-1.203-1.488-.24-.215-.42-.287-.71-.312v2.734h-.961Zm.96.792v2.062h.651c.687 0 1.035-.072 1.299-.277.217-.167.35-.444.35-.803 0-.42-.253-.73-.663-.875a3.29 3.29 0 0 0-.878-.107Zm8.204-.792 2.323 6.258h-1.084l-.639-1.74h-2.524l-.649 1.74h-.975l2.344-6.258h1.205Zm-1.66 3.728h2.034a281.486 281.486 0 0 1-1.012-2.876Zm5.185-3.691h4.091v.755l-2.887 4.147c-.205.288-.42.54-.42.54s.288-.025.624-.025h2.731l-.253.804h-4.233v-.709l2.935-4.146c.18-.252.456-.587.456-.587s-.396.023-.734.023h-2.562Zm5.943-.049h.963v6.27h-.963Zm5.892-.095c1.01 0 1.745.382 2.263 1.006.457.54.664 1.259.664 2.265 0 1.056-.172 1.69-.639 2.255-.543.66-1.178.947-2.213.947-.952 0-1.55-.24-2.082-.829-.577-.647-.84-1.401-.84-2.433 0-1.99 1.08-3.211 2.848-3.211Zm-.035.779c-.575 0-1.128.252-1.381.634-.255.372-.363.9-.363 1.679 0 .876.145 1.558.435 2.002.24.407.757.635 1.442.635.757 0 1.286-.298 1.516-.887.17-.407.228-.78.228-1.45 0-.85-.097-1.38-.311-1.799-.315-.587-.853-.814-1.566-.814Zm4.872-.672h1.107l2.044 3.406c.408.682.77 1.414.806 1.461 0 0-.093-.886-.106-1.715l-.039-3.152h.941v6.258h-1l-2.018-3.321c-.387-.647-.879-1.63-.879-1.63.021.252.059.826.071 1.74l.062 3.211h-.989Zm7.097.025h3.911l-.13.802h-2.819v1.775h2.359v.804h-2.346v2.013h3.04v.839h-4.015Zm10.02 0h3.752l-.131.791h-2.657v1.761h2.186v.792h-2.186v2.889h-.964Zm7.906-.025 2.32 6.258h-1.084l-.637-1.74h-2.526l-.648 1.74h-.976l2.347-6.258h1.203Zm-1.664 3.728h2.036c-.039-.072-1.013-2.876-1.013-2.876Zm5.366-3.728h1.613c1.093 0 1.273.025 1.611.132.708.228 1.19.804 1.19 1.439 0 .382-.178.754-.507 1.019-.216.18-.359.24-.732.347.481.097.66.157.913.347.4.288.624.756.624 1.234 0 .684-.476 1.32-1.176 1.573-.409.142-.579.167-1.721.167h-1.815Zm.937.816v1.797h1.17c.695 0 .948-.108 1.153-.467a.883.883 0 0 0 .11-.42c0-.42-.277-.742-.722-.84-.243-.059-.363-.07-.747-.07Zm0 2.59v2.06h1.182c.442 0 .78-.047 1.008-.132.326-.132.552-.504.552-.886 0-.492-.322-.887-.793-.972a3.098 3.098 0 0 0-.744-.07Zm5.629-3.406h1.613c1.095 0 1.274.025 1.614.132.709.228 1.19.804 1.19 1.439 0 .382-.182.754-.504 1.019-.218.18-.363.24-.736.347.485.097.662.157.916.347.395.288.625.756.625 1.234 0 .684-.483 1.32-1.178 1.573-.41.142-.579.167-1.72.167h-1.82Zm.941.816v1.797h1.166c.697 0 .951-.108 1.153-.467a.869.869 0 0 0 .11-.42c0-.42-.276-.742-.724-.84-.237-.059-.357-.07-.743-.07Zm0 2.59v2.06h1.178c.446 0 .784-.047 1.01-.132.324-.132.554-.504.554-.886a.963.963 0 0 0-.796-.972 3.073 3.073 0 0 0-.747-.07H203.5Zm5.604-3.406h1.684c1.035 0 1.445.097 1.806.325.457.287.772.814.772 1.413 0 1.104-.701 1.75-1.904 1.763.168.097.24.155.338.275.193.24.59.72.94 1.176.373.49.999 1.306.999 1.306h-1.194c-.179-.36-.266-.504-.565-.934-.468-.709-.854-1.176-1.202-1.488-.243-.215-.421-.287-.713-.312v2.734h-.96v-6.258Zm.96.792v2.062h.655c.683 0 1.033-.072 1.297-.277.217-.167.35-.444.35-.803 0-.42-.251-.73-.663-.875a3.305 3.305 0 0 0-.88-.107h-.758Zm5.453-.804h.96v6.27h-.96Zm7.647.409-.494.647a2.243 2.243 0 0 0-1.261-.372c-.759 0-1.406.384-1.732 1.054-.18.372-.265.827-.265 1.486 0 .864.16 1.306.566 1.75.384.42.89.624 1.479.624.431 0 .867-.12 1.213-.324.027-.012.076-.035.137-.07l.477.622c-.456.349-1.178.54-1.946.54-1.758 0-2.996-1.32-2.996-3.177 0-1.87 1.321-3.284 3.055-3.284.647 0 1.325.18 1.767.504m4.261-.397 2.321 6.258h-1.084l-.637-1.74h-2.526l-.65 1.74h-.974l2.346-6.258Zm-1.66 3.728h2.034c-.04-.072-1.014-2.876-1.014-2.876Zm4.668-3.728h4.799l-.108.804h-1.89v5.454h-.935v-5.454h-1.866Zm6.35-.012h.962v6.27h-.962Zm6.758.049h1.424c.431 0 .849.023 1.13.048.516.058 1.01.264 1.44.622.661.564.953 1.283.953 2.434 0 2.086-1.37 2.997-2.248 3.08a8.1 8.1 0 0 1-.867.037h-1.832v-6.22Zm.964.79v4.64h.77c.385 0 .539-.013.806-.073.77-.167 1.357-.754 1.357-2.193 0-.888-.165-1.427-.563-1.835-.435-.442-.89-.539-1.574-.539Zm5.943-.802h3.912l-.133.802h-2.816v1.775h2.358v.804h-2.348v2.013h3.043v.839h-4.016Zm5.811-.037h.961v6.27h-.96v-6.27Zm12.038-1.209-.442.61c-.678-.455-1.157-.635-1.797-.635-.96 0-1.718.442-2.056 1.389-.216.613-.325 1.308-.325 2.087 0 1.079.205 1.955.578 2.494.372.538 1.215.875 1.997.875.517 0 .963-.11 1.31-.325v-2.504h-1.66l-.191-.817h2.78v3.838c-.592.382-1.48.622-2.324.622-1.034 0-1.912-.36-2.538-1.031-.695-.755-1.02-1.773-1.02-3.187 0-1.57.408-2.697 1.273-3.453.589-.527 1.298-.78 2.153-.78.879 0 1.636.276 2.262.817m2.441 1.221h1.686c1.033 0 1.444.097 1.805.325.458.287.77.814.77 1.413 0 1.104-.698 1.75-1.9 1.763.165.097.24.155.337.275.191.24.587.72.938 1.176.371.49 1 1.306 1 1.306h-1.191a5.904 5.904 0 0 0-.57-.934c-.469-.709-.853-1.176-1.198-1.488-.242-.215-.426-.287-.712-.312v2.734h-.965Zm.965.792v2.062h.65c.687 0 1.032-.072 1.297-.277.218-.167.35-.444.35-.803 0-.42-.253-.73-.661-.875a3.305 3.305 0 0 0-.88-.107Zm5.63-.804h.96v6.27h-.96Zm7.865.599-.46.612c-.478-.3-.85-.492-1.527-.492-.827 0-1.429.324-1.682.9-.193.431-.286.96-.286 1.57 0 1.079.298 1.775.91 2.11.35.192.805.312 1.242.312.382 0 .768-.073 1.023-.205v-1.7h-1.373l-.154-.805h2.45v2.962c-.552.335-1.238.502-2.008.502-.987 0-1.733-.312-2.285-.864-.58-.574-.856-1.341-.856-2.385 0-1.233.387-2.097 1.181-2.649.519-.358 1.092-.527 1.815-.527.77 0 1.371.192 2.01.66m2.156-.6h.96v6.27h-.96Zm5.771-.095c1.008 0 1.744.382 2.26 1.006.459.54.664 1.259.664 2.265 0 1.056-.172 1.69-.637 2.255-.543.66-1.182.947-2.215.947-.952 0-1.551-.24-2.082-.829-.575-.647-.84-1.401-.84-2.433 0-1.99 1.08-3.211 2.85-3.211Zm-.036.779c-.576 0-1.132.252-1.385.634-.253.372-.359.9-.359 1.679 0 .876.143 1.558.433 2.002.241.407.76.635 1.442.635.757 0 1.286-.298 1.516-.887.172-.407.23-.78.23-1.45 0-.85-.097-1.38-.311-1.799-.315-.587-.855-.814-1.566-.814Zm4.752-.672h1.107l2.043 3.406c.407.682.772 1.414.805 1.461 0 0-.094-.886-.108-1.715l-.037-3.152h.94v6.258h-.998l-2.02-3.321c-.386-.647-.88-1.63-.88-1.63.025.252.059.826.073 1.74l.06 3.211h-.985Zm7.001-.012h.963v6.27h-.963Z" fill="#1a1918"/></svg>
