<svg xmlns="http://www.w3.org/2000/svg" width="146" height="27" viewBox="0 0 108 20" xml:space="preserve"><g fill="#F60"><path d="M17.073 19.5V8.53L12.368 19.5H9.756L5.13 8.53V19.5H.268V.499h6.508l4.471 10.729L15.925.499h6.01V19.5h-4.862zM25.674 19.5V.499h4.156c.366 0 .728.366.728.76V19.5h-4.884zM44.047 8.56h6.175c.488 0 .766.398.766.865v9.817c-1.739.387-4.453.625-6.473.625-7.085 0-10.82-3.375-10.82-9.894 0-5.813 3.735-9.84 9.963-9.84 2.741 0 5.146.732 6.693 1.777l-1.914 3.269C47.1 4.58 45.295 4.16 44.021 4.16c-3.58 0-5.253 2.376-5.253 5.813 0 3.675 1.937 5.942 5.512 5.942.656 0 1.469-.025 2.119-.125v-3.35h-2.352V8.56zM65.426 19.5l-2.254-5.23c-.461-1.064-.782-1.594-1.76-1.594h-1.976V19.5h-4.775V1.259c0-.394.433-.76.743-.76h6.743c3.662 0 6.802.76 6.802 5.492 0 2.117-1.173 4.286-3.37 4.725 1.095.372 2.197 1.778 2.796 3.3l2.172 5.484h-5.121zm-3.6-15.34h-2.39v4.765h2.39c1.428 0 2.551-.762 2.551-2.567 0-1.833-1.123-2.198-2.551-2.198zM81.104 19.867c-6.222 0-9.513-4.395-9.513-9.894 0-5.448 3.291-9.84 9.513-9.84 5.826 0 9.121 4.392 9.121 9.84 0 5.5-3.295 9.894-9.121 9.894zm0-15.707c-2.563 0-4.387 1.831-4.387 5.813 0 4.042 1.823 5.866 4.387 5.866 2.197 0 3.996-1.824 3.996-5.866 0-3.982-1.799-5.813-3.996-5.813zM99.58 19.867c-3.211 0-6.195-1.152-7.525-2.066l2.165-3.84c1.208.73 3.558 1.855 5.726 1.855 1.227 0 2.776-.238 2.776-1.6 0-1.279-1.731-1.672-4.003-2.32-2.742-.787-5.934-1.878-5.934-5.566 0-3.975 3.531-6.197 8.127-6.197 3.034 0 5.385 1.074 6.585 2.222l-2.637 3.003c-1.306-.778-2.638-1.386-4.133-1.386-1.801 0-2.819.684-2.819 1.678 0 .986 1.307 1.489 2.951 1.983 2.906.896 6.873 1.813 6.873 5.62 0 3.921-3.133 6.614-8.152 6.614z"/></g></svg>
