<svg width="103" height="44" xmlns="http://www.w3.org/2000/svg"><g fill="none" fill-rule="evenodd"><path d="M55.58 4.215c-4.438.142-11.186-2.688-19.809-2.122-14.035.955-24.968 5.978-29.658 10.081C2.721 15.181.376 19.214.015 24.91c-.36 5.8 5.665 16.943 15.66 17.19 10.21.247 13.53-.99 20.132-.319 6.603.672 15.407 3.326 29.442 1.698 14.504-1.662 21.684-5.553 26.988-9.126 5.304-3.538 10.969-10.506 9.598-20.057C100.5 4.887 94.366.182 86.248.006c-8.046-.177-23.489 3.961-30.669 4.209z" fill="#000"/><path d="M84.35 23.031s-.575-.176-.935.282c-.216.283 0 .848-.828.953-2.017.212-2.7-8.365-2.917-11.4.612-.248 1.909-.601 2.053-.636.18-.07.612-.247.792-.318.432-.176.468-.741.36-1.059-.072-.141-.252-.53-.396-.565-.144-.035-.504.106-.72.177-.144.035-1.333.565-2.089.882.036-.565.072-1.482-.396-1.659-.216-.07-1.08-.282-1.584.636a7.775 7.775 0 0 0-.864 2.047l-.288.106s-1.116.423-1.224.459c-.072.035-.504.211-.54.74 0 .142.144.848.648.636.18-.07.648-.176.828-.247a.619.619 0 0 0 .18-.07c-.252 1.765-.144 3.459 0 4.765.612 5.471 4.573 7.59 5.905 7.377 1.152-.176 1.836-1.023 2.016-1.306.432-.6.504-1.588 0-1.8z" fill="#FFF"/><path d="M91.083 15.548c.144.741.216 1.518.216 2.33 0 .776-.072 1.588-.288 2.435a4.166 4.166 0 0 1-.18.635c-.072.212-.144.424-.252.636-.18.353-.396.635-.648.847a2.61 2.61 0 0 1-.864.494 3.39 3.39 0 0 1-1.044.141c-.36-.035-.756-.106-1.116-.282-.36-.141-.684-.353-.972-.53-.288-.211-.54-.423-.756-.705a4 4 0 0 1-.54-.812 9.5 9.5 0 0 1-.396-.883c-.324-.918-.468-1.8-.432-2.718a9.788 9.788 0 0 1 .54-2.788 4.91 4.91 0 0 1 .54-1.06c.216-.317.54-.635.9-.882.468-.353.972-.53 1.512-.53s1.08.071 1.584.283c.432.177.756.388 1.044.635.252.248.468.53.612.812.144.283.288.6.36.953.036.283.144.636.18.989zm-2.052 5.577c.432-.07.828-1.2.756-3-.072-1.8-.612-4.272-1.476-4.13-.468.07-1.62.882-1.152 3.388.144.777.9 3.918 1.872 3.742z" fill="#FFF" fill-rule="nonzero"/><path d="M72.254 25.36c-.648-.988-5.653-4.906-3.6-9.565.431-.953 1.296-1.553 2.376-1.66 2.268-.176 3.06 1.307 2.88 2.048-.072.318-.576 1.27-1.224.741-.144-.105-.288-.458.18-.776.36-.247-.036-.812-.504-.847-.468-.036-1.188.176-1.224.882-.324 3.142 2.592 4.942 3.78 6.954.792 1.306 1.908 3.142-.288 5.26-.288.282-1.836 1.305-3.168 1.058-1.62-.282-2.053-1.835-2.125-2.259-.144-1.094.577-2.082 1.117-2.153.216-.035.828.07.54.67-.54 1.13-.396 2.33.972 2.295 1.332-.106.936-1.624.288-2.647zm-15.842-9.953c1.044-1.306 3.96.317 3.42 2.365-.107.388-.467 1.482-.503 1.87-.432 2.93.072 4.907.72 4.907.972-.141 2.484-3.812 2.7-5.471.18-1.306-.108-1.907-.252-2.754-.396-2.153 2.808-2.47 3.348-.6.432 1.483.36 3.495.18 4.766-.216 1.447 1.224 2.223 1.764 3 1.008 1.447-1.116 2.33-1.656 2.188-1.152-.282-1.944-1.34-2.196-2.117-.252-.742-.504-1.871-.504-1.871-.036.07-.432 1.659-1.044 3.07-.072.177-.756 1.59-2.052 1.766-1.044.105-2.953-.424-3.673-2.083-1.404-3.177-.756-8.401-.252-9.036z" fill="#FFF"/><path d="M54.396 23.843c-1.008-3.565-1.476-4.483-1.116-6.566.432-2.506-3.528-2.33-3.132-.247.036.283.108.742.036.883-.252.353-1.116-.6-1.872-.812-3.169-.953-5.293 1.659-5.653 3.46-.396 1.905.216 6.282 3.708 7.447 1.729.565 3.385.318 4.753-1.447.648 3 1.944 8.966-.648 8.966-1.872 0-.504-2.789-1.512-3.636-.864-.741-2.737-.247-3.06.741-.649 1.765 1.26 4.518 4.536 4.589 7.02.106 5.508-9.39 3.96-13.378zm-6.588 2.647c-1.26-.353-1.657-3.6-1.333-5.294.576-3.036 2.809-2.507 3.673-1.412.432.6 1.116 7.695-2.34 6.706z" fill="#FFF" fill-rule="nonzero"/><path d="M35.71 26.808c-1.548-3.071-1.296-2.647-1.836-5.542-1.044-5.577-.216-7.695-2.196-10.73-3.348-5.225-7.92 6.177-9.9 11.966-1.405-2.93-1.945-6.637-4.141-8.437-.648-.53-2.7-.953-4.033.706-3.312 4.13-2.556 10.025-3.42 15.108-.36 2.224.504 3.353 2.232 3.424 2.125.07 2.773-1.412 2.305-4.448-.036-.459-.036-.847-.036-.847-.072-4.024-.576-6.248.756-9.883.072-.212.18-.53.252-.53.072 0 .252.318.36.53 2.016 3.424 2.556 7.624 6.264 7.306 3.709-.317 5.617-9.318 6.625-11.225.072-.105.18-.282.252-.282.144 0 .288.177.396.494.468 1.271.432 4.766.684 7.095.684 6.213.54 10.484 3.78 9.743 2.449-.565 2.52-2.718 1.656-4.448z" fill="#F60"/><path d="M40.499 18.76c-.396-1.589-3.42-1.483-3.348.812.108 4.024.864 8.189 1.944 8.966 1.08.776 2.412.423 2.736-.283.288-.67-1.296-2.4-1.584-4.977-.288-2.718.648-2.965.252-4.518zm-.864-6.99c.648.107 1.476.742 1.152 1.872-.108.423-.108 1.306-.648 1.694-.288.212-1.908 1.13-2.448-1.447-.144-.6-.288-2.542 1.944-2.118" fill="#FFF"/></g></svg>
