<svg xmlns="http://www.w3.org/2000/svg" version="1.0" width="592" height="129" viewBox="0 -0.064 592 129" xml:space="preserve"><path d="M110.081 55.446c-.578.27-1.082-.092-1.688-.027l-1.547.334-.141-.037c-.773.605-1.816.338-2.691.678-.27.301-.645.033-.91.301-.574.137-1.148.137-1.719.371-1.109-.301-2.148.203-3.23.334l-1.043.574c-.609.039-1.188.207-1.727.307-.566-.203-1.133.033-1.68.201-1.211.334-1.949-.875-3.063-.775-.207-.236-.57-.137-.805-.236-.109 0-.246.17-.273 0-.309 0-.602 0-.906-.098-.273-.168-.477-.508-.805-.438-.281.033-.207-.377-.477-.24-.344-.229-.813-.137-1.156-.301l-1.711.104-.063-.055c-.027-.039-.348-.016-.348-.016-.496.039-1.004.203-1.512.104-.805.164-1.508.535-2.355.674-.605.266-1.082.77-1.746.906-.547-.137-1.152.104-1.691.203-.539.168-1.145.234-1.715.234-.336 0-.578.234-.875.234-.844.51-1.992.109-2.625.914-.477.203-.852.504-1.316.738-.301.268-.738-.076-1.012.225-.402 0-.672.158-1.078.092-.391.072-.504.191-.742.121-.281-.094-.289.115-.641.039-.5-.346-1.109-.072-1.484.229-.297-.033-.129.34-.398.373-.738.338-1.008 1.148-1.414 1.82-.469.268-.141.869-.375 1.242l.07 1.182c-.609.979.742 1.416.57 2.422.203.203.102.58.305.705l.336.809c.168.406.031.875.309 1.285.16.434.641.738.742 1.209l1.246.373.465.602c.609.109 1.211.273 1.852.311.105.066.176.203.332.164.508.17 1.023.34 1.523.465.234.109.469.24.711.176.938.338 1.953.471 2.895.811l.102.135c.441.131.773.367 1.211.471.309.334.809.301 1.109.602.375 0 .605.344.977.377.613 0 .879.635 1.488.635.438.207.801.471 1.309.58.203.301.605.197.879.471.508.234.781.639 1.313.842.172.268.438.471.77.568.168.234.543.371.645.705l.031-.064.203.137c.344.195.707.268.977.469.809.197 1.617.471 2.43.635l.066.109c.336.033.734 0 .941.264 1.992.777 4.07 1.689 6.332 2.023 1.211.268 2.625.371 3.809.809 1.039.371 2.016.809 3.094 1.148.516.07.984.328 1.52.406.164.332.672.129 1.012.195.063 0 .133.104.094.207.711.328 1.52.537 2.23.91.199-.105.301.234.504.064.199.131.477.371.844.273 0 .027.094.098.172.027.156.307.625.273.898.443l1.422.404c.453.137.898.252 1.359.35v-34.4c-.752.088-1.494.088-2.135.562M42.19 32.79c.676.033.973.109 1.68.006.309.268.711.443 1.117.547.066.092 0 .076.23.01.199.137.426.148.66.252.305.17.328.568.617.793.199.137.164.158.375.389.273.049.172.301.172.301.016.043.18.848-.125 1.121-.469.674-.563.924-.969 1.602-.367.367-.578.938-.742 1.473.063.031.063.137.063.207-.367.131-.27.602-.574.805-.035.469-.199.875-.168 1.383-.305.234-.133.602-.375.836-.227.711-.227 1.686.172 2.232.238.465.203.967.535 1.443.141.438.574.668.848 1.006.031.373.77 1.012.77 1.012l.664.307.098-.104c.172.131.586.273.688.541.465.268 1.129.443 1.461.854.273.234.273.672.352 1.045.465.168.344.613.656.979.129.607-1.383 1.668-1.883 2.039-.648.334-1.152.805-1.758 1.248l-.168.438c-.777.164-1.277.875-1.918 1.246-.305.371-.813.334-1.18.602-.203-.066-.367-.301-.641-.23-.602.203-.57.844-1.008 1.209-.039.236-.273.34-.469.477-.18-.039-.344.104-.449.229-.363-.027-.734-.027-.973.236-.297.58-.875.711-1.414.945-.137.236-.438 0-.602.143-.305.094-.641.23-.953.295-.297.17-.668.209-.977.307-.297.17-.531.641-.938.602-.094.307-.508.279-.641.547-.367.164-.844.273-1.18.535-.305.1-.609.334-.906.334-.336.236-.672.471-1.078.504-.203.24-.305.58-.672.611-.578.035-.883.574-1.352.707-.406.201-.805.404-1.039.809-.305.066-.375.334-.57.471-.852 1.006-1.781 1.482-2.727 2.422-.266.17-.441.443-.672.641-.207.037-.176.273-.336.338-.375.203-.641.516-.977.68-.07.301-.441.301-.508.568-.371.24-.641.574-.844.939l-.066-.098c-.066.197-.25.322-.34.27a.794.794 0 0 0-.5.371c-.238.131-.641.301-.578.633-.234.309-.539.646-.906.646-.266.301-.641.508-.844.842-.773.234-1.273.684-1.844 1.191-.133.373-.613.51-.91.711-.27 0-.535.066-.707.301a.79.79 0 0 0-.699.367c-.605.131-1.098.705-1.699.568-.742.203-1.453-.201-1.922-.736-.07-.373-.172-.549-.441-.855-.238-.705-.168-1.477-.035-2.188-.203-.438.234-.848.035-1.246.066-.371 0-.744-.035-1.115-.203-.164 0-.568-.172-.811-.195-.295-.031-.73-.031-1.039-.203-.438.172-1.012-.234-1.377-.406-.176-.375-.607-.676-.842.035-.273-.27-.307-.23-.543-.172-.398-.445-.775-.445-1.213-.164-.607 0-1.248-.367-1.744.039-.209-.164-.379-.063-.547-.238-.973-.578-1.992-.742-2.998-.172-.365-.34-.738-.406-1.182-.367-.469-.578-1.109-.602-1.75-.473-.469-.711-1.109-.98-1.75-.168-.301-.102-.672-.301-.939-.07-.635-.203-1.148-.609-1.646.031-.24-.242-.24-.242-.471-.367-.617-.535-1.318-.797-1.957-.477-.678-.742-1.449-1.086-2.193-.711-.705-.266-1.816-.57-2.625-.305-.744 0-1.482-.07-2.258 0-.844-.031-1.756-.164-2.631-.172-.334-.035-.875-.477-1.072-.063-.443-.438-.814-.5-1.246-.203-.176-.102-.51-.242-.744-.195-.537.102-1.006.172-1.549.133-.234-.133-.535.133-.775.102-.137.203-.4.375-.502.367-.85.734-1.68 1.281-2.359.094-.201.266-.404.297-.672.914-1.279 2.43.061 3.445-.814.227-.066.438-.066.602-.295 1.613-.207 3.297 1.186 4.848 1.59.879.301 1.652 1.012 2.664.881.332-.104.707-.076.973-.279.945-.092 1.781.066 2.766.066.469.039.938-.301 1.414-.104l.102-.061c1.414.061 2.766.535 4.109.131.266-.033.57.072.805-.098 1.352.027 2.563-.641 3.906-.641.242.066.539.066.813.033.672.301 1.414.738 2.086.777.57-.105 1.211-.504 1.82-.203.438.098.875-.027 1.32-.104.5-.064.867.268 1.375.201l.102.105c.711.064 1.375-.23 2.082-.27.918-.037 1.754-.207 2.66-.41.749.029 1.233.133 1.975.336M33.034 110.489c.234-.404.133-.77.266-1.213.105-.301.305-.568.375-.908.266-.301.266-.771.57-1.072.035-.098-.027-.338.172-.307.07-.566.406-.906.641-1.416.031-.098-.039-.234.098-.234.133-.639.574-1.105.84-1.613l.102.037c.168-.311.27-.645.547-.852.195-.471.602-.771.602-1.281.141-.195.336-.359.301-.602-.262-.738.406-1.207.508-1.918v-.137c.27-.367.371-.805.605-1.176.133-.17.133-.438.297-.541.273-.543.617-.98.848-1.549.133-.031.105-.17.168-.234.203-.17.375-.443.438-.711.605-.607.676-1.547 1.313-2.123.234-.666.773-1.109 1.18-1.711.203-.203.344-.541.535-.711.141-.373.41-.674.676-1.012.273-1.006 1.316-1.783 1.754-2.762.234 0 .141-.34.34-.4.336-.645.906-1.148 1.133-1.863.211-.316.492-.389.66-.793.063-.039.215-.051.23-.209.203-.164.281-.201.449-.404.254-.059.191-.17.387-.23l.148-.086a.975.975 0 0 1 .086-.066h.008s.77-.355.902-.699c.574-.4.676-1.072 1.012-1.576.141-.443.508-.709.711-1.115.195-.404.453-.936.57-1.246a9.395 9.395 0 0 0-.156-.592c.484-.82.219-1.924-.086-2.805-.102-.674-.508-1.379-1.18-1.717-.469-.236-.484-.701-.922-.936-.039-.055.051-.115-.016-.137-.063-.055-.137-.066-.219-.1-.023-.021-.051-.043-.07-.076a.275.275 0 0 1-.133-.037c-.012-.012-.02-.023-.031-.033a.09.09 0 0 1-.055-.018c-.172-.125-.133-.398-.328-.523-.141-.57-.684-.908-.918-1.482-.176-.729-.762-1.449-1.512-1.777a2.13 2.13 0 0 0-.859-.252c-.516-.059-1.016-.449-1.547-.465-.047-.012-.086-.016-.117-.027l-.023-.043c-.609-.17-.945-.066-1.555-.17-.305.131-.672 0-1.008.064-.133.137-.398-.064-.473.137l-.035-.031c-.34.168-.637.104-.977.201-.336.137-.672.066-.938.334-1.18.17-2.328.641-3.344 1.111-.438 0-.832.24-1.234.408-.105.066-.105.27-.273.133-1.184.678-2.523 1.012-3.574 1.951-.367.066-.637.273-.98.34-.5.334-1.008.699-1.508 1.045-.234.064-.309.367-.508.404-.164.432-.602.666-.977.908-.203.465-.742.301-1.043.605-.746.273-1.281.91-2.09 1.078-1.719 1.246-3.672 2.117-5.32 3.5-.172.07-.07.307-.273.268-.563.701-1.176 1.461-1.867 2.084a55.314 55.314 0 0 1-2.039 1.492c-.328.199-.742.428-1.148.428-.305.088-.516.35-.75.553-.559.168-.484.496-.945.76-.375.568-.93 1.104-1.313 1.576.047.207.258.436.105.715.035.711.184.908.246 1.613a.56.56 0 0 0-.133.543c.273.164-.039.639.297.803.102.711.523 1.115.555 1.854.277.508.242 1.109.648 1.516 1.008 1.416 1.258 3.051 2.375 4.369.297.365.266.803.266 1.279l.203 1.246c.539 1.156 1.164 2.123 1.688 3.199.133.416.258.844.406 1.27.195 1.078.328 2.09.734 3.096-.168.174-.098.471-.031.678-.066.432.199.875.199 1.313.035.133.238.203.129.367-.465 1.859.344 3.504 1.461 4.916.367.781 0 1.684.164 2.461-.164.848.266 1.4.438 2.209.453.453 1.258.137 1.781.525a.536.536 0 0 1 .25.197h.09-.035a.402.402 0 0 1 .078.076c.328.131 1.012.355 1.297.088.422-.033.773.098 1.234-.055.555.623 1.43.25 2.164.328 0 0 .93-.461.953-.461.063-.338.578-.383.773-.611-.031-.404.504-.34.578-.711.188-.307.266-.1.359-.252.164-.273.273-.252.508-.486-.012-.174.055-.307.129-.428.223-.164.473-.311.504-.514.203-.334.273-.738.539-1.039-.035-.371.234-.607.375-.945.102-.1.031-.307.203-.404.094-.301.367-.57.297-.914.039-.027.07-.027.102-.027l.273-.705c.168-.641.406-1.285.531-1.822.241-.17.139-.504.139-.713M112.183 27.446V.19c-.512-.047-.891-.221-1.406-.186-.848.104-1.148.236-1.828.547-.602-.039-.602.336-1.141.168-.301-.131-.813.225-1.078.061a3.851 3.851 0 0 0-1.75.303c-.242.1-.438.234-.609.299-.234.064-.539.104-.738.238-.605.205-.438.943-1.043 1.047-.977.373-1.852.875-2.695 1.543-.742.271-1.289 1.053-1.82 1.48-1.113 1.018-2.563 1.248-3.672 2.229-.57.195-1.07.605-1.516.945-.266.063-.438.301-.672.402-.207.271-.512.367-.676.637-.574.273-1.176.475-1.684.84-.707.543-1.516.777-2.227 1.184a6.593 6.593 0 0 1-2.523 1.18c-.402.131-.773.469-1.18.508-.633.264-1.242.703-1.75 1.172-.57.711-1.313 1.482-1.922 2.16-.539.203-1.008.57-1.484.908-.266.1-.504.307-.734.404-.41.471-1.047.574-1.445 1.008-.305-.027-.477.338-.781.305-.469.133-.844.334-1.242.543-.609.469-1.414.568-2.125.672-.438 0-.875.307-1.281.137-.438.34-1.043.027-1.477.398a6.242 6.242 0 0 1-.945.504c-.641.34-1.109.711-1.688 1.045-1.281.338-2.523.814-3.906.887-.664.043-.656-.139-1.18-.045-.23-.131-.664-.076-.828.027l-.004.006c-.707-.066-.707.514-1.313.689-1.012.195-1.793 1.18-2.738 1.656-.602.574-1.535.477-2.172.979-.816.236-1.969.811-2.125.811-.383-.148-.906.398-1.313.398-.203.137-.516.531-.723.629-.168-.137-.301.1-.465.039-.309.195-.773.18-.977.52-.508.398-.898.148-.797.787-.277.201-.141.568-.203.766.539.502.5 1.24 1.109 1.613 0 .273.297.234.438.365.57.033.836.543 1.379.574.238.273.711.209.91.574.203.27.477.625.742.789.609-.094.906.164 1.375.404.141.131.375.033.516.234.297-.033.594.209.922.104.238.445.781.422.949.898.301 0 .379.359.613.523.266-.031.313.203.516.373.516.502.969.717 1.07 1.322.102.301.281.41.313.744-.137.23.449.438.383.607.066.367.41.705.348 1.078.105.295-.043.633.129.939.375.486-.203.744.008 1.111.027.174-.164.016-.078.301.375.547.051 1.148.289 1.717l-.293 1.104c-.363.328-.262.652-.668.953-.219.492-1.086.842-1.016 1.316.094.504-.188.838.086 1.176.566.137.258.744.695 1.012.711.301 2.602 1.248 3.438 1.281.238-.203.445.104.711.031.203.41.57.039.906.105l.074-.105c.469-.031.973-.164 1.48-.098.578.17 1.242 0 1.68-.137l.406-.066a6.832 6.832 0 0 0 1.719-.906c.27.027.375-.209.57-.34.438-.137.875-.404 1.348-.471.34-.207.676-.502 1.082-.475.297-.203.707-.133 1.043-.297 1.414-.809 2.355-2.16 4.043-2.328 1.281-.672 2.523-.908 3.805-1.586.07.064.266 0 .305.104.703-.307 1.445-.705 2.25-.744 1.383-.504 2.43-1.48 3.84-1.914.543-.104.949-.477 1.387-.781.703-.629 1.789-.543 2.555-1.066l.242-.045c1.035-.438 2.184-.936 2.961-1.92.5-.262.977-.535 1.48-.869.441-.678 1.285-.945 1.953-1.416l.676-.781c.301-.066.508-.361.742-.531.57-.273 1.047-.711 1.613-1.115.469-.061.809-.602 1.18-.811.27-.201.645-.201.809-.502.168-.438.707-.268.977-.607.539-.098.844-.602 1.32-.777l1.508-.77c.914-.914 2.227-.516 2.938-1.658.82-.607 1.082-1.236 2.016-1.689m-77.19 92.227.578.201c1.008.143 2.289-.592 3.219-.723.328.236.875.313 1.23.279.676.131 1.199-.24 1.855.006.586-.033 1.25-.197 1.75.137.539-.055 1.184.58 1.75.592 2.438-.072 4.477-1.451 6.797-.477 2.152.01 3.945 1.563 6.102 1.58.035.137.352 0 .316.164 1.148.088 2.41.082 3.488.617 2.16.307 4.234 1.346 6.391 1.771.781.252 1.586.043 2.375-.051 1.383-.355 2.719.549 4.117.379l.328.131c1.684.154 3.438.109 5.266-.361.859 0 1.66.635 2.57.541 1.059-.584 2.359.412 3.574.258l1.441.689c.445.131.93.148 1.359.092.945.049 1.883 1.045 2.922.914.656.24 2.395.666 3.016.662.508-.078.988.191 1.43-.098.543-.465 1.117.146 1.719-.115.77.252 1.539.58 2.273.693l2.539.051c1.848-.57 3.266 1.426 5.023.402 1.512-.229 3.016-.699 3.863-.602l.004-16.404c-.055-.016-.258-.17-.258-.17-.105-.037-.25-.059-.359-.082-.57-.207-.773-.322-1.344-.355-.234-.135-.539-.201-.813-.234-.586-.313-1.18-.389-1.75-.66-.055-.039-.117-.063-.176-.105-.266-.098-.309-.438-.605-.504-.004 0-.016-.01-.016-.01-.301-.264-.695-.404-.922-.668a.338.338 0 0 1-.094-.021.166.166 0 0 1-.07-.055 1.389 1.389 0 0 1-.484-.143c-.289-.143-.531-.344-.773-.52-.023.006-.043 0-.063 0a.504.504 0 0 0-.094-.076.427.427 0 0 1-.18-.021.69.69 0 0 1-.133-.104c-.039-.006-.066-.023-.105-.027-.02-.018-.043-.039-.059-.051a.802.802 0 0 1-.133-.037c-.188-.104-.336-.252-.539-.322a.635.635 0 0 0-.215-.094 4.49 4.49 0 0 0-.816-.492c-.445-.219-.93-.389-1.371-.596-.02-.137-.137-.197-.262-.24a1.033 1.033 0 0 0-.25-.109c-.031-.143-.125-.197-.246-.23-.113-.098-.293-.098-.465-.125-.047-.197-.234-.182-.328-.371-.039-.008-.086-.029-.133-.045-.004-.012-.016-.018-.016-.027-.234-.061-.465-.186-.672-.264-1.461-1.125-2.992-2.133-4.297-3.531-.602-.607-1.109-1.391-1.684-1.992-.438-.574-1.109-.842-1.52-1.383-.375-.17-.734-.404-.906-.805a.397.397 0 0 1-.141-.043c0-.012-.008-.021-.016-.039a.882.882 0 0 1-.07-.016c-.164-.115-.297-.305-.492-.355a.41.41 0 0 0-.148-.076c-.07-.137-.125-.291-.281-.295a.212.212 0 0 0-.148-.082.223.223 0 0 0-.18-.105.231.231 0 0 0-.09-.059c-.168-.143-.301-.367-.52-.434a.456.456 0 0 0-.172-.076c-.309-.191-.523-.502-.867-.639l-.199-.082c-.363-.313-.84-.51-1.254-.805h-.031a1.362 1.362 0 0 1-.129-.07 1.04 1.04 0 0 1-.559-.094 3.754 3.754 0 0 1-.5-.34c-.035-.01-.07-.027-.113-.037-.012-.018-.027-.021-.047-.037-1.203-.473-2.285-.707-3.465-1.238a.627.627 0 0 0-.211-.074c-.016-.012-.023-.018-.035-.023l.035-.039c-.035-.064-.063-.131-.098-.164-.055-.016-.105-.043-.152-.064-.008 0-.008-.012-.012-.012-.012-.006-.027-.016-.043-.021-.363-.203-.621-.563-.945-.842-.031-.006-.063-.018-.094-.021-.023-.023-.031-.039-.055-.055-.039-.006-.07-.018-.105-.027-.18-.125-.289-.352-.484-.471-.285-.131-.355-.432-.621-.492a.22.22 0 0 0-.078-.049c-.555-.635-.797-1.357-1.453-1.887-.102-.033-.039-.236-.203-.236.035-.197-.094-.334-.273-.41.078-.234-.336-.197-.297-.465-.125-.152-.258-.328-.453-.381a.281.281 0 0 0-.09-.057c-.754-.771-1.293-1.559-2.152-2.121-.328-.191-.656-.514-1.023-.668a1.457 1.457 0 0 0-.418-.152c-.008 0-.016-.006-.027-.006-.078-.061-.133-.137-.117-.252-.078-.055-.094.033-.109.109a.255.255 0 0 1-.047-.186c-.102-.066-.102.098-.133.17a.622.622 0 0 1-.234-.072c-.289-.158-.508-.414-.809-.529-.043-.021-.074-.045-.113-.055-.016-.012-.023-.012-.031-.018-.031-.01-.063-.027-.094-.031-.039-.061-.109-.051-.164-.033l-.141-.045c0-.01-.008-.016-.008-.031l-.586-.191a.745.745 0 0 0-.289-.182c-.188-.109-.422-.146-.625-.234a2.907 2.907 0 0 0-.617-.35c-.227-.121-.457-.203-.672-.291-.5 0-.922-.289-1.359-.436-.156-.121-.305-.297-.488-.352-.105-.066-.941.098-1.066.131-.902.285-.859.373-1.594.951-.109.105-.316-.01-.316.182-.273.246-.273.213-.801.295-.078.049-.16.158-.23.143-.098-.066-.195.234-.301.207-.109-.07-.23.061-.375.127-.406.234-.574.678-1.012.852-.199.09-.375.4-.574.537-.402.771-1.219 1.24-1.758 1.881-.258.543-1.004.744-1.137 1.416-.168-.037-.207.164-.332.203-.07.201-.273.229-.34.471-.578.438-1.152.906-1.551 1.48-.609.811-1.215 1.555-1.754 2.457-.066.07-.027.273-.199.305-1.148 1.758-2.188 3.637-3.539 5.355l-.639.912c-.102.1-.063.301-.234.334-.102.334-.336.574-.539.809-.102.438-.438.777-.641 1.117-.133.496-.398.875-.609 1.307-.473 1.246-1.207 2.26-1.746 3.473-.238.541-.543 1.045-.684 1.646-.266.541-.188 1.279-.563 1.754-.539.674-.945 1.313-1.418 2.02-.066.24-.402.305-.371.568-.637.574-1.078 1.279-1.551 1.957.074.334-.301.504-.301.777-.301.268-.539.672-.906.979.031.197-.203.268-.242.438-.539 1.482-1.547 2.723-2.285 4.135" style="fill:#007839"/><path d="M279.065 94.106c-2.352 0-4.758 1.848-7.281 6.266h-.109v-5.764h-4.984v25.146h4.984v-13.158c0-4.314 2.688-7.732 6.102-7.732 1.051 0 2.727.803 4.148 2.012l2.637-4.309c-1.879-1.658-3.641-2.461-5.497-2.461M574.976 97.868h.109c1.902-2.406 4.703-3.807 7.504-3.807 4.762 0 8.57 3.248 8.57 10.137v15.514h-4.984v-15.57c0-3.695-1.902-6.104-4.93-6.104-2.188 0-3.918 1.01-6.27 3.639v18.035h-4.988V94.565h4.988m-10.699 17.864c-2.914 1.906-5.766 3.025-8.789 3.025-4.82 0-7.676-2.576-8.457-7.559h17.699c0-9.297-4.258-13.834-10.922-13.834-6.945 0-11.766 5.152-11.766 12.768 0 6.945 4.367 13.385 12.211 13.385 4.258 0 7-.951 10.023-2.967m-17.135-12.658c.672-3.975 2.969-6.215 6.777-6.215 3.531 0 5.711 2.406 5.883 6.215h-12.66zm-14.895 15.123h4.984V81.517h-4.984v38.195zm-11.703 0h4.984V81.517h-4.984v38.195zm-3.977-4.481c-1.125.84-2.129 1.344-2.633 1.344-.617 0-.953-.338-.953-1.289V102.35c0-5.713-4.031-8.289-9.125-8.289-3.641 0-6.391 1.119-8.344 3.416v5.434c2.406-2.857 5.203-4.146 7.949-4.146 3.027 0 4.535 1.289 4.535 4.424v1.348l-4.426 1.566c-4.027 1.457-8.566 2.969-8.566 7.951 0 3.248 2.461 6.16 6.16 6.16 2.297 0 4.594-.84 6.777-2.576.445 1.793 1.625 2.576 3.813 2.576 1.563 0 2.516-.449 4.813-1.961m-8.57-3.639c-1.344 1.287-2.801 2.072-4.367 2.072-2.07 0-3.586-1.455-3.586-3.527 0-2.971 3.695-4.424 7.953-5.881v7.336zm-18.48 2.463c-5.098 2.242-9.238 3.137-14.559 3.137-11.707 0-20.332-8.176-20.332-19.377 0-11.256 8.848-19.824 20.496-19.824 4.484 0 7.617.729 13.613 3.25v5.543c-4.48-2.465-9.129-3.752-13.723-3.752-8.289 0-14.727 6.326-14.727 14.615 0 8.514 6.383 14.506 15.453 14.506 2.973 0 5.656-.674 8.293-1.514v-7.838h-7.34v-4.932h12.824m-40.487 15.962a3.37 3.37 0 0 1-3.359 3.361 3.367 3.367 0 0 1-3.359-3.361 3.366 3.366 0 0 1 3.359-3.357 3.367 3.367 0 0 1 3.359 3.357m-19.039-22.288h7.953v4.482h-7.953v12.879c0 2.969 2.125 3.809 3.582 3.809 1.793 0 3.645-.617 5.66-1.848v4.646c-1.738.951-4.422 1.68-6.047 1.68-5.438 0-8.18-3.361-8.18-7.896v-13.27h-4.367v-.563l9.352-9.129m-12.656.562c-3.246-3.078-6.383-3.977-8.961-3.977-3.527 0-6.047 1.85-6.047 4.537 0 7.336 16.52 7.225 16.52 19.375 0 5.994-4.535 10.361-10.699 10.361-4.141 0-7.5-1.119-10.695-3.527v-6.945c2.801 3.584 6.328 5.545 10.086 5.545 4.254 0 6.211-2.688 6.211-4.814 0-7.896-16.523-8.795-16.523-19.268 0-6.215 4.594-10.191 11.594-10.191 2.918 0 5.828.895 8.516 2.688M370.12 94.565h7.953v4.482h-7.953v12.879c0 2.969 2.133 3.809 3.586 3.809 1.789 0 3.641-.617 5.656-1.848v4.646c-1.738.951-4.422 1.68-6.047 1.68-5.438 0-8.18-3.361-8.18-7.896v-13.27h-4.367v-.563l9.352-9.129m-9.969 25.876c-1.117.84-2.125 1.344-2.629 1.344-.617 0-.949-.338-.949-1.289V102.35c0-5.713-4.035-8.289-9.133-8.289-3.641 0-6.383 1.119-8.344 3.416v5.434c2.406-2.857 5.207-4.146 7.953-4.146 3.023 0 4.539 1.289 4.539 4.424v1.348l-4.426 1.566c-4.035 1.457-8.57 2.969-8.57 7.951 0 3.248 2.465 6.16 6.16 6.16 2.297 0 4.594-.84 6.773-2.576.453 1.793 1.625 2.576 3.813 2.576 1.566 0 2.516-.449 4.813-1.961m-6.945-33.713c-1.453 0-2.629 1.121-2.629 2.576a2.629 2.629 0 0 0 2.629 2.635c1.461 0 2.578-1.176 2.578-2.635 0-1.455-1.117-2.576-2.578-2.576zm-10.41 0c-1.457 0-2.637 1.121-2.637 2.576a2.633 2.633 0 0 0 2.637 2.635c1.457 0 2.574-1.176 2.574-2.635 0-1.455-1.117-2.576-2.574-2.576zm8.793 30.074c-1.344 1.287-2.805 2.072-4.367 2.072-2.074 0-3.59-1.455-3.59-3.527 0-2.971 3.699-4.424 7.957-5.881v7.336zM326.44 94.565h7.953v4.482h-7.953v12.879c0 2.969 2.133 3.809 3.586 3.809 1.789 0 3.641-.617 5.656-1.848v4.646c-1.734.951-4.426 1.68-6.051 1.68-5.43 0-8.176-3.361-8.176-7.896v-13.27h-4.367v-.563l9.352-9.129m-16.015.562a2.986 2.986 0 0 1-2.969-2.967 2.988 2.988 0 0 1 2.969-2.969 2.988 2.988 0 0 1 2.969 2.969 2.986 2.986 0 0 1-2.969 2.967m2.461 29.795h-4.98V94.565h4.98v25.147zm-11.758-18.65c-2.797-1.848-5.43-2.633-7.277-2.633-2.02 0-3.309.951-3.309 2.297 0 1.121 1.684 2.463 6.109 5.039 4.141 2.746 5.652 4.482 5.652 7.057 0 4.426-3.527 7.393-8.285 7.393-3.086 0-5.492-.615-8.738-2.295v-5.379c3.246 2.242 6.215 3.307 8.23 3.307 2.016-.111 3.695-1.064 3.695-2.857 0-3.473-11.758-5.318-11.758-12.098 0-4.254 3.25-6.83 8.289-6.83 2.352 0 4.762.67 7.391 2.072m-41.046 16.294c-2.914 1.906-5.77 3.025-8.797 3.025-4.813 0-7.672-2.576-8.453-7.559h17.695c0-9.297-4.254-13.834-10.922-13.834-6.941 0-11.758 5.152-11.758 12.768 0 6.945 4.367 13.385 12.211 13.385 4.254 0 7-.951 10.023-2.967m-17.14-12.658c.672-3.975 2.969-6.215 6.777-6.215 3.527 0 5.715 2.406 5.879 6.215H242.94zm-30.351-10.024h5.434l6.777 15.457 6.609-15.457h5.32l-11.094 25.648h-1.68m-17.358-30.296a2.986 2.986 0 0 1-2.969-2.967 2.988 2.988 0 0 1 2.969-2.969 2.988 2.988 0 0 1 2.969 2.969 2.986 2.986 0 0 1-2.969 2.967m2.468 29.795h-4.988V94.565h4.988v25.147zm-27.668-21.844h.113c1.902-2.406 4.703-3.807 7.5-3.807 4.762 0 8.57 3.248 8.57 10.137v15.514h-4.984v-15.57c0-3.695-1.906-6.104-4.93-6.104-2.18 0-3.918 1.01-6.27 3.639v18.035h-4.984V94.565h4.984m-10.92 10.135c0 9.354-5.598 15.514-16.965 15.514-8.07 0-15.906-4.537-15.906-14.951V81.517h5.484v22.57c0 4.313.563 6.102 2.297 7.84 2.188 2.184 4.93 3.248 8.234 3.248 4.199 0 7.227-1.346 8.961-3.08 1.961-1.961 2.406-4.76 2.406-8.344V81.517h5.488"/></svg>
