<?xml version="1.0" encoding="UTF-8" standalone="yes"?>
<svg width="160" height="160" viewBox="0 0 160 160" fill="none" version="1.2" baseProfile="tiny-ps" xmlns="http://www.w3.org/2000/svg">
  <title>bimi-svg-tiny-12-ps</title>
  <rect width="160" height="160" fill="#252525"/>
  <path d="M105.605 109.144H54.27V119.967H105.605V109.144Z" fill="white"/>
  <path d="M104.317 56.7173C102.365 46.5676 94.2451 40.0869 80.1917 40.0869C65.7474 40.0869 55.9097 47.192 55.9488 58.2791C55.9097 67.0233 61.2972 72.8012 72.8133 75.1823L83.0415 77.3293C88.5456 78.5395 91.1221 80.7648 91.1221 84.1611C91.1221 88.2602 86.6719 91.3441 79.9571 91.3441C73.4769 91.3441 69.2608 88.5335 68.0507 83.1459L54.27 84.4736C56.0272 95.4823 65.2788 102.002 79.9963 102.002C94.9871 102.002 105.566 94.233 105.606 82.8731C105.566 74.3233 100.062 69.0924 88.741 66.633L78.5129 64.4468C72.423 63.0805 70.0027 60.9726 70.0414 57.498C70.0027 53.4381 74.4921 50.6275 80.3866 50.6275C86.906 50.6275 90.3414 54.18 91.4345 58.1229L104.317 56.7173Z" fill="white"/>
</svg>